<?xml version="1.0" encoding="UTF-8"?>
<!DOCTYPE svg PUBLIC "-//W3C//DTD SVG 1.1//EN" "http://www.w3.org/Graphics/SVG/1.1/DTD/svg11.dtd">
<!-- Creator: CorelDRAW 2021 (64-Bit) -->
<svg xmlns="http://www.w3.org/2000/svg" xml:space="preserve" width="169.712mm" height="98.9258mm" version="1.1" style="shape-rendering:geometricPrecision; text-rendering:geometricPrecision; image-rendering:optimizeQuality; fill-rule:evenodd; clip-rule:evenodd"
viewBox="0 0 16971.18 9892.57"
 xmlns:xlink="http://www.w3.org/1999/xlink"
 xmlns:xodm="http://www.corel.com/coreldraw/odm/2003">
 <defs>
  <style type="text/css">
   <![CDATA[
    .str0 {stroke:red;stroke-width:50;stroke-linecap:round;stroke-linejoin:round;stroke-miterlimit:22.9256}
    .fil0 {fill:none}
    .fil1 {fill:#2B2A29;fill-rule:nonzero}
   ]]>
  </style>
 </defs>
 <g id="Layer_x0020_1">
  <metadata id="CorelCorpID_0Corel-Layer"/>
  <polyline class="fil0 str0" points="6776.38,9674.22 25,9674.22 25,1962.11 6983.31,1962.11 "/>
  <polyline class="fil0 str0" points="10194.81,9674.22 16946.18,9674.22 16946.18,1962.11 9979.96,1962.11 "/>
  <ellipse class="fil0 str0" cx="6991.23" cy="9674.22" rx="214.84" ry="193.35"/>
  <ellipse class="fil0 str0" cx="9979.96" cy="9674.22" rx="214.84" ry="193.35"/>
  <line class="fil0 str0" x1="7149.83" y1="9543.81" x2="8506.72" y2= "8428.1" />
  <polygon class="fil0 str0" points="8958.49,8052.17 8842.07,8370.9 8725.65,8689.63 8507.84,8429.45 8290.02,8169.26 8624.25,8110.72 "/>
  <path class="fil0 str0" d="M6983.31 1962.11c-252.18,-199.26 -413.67,-505.79 -413.67,-849.53 0,-600.65 493.13,-1087.58 1101.47,-1087.58 608.34,0 1101.47,486.93 1101.47,1087.58 0,301.99 -124.71,575.26 -325.98,772.32"/>
  <path class="fil0 str0" d="M8446.59 1884.89c-182.54,-194.07 -294.17,-454.13 -294.17,-739.92 0,-600.65 493.13,-1087.58 1101.47,-1087.58 608.34,0 1101.47,486.93 1101.47,1087.58 0,325.61 -144.94,617.86 -374.55,817.14"/>
  <path class="fil1" d="M3844.06 4153.83l-154.34 0c-74.96,0 -132.29,57.32 -132.29,132.29 0,74.96 57.33,132.29 132.29,132.29l149.93 0c57.33,4.41 110.25,8.82 167.57,17.64 141.11,22.05 273.4,61.74 392.47,123.47 119.06,61.74 224.89,149.93 308.68,255.77 92.6,119.06 158.75,260.17 198.44,410.1 39.68,154.34 57.32,317.5 57.32,480.66l0 8.82c0,167.57 -17.64,330.73 -61.73,485.07 -44.1,158.75 -114.66,308.68 -216.08,427.74 -132.29,158.75 -299.86,251.35 -445.38,299.86 -83.79,26.46 -171.98,44.1 -260.18,48.51l-114.65 0 -207.26 0c-74.96,0 -132.29,57.32 -132.29,132.29 0,74.97 57.33,132.29 132.29,132.29l198.44 0 136.7 0c110.25,-4.41 220.49,-26.46 326.32,-61.73 189.62,-61.74 401.29,-180.8 568.86,-383.65 127.88,-154.34 211.66,-339.55 264.58,-529.17 48.51,-185.2 66.15,-374.82 66.15,-560.03l0 -8.82c0,-180.8 -17.64,-366.01 -66.15,-546.81 -48.51,-180.79 -127.88,-357.18 -246.94,-507.11 -105.84,-136.7 -242.54,-246.95 -392.47,-326.32 -149.93,-79.38 -313.09,-127.88 -476.25,-154.34 -66.15,-8.82 -136.7,-13.23 -202.85,-17.64l8.82 8.82zm-692.32 123.47l0 2822.22c0,74.97 57.32,132.29 132.29,132.29 74.96,0 132.29,-57.32 132.29,-132.29l0 -2822.22c0,-74.97 -57.33,-132.29 -132.29,-132.29 -74.97,0 -132.29,57.32 -132.29,132.29zm2923.64 2081.39l0 -2072.57c0,-74.97 -57.32,-132.29 -132.29,-132.29 -74.96,0 -132.29,57.32 -132.29,132.29l0 2072.57c0,74.96 57.33,132.29 132.29,132.29 74.97,0 132.29,-57.33 132.29,-132.29zm339.55 502.71c-83.78,-39.69 -158.75,-92.61 -216.08,-154.34 -48.5,-52.92 -132.29,-57.33 -185.2,-8.82 -52.92,48.5 -57.33,132.29 -8.82,185.2 88.19,92.61 189.61,163.16 295.45,216.08 185.21,88.19 414.51,141.11 687.91,141.11 343.96,0 568.86,-79.37 692.33,-141.11 105.83,-52.92 207.26,-123.47 295.45,-216.08 48.51,-52.91 44.1,-136.7 -8.82,-185.2 -52.91,-48.51 -136.7,-44.1 -185.21,8.82 -57.32,61.73 -132.29,114.65 -216.07,154.34 -101.43,48.5 -286.63,114.65 -577.68,114.65 -141.11,0 -366,-13.23 -568.85,-110.24l-4.41 -4.41zm1499.31 -2570.87l0 2072.57c0,74.96 57.32,132.29 132.29,132.29 74.96,0 132.29,-57.33 132.29,-132.29l0 -2072.57c0,-74.97 -57.33,-132.29 -132.29,-132.29 -74.97,0 -132.29,57.32 -132.29,132.29zm1803.57 1768.3l1208.27 1146.52c52.91,48.51 136.7,48.51 185.21,-4.41 48.5,-52.91 48.5,-136.7 -4.41,-185.2l-1208.27 -1146.53c-52.91,-48.51 -136.7,-48.51 -185.21,4.41 -48.5,52.92 -48.5,136.7 4.41,185.21zm-811.38 -1772.71l0 2822.22c0,74.97 57.32,132.29 132.29,132.29 74.96,0 132.29,-57.32 132.29,-132.29l0 -2822.22c0,-74.97 -57.33,-132.29 -132.29,-132.29 -74.97,0 -132.29,57.32 -132.29,132.29zm1270 -132.29l-696.74 0c-74.97,0 -132.29,57.32 -132.29,132.29 0,74.96 57.32,132.29 132.29,132.29l696.74 0c423.33,0 560.03,229.31 560.03,537.99 0,273.4 -110.24,524.75 -551.22,524.75l-679.09 0c-74.97,0 -132.29,57.33 -132.29,132.29 0,74.97 57.32,132.3 132.29,132.3l679.09 0c480.66,0 815.8,-255.77 815.8,-784.93 0,-533.58 -330.73,-802.57 -824.61,-802.57l0 -4.41zm2985.38 1825.62l-705.56 0c-74.96,0 -132.29,57.33 -132.29,132.29 0,74.97 57.33,132.29 132.29,132.29l705.56 0c74.96,0 132.29,-57.32 132.29,-132.29 0,-74.96 -57.33,-132.29 -132.29,-132.29zm-701.15 -1208.26l-978.96 2284.23c-30.86,66.15 0,145.52 66.15,176.39 66.15,30.87 145.52,0 176.39,-66.14l978.96 -2284.24c30.86,-66.14 0,-145.52 -66.15,-176.39 -66.14,-30.87 -145.52,0 -176.39,66.15zm1684.52 2284.23l-1208.27 -2822.22c-30.87,-66.14 -110.24,-97.01 -176.39,-66.14 -66.14,30.86 -97.01,110.24 -66.14,176.39l1208.26 2822.22c30.87,66.14 110.24,97.01 176.39,66.14 66.15,-30.87 97.01,-110.24 66.15,-176.39z"/>
 </g>
</svg>
