<?xml version="1.0" encoding="UTF-8"?>
<!DOCTYPE svg PUBLIC "-//W3C//DTD SVG 1.1//EN" "http://www.w3.org/Graphics/SVG/1.1/DTD/svg11.dtd">
<!-- Creator: CorelDRAW 2021 (64-Bit) -->
<svg xmlns="http://www.w3.org/2000/svg" xml:space="preserve" width="169.712mm" height="98.9258mm" version="1.1" style="shape-rendering:geometricPrecision; text-rendering:geometricPrecision; image-rendering:optimizeQuality; fill-rule:evenodd; clip-rule:evenodd"
viewBox="0 0 16971.18 9892.57"
 xmlns:xlink="http://www.w3.org/1999/xlink"
 xmlns:xodm="http://www.corel.com/coreldraw/odm/2003">
 <defs>
  <style type="text/css">
   <![CDATA[
    .str0 {stroke:red;stroke-width:50;stroke-linecap:round;stroke-linejoin:round;stroke-miterlimit:22.9256}
    .fil0 {fill:none}
    .fil1 {fill:#2B2A29;fill-rule:nonzero}
   ]]>
  </style>
 </defs>
 <g id="Layer_x0020_1">
  <metadata id="CorelCorpID_0Corel-Layer"/>
  <polyline class="fil0 str0" points="6776.38,9674.22 25,9674.22 25,1962.11 6983.31,1962.11 "/>
  <polyline class="fil0 str0" points="10194.81,9674.22 16946.18,9674.22 16946.18,1962.11 9979.96,1962.11 "/>
  <ellipse class="fil0 str0" cx="6991.23" cy="9674.22" rx="214.84" ry="193.35"/>
  <ellipse class="fil0 str0" cx="9979.96" cy="9674.22" rx="214.84" ry="193.35"/>
  <line class="fil0 str0" x1="7149.83" y1="9543.81" x2="8506.72" y2= "8428.1" />
  <polygon class="fil0 str0" points="8958.49,8052.17 8842.07,8370.9 8725.65,8689.63 8507.84,8429.45 8290.02,8169.26 8624.25,8110.72 "/>
  <path class="fil0 str0" d="M6983.31 1962.11c-252.18,-199.26 -413.67,-505.79 -413.67,-849.53 0,-600.65 493.13,-1087.58 1101.47,-1087.58 608.34,0 1101.47,486.93 1101.47,1087.58 0,301.99 -124.71,575.26 -325.98,772.32"/>
  <path class="fil0 str0" d="M8446.59 1884.89c-182.54,-194.07 -294.17,-454.13 -294.17,-739.92 0,-600.65 493.13,-1087.58 1101.47,-1087.58 608.34,0 1101.47,486.93 1101.47,1087.58 0,325.61 -144.94,617.86 -374.55,817.14"/>
  <path class="fil1" d="M5443.3 7189.2l1327.33 0c74.96,0 132.29,-57.32 132.29,-132.29 0,-74.97 -57.33,-132.29 -132.29,-132.29l-1327.33 0c-74.97,0 -132.29,57.32 -132.29,132.29 0,74.97 57.32,132.29 132.29,132.29zm-573.26 -2954.51l0 2822.22c0,74.97 57.32,132.29 132.29,132.29 74.96,0 132.29,-57.32 132.29,-132.29l0 -2822.22c0,-74.97 -57.33,-132.29 -132.29,-132.29 -74.97,0 -132.29,57.32 -132.29,132.29zm2972.14 1437.57l1137.71 0c74.97,0 132.29,-57.33 132.29,-132.29 0,-74.97 -57.32,-132.3 -132.29,-132.3l-1137.71 0c-74.96,0 -132.29,57.33 -132.29,132.3 0,74.96 57.33,132.29 132.29,132.29zm-8.82 1516.94l1411.11 0c74.97,0 132.3,-57.32 132.3,-132.29 0,-74.97 -57.33,-132.29 -132.3,-132.29l-1411.11 0c-74.96,0 -132.29,57.32 -132.29,132.29 0,74.97 57.33,132.29 132.29,132.29zm-502.7 -2954.51l0 2822.22c0,74.97 57.32,132.29 132.29,132.29 74.96,0 132.29,-57.32 132.29,-132.29l0 -2822.22c0,-74.97 -57.33,-132.29 -132.29,-132.29 -74.97,0 -132.29,57.32 -132.29,132.29zm1909.4 -132.29l-1397.88 0c-74.96,0 -132.29,57.32 -132.29,132.29 0,74.96 57.33,132.29 132.29,132.29l1397.88 0c74.97,0 132.3,-57.33 132.3,-132.29 0,-74.97 -57.33,-132.29 -132.3,-132.29zm1472.85 0l-154.34 0c-74.96,0 -132.29,57.32 -132.29,132.29 0,74.96 57.33,132.29 132.29,132.29l149.93 0c57.33,4.41 110.25,8.82 167.57,17.64 141.11,22.05 273.4,61.74 392.47,123.47 119.06,61.74 224.89,149.93 308.68,255.77 92.6,119.06 158.75,260.17 198.44,410.1 39.68,154.34 57.32,317.5 57.32,480.66l0 8.82c0,167.57 -17.64,330.73 -61.73,485.07 -44.1,158.75 -114.66,308.68 -216.08,427.74 -132.29,158.75 -299.86,251.35 -445.38,299.86 -83.79,26.46 -171.98,44.1 -260.18,48.51l-114.65 0 -207.26 0c-74.96,0 -132.29,57.32 -132.29,132.29 0,74.97 57.33,132.29 132.29,132.29l198.44 0 136.7 0c110.25,-4.41 220.49,-26.46 326.32,-61.73 189.62,-61.74 401.29,-180.8 568.86,-383.65 127.88,-154.34 211.66,-339.55 264.58,-529.17 48.51,-185.2 66.15,-374.82 66.15,-560.03l0 -8.82c0,-180.8 -17.64,-366.01 -66.15,-546.81 -48.51,-180.79 -127.88,-357.18 -246.94,-507.11 -105.84,-136.7 -242.54,-246.95 -392.47,-326.32 -149.93,-79.38 -313.09,-127.88 -476.25,-154.34 -66.15,-8.82 -136.7,-13.23 -202.85,-17.64l8.82 8.82zm-692.32 123.47l0 2822.22c0,74.97 57.32,132.29 132.29,132.29 74.96,0 132.29,-57.32 132.29,-132.29l0 -2822.22c0,-74.97 -57.33,-132.29 -132.29,-132.29 -74.97,0 -132.29,57.32 -132.29,132.29z"/>
 </g>
</svg>
