<svg xmlns="http://www.w3.org/2000/svg" width="1400" height="400"><path d="M645,166L720,-36L583,71Z" fill="rgb(255,189,143)" stroke="rgb(255,189,143)" stroke-width="1.51"/><path d="M720,-36L594,8L583,71Z" fill="rgb(255,170,115)" stroke="rgb(255,170,115)" stroke-width="1.51"/><path d="M645,166L803,-13L720,-36Z" fill="rgb(255,181,133)" stroke="rgb(255,181,133)" stroke-width="1.51"/><path d="M645,166L868,103L803,-13Z" fill="rgb(252,188,148)" stroke="rgb(252,188,148)" stroke-width="1.51"/><path d="M645,166L820,241L868,103Z" fill="rgb(249,214,188)" stroke="rgb(249,214,188)" stroke-width="1.51"/><path d="M569,284L703,270L645,166Z" fill="rgb(246,208,184)" stroke="rgb(246,208,184)" stroke-width="1.51"/><path d="M703,270L820,241L645,166Z" fill="rgb(245,218,197)" stroke="rgb(245,218,197)" stroke-width="1.51"/><path d="M720,-36L588,-140L594,8Z" fill="rgb(255,166,108)" stroke="rgb(255,166,108)" stroke-width="1.51"/><path d="M395,-12L394,130L583,71Z" fill="rgb(255,170,115)" stroke="rgb(255,170,115)" stroke-width="1.51"/><path d="M721,-198L588,-140L720,-36Z" fill="rgb(255,170,114)" stroke="rgb(255,170,114)" stroke-width="1.51"/><path d="M583,71L569,284L645,166Z" fill="rgb(255,218,187)" stroke="rgb(255,218,187)" stroke-width="1.51"/><path d="M394,130L569,284L583,71Z" fill="rgb(255,206,170)" stroke="rgb(255,206,170)" stroke-width="1.51"/><path d="M803,-13L721,-198L720,-36Z" fill="rgb(255,165,111)" stroke="rgb(255,165,111)" stroke-width="1.51"/><path d="M871,-199L721,-198L803,-13Z" fill="rgb(255,157,103)" stroke="rgb(255,157,103)" stroke-width="1.51"/><path d="M395,-12L583,71L594,8Z" fill="rgb(255,164,104)" stroke="rgb(255,164,104)" stroke-width="1.51"/><path d="M588,-140L395,-12L594,8Z" fill="rgb(255,156,94)" stroke="rgb(255,156,94)" stroke-width="1.51"/><path d="M945,-144L871,-199L803,-13Z" fill="rgb(249,146,92)" stroke="rgb(249,146,92)" stroke-width="1.51"/><path d="M1047,20L945,-144L803,-13Z" fill="rgb(245,137,84)" stroke="rgb(245,137,84)" stroke-width="1.51"/><path d="M946,290L1009,131L868,103Z" fill="rgb(240,191,165)" stroke="rgb(240,191,165)" stroke-width="1.51"/><path d="M703,270L902,371L820,241Z" fill="rgb(227,169,147)" stroke="rgb(227,169,147)" stroke-width="1.51"/><path d="M820,241L946,290L868,103Z" fill="rgb(240,202,181)" stroke="rgb(240,202,181)" stroke-width="1.51"/><path d="M569,284L665,393L703,270Z" fill="rgb(231,170,145)" stroke="rgb(231,170,145)" stroke-width="1.51"/><path d="M556,400L665,393L569,284Z" fill="rgb(220,143,116)" stroke="rgb(220,143,116)" stroke-width="1.51"/><path d="M1047,20L803,-13L868,103Z" fill="rgb(245,153,105)" stroke="rgb(245,153,105)" stroke-width="1.51"/><path d="M902,371L946,290L820,241Z" fill="rgb(221,154,132)" stroke="rgb(221,154,132)" stroke-width="1.51"/><path d="M451,417L556,400L569,284Z" fill="rgb(217,132,103)" stroke="rgb(217,132,103)" stroke-width="1.51"/><path d="M1009,131L1047,20L868,103Z" fill="rgb(238,157,117)" stroke="rgb(238,157,117)" stroke-width="1.51"/><path d="M665,393L902,371L703,270Z" fill="rgb(220,151,129)" stroke="rgb(220,151,129)" stroke-width="1.51"/><path d="M394,130L364,274L569,284Z" fill="rgb(248,197,163)" stroke="rgb(248,197,163)" stroke-width="1.51"/><path d="M271,98L364,274L394,130Z" fill="rgb(255,193,149)" stroke="rgb(255,193,149)" stroke-width="1.51"/><path d="M395,-12L271,98L394,130Z" fill="rgb(255,164,105)" stroke="rgb(255,164,105)" stroke-width="1.51"/><path d="M588,-140L362,-151L395,-12Z" fill="rgb(255,149,83)" stroke="rgb(255,149,83)" stroke-width="1.51"/><path d="M270,-218L362,-151L588,-140Z" fill="rgb(255,146,77)" stroke="rgb(255,146,77)" stroke-width="1.51"/><path d="M218,-40L271,98L395,-12Z" fill="rgb(255,140,69)" stroke="rgb(255,140,69)" stroke-width="1.51"/><path d="M525,552L749,521L665,393Z" fill="rgb(211,126,102)" stroke="rgb(211,126,102)" stroke-width="1.51"/><path d="M996,599L1001,376L902,371Z" fill="rgb(191,91,72)" stroke="rgb(191,91,72)" stroke-width="1.51"/><path d="M364,274L451,417L569,284Z" fill="rgb(227,148,116)" stroke="rgb(227,148,116)" stroke-width="1.51"/><path d="M902,371L1001,376L946,290Z" fill="rgb(206,122,100)" stroke="rgb(206,122,100)" stroke-width="1.51"/><path d="M946,290L1160,179L1009,131Z" fill="rgb(233,184,162)" stroke="rgb(233,184,162)" stroke-width="1.51"/><path d="M1255,15L1113,-69L1047,20Z" fill="rgb(227,105,54)" stroke="rgb(227,105,54)" stroke-width="1.51"/><path d="M749,521L902,371L665,393Z" fill="rgb(205,120,99)" stroke="rgb(205,120,99)" stroke-width="1.51"/><path d="M945,-144L1180,-208L871,-199Z" fill="rgb(239,127,74)" stroke="rgb(239,127,74)" stroke-width="1.51"/><path d="M1047,20L1113,-69L945,-144Z" fill="rgb(236,121,69)" stroke="rgb(236,121,69)" stroke-width="1.51"/><path d="M1160,179L1047,20L1009,131Z" fill="rgb(231,151,115)" stroke="rgb(231,151,115)" stroke-width="1.51"/><path d="M525,552L665,393L556,400Z" fill="rgb(210,120,94)" stroke="rgb(210,120,94)" stroke-width="1.51"/><path d="M1118,381L1160,179L946,290Z" fill="rgb(213,136,114)" stroke="rgb(213,136,114)" stroke-width="1.51"/><path d="M362,-151L218,-40L395,-12Z" fill="rgb(255,138,66)" stroke="rgb(255,138,66)" stroke-width="1.51"/><path d="M362,-151L270,-218L218,-40Z" fill="rgb(255,134,59)" stroke="rgb(255,134,59)" stroke-width="1.51"/><path d="M721,-198L270,-218L588,-140Z" fill="rgb(255,156,94)" stroke="rgb(255,156,94)" stroke-width="1.51"/><path d="M871,-199L270,-218L721,-198Z" fill="rgb(255,165,107)" stroke="rgb(255,165,107)" stroke-width="1.51"/><path d="M451,417L525,552L556,400Z" fill="rgb(208,114,85)" stroke="rgb(208,114,85)" stroke-width="1.51"/><path d="M370,536L525,552L451,417Z" fill="rgb(207,108,77)" stroke="rgb(207,108,77)" stroke-width="1.51"/><path d="M204,295L364,274L271,98Z" fill="rgb(252,185,144)" stroke="rgb(252,185,144)" stroke-width="1.51"/><path d="M204,295L302,402L364,274Z" fill="rgb(227,133,94)" stroke="rgb(227,133,94)" stroke-width="1.51"/><path d="M364,274L302,402L451,417Z" fill="rgb(216,120,84)" stroke="rgb(216,120,84)" stroke-width="1.51"/><path d="M1001,376L1118,381L946,290Z" fill="rgb(200,109,89)" stroke="rgb(200,109,89)" stroke-width="1.51"/><path d="M996,599L1118,381L1001,376Z" fill="rgb(185,80,62)" stroke="rgb(185,80,62)" stroke-width="1.51"/><path d="M749,521L829,581L902,371Z" fill="rgb(201,112,91)" stroke="rgb(201,112,91)" stroke-width="1.51"/><path d="M525,552L829,581L749,521Z" fill="rgb(211,131,109)" stroke="rgb(211,131,109)" stroke-width="1.51"/><path d="M93,225L204,295L271,98Z" fill="rgb(255,186,140)" stroke="rgb(255,186,140)" stroke-width="1.51"/><path d="M1118,381L1206,235L1160,179Z" fill="rgb(211,133,111)" stroke="rgb(211,133,111)" stroke-width="1.51"/><path d="M1255,15L1180,-208L1113,-69Z" fill="rgb(223,98,48)" stroke="rgb(223,98,48)" stroke-width="1.51"/><path d="M871,-199L1180,-208L270,-218Z" fill="rgb(255,161,107)" stroke="rgb(255,161,107)" stroke-width="1.51"/><path d="M1113,-69L1180,-208L945,-144Z" fill="rgb(232,114,63)" stroke="rgb(232,114,63)" stroke-width="1.51"/><path d="M1255,15L1047,20L1160,179Z" fill="rgb(225,127,85)" stroke="rgb(225,127,85)" stroke-width="1.51"/><path d="M1298,155L1255,15L1160,179Z" fill="rgb(219,129,94)" stroke="rgb(219,129,94)" stroke-width="1.51"/><path d="M253,549L370,536L302,402Z" fill="rgb(205,95,59)" stroke="rgb(205,95,59)" stroke-width="1.51"/><path d="M302,402L370,536L451,417Z" fill="rgb(206,101,67)" stroke="rgb(206,101,67)" stroke-width="1.51"/><path d="M51,618L996,599L829,581Z" fill="rgb(211,124,100)" stroke="rgb(211,124,100)" stroke-width="1.51"/><path d="M829,581L996,599L902,371Z" fill="rgb(195,100,80)" stroke="rgb(195,100,80)" stroke-width="1.51"/><path d="M1282,327L1298,155L1206,235Z" fill="rgb(211,131,109)" stroke="rgb(211,131,109)" stroke-width="1.51"/><path d="M1282,327L1206,235L1118,381Z" fill="rgb(196,101,81)" stroke="rgb(196,101,81)" stroke-width="1.51"/><path d="M1206,235L1298,155L1160,179Z" fill="rgb(223,154,130)" stroke="rgb(223,154,130)" stroke-width="1.51"/><path d="M94,389L253,549L302,402Z" fill="rgb(204,86,47)" stroke="rgb(204,86,47)" stroke-width="1.51"/><path d="M49,146L93,225L271,98Z" fill="rgb(255,171,115)" stroke="rgb(255,171,115)" stroke-width="1.51"/><path d="M49,146L271,98L218,-40Z" fill="rgb(255,147,79)" stroke="rgb(255,147,79)" stroke-width="1.51"/><path d="M1282,377L1282,327L1118,381Z" fill="rgb(181,71,56)" stroke="rgb(181,71,56)" stroke-width="1.51"/><path d="M49,-50L49,146L218,-40Z" fill="rgb(255,122,41)" stroke="rgb(255,122,41)" stroke-width="1.51"/><path d="M525,552L51,618L829,581Z" fill="rgb(207,110,79)" stroke="rgb(207,110,79)" stroke-width="1.51"/><path d="M370,536L253,549L525,552Z" fill="rgb(206,102,69)" stroke="rgb(206,102,69)" stroke-width="1.51"/><path d="M94,389L302,402L204,295Z" fill="rgb(216,105,63)" stroke="rgb(216,105,63)" stroke-width="1.51"/><path d="M94,389L204,295L93,225Z" fill="rgb(233,130,83)" stroke="rgb(233,130,83)" stroke-width="1.51"/><path d="M44,-221L49,-50L218,-40Z" fill="rgb(255,116,30)" stroke="rgb(255,116,30)" stroke-width="1.51"/><path d="M1267,551L1282,377L1118,381Z" fill="rgb(169,49,39)" stroke="rgb(169,49,39)" stroke-width="1.51"/><path d="M1494,-64L1255,15L1298,155Z" fill="rgb(208,84,42)" stroke="rgb(208,84,42)" stroke-width="1.51"/><path d="M-13,249L94,389L93,225Z" fill="rgb(238,131,81)" stroke="rgb(238,131,81)" stroke-width="1.51"/><path d="M1180,-208L1320,-212L270,-218Z" fill="rgb(245,138,85)" stroke="rgb(245,138,85)" stroke-width="1.51"/><path d="M1255,15L1320,-212L1180,-208Z" fill="rgb(217,87,38)" stroke="rgb(217,87,38)" stroke-width="1.51"/><path d="M1423,-201L1320,-212L1494,-64Z" fill="rgb(203,61,15)" stroke="rgb(203,61,15)" stroke-width="1.51"/><path d="M996,599L1125,605L1118,381Z" fill="rgb(181,73,57)" stroke="rgb(181,73,57)" stroke-width="1.51"/><path d="M270,-218L44,-221L218,-40Z" fill="rgb(255,123,43)" stroke="rgb(255,123,43)" stroke-width="1.51"/><path d="M-87,88L-13,249L49,146Z" fill="rgb(255,160,99)" stroke="rgb(255,160,99)" stroke-width="1.51"/><path d="M1623,-214L44,-221L270,-218Z" fill="rgb(255,167,110)" stroke="rgb(255,167,110)" stroke-width="1.51"/><path d="M49,146L-13,249L93,225Z" fill="rgb(255,173,120)" stroke="rgb(255,173,120)" stroke-width="1.51"/><path d="M-87,88L49,146L49,-50Z" fill="rgb(255,127,49)" stroke="rgb(255,127,49)" stroke-width="1.51"/><path d="M1125,605L1267,551L1118,381Z" fill="rgb(174,59,46)" stroke="rgb(174,59,46)" stroke-width="1.51"/><path d="M-13,249L-20,375L94,389Z" fill="rgb(223,100,51)" stroke="rgb(223,100,51)" stroke-width="1.51"/><path d="M94,389L51,618L253,549Z" fill="rgb(204,77,36)" stroke="rgb(204,77,36)" stroke-width="1.51"/><path d="M-13,249L-168,399L-20,375Z" fill="rgb(222,96,46)" stroke="rgb(222,96,46)" stroke-width="1.51"/><path d="M-88,-42L-87,88L49,-50Z" fill="rgb(255,105,0)" stroke="rgb(255,105,0)" stroke-width="1.51"/><path d="M1480,173L1282,327L1501,326Z" fill="rgb(191,91,73)" stroke="rgb(191,91,73)" stroke-width="1.51"/><path d="M1480,173L1298,155L1282,327Z" fill="rgb(210,128,106)" stroke="rgb(210,128,106)" stroke-width="1.51"/><path d="M1494,-64L1320,-212L1255,15Z" fill="rgb(207,69,22)" stroke="rgb(207,69,22)" stroke-width="1.51"/><path d="M-46,-220L-88,-42L49,-50Z" fill="rgb(255,105,0)" stroke="rgb(255,105,0)" stroke-width="1.51"/><path d="M44,-221L-46,-220L49,-50Z" fill="rgb(255,107,5)" stroke="rgb(255,107,5)" stroke-width="1.51"/><path d="M1501,326L1282,327L1282,377Z" fill="rgb(175,60,47)" stroke="rgb(175,60,47)" stroke-width="1.51"/><path d="M1480,173L1494,-64L1298,155Z" fill="rgb(205,95,59)" stroke="rgb(205,95,59)" stroke-width="1.51"/><path d="M253,549L51,618L525,552Z" fill="rgb(205,92,55)" stroke="rgb(205,92,55)" stroke-width="1.51"/><path d="M996,599L51,618L1125,605Z" fill="rgb(209,127,105)" stroke="rgb(209,127,105)" stroke-width="1.51"/><path d="M4,609L51,618L94,389Z" fill="rgb(203,67,23)" stroke="rgb(203,67,23)" stroke-width="1.51"/><path d="M1477,463L1501,326L1282,377Z" fill="rgb(157,17,22)" stroke="rgb(157,17,22)" stroke-width="1.51"/><path d="M1480,173L1597,118L1494,-64Z" fill="rgb(205,91,53)" stroke="rgb(205,91,53)" stroke-width="1.51"/><path d="M-158,-153L-166,-11L-88,-42Z" fill="rgb(255,105,0)" stroke="rgb(255,105,0)" stroke-width="1.51"/><path d="M-88,-42L-166,-11L-87,88Z" fill="rgb(255,109,14)" stroke="rgb(255,109,14)" stroke-width="1.51"/><path d="M-87,88L-188,135L-13,249Z" fill="rgb(255,159,97)" stroke="rgb(255,159,97)" stroke-width="1.51"/><path d="M-20,375L4,609L94,389Z" fill="rgb(203,64,19)" stroke="rgb(203,64,19)" stroke-width="1.51"/><path d="M-200,529L4,609L-20,375Z" fill="rgb(203,61,15)" stroke="rgb(203,61,15)" stroke-width="1.51"/><path d="M-46,-220L-158,-153L-88,-42Z" fill="rgb(255,105,0)" stroke="rgb(255,105,0)" stroke-width="1.51"/><path d="M1267,551L1477,463L1282,377Z" fill="rgb(159,23,24)" stroke="rgb(159,23,24)" stroke-width="1.51"/><path d="M-232,284L-188,135L-166,-11Z" fill="rgb(255,152,87)" stroke="rgb(255,152,87)" stroke-width="1.51"/><path d="M-166,-11L-188,135L-87,88Z" fill="rgb(255,130,54)" stroke="rgb(255,130,54)" stroke-width="1.51"/><path d="M1592,229L1480,173L1501,326Z" fill="rgb(200,109,88)" stroke="rgb(200,109,88)" stroke-width="1.51"/><path d="M1592,229L1597,118L1480,173Z" fill="rgb(210,122,97)" stroke="rgb(210,122,97)" stroke-width="1.51"/><path d="M1494,-64L1623,-214L1423,-201Z" fill="rgb(203,61,15)" stroke="rgb(203,61,15)" stroke-width="1.51"/><path d="M1625,459L1592,229L1501,326Z" fill="rgb(173,56,44)" stroke="rgb(173,56,44)" stroke-width="1.51"/><path d="M1625,459L1608,3L1597,118Z" fill="rgb(211,129,106)" stroke="rgb(211,129,106)" stroke-width="1.51"/><path d="M1597,118L1608,3L1494,-64Z" fill="rgb(203,69,26)" stroke="rgb(203,69,26)" stroke-width="1.51"/><path d="M-232,284L-168,399L-13,249Z" fill="rgb(231,113,62)" stroke="rgb(231,113,62)" stroke-width="1.51"/><path d="M-188,135L-232,284L-13,249Z" fill="rgb(255,160,106)" stroke="rgb(255,160,106)" stroke-width="1.51"/><path d="M-158,-153L-232,284L-166,-11Z" fill="rgb(255,119,36)" stroke="rgb(255,119,36)" stroke-width="1.51"/><path d="M1477,463L1625,459L1501,326Z" fill="rgb(153,0,17)" stroke="rgb(153,0,17)" stroke-width="1.51"/><path d="M1267,551L1494,595L1477,463Z" fill="rgb(153,0,17)" stroke="rgb(153,0,17)" stroke-width="1.51"/><path d="M1125,605L1494,595L1267,551Z" fill="rgb(163,35,30)" stroke="rgb(163,35,30)" stroke-width="1.51"/><path d="M1423,-201L1623,-214L1320,-212Z" fill="rgb(203,61,15)" stroke="rgb(203,61,15)" stroke-width="1.51"/><path d="M1320,-212L1623,-214L270,-218Z" fill="rgb(233,116,64)" stroke="rgb(233,116,64)" stroke-width="1.51"/><path d="M1608,3L1623,-214L1494,-64Z" fill="rgb(203,61,15)" stroke="rgb(203,61,15)" stroke-width="1.51"/><path d="M-232,284L-200,529L-168,399Z" fill="rgb(203,61,15)" stroke="rgb(203,61,15)" stroke-width="1.51"/><path d="M-168,399L-200,529L-20,375Z" fill="rgb(203,61,15)" stroke="rgb(203,61,15)" stroke-width="1.51"/><path d="M1609,553L1625,459L1477,463Z" fill="rgb(153,0,17)" stroke="rgb(153,0,17)" stroke-width="1.51"/><path d="M1592,229L1625,459L1597,118Z" fill="rgb(193,95,76)" stroke="rgb(193,95,76)" stroke-width="1.51"/><path d="M1608,3L1625,459L1623,-214Z" fill="rgb(205,93,57)" stroke="rgb(205,93,57)" stroke-width="1.51"/><path d="M1494,595L1609,553L1477,463Z" fill="rgb(153,0,17)" stroke="rgb(153,0,17)" stroke-width="1.51"/></svg>