<svg xmlns="http://www.w3.org/2000/svg" width="1200" height="400"><path d="M587,201L662,221L623,146Z" fill="rgb(251,228,205)" stroke="rgb(251,228,205)" stroke-width="1.51"/><path d="M662,221L696,180L623,146Z" fill="rgb(249,219,195)" stroke="rgb(249,219,195)" stroke-width="1.51"/><path d="M587,201L632,286L662,221Z" fill="rgb(243,211,190)" stroke="rgb(243,211,190)" stroke-width="1.51"/><path d="M662,221L762,227L696,180Z" fill="rgb(243,211,190)" stroke="rgb(243,211,190)" stroke-width="1.51"/><path d="M587,201L578,279L632,286Z" fill="rgb(241,206,185)" stroke="rgb(241,206,185)" stroke-width="1.51"/><path d="M623,146L562,101L587,201Z" fill="rgb(254,218,188)" stroke="rgb(254,218,188)" stroke-width="1.51"/><path d="M587,201L486,217L578,279Z" fill="rgb(247,213,189)" stroke="rgb(247,213,189)" stroke-width="1.51"/><path d="M631,48L562,101L623,146Z" fill="rgb(255,202,164)" stroke="rgb(255,202,164)" stroke-width="1.51"/><path d="M696,180L730,102L623,146Z" fill="rgb(248,203,172)" stroke="rgb(248,203,172)" stroke-width="1.51"/><path d="M734,292L762,227L662,221Z" fill="rgb(236,189,167)" stroke="rgb(236,189,167)" stroke-width="1.51"/><path d="M696,180L795,109L730,102Z" fill="rgb(245,188,156)" stroke="rgb(245,188,156)" stroke-width="1.51"/><path d="M705,50L631,48L623,146Z" fill="rgb(252,188,147)" stroke="rgb(252,188,147)" stroke-width="1.51"/><path d="M578,279L589,329L632,286Z" fill="rgb(233,184,162)" stroke="rgb(233,184,162)" stroke-width="1.51"/><path d="M632,286L734,292L662,221Z" fill="rgb(234,186,165)" stroke="rgb(234,186,165)" stroke-width="1.51"/><path d="M689,365L734,292L632,286Z" fill="rgb(224,160,138)" stroke="rgb(224,160,138)" stroke-width="1.51"/><path d="M562,101L494,138L587,201Z" fill="rgb(255,213,180)" stroke="rgb(255,213,180)" stroke-width="1.51"/><path d="M578,279L508,299L589,329Z" fill="rgb(233,177,153)" stroke="rgb(233,177,153)" stroke-width="1.51"/><path d="M513,22L494,138L562,101Z" fill="rgb(255,192,147)" stroke="rgb(255,192,147)" stroke-width="1.51"/><path d="M494,138L486,217L587,201Z" fill="rgb(255,222,194)" stroke="rgb(255,222,194)" stroke-width="1.51"/><path d="M589,329L635,345L632,286Z" fill="rgb(227,169,146)" stroke="rgb(227,169,146)" stroke-width="1.51"/><path d="M734,292L772,261L762,227Z" fill="rgb(231,176,154)" stroke="rgb(231,176,154)" stroke-width="1.51"/><path d="M762,227L795,109L696,180Z" fill="rgb(244,200,173)" stroke="rgb(244,200,173)" stroke-width="1.51"/><path d="M730,102L705,50L623,146Z" fill="rgb(250,189,150)" stroke="rgb(250,189,150)" stroke-width="1.51"/><path d="M486,217L508,299L578,279Z" fill="rgb(241,193,167)" stroke="rgb(241,193,167)" stroke-width="1.51"/><path d="M631,48L555,24L562,101Z" fill="rgb(255,188,142)" stroke="rgb(255,188,142)" stroke-width="1.51"/><path d="M645,-28L555,24L631,48Z" fill="rgb(255,175,123)" stroke="rgb(255,175,123)" stroke-width="1.51"/><path d="M730,102L796,50L705,50Z" fill="rgb(246,168,125)" stroke="rgb(246,168,125)" stroke-width="1.51"/><path d="M861,174L795,109L762,227Z" fill="rgb(240,189,163)" stroke="rgb(240,189,163)" stroke-width="1.51"/><path d="M635,345L689,365L632,286Z" fill="rgb(223,157,135)" stroke="rgb(223,157,135)" stroke-width="1.51"/><path d="M734,292L800,328L772,261Z" fill="rgb(222,156,134)" stroke="rgb(222,156,134)" stroke-width="1.51"/><path d="M615,424L689,365L635,345Z" fill="rgb(212,134,112)" stroke="rgb(212,134,112)" stroke-width="1.51"/><path d="M508,299L511,338L589,329Z" fill="rgb(229,165,139)" stroke="rgb(229,165,139)" stroke-width="1.51"/><path d="M589,329L572,409L635,345Z" fill="rgb(220,151,129)" stroke="rgb(220,151,129)" stroke-width="1.51"/><path d="M389,332L511,338L508,299Z" fill="rgb(228,157,128)" stroke="rgb(228,157,128)" stroke-width="1.51"/><path d="M486,217L432,221L508,299Z" fill="rgb(244,198,170)" stroke="rgb(244,198,170)" stroke-width="1.51"/><path d="M494,138L432,221L486,217Z" fill="rgb(254,219,189)" stroke="rgb(254,219,189)" stroke-width="1.51"/><path d="M408,117L432,221L494,138Z" fill="rgb(255,206,169)" stroke="rgb(255,206,169)" stroke-width="1.51"/><path d="M555,24L513,22L562,101Z" fill="rgb(255,181,132)" stroke="rgb(255,181,132)" stroke-width="1.51"/><path d="M795,109L796,50L730,102Z" fill="rgb(243,169,129)" stroke="rgb(243,169,129)" stroke-width="1.51"/><path d="M705,50L645,-28L631,48Z" fill="rgb(255,169,118)" stroke="rgb(255,169,118)" stroke-width="1.51"/><path d="M739,-8L645,-28L705,50Z" fill="rgb(254,156,103)" stroke="rgb(254,156,103)" stroke-width="1.51"/><path d="M555,24L493,-47L513,22Z" fill="rgb(255,164,105)" stroke="rgb(255,164,105)" stroke-width="1.51"/><path d="M885,247L861,174L762,227Z" fill="rgb(234,185,163)" stroke="rgb(234,185,163)" stroke-width="1.51"/><path d="M795,109L881,35L796,50Z" fill="rgb(239,154,110)" stroke="rgb(239,154,110)" stroke-width="1.51"/><path d="M689,365L800,328L734,292Z" fill="rgb(217,144,121)" stroke="rgb(217,144,121)" stroke-width="1.51"/><path d="M796,50L739,-8L705,50Z" fill="rgb(248,156,107)" stroke="rgb(248,156,107)" stroke-width="1.51"/><path d="M511,338L572,409L589,329Z" fill="rgb(221,147,123)" stroke="rgb(221,147,123)" stroke-width="1.51"/><path d="M689,365L734,418L800,328Z" fill="rgb(206,122,101)" stroke="rgb(206,122,101)" stroke-width="1.51"/><path d="M885,247L762,227L772,261Z" fill="rgb(230,175,153)" stroke="rgb(230,175,153)" stroke-width="1.51"/><path d="M415,57L408,117L494,138Z" fill="rgb(255,189,141)" stroke="rgb(255,189,141)" stroke-width="1.51"/><path d="M572,409L615,424L635,345Z" fill="rgb(212,133,111)" stroke="rgb(212,133,111)" stroke-width="1.51"/><path d="M432,221L407,276L508,299Z" fill="rgb(240,185,154)" stroke="rgb(240,185,154)" stroke-width="1.51"/><path d="M511,338L470,401L572,409Z" fill="rgb(215,131,105)" stroke="rgb(215,131,105)" stroke-width="1.51"/><path d="M361,203L407,276L432,221Z" fill="rgb(247,197,164)" stroke="rgb(247,197,164)" stroke-width="1.51"/><path d="M513,22L415,57L494,138Z" fill="rgb(255,182,132)" stroke="rgb(255,182,132)" stroke-width="1.51"/><path d="M645,-28L581,-50L555,24Z" fill="rgb(255,172,117)" stroke="rgb(255,172,117)" stroke-width="1.51"/><path d="M581,-83L581,-50L637,-92Z" fill="rgb(255,172,118)" stroke="rgb(255,172,118)" stroke-width="1.51"/><path d="M615,424L734,418L689,365Z" fill="rgb(204,117,96)" stroke="rgb(204,117,96)" stroke-width="1.51"/><path d="M861,174L879,147L795,109Z" fill="rgb(237,175,143)" stroke="rgb(237,175,143)" stroke-width="1.51"/><path d="M928,149L879,147L861,174Z" fill="rgb(234,171,142)" stroke="rgb(234,171,142)" stroke-width="1.51"/><path d="M410,-8L415,57L513,22Z" fill="rgb(255,163,104)" stroke="rgb(255,163,104)" stroke-width="1.51"/><path d="M800,328L885,247L772,261Z" fill="rgb(222,156,133)" stroke="rgb(222,156,133)" stroke-width="1.51"/><path d="M853,363L885,247L800,328Z" fill="rgb(212,134,112)" stroke="rgb(212,134,112)" stroke-width="1.51"/><path d="M389,332L470,401L511,338Z" fill="rgb(220,138,109)" stroke="rgb(220,138,109)" stroke-width="1.51"/><path d="M572,409L555,493L615,424Z" fill="rgb(211,129,106)" stroke="rgb(211,129,106)" stroke-width="1.51"/><path d="M407,276L389,332L508,299Z" fill="rgb(232,164,133)" stroke="rgb(232,164,133)" stroke-width="1.51"/><path d="M408,117L361,203L432,221Z" fill="rgb(255,208,172)" stroke="rgb(255,208,172)" stroke-width="1.51"/><path d="M316,147L361,203L408,117Z" fill="rgb(255,196,154)" stroke="rgb(255,196,154)" stroke-width="1.51"/><path d="M581,-50L493,-47L555,24Z" fill="rgb(255,166,108)" stroke="rgb(255,166,108)" stroke-width="1.51"/><path d="M739,-8L726,-103L645,-28Z" fill="rgb(254,154,100)" stroke="rgb(254,154,100)" stroke-width="1.51"/><path d="M834,-25L768,-48L739,-8Z" fill="rgb(247,140,87)" stroke="rgb(247,140,87)" stroke-width="1.51"/><path d="M834,-25L739,-8L796,50Z" fill="rgb(245,141,88)" stroke="rgb(245,141,88)" stroke-width="1.51"/><path d="M581,-50L581,-83L493,-47Z" fill="rgb(255,167,110)" stroke="rgb(255,167,110)" stroke-width="1.51"/><path d="M637,-92L581,-50L645,-28Z" fill="rgb(255,169,114)" stroke="rgb(255,169,114)" stroke-width="1.51"/><path d="M316,267L389,332L407,276Z" fill="rgb(235,163,128)" stroke="rgb(235,163,128)" stroke-width="1.51"/><path d="M726,-103L637,-92L645,-28Z" fill="rgb(255,160,105)" stroke="rgb(255,160,105)" stroke-width="1.51"/><path d="M796,439L853,363L800,328Z" fill="rgb(198,106,85)" stroke="rgb(198,106,85)" stroke-width="1.51"/><path d="M879,147L881,35L795,109Z" fill="rgb(237,158,120)" stroke="rgb(237,158,120)" stroke-width="1.51"/><path d="M928,149L881,35L879,147Z" fill="rgb(233,155,119)" stroke="rgb(233,155,119)" stroke-width="1.51"/><path d="M347,27L316,147L408,117Z" fill="rgb(255,177,125)" stroke="rgb(255,177,125)" stroke-width="1.51"/><path d="M493,-47L410,-8L513,22Z" fill="rgb(255,159,97)" stroke="rgb(255,159,97)" stroke-width="1.51"/><path d="M881,35L834,-25L796,50Z" fill="rgb(240,136,87)" stroke="rgb(240,136,87)" stroke-width="1.51"/><path d="M734,418L796,439L800,328Z" fill="rgb(197,103,83)" stroke="rgb(197,103,83)" stroke-width="1.51"/><path d="M736,510L796,439L734,418Z" fill="rgb(197,104,84)" stroke="rgb(197,104,84)" stroke-width="1.51"/><path d="M945,188L928,149L861,174Z" fill="rgb(233,172,144)" stroke="rgb(233,172,144)" stroke-width="1.51"/><path d="M945,188L861,174L885,247Z" fill="rgb(232,182,160)" stroke="rgb(232,182,160)" stroke-width="1.51"/><path d="M768,-48L726,-103L739,-8Z" fill="rgb(250,147,93)" stroke="rgb(250,147,93)" stroke-width="1.51"/><path d="M795,-94L726,-103L768,-48Z" fill="rgb(248,143,90)" stroke="rgb(248,143,90)" stroke-width="1.51"/><path d="M853,363L929,276L885,247Z" fill="rgb(212,135,113)" stroke="rgb(212,135,113)" stroke-width="1.51"/><path d="M933,339L929,276L853,363Z" fill="rgb(204,117,95)" stroke="rgb(204,117,95)" stroke-width="1.51"/><path d="M515,502L572,409L470,401Z" fill="rgb(210,122,97)" stroke="rgb(210,122,97)" stroke-width="1.51"/><path d="M515,502L555,493L572,409Z" fill="rgb(211,125,101)" stroke="rgb(211,125,101)" stroke-width="1.51"/><path d="M615,424L629,509L734,418Z" fill="rgb(206,120,99)" stroke="rgb(206,120,99)" stroke-width="1.51"/><path d="M928,149L929,30L881,35Z" fill="rgb(232,140,98)" stroke="rgb(232,140,98)" stroke-width="1.51"/><path d="M929,276L945,188L885,247Z" fill="rgb(224,160,138)" stroke="rgb(224,160,138)" stroke-width="1.51"/><path d="M347,27L408,117L415,57Z" fill="rgb(255,171,116)" stroke="rgb(255,171,116)" stroke-width="1.51"/><path d="M361,203L316,267L407,276Z" fill="rgb(244,185,150)" stroke="rgb(244,185,150)" stroke-width="1.51"/><path d="M555,493L629,509L615,424Z" fill="rgb(211,131,109)" stroke="rgb(211,131,109)" stroke-width="1.51"/><path d="M247,175L316,267L361,203Z" fill="rgb(252,197,159)" stroke="rgb(252,197,159)" stroke-width="1.51"/><path d="M413,449L515,502L470,401Z" fill="rgb(209,117,89)" stroke="rgb(209,117,89)" stroke-width="1.51"/><path d="M410,-8L347,27L415,57Z" fill="rgb(255,158,97)" stroke="rgb(255,158,97)" stroke-width="1.51"/><path d="M876,-110L795,-94L834,-25Z" fill="rgb(241,131,78)" stroke="rgb(241,131,78)" stroke-width="1.51"/><path d="M834,-25L795,-94L768,-48Z" fill="rgb(245,137,84)" stroke="rgb(245,137,84)" stroke-width="1.51"/><path d="M493,-47L415,-76L410,-8Z" fill="rgb(255,155,92)" stroke="rgb(255,155,92)" stroke-width="1.51"/><path d="M410,-8L320,-37L347,27Z" fill="rgb(255,147,79)" stroke="rgb(255,147,79)" stroke-width="1.51"/><path d="M581,-83L505,-116L493,-47Z" fill="rgb(255,165,106)" stroke="rgb(255,165,106)" stroke-width="1.51"/><path d="M637,-92L505,-116L581,-83Z" fill="rgb(255,170,113)" stroke="rgb(255,170,113)" stroke-width="1.51"/><path d="M726,-103L505,-116L637,-92Z" fill="rgb(255,168,114)" stroke="rgb(255,168,114)" stroke-width="1.51"/><path d="M555,493L515,502L629,509Z" fill="rgb(211,127,104)" stroke="rgb(211,127,104)" stroke-width="1.51"/><path d="M413,449L470,401L389,332Z" fill="rgb(210,115,85)" stroke="rgb(210,115,85)" stroke-width="1.51"/><path d="M796,439L857,438L853,363Z" fill="rgb(190,90,71)" stroke="rgb(190,90,71)" stroke-width="1.51"/><path d="M841,481L857,438L796,439Z" fill="rgb(190,90,72)" stroke="rgb(190,90,72)" stroke-width="1.51"/><path d="M629,509L736,510L734,418Z" fill="rgb(202,114,92)" stroke="rgb(202,114,92)" stroke-width="1.51"/><path d="M917,441L933,339L853,363Z" fill="rgb(189,88,70)" stroke="rgb(189,88,70)" stroke-width="1.51"/><path d="M1032,201L1011,134L945,188Z" fill="rgb(227,158,132)" stroke="rgb(227,158,132)" stroke-width="1.51"/><path d="M324,368L413,449L389,332Z" fill="rgb(212,116,84)" stroke="rgb(212,116,84)" stroke-width="1.51"/><path d="M881,35L935,-25L834,-25Z" fill="rgb(236,122,70)" stroke="rgb(236,122,70)" stroke-width="1.51"/><path d="M1013,66L929,30L928,149Z" fill="rgb(228,136,95)" stroke="rgb(228,136,95)" stroke-width="1.51"/><path d="M505,-116L415,-76L493,-47Z" fill="rgb(255,159,97)" stroke="rgb(255,159,97)" stroke-width="1.51"/><path d="M289,332L324,368L389,332Z" fill="rgb(221,132,97)" stroke="rgb(221,132,97)" stroke-width="1.51"/><path d="M316,267L289,332L389,332Z" fill="rgb(230,149,113)" stroke="rgb(230,149,113)" stroke-width="1.51"/><path d="M247,175L285,286L316,267Z" fill="rgb(247,180,140)" stroke="rgb(247,180,140)" stroke-width="1.51"/><path d="M768,526L841,481L796,439Z" fill="rgb(193,96,76)" stroke="rgb(193,96,76)" stroke-width="1.51"/><path d="M857,438L917,441L853,363Z" fill="rgb(186,83,65)" stroke="rgb(186,83,65)" stroke-width="1.51"/><path d="M736,510L768,526L796,439Z" fill="rgb(196,102,82)" stroke="rgb(196,102,82)" stroke-width="1.51"/><path d="M629,509L768,526L736,510Z" fill="rgb(201,112,91)" stroke="rgb(201,112,91)" stroke-width="1.51"/><path d="M324,516L768,526L629,509Z" fill="rgb(211,128,105)" stroke="rgb(211,128,105)" stroke-width="1.51"/><path d="M285,286L289,332L316,267Z" fill="rgb(234,154,116)" stroke="rgb(234,154,116)" stroke-width="1.51"/><path d="M929,30L935,-25L881,35Z" fill="rgb(233,121,71)" stroke="rgb(233,121,71)" stroke-width="1.51"/><path d="M992,-26L935,-25L929,30Z" fill="rgb(230,110,58)" stroke="rgb(230,110,58)" stroke-width="1.51"/><path d="M957,489L917,441L841,481Z" fill="rgb(184,77,60)" stroke="rgb(184,77,60)" stroke-width="1.51"/><path d="M841,481L917,441L857,438Z" fill="rgb(187,83,66)" stroke="rgb(187,83,66)" stroke-width="1.51"/><path d="M316,147L247,175L361,203Z" fill="rgb(255,197,155)" stroke="rgb(255,197,155)" stroke-width="1.51"/><path d="M285,286L191,342L289,332Z" fill="rgb(227,136,96)" stroke="rgb(227,136,96)" stroke-width="1.51"/><path d="M245,118L247,175L316,147Z" fill="rgb(255,184,135)" stroke="rgb(255,184,135)" stroke-width="1.51"/><path d="M245,118L316,147L248,39Z" fill="rgb(255,170,114)" stroke="rgb(255,170,114)" stroke-width="1.51"/><path d="M415,-76L320,-37L410,-8Z" fill="rgb(255,149,83)" stroke="rgb(255,149,83)" stroke-width="1.51"/><path d="M340,-110L320,-37L415,-76Z" fill="rgb(255,147,79)" stroke="rgb(255,147,79)" stroke-width="1.51"/><path d="M344,452L413,449L324,368Z" fill="rgb(207,105,73)" stroke="rgb(207,105,73)" stroke-width="1.51"/><path d="M344,452L392,492L413,449Z" fill="rgb(207,108,77)" stroke="rgb(207,108,77)" stroke-width="1.51"/><path d="M413,449L392,492L515,502Z" fill="rgb(208,114,85)" stroke="rgb(208,114,85)" stroke-width="1.51"/><path d="M515,502L324,516L629,509Z" fill="rgb(210,119,93)" stroke="rgb(210,119,93)" stroke-width="1.51"/><path d="M945,188L1011,134L928,149Z" fill="rgb(229,159,130)" stroke="rgb(229,159,130)" stroke-width="1.51"/><path d="M1032,201L945,188L1038,249Z" fill="rgb(222,158,136)" stroke="rgb(222,158,136)" stroke-width="1.51"/><path d="M945,188L929,276L1038,249Z" fill="rgb(220,150,129)" stroke="rgb(220,150,129)" stroke-width="1.51"/><path d="M935,-25L876,-110L834,-25Z" fill="rgb(237,122,70)" stroke="rgb(237,122,70)" stroke-width="1.51"/><path d="M795,-94L876,-110L726,-103Z" fill="rgb(245,137,84)" stroke="rgb(245,137,84)" stroke-width="1.51"/><path d="M726,-103L942,-119L505,-116Z" fill="rgb(252,150,97)" stroke="rgb(252,150,97)" stroke-width="1.51"/><path d="M286,401L344,452L324,368Z" fill="rgb(206,101,67)" stroke="rgb(206,101,67)" stroke-width="1.51"/><path d="M248,39L316,147L347,27Z" fill="rgb(255,164,105)" stroke="rgb(255,164,105)" stroke-width="1.51"/><path d="M1038,249L929,276L1030,356Z" fill="rgb(204,117,96)" stroke="rgb(204,117,96)" stroke-width="1.51"/><path d="M1011,134L1013,66L928,149Z" fill="rgb(226,142,107)" stroke="rgb(226,142,107)" stroke-width="1.51"/><path d="M935,-25L942,-119L876,-110Z" fill="rgb(233,116,64)" stroke="rgb(233,116,64)" stroke-width="1.51"/><path d="M1080,146L1013,66L1011,134Z" fill="rgb(221,133,98)" stroke="rgb(221,133,98)" stroke-width="1.51"/><path d="M289,332L286,401L324,368Z" fill="rgb(215,116,81)" stroke="rgb(215,116,81)" stroke-width="1.51"/><path d="M191,342L286,401L289,332Z" fill="rgb(217,116,78)" stroke="rgb(217,116,78)" stroke-width="1.51"/><path d="M320,-37L275,-10L347,27Z" fill="rgb(255,141,71)" stroke="rgb(255,141,71)" stroke-width="1.51"/><path d="M275,-10L248,39L347,27Z" fill="rgb(255,145,76)" stroke="rgb(255,145,76)" stroke-width="1.51"/><path d="M1030,356L929,276L933,339Z" fill="rgb(200,108,87)" stroke="rgb(200,108,87)" stroke-width="1.51"/><path d="M505,-116L340,-110L415,-76Z" fill="rgb(255,153,89)" stroke="rgb(255,153,89)" stroke-width="1.51"/><path d="M320,-37L254,-94L275,-10Z" fill="rgb(255,138,66)" stroke="rgb(255,138,66)" stroke-width="1.51"/><path d="M1013,66L992,-26L929,30Z" fill="rgb(226,113,65)" stroke="rgb(226,113,65)" stroke-width="1.51"/><path d="M1009,446L1030,356L933,339Z" fill="rgb(181,72,57)" stroke="rgb(181,72,57)" stroke-width="1.51"/><path d="M992,-26L942,-119L935,-25Z" fill="rgb(229,109,58)" stroke="rgb(229,109,58)" stroke-width="1.51"/><path d="M876,-110L942,-119L726,-103Z" fill="rgb(240,128,76)" stroke="rgb(240,128,76)" stroke-width="1.51"/><path d="M917,441L1009,446L933,339Z" fill="rgb(179,68,53)" stroke="rgb(179,68,53)" stroke-width="1.51"/><path d="M768,526L957,489L841,481Z" fill="rgb(188,86,68)" stroke="rgb(188,86,68)" stroke-width="1.51"/><path d="M160,130L186,191L245,118Z" fill="rgb(255,176,123)" stroke="rgb(255,176,123)" stroke-width="1.51"/><path d="M245,118L186,191L247,175Z" fill="rgb(255,184,135)" stroke="rgb(255,184,135)" stroke-width="1.51"/><path d="M247,175L186,191L285,286Z" fill="rgb(253,188,147)" stroke="rgb(253,188,147)" stroke-width="1.51"/><path d="M260,502L324,516L344,452Z" fill="rgb(206,100,66)" stroke="rgb(206,100,66)" stroke-width="1.51"/><path d="M344,452L324,516L392,492Z" fill="rgb(207,105,72)" stroke="rgb(207,105,72)" stroke-width="1.51"/><path d="M392,492L324,516L515,502Z" fill="rgb(208,111,81)" stroke="rgb(208,111,81)" stroke-width="1.51"/><path d="M260,502L344,452L286,401Z" fill="rgb(206,99,64)" stroke="rgb(206,99,64)" stroke-width="1.51"/><path d="M1104,180L1080,146L1032,201Z" fill="rgb(221,145,119)" stroke="rgb(221,145,119)" stroke-width="1.51"/><path d="M1032,201L1080,146L1011,134Z" fill="rgb(223,146,118)" stroke="rgb(223,146,118)" stroke-width="1.51"/><path d="M1013,66L1068,32L992,-26Z" fill="rgb(222,104,58)" stroke="rgb(222,104,58)" stroke-width="1.51"/><path d="M1030,356L1067,289L1038,249Z" fill="rgb(199,107,87)" stroke="rgb(199,107,87)" stroke-width="1.51"/><path d="M1075,341L1067,289L1030,356Z" fill="rgb(190,88,70)" stroke="rgb(190,88,70)" stroke-width="1.51"/><path d="M1104,180L1032,201L1038,249Z" fill="rgb(219,150,128)" stroke="rgb(219,150,128)" stroke-width="1.51"/><path d="M957,489L1009,446L917,441Z" fill="rgb(178,67,52)" stroke="rgb(178,67,52)" stroke-width="1.51"/><path d="M186,191L183,292L285,286Z" fill="rgb(244,166,123)" stroke="rgb(244,166,123)" stroke-width="1.51"/><path d="M183,292L191,342L285,286Z" fill="rgb(231,139,98)" stroke="rgb(231,139,98)" stroke-width="1.51"/><path d="M1080,146L1068,32L1013,66Z" fill="rgb(219,118,80)" stroke="rgb(219,118,80)" stroke-width="1.51"/><path d="M992,-26L1005,-128L942,-119Z" fill="rgb(227,104,54)" stroke="rgb(227,104,54)" stroke-width="1.51"/><path d="M1067,289L1104,180L1038,249Z" fill="rgb(212,133,111)" stroke="rgb(212,133,111)" stroke-width="1.51"/><path d="M1112,419L1075,341L1030,356Z" fill="rgb(176,62,47)" stroke="rgb(176,62,47)" stroke-width="1.51"/><path d="M1170,338L1153,280L1075,341Z" fill="rgb(185,79,62)" stroke="rgb(185,79,62)" stroke-width="1.51"/><path d="M957,489L996,486L1009,446Z" fill="rgb(176,62,48)" stroke="rgb(176,62,48)" stroke-width="1.51"/><path d="M1088,528L996,486L957,489Z" fill="rgb(173,56,44)" stroke="rgb(173,56,44)" stroke-width="1.51"/><path d="M340,-110L254,-94L320,-37Z" fill="rgb(255,140,70)" stroke="rgb(255,140,70)" stroke-width="1.51"/><path d="M204,-40L179,40L248,39Z" fill="rgb(255,134,61)" stroke="rgb(255,134,61)" stroke-width="1.51"/><path d="M179,40L160,130L245,118Z" fill="rgb(255,160,99)" stroke="rgb(255,160,99)" stroke-width="1.51"/><path d="M179,40L245,118L248,39Z" fill="rgb(255,153,89)" stroke="rgb(255,153,89)" stroke-width="1.51"/><path d="M186,191L124,261L183,292Z" fill="rgb(247,164,119)" stroke="rgb(247,164,119)" stroke-width="1.51"/><path d="M1080,146L1137,42L1068,32Z" fill="rgb(215,108,69)" stroke="rgb(215,108,69)" stroke-width="1.51"/><path d="M1153,280L1104,180L1067,289Z" fill="rgb(206,121,100)" stroke="rgb(206,121,100)" stroke-width="1.51"/><path d="M204,-40L248,39L275,-10Z" fill="rgb(255,134,59)" stroke="rgb(255,134,59)" stroke-width="1.51"/><path d="M166,417L260,502L286,401Z" fill="rgb(205,92,55)" stroke="rgb(205,92,55)" stroke-width="1.51"/><path d="M254,-94L204,-40L275,-10Z" fill="rgb(255,134,60)" stroke="rgb(255,134,60)" stroke-width="1.51"/><path d="M1081,-48L1005,-128L992,-26Z" fill="rgb(222,96,46)" stroke="rgb(222,96,46)" stroke-width="1.51"/><path d="M942,-119L1005,-128L505,-116Z" fill="rgb(243,134,81)" stroke="rgb(243,134,81)" stroke-width="1.51"/><path d="M179,40L127,113L160,130Z" fill="rgb(255,155,92)" stroke="rgb(255,155,92)" stroke-width="1.51"/><path d="M95,172L124,261L186,191Z" fill="rgb(255,182,135)" stroke="rgb(255,182,135)" stroke-width="1.51"/><path d="M183,292L139,343L191,342Z" fill="rgb(226,124,81)" stroke="rgb(226,124,81)" stroke-width="1.51"/><path d="M140,25L127,113L179,40Z" fill="rgb(255,143,74)" stroke="rgb(255,143,74)" stroke-width="1.51"/><path d="M1137,42L1081,-48L1068,32Z" fill="rgb(214,86,38)" stroke="rgb(214,86,38)" stroke-width="1.51"/><path d="M1068,32L1081,-48L992,-26Z" fill="rgb(220,92,42)" stroke="rgb(220,92,42)" stroke-width="1.51"/><path d="M191,342L166,417L286,401Z" fill="rgb(209,96,57)" stroke="rgb(209,96,57)" stroke-width="1.51"/><path d="M95,172L186,191L160,130Z" fill="rgb(255,176,124)" stroke="rgb(255,176,124)" stroke-width="1.51"/><path d="M204,-40L140,25L179,40Z" fill="rgb(255,128,52)" stroke="rgb(255,128,52)" stroke-width="1.51"/><path d="M254,-94L215,-110L204,-40Z" fill="rgb(255,132,56)" stroke="rgb(255,132,56)" stroke-width="1.51"/><path d="M340,-110L215,-110L254,-94Z" fill="rgb(255,137,64)" stroke="rgb(255,137,64)" stroke-width="1.51"/><path d="M505,-116L215,-110L340,-110Z" fill="rgb(255,146,78)" stroke="rgb(255,146,78)" stroke-width="1.51"/><path d="M-56,-123L215,-110L505,-116Z" fill="rgb(255,131,55)" stroke="rgb(255,131,55)" stroke-width="1.51"/><path d="M124,261L139,343L183,292Z" fill="rgb(234,136,91)" stroke="rgb(234,136,91)" stroke-width="1.51"/><path d="M139,343L166,417L191,342Z" fill="rgb(214,101,59)" stroke="rgb(214,101,59)" stroke-width="1.51"/><path d="M129,-16L140,25L204,-40Z" fill="rgb(255,124,44)" stroke="rgb(255,124,44)" stroke-width="1.51"/><path d="M1173,151L1137,42L1080,146Z" fill="rgb(213,116,81)" stroke="rgb(213,116,81)" stroke-width="1.51"/><path d="M1173,151L1080,146L1104,180Z" fill="rgb(216,132,104)" stroke="rgb(216,132,104)" stroke-width="1.51"/><path d="M1075,341L1153,280L1067,289Z" fill="rgb(192,94,76)" stroke="rgb(192,94,76)" stroke-width="1.51"/><path d="M1112,419L1030,356L1009,446Z" fill="rgb(169,49,39)" stroke="rgb(169,49,39)" stroke-width="1.51"/><path d="M1088,528L1112,419L1009,446Z" fill="rgb(167,45,36)" stroke="rgb(167,45,36)" stroke-width="1.51"/><path d="M166,417L202,510L260,502Z" fill="rgb(204,88,51)" stroke="rgb(204,88,51)" stroke-width="1.51"/><path d="M260,502L202,510L324,516Z" fill="rgb(205,94,58)" stroke="rgb(205,94,58)" stroke-width="1.51"/><path d="M16,175L95,172L12,108Z" fill="rgb(255,161,101)" stroke="rgb(255,161,101)" stroke-width="1.51"/><path d="M127,113L95,172L160,130Z" fill="rgb(255,166,108)" stroke="rgb(255,166,108)" stroke-width="1.51"/><path d="M63,433L128,442L139,343Z" fill="rgb(204,76,35)" stroke="rgb(204,76,35)" stroke-width="1.51"/><path d="M1153,280L1170,181L1104,180Z" fill="rgb(212,134,112)" stroke="rgb(212,134,112)" stroke-width="1.51"/><path d="M116,-89L129,-16L204,-40Z" fill="rgb(255,123,42)" stroke="rgb(255,123,42)" stroke-width="1.51"/><path d="M12,108L95,172L127,113Z" fill="rgb(255,159,97)" stroke="rgb(255,159,97)" stroke-width="1.51"/><path d="M1170,181L1173,151L1104,180Z" fill="rgb(214,131,104)" stroke="rgb(214,131,104)" stroke-width="1.51"/><path d="M1168,-40L1081,-48L1137,42Z" fill="rgb(211,76,29)" stroke="rgb(211,76,29)" stroke-width="1.51"/><path d="M1168,-40L1114,-91L1081,-48Z" fill="rgb(212,78,30)" stroke="rgb(212,78,30)" stroke-width="1.51"/><path d="M1081,-48L1114,-91L1005,-128Z" fill="rgb(218,88,39)" stroke="rgb(218,88,39)" stroke-width="1.51"/><path d="M1153,280L1246,217L1170,181Z" fill="rgb(205,119,98)" stroke="rgb(205,119,98)" stroke-width="1.51"/><path d="M1246,217L1239,99L1173,151Z" fill="rgb(209,117,89)" stroke="rgb(209,117,89)" stroke-width="1.51"/><path d="M1112,419L1170,338L1075,341Z" fill="rgb(173,56,43)" stroke="rgb(173,56,43)" stroke-width="1.51"/><path d="M166,417L128,442L202,510Z" fill="rgb(204,83,44)" stroke="rgb(204,83,44)" stroke-width="1.51"/><path d="M139,343L128,442L166,417Z" fill="rgb(204,81,40)" stroke="rgb(204,81,40)" stroke-width="1.51"/><path d="M46,365L139,343L26,299Z" fill="rgb(223,108,60)" stroke="rgb(223,108,60)" stroke-width="1.51"/><path d="M1112,419L1181,437L1170,338Z" fill="rgb(159,23,24)" stroke="rgb(159,23,24)" stroke-width="1.51"/><path d="M996,486L1088,528L1009,446Z" fill="rgb(171,53,41)" stroke="rgb(171,53,41)" stroke-width="1.51"/><path d="M768,526L1088,528L957,489Z" fill="rgb(180,71,56)" stroke="rgb(180,71,56)" stroke-width="1.51"/><path d="M215,-110L116,-89L204,-40Z" fill="rgb(255,126,48)" stroke="rgb(255,126,48)" stroke-width="1.51"/><path d="M12,108L127,113L23,44Z" fill="rgb(255,142,72)" stroke="rgb(255,142,72)" stroke-width="1.51"/><path d="M1212,60L1168,-40L1137,42Z" fill="rgb(206,76,32)" stroke="rgb(206,76,32)" stroke-width="1.51"/><path d="M1170,338L1211,293L1153,280Z" fill="rgb(185,80,62)" stroke="rgb(185,80,62)" stroke-width="1.51"/><path d="M1173,151L1212,60L1137,42Z" fill="rgb(208,98,61)" stroke="rgb(208,98,61)" stroke-width="1.51"/><path d="M1234,357L1211,293L1170,338Z" fill="rgb(175,61,48)" stroke="rgb(175,61,48)" stroke-width="1.51"/><path d="M1239,99L1212,60L1173,151Z" fill="rgb(206,100,66)" stroke="rgb(206,100,66)" stroke-width="1.51"/><path d="M1088,528L1135,508L1112,419Z" fill="rgb(163,34,30)" stroke="rgb(163,34,30)" stroke-width="1.51"/><path d="M1135,508L1181,437L1112,419Z" fill="rgb(159,26,25)" stroke="rgb(159,26,25)" stroke-width="1.51"/><path d="M26,299L139,343L124,261Z" fill="rgb(233,129,81)" stroke="rgb(233,129,81)" stroke-width="1.51"/><path d="M26,299L124,261L16,175Z" fill="rgb(250,154,103)" stroke="rgb(250,154,103)" stroke-width="1.51"/><path d="M16,175L124,261L95,172Z" fill="rgb(255,179,129)" stroke="rgb(255,179,129)" stroke-width="1.51"/><path d="M127,113L140,25L23,44Z" fill="rgb(255,138,65)" stroke="rgb(255,138,65)" stroke-width="1.51"/><path d="M1229,-93L1171,-119L1168,-40Z" fill="rgb(204,63,17)" stroke="rgb(204,63,17)" stroke-width="1.51"/><path d="M1246,217L1173,151L1170,181Z" fill="rgb(211,126,102)" stroke="rgb(211,126,102)" stroke-width="1.51"/><path d="M1211,293L1246,217L1153,280Z" fill="rgb(194,98,78)" stroke="rgb(194,98,78)" stroke-width="1.51"/><path d="M1307,273L1246,217L1211,293Z" fill="rgb(195,99,79)" stroke="rgb(195,99,79)" stroke-width="1.51"/><path d="M128,442L85,507L202,510Z" fill="rgb(204,80,40)" stroke="rgb(204,80,40)" stroke-width="1.51"/><path d="M46,365L63,433L139,343Z" fill="rgb(210,84,40)" stroke="rgb(210,84,40)" stroke-width="1.51"/><path d="M59,472L63,433L-25,511Z" fill="rgb(203,66,21)" stroke="rgb(203,66,21)" stroke-width="1.51"/><path d="M1168,-40L1171,-119L1114,-91Z" fill="rgb(209,72,24)" stroke="rgb(209,72,24)" stroke-width="1.51"/><path d="M1114,-91L1171,-119L1005,-128Z" fill="rgb(215,82,34)" stroke="rgb(215,82,34)" stroke-width="1.51"/><path d="M1248,-11L1168,-40L1212,60Z" fill="rgb(203,62,16)" stroke="rgb(203,62,16)" stroke-width="1.51"/><path d="M23,44L140,25L129,-16Z" fill="rgb(255,123,42)" stroke="rgb(255,123,42)" stroke-width="1.51"/><path d="M35,-27L23,44L129,-16Z" fill="rgb(255,113,23)" stroke="rgb(255,113,23)" stroke-width="1.51"/><path d="M1216,425L1170,338L1181,437Z" fill="rgb(154,6,19)" stroke="rgb(154,6,19)" stroke-width="1.51"/><path d="M1216,425L1234,357L1170,338Z" fill="rgb(162,32,28)" stroke="rgb(162,32,28)" stroke-width="1.51"/><path d="M59,472L85,507L128,442Z" fill="rgb(203,73,32)" stroke="rgb(203,73,32)" stroke-width="1.51"/><path d="M202,510L-101,525L324,516Z" fill="rgb(204,80,40)" stroke="rgb(204,80,40)" stroke-width="1.51"/><path d="M1243,493L1216,425L1181,437Z" fill="rgb(153,0,17)" stroke="rgb(153,0,17)" stroke-width="1.51"/><path d="M-26,99L16,175L12,108Z" fill="rgb(255,149,83)" stroke="rgb(255,149,83)" stroke-width="1.51"/><path d="M116,-89L35,-27L129,-16Z" fill="rgb(255,116,30)" stroke="rgb(255,116,30)" stroke-width="1.51"/><path d="M63,433L59,472L128,442Z" fill="rgb(203,73,31)" stroke="rgb(203,73,31)" stroke-width="1.51"/><path d="M-59,398L63,433L46,365Z" fill="rgb(204,64,19)" stroke="rgb(204,64,19)" stroke-width="1.51"/><path d="M1316,54L1248,-11L1212,60Z" fill="rgb(204,75,34)" stroke="rgb(204,75,34)" stroke-width="1.51"/><path d="M1316,54L1212,60L1239,99Z" fill="rgb(205,89,51)" stroke="rgb(205,89,51)" stroke-width="1.51"/><path d="M26,299L-33,331L46,365Z" fill="rgb(225,103,53)" stroke="rgb(225,103,53)" stroke-width="1.51"/><path d="M16,175L-17,250L26,299Z" fill="rgb(251,151,98)" stroke="rgb(251,151,98)" stroke-width="1.51"/><path d="M-37,208L-17,250L16,175Z" fill="rgb(255,166,112)" stroke="rgb(255,166,112)" stroke-width="1.51"/><path d="M-26,99L12,108L23,44Z" fill="rgb(255,135,61)" stroke="rgb(255,135,61)" stroke-width="1.51"/><path d="M1248,-11L1229,-93L1168,-40Z" fill="rgb(203,61,15)" stroke="rgb(203,61,15)" stroke-width="1.51"/><path d="M-64,64L-26,99L23,44Z" fill="rgb(255,129,53)" stroke="rgb(255,129,53)" stroke-width="1.51"/><path d="M-17,250L-33,331L26,299Z" fill="rgb(237,123,70)" stroke="rgb(237,123,70)" stroke-width="1.51"/><path d="M-26,99L-37,208L16,175Z" fill="rgb(255,160,99)" stroke="rgb(255,160,99)" stroke-width="1.51"/><path d="M116,-89L26,-94L35,-27Z" fill="rgb(255,112,22)" stroke="rgb(255,112,22)" stroke-width="1.51"/><path d="M35,-27L-13,-19L23,44Z" fill="rgb(255,107,6)" stroke="rgb(255,107,6)" stroke-width="1.51"/><path d="M-56,-123L26,-94L116,-89Z" fill="rgb(255,109,12)" stroke="rgb(255,109,12)" stroke-width="1.51"/><path d="M26,-94L-13,-19L35,-27Z" fill="rgb(255,107,6)" stroke="rgb(255,107,6)" stroke-width="1.51"/><path d="M-134,250L-33,331L-17,250Z" fill="rgb(241,131,78)" stroke="rgb(241,131,78)" stroke-width="1.51"/><path d="M1246,217L1322,200L1239,99Z" fill="rgb(210,122,96)" stroke="rgb(210,122,96)" stroke-width="1.51"/><path d="M1234,357L1307,273L1211,293Z" fill="rgb(182,74,57)" stroke="rgb(182,74,57)" stroke-width="1.51"/><path d="M1315,336L1307,273L1234,357Z" fill="rgb(177,66,51)" stroke="rgb(177,66,51)" stroke-width="1.51"/><path d="M1300,444L1315,336L1234,357Z" fill="rgb(160,27,26)" stroke="rgb(160,27,26)" stroke-width="1.51"/><path d="M1135,508L1243,493L1181,437Z" fill="rgb(155,7,19)" stroke="rgb(155,7,19)" stroke-width="1.51"/><path d="M1088,528L1243,493L1135,508Z" fill="rgb(158,22,23)" stroke="rgb(158,22,23)" stroke-width="1.51"/><path d="M1307,273L1322,200L1246,217Z" fill="rgb(203,115,94)" stroke="rgb(203,115,94)" stroke-width="1.51"/><path d="M1248,-11L1285,-87L1229,-93Z" fill="rgb(203,61,15)" stroke="rgb(203,61,15)" stroke-width="1.51"/><path d="M1327,97L1316,54L1239,99Z" fill="rgb(205,93,57)" stroke="rgb(205,93,57)" stroke-width="1.51"/><path d="M1300,444L1234,357L1216,425Z" fill="rgb(153,0,17)" stroke="rgb(153,0,17)" stroke-width="1.51"/><path d="M1307,273L1315,336L1322,200Z" fill="rgb(193,94,75)" stroke="rgb(193,94,75)" stroke-width="1.51"/><path d="M1322,200L1327,97L1239,99Z" fill="rgb(207,110,78)" stroke="rgb(207,110,78)" stroke-width="1.51"/><path d="M-13,-19L-64,64L23,44Z" fill="rgb(255,116,30)" stroke="rgb(255,116,30)" stroke-width="1.51"/><path d="M-26,99L-87,132L-37,208Z" fill="rgb(255,155,92)" stroke="rgb(255,155,92)" stroke-width="1.51"/><path d="M-37,208L-106,204L-17,250Z" fill="rgb(255,161,107)" stroke="rgb(255,161,107)" stroke-width="1.51"/><path d="M-99,53L-64,64L-13,-19Z" fill="rgb(255,117,31)" stroke="rgb(255,117,31)" stroke-width="1.51"/><path d="M1229,-93L1285,-87L1171,-119Z" fill="rgb(203,61,15)" stroke="rgb(203,61,15)" stroke-width="1.51"/><path d="M1339,-15L1285,-87L1248,-11Z" fill="rgb(203,61,15)" stroke="rgb(203,61,15)" stroke-width="1.51"/><path d="M1339,-15L1248,-11L1316,54Z" fill="rgb(203,65,21)" stroke="rgb(203,65,21)" stroke-width="1.51"/><path d="M1243,493L1300,444L1216,425Z" fill="rgb(153,0,17)" stroke="rgb(153,0,17)" stroke-width="1.51"/><path d="M-64,64L-87,132L-26,99Z" fill="rgb(255,139,68)" stroke="rgb(255,139,68)" stroke-width="1.51"/><path d="M-101,373L-59,398L-33,331Z" fill="rgb(214,81,33)" stroke="rgb(214,81,33)" stroke-width="1.51"/><path d="M-33,331L-59,398L46,365Z" fill="rgb(215,83,35)" stroke="rgb(215,83,35)" stroke-width="1.51"/><path d="M59,472L-25,511L85,507Z" fill="rgb(203,67,23)" stroke="rgb(203,67,23)" stroke-width="1.51"/><path d="M-59,398L-25,511L63,433Z" fill="rgb(203,61,15)" stroke="rgb(203,61,15)" stroke-width="1.51"/><path d="M85,507L-101,525L202,510Z" fill="rgb(203,70,27)" stroke="rgb(203,70,27)" stroke-width="1.51"/><path d="M324,516L-101,525L768,526Z" fill="rgb(206,102,69)" stroke="rgb(206,102,69)" stroke-width="1.51"/><path d="M-87,132L-106,204L-37,208Z" fill="rgb(255,166,108)" stroke="rgb(255,166,108)" stroke-width="1.51"/><path d="M1327,97L1339,-15L1316,54Z" fill="rgb(204,80,39)" stroke="rgb(204,80,39)" stroke-width="1.51"/><path d="M1322,200L1339,-15L1327,97Z" fill="rgb(205,97,62)" stroke="rgb(205,97,62)" stroke-width="1.51"/><path d="M1337,507L1339,-15L1322,200Z" fill="rgb(203,115,94)" stroke="rgb(203,115,94)" stroke-width="1.51"/><path d="M-87,132L-99,53L-106,204Z" fill="rgb(255,150,84)" stroke="rgb(255,150,84)" stroke-width="1.51"/><path d="M-64,64L-99,53L-87,132Z" fill="rgb(255,134,60)" stroke="rgb(255,134,60)" stroke-width="1.51"/><path d="M-122,-34L-99,53L-13,-19Z" fill="rgb(255,105,0)" stroke="rgb(255,105,0)" stroke-width="1.51"/><path d="M-134,250L-101,373L-33,331Z" fill="rgb(229,109,58)" stroke="rgb(229,109,58)" stroke-width="1.51"/><path d="M-59,398L-101,525L-25,511Z" fill="rgb(203,61,15)" stroke="rgb(203,61,15)" stroke-width="1.51"/><path d="M26,-94L-56,-123L-13,-19Z" fill="rgb(255,105,0)" stroke="rgb(255,105,0)" stroke-width="1.51"/><path d="M215,-110L-56,-123L116,-89Z" fill="rgb(255,116,30)" stroke="rgb(255,116,30)" stroke-width="1.51"/><path d="M1005,-128L-56,-123L505,-116Z" fill="rgb(255,160,99)" stroke="rgb(255,160,99)" stroke-width="1.51"/><path d="M-101,373L-100,400L-59,398Z" fill="rgb(206,67,20)" stroke="rgb(206,67,20)" stroke-width="1.51"/><path d="M-101,373L-134,250L-100,400Z" fill="rgb(222,96,46)" stroke="rgb(222,96,46)" stroke-width="1.51"/><path d="M-106,204L-134,250L-17,250Z" fill="rgb(254,154,100)" stroke="rgb(254,154,100)" stroke-width="1.51"/><path d="M-99,53L-134,250L-106,204Z" fill="rgb(255,163,103)" stroke="rgb(255,163,103)" stroke-width="1.51"/><path d="M1243,493L1337,507L1300,444Z" fill="rgb(153,0,17)" stroke="rgb(153,0,17)" stroke-width="1.51"/><path d="M1300,444L1337,507L1315,336Z" fill="rgb(153,0,17)" stroke="rgb(153,0,17)" stroke-width="1.51"/><path d="M1315,336L1337,507L1322,200Z" fill="rgb(170,51,40)" stroke="rgb(170,51,40)" stroke-width="1.51"/><path d="M1088,528L1337,507L1243,493Z" fill="rgb(153,0,17)" stroke="rgb(153,0,17)" stroke-width="1.51"/><path d="M-99,53L-122,-34L-134,250Z" fill="rgb(255,137,64)" stroke="rgb(255,137,64)" stroke-width="1.51"/><path d="M-56,-123L-122,-34L-13,-19Z" fill="rgb(255,105,0)" stroke="rgb(255,105,0)" stroke-width="1.51"/><path d="M-25,511L-101,525L85,507Z" fill="rgb(203,61,15)" stroke="rgb(203,61,15)" stroke-width="1.51"/><path d="M768,526L-101,525L1088,528Z" fill="rgb(211,129,107)" stroke="rgb(211,129,107)" stroke-width="1.51"/><path d="M-100,400L-101,525L-59,398Z" fill="rgb(203,61,15)" stroke="rgb(203,61,15)" stroke-width="1.51"/><path d="M-134,250L-101,525L-100,400Z" fill="rgb(206,66,20)" stroke="rgb(206,66,20)" stroke-width="1.51"/><path d="M-56,-123L-123,-121L-122,-34Z" fill="rgb(255,105,0)" stroke="rgb(255,105,0)" stroke-width="1.51"/><path d="M-122,-34L-123,-121L-134,250Z" fill="rgb(255,116,31)" stroke="rgb(255,116,31)" stroke-width="1.51"/></svg>