<svg xmlns="http://www.w3.org/2000/svg" width="1200" height="400"><path d="M630,206L634,151L572,136Z" fill="rgb(245,215,193)" stroke="rgb(245,215,193)" stroke-width="1.51"/><path d="M572,136L542,191L630,206Z" fill="rgb(246,219,199)" stroke="rgb(246,219,199)" stroke-width="1.51"/><path d="M542,191L577,255L630,206Z" fill="rgb(251,227,203)" stroke="rgb(251,227,203)" stroke-width="1.51"/><path d="M542,191L514,249L577,255Z" fill="rgb(250,215,189)" stroke="rgb(250,215,189)" stroke-width="1.51"/><path d="M483,118L501,218L542,191Z" fill="rgb(241,206,184)" stroke="rgb(241,206,184)" stroke-width="1.51"/><path d="M501,218L514,249L542,191Z" fill="rgb(248,214,190)" stroke="rgb(248,214,190)" stroke-width="1.51"/><path d="M572,136L483,118L542,191Z" fill="rgb(238,196,174)" stroke="rgb(238,196,174)" stroke-width="1.51"/><path d="M629,55L546,76L572,136Z" fill="rgb(229,174,151)" stroke="rgb(229,174,151)" stroke-width="1.51"/><path d="M577,255L660,267L630,206Z" fill="rgb(254,219,190)" stroke="rgb(254,219,190)" stroke-width="1.51"/><path d="M716,225L712,132L634,151Z" fill="rgb(247,210,184)" stroke="rgb(247,210,184)" stroke-width="1.51"/><path d="M659,332L660,267L577,255Z" fill="rgb(255,205,168)" stroke="rgb(255,205,168)" stroke-width="1.51"/><path d="M716,225L634,151L630,206Z" fill="rgb(252,226,201)" stroke="rgb(252,226,201)" stroke-width="1.51"/><path d="M634,151L629,55L572,136Z" fill="rgb(236,189,166)" stroke="rgb(236,189,166)" stroke-width="1.51"/><path d="M712,132L629,55L634,151Z" fill="rgb(237,183,158)" stroke="rgb(237,183,158)" stroke-width="1.51"/><path d="M546,76L483,118L572,136Z" fill="rgb(230,176,154)" stroke="rgb(230,176,154)" stroke-width="1.51"/><path d="M660,267L716,225L630,206Z" fill="rgb(255,218,187)" stroke="rgb(255,218,187)" stroke-width="1.51"/><path d="M575,-7L492,62L546,76Z" fill="rgb(216,142,120)" stroke="rgb(216,142,120)" stroke-width="1.51"/><path d="M546,76L492,62L483,118Z" fill="rgb(223,159,137)" stroke="rgb(223,159,137)" stroke-width="1.51"/><path d="M514,249L558,329L577,255Z" fill="rgb(251,202,167)" stroke="rgb(251,202,167)" stroke-width="1.51"/><path d="M659,332L700,301L660,267Z" fill="rgb(255,196,154)" stroke="rgb(255,196,154)" stroke-width="1.51"/><path d="M660,267L700,301L716,225Z" fill="rgb(255,205,168)" stroke="rgb(255,205,168)" stroke-width="1.51"/><path d="M558,329L659,332L577,255Z" fill="rgb(255,202,163)" stroke="rgb(255,202,163)" stroke-width="1.51"/><path d="M492,62L439,103L483,118Z" fill="rgb(222,157,135)" stroke="rgb(222,157,135)" stroke-width="1.51"/><path d="M483,118L414,219L501,218Z" fill="rgb(240,203,182)" stroke="rgb(240,203,182)" stroke-width="1.51"/><path d="M402,279L509,331L514,249Z" fill="rgb(246,186,150)" stroke="rgb(246,186,150)" stroke-width="1.51"/><path d="M798,270L769,182L716,225Z" fill="rgb(255,210,176)" stroke="rgb(255,210,176)" stroke-width="1.51"/><path d="M716,225L769,182L712,132Z" fill="rgb(250,210,182)" stroke="rgb(250,210,182)" stroke-width="1.51"/><path d="M638,-52L575,-7L629,55Z" fill="rgb(211,129,107)" stroke="rgb(211,129,107)" stroke-width="1.51"/><path d="M638,415L693,375L659,332Z" fill="rgb(255,174,120)" stroke="rgb(255,174,120)" stroke-width="1.51"/><path d="M514,249L509,331L558,329Z" fill="rgb(250,190,151)" stroke="rgb(250,190,151)" stroke-width="1.51"/><path d="M414,219L514,249L501,218Z" fill="rgb(245,204,178)" stroke="rgb(245,204,178)" stroke-width="1.51"/><path d="M629,55L575,-7L546,76Z" fill="rgb(219,149,127)" stroke="rgb(219,149,127)" stroke-width="1.51"/><path d="M492,62L386,59L439,103Z" fill="rgb(216,142,120)" stroke="rgb(216,142,120)" stroke-width="1.51"/><path d="M735,21L629,55L712,132Z" fill="rgb(227,157,130)" stroke="rgb(227,157,130)" stroke-width="1.51"/><path d="M439,103L414,219L483,118Z" fill="rgb(232,180,158)" stroke="rgb(232,180,158)" stroke-width="1.51"/><path d="M769,182L787,137L712,132Z" fill="rgb(244,193,163)" stroke="rgb(244,193,163)" stroke-width="1.51"/><path d="M787,137L735,21L712,132Z" fill="rgb(232,166,136)" stroke="rgb(232,166,136)" stroke-width="1.51"/><path d="M414,219L402,279L514,249Z" fill="rgb(243,192,163)" stroke="rgb(243,192,163)" stroke-width="1.51"/><path d="M575,-7L467,-2L492,62Z" fill="rgb(207,125,103)" stroke="rgb(207,125,103)" stroke-width="1.51"/><path d="M659,332L693,375L700,301Z" fill="rgb(255,184,135)" stroke="rgb(255,184,135)" stroke-width="1.51"/><path d="M700,301L798,270L716,225Z" fill="rgb(255,200,160)" stroke="rgb(255,200,160)" stroke-width="1.51"/><path d="M769,182L840,187L787,137Z" fill="rgb(248,198,166)" stroke="rgb(248,198,166)" stroke-width="1.51"/><path d="M638,415L659,332L558,329Z" fill="rgb(255,183,134)" stroke="rgb(255,183,134)" stroke-width="1.51"/><path d="M771,338L798,270L700,301Z" fill="rgb(255,186,139)" stroke="rgb(255,186,139)" stroke-width="1.51"/><path d="M731,-18L638,-52L629,55Z" fill="rgb(211,124,99)" stroke="rgb(211,124,99)" stroke-width="1.51"/><path d="M575,-7L469,-117L467,-2Z" fill="rgb(202,114,93)" stroke="rgb(202,114,93)" stroke-width="1.51"/><path d="M775,1L731,-18L735,21Z" fill="rgb(209,116,88)" stroke="rgb(209,116,88)" stroke-width="1.51"/><path d="M735,21L731,-18L629,55Z" fill="rgb(215,131,104)" stroke="rgb(215,131,104)" stroke-width="1.51"/><path d="M693,375L771,338L700,301Z" fill="rgb(255,179,128)" stroke="rgb(255,179,128)" stroke-width="1.51"/><path d="M331,143L336,224L414,219Z" fill="rgb(236,190,169)" stroke="rgb(236,190,169)" stroke-width="1.51"/><path d="M414,219L336,224L402,279Z" fill="rgb(240,185,156)" stroke="rgb(240,185,156)" stroke-width="1.51"/><path d="M467,-2L386,59L492,62Z" fill="rgb(208,125,104)" stroke="rgb(208,125,104)" stroke-width="1.51"/><path d="M693,375L725,402L771,338Z" fill="rgb(255,167,110)" stroke="rgb(255,167,110)" stroke-width="1.51"/><path d="M550,437L638,415L558,329Z" fill="rgb(255,171,117)" stroke="rgb(255,171,117)" stroke-width="1.51"/><path d="M508,404L558,329L509,331Z" fill="rgb(253,174,126)" stroke="rgb(253,174,126)" stroke-width="1.51"/><path d="M395,331L508,404L509,331Z" fill="rgb(248,164,117)" stroke="rgb(248,164,117)" stroke-width="1.51"/><path d="M849,280L840,187L798,270Z" fill="rgb(255,197,155)" stroke="rgb(255,197,155)" stroke-width="1.51"/><path d="M798,270L840,187L769,182Z" fill="rgb(255,210,175)" stroke="rgb(255,210,175)" stroke-width="1.51"/><path d="M798,27L775,1L735,21Z" fill="rgb(213,122,91)" stroke="rgb(213,122,91)" stroke-width="1.51"/><path d="M840,187L840,151L787,137Z" fill="rgb(246,190,156)" stroke="rgb(246,190,156)" stroke-width="1.51"/><path d="M798,27L735,21L787,137Z" fill="rgb(224,145,114)" stroke="rgb(224,145,114)" stroke-width="1.51"/><path d="M861,51L798,27L787,137Z" fill="rgb(226,145,112)" stroke="rgb(226,145,112)" stroke-width="1.51"/><path d="M402,279L395,331L509,331Z" fill="rgb(244,171,130)" stroke="rgb(244,171,130)" stroke-width="1.51"/><path d="M333,264L395,331L402,279Z" fill="rgb(239,167,131)" stroke="rgb(239,167,131)" stroke-width="1.51"/><path d="M638,415L725,402L693,375Z" fill="rgb(255,164,105)" stroke="rgb(255,164,105)" stroke-width="1.51"/><path d="M331,143L414,219L439,103Z" fill="rgb(230,175,153)" stroke="rgb(230,175,153)" stroke-width="1.51"/><path d="M508,404L550,437L558,329Z" fill="rgb(255,164,112)" stroke="rgb(255,164,112)" stroke-width="1.51"/><path d="M638,415L729,489L725,402Z" fill="rgb(255,162,102)" stroke="rgb(255,162,102)" stroke-width="1.51"/><path d="M556,496L550,437L466,525Z" fill="rgb(255,159,105)" stroke="rgb(255,159,105)" stroke-width="1.51"/><path d="M386,59L331,143L439,103Z" fill="rgb(218,146,124)" stroke="rgb(218,146,124)" stroke-width="1.51"/><path d="M386,59L354,46L331,143Z" fill="rgb(211,132,110)" stroke="rgb(211,132,110)" stroke-width="1.51"/><path d="M355,-36L354,46L386,59Z" fill="rgb(197,102,82)" stroke="rgb(197,102,82)" stroke-width="1.51"/><path d="M861,335L849,280L798,270Z" fill="rgb(255,181,130)" stroke="rgb(255,181,130)" stroke-width="1.51"/><path d="M914,97L861,51L840,151Z" fill="rgb(232,154,118)" stroke="rgb(232,154,118)" stroke-width="1.51"/><path d="M861,335L798,270L771,338Z" fill="rgb(255,177,125)" stroke="rgb(255,177,125)" stroke-width="1.51"/><path d="M336,224L333,264L402,279Z" fill="rgb(238,175,144)" stroke="rgb(238,175,144)" stroke-width="1.51"/><path d="M285,225L333,264L336,224Z" fill="rgb(235,174,146)" stroke="rgb(235,174,146)" stroke-width="1.51"/><path d="M731,-18L687,-86L638,-52Z" fill="rgb(210,122,96)" stroke="rgb(210,122,96)" stroke-width="1.51"/><path d="M638,-52L576,-116L575,-7Z" fill="rgb(210,130,109)" stroke="rgb(210,130,109)" stroke-width="1.51"/><path d="M809,-106L687,-86L731,-18Z" fill="rgb(209,116,88)" stroke="rgb(209,116,88)" stroke-width="1.51"/><path d="M643,-113L576,-116L638,-52Z" fill="rgb(211,129,106)" stroke="rgb(211,129,106)" stroke-width="1.51"/><path d="M467,-2L403,-52L386,59Z" fill="rgb(195,100,80)" stroke="rgb(195,100,80)" stroke-width="1.51"/><path d="M687,-86L643,-113L638,-52Z" fill="rgb(210,125,100)" stroke="rgb(210,125,100)" stroke-width="1.51"/><path d="M775,1L809,-106L731,-18Z" fill="rgb(208,113,84)" stroke="rgb(208,113,84)" stroke-width="1.51"/><path d="M798,27L838,-40L775,1Z" fill="rgb(207,110,78)" stroke="rgb(207,110,78)" stroke-width="1.51"/><path d="M840,151L861,51L787,137Z" fill="rgb(236,165,131)" stroke="rgb(236,165,131)" stroke-width="1.51"/><path d="M914,97L840,151L941,223Z" fill="rgb(246,182,143)" stroke="rgb(246,182,143)" stroke-width="1.51"/><path d="M437,-88L403,-52L467,-2Z" fill="rgb(197,102,82)" stroke="rgb(197,102,82)" stroke-width="1.51"/><path d="M395,331L392,445L508,404Z" fill="rgb(247,145,92)" stroke="rgb(247,145,92)" stroke-width="1.51"/><path d="M333,264L358,371L395,331Z" fill="rgb(238,155,114)" stroke="rgb(238,155,114)" stroke-width="1.51"/><path d="M469,-117L437,-88L467,-2Z" fill="rgb(199,106,86)" stroke="rgb(199,106,86)" stroke-width="1.51"/><path d="M550,437L625,484L638,415Z" fill="rgb(255,172,117)" stroke="rgb(255,172,117)" stroke-width="1.51"/><path d="M556,496L625,484L550,437Z" fill="rgb(255,168,113)" stroke="rgb(255,168,113)" stroke-width="1.51"/><path d="M941,223L840,151L840,187Z" fill="rgb(252,200,163)" stroke="rgb(252,200,163)" stroke-width="1.51"/><path d="M805,408L861,335L771,338Z" fill="rgb(255,162,103)" stroke="rgb(255,162,103)" stroke-width="1.51"/><path d="M805,408L771,338L725,402Z" fill="rgb(255,160,99)" stroke="rgb(255,160,99)" stroke-width="1.51"/><path d="M729,489L805,408L725,402Z" fill="rgb(255,156,93)" stroke="rgb(255,156,93)" stroke-width="1.51"/><path d="M333,264L268,327L358,371Z" fill="rgb(235,148,107)" stroke="rgb(235,148,107)" stroke-width="1.51"/><path d="M331,143L285,225L336,224Z" fill="rgb(233,184,162)" stroke="rgb(233,184,162)" stroke-width="1.51"/><path d="M270,152L285,225L331,143Z" fill="rgb(227,168,146)" stroke="rgb(227,168,146)" stroke-width="1.51"/><path d="M576,-116L469,-117L575,-7Z" fill="rgb(206,120,99)" stroke="rgb(206,120,99)" stroke-width="1.51"/><path d="M269,67L270,152L331,143Z" fill="rgb(215,140,118)" stroke="rgb(215,140,118)" stroke-width="1.51"/><path d="M403,-52L355,-36L386,59Z" fill="rgb(192,93,74)" stroke="rgb(192,93,74)" stroke-width="1.51"/><path d="M343,-94L355,-36L403,-52Z" fill="rgb(190,90,72)" stroke="rgb(190,90,72)" stroke-width="1.51"/><path d="M343,-94L403,-52L437,-88Z" fill="rgb(193,95,76)" stroke="rgb(193,95,76)" stroke-width="1.51"/><path d="M466,525L550,437L508,404Z" fill="rgb(255,156,102)" stroke="rgb(255,156,102)" stroke-width="1.51"/><path d="M861,51L838,-40L798,27Z" fill="rgb(210,113,80)" stroke="rgb(210,113,80)" stroke-width="1.51"/><path d="M687,-86L809,-106L643,-113Z" fill="rgb(209,119,92)" stroke="rgb(209,119,92)" stroke-width="1.51"/><path d="M269,67L331,143L354,46Z" fill="rgb(208,127,105)" stroke="rgb(208,127,105)" stroke-width="1.51"/><path d="M941,223L840,187L849,280Z" fill="rgb(255,197,155)" stroke="rgb(255,197,155)" stroke-width="1.51"/><path d="M861,51L914,-5L838,-40Z" fill="rgb(207,103,70)" stroke="rgb(207,103,70)" stroke-width="1.51"/><path d="M358,371L392,445L395,331Z" fill="rgb(242,139,89)" stroke="rgb(242,139,89)" stroke-width="1.51"/><path d="M322,443L392,445L358,371Z" fill="rgb(241,129,76)" stroke="rgb(241,129,76)" stroke-width="1.51"/><path d="M788,521L729,489L625,484Z" fill="rgb(255,160,99)" stroke="rgb(255,160,99)" stroke-width="1.51"/><path d="M625,484L729,489L638,415Z" fill="rgb(255,166,107)" stroke="rgb(255,166,107)" stroke-width="1.51"/><path d="M275,-53L269,67L354,46Z" fill="rgb(189,89,70)" stroke="rgb(189,89,70)" stroke-width="1.51"/><path d="M963,271L941,223L849,280Z" fill="rgb(255,184,135)" stroke="rgb(255,184,135)" stroke-width="1.51"/><path d="M889,-123L809,-106L838,-40Z" fill="rgb(207,105,72)" stroke="rgb(207,105,72)" stroke-width="1.51"/><path d="M838,-40L809,-106L775,1Z" fill="rgb(207,109,78)" stroke="rgb(207,109,78)" stroke-width="1.51"/><path d="M643,-113L889,-123L576,-116Z" fill="rgb(210,120,94)" stroke="rgb(210,120,94)" stroke-width="1.51"/><path d="M285,225L258,290L333,264Z" fill="rgb(232,163,131)" stroke="rgb(232,163,131)" stroke-width="1.51"/><path d="M182,191L258,290L285,225Z" fill="rgb(229,162,134)" stroke="rgb(229,162,134)" stroke-width="1.51"/><path d="M182,191L285,225L270,152Z" fill="rgb(227,168,145)" stroke="rgb(227,168,145)" stroke-width="1.51"/><path d="M861,335L963,271L849,280Z" fill="rgb(255,175,121)" stroke="rgb(255,175,121)" stroke-width="1.51"/><path d="M805,408L839,439L861,335Z" fill="rgb(255,149,83)" stroke="rgb(255,149,83)" stroke-width="1.51"/><path d="M788,521L839,439L805,408Z" fill="rgb(255,150,84)" stroke="rgb(255,150,84)" stroke-width="1.51"/><path d="M914,97L933,54L861,51Z" fill="rgb(224,134,97)" stroke="rgb(224,134,97)" stroke-width="1.51"/><path d="M1019,146L933,54L914,97Z" fill="rgb(232,145,104)" stroke="rgb(232,145,104)" stroke-width="1.51"/><path d="M258,290L268,327L333,264Z" fill="rgb(231,151,115)" stroke="rgb(231,151,115)" stroke-width="1.51"/><path d="M933,54L914,-5L861,51Z" fill="rgb(215,116,80)" stroke="rgb(215,116,80)" stroke-width="1.51"/><path d="M355,-36L275,-53L354,46Z" fill="rgb(187,83,65)" stroke="rgb(187,83,65)" stroke-width="1.51"/><path d="M469,-117L343,-94L437,-88Z" fill="rgb(195,99,79)" stroke="rgb(195,99,79)" stroke-width="1.51"/><path d="M322,443L392,485L392,445Z" fill="rgb(241,131,78)" stroke="rgb(241,131,78)" stroke-width="1.51"/><path d="M392,445L466,525L508,404Z" fill="rgb(250,147,93)" stroke="rgb(250,147,93)" stroke-width="1.51"/><path d="M392,485L466,525L392,445Z" fill="rgb(246,140,87)" stroke="rgb(246,140,87)" stroke-width="1.51"/><path d="M556,496L788,521L625,484Z" fill="rgb(255,166,108)" stroke="rgb(255,166,108)" stroke-width="1.51"/><path d="M941,223L1019,146L914,97Z" fill="rgb(247,174,133)" stroke="rgb(247,174,133)" stroke-width="1.51"/><path d="M959,367L963,271L861,335Z" fill="rgb(255,162,102)" stroke="rgb(255,162,102)" stroke-width="1.51"/><path d="M261,409L322,443L358,371Z" fill="rgb(236,121,69)" stroke="rgb(236,121,69)" stroke-width="1.51"/><path d="M343,-94L275,-53L355,-36Z" fill="rgb(186,83,65)" stroke="rgb(186,83,65)" stroke-width="1.51"/><path d="M729,489L788,521L805,408Z" fill="rgb(255,154,90)" stroke="rgb(255,154,90)" stroke-width="1.51"/><path d="M937,445L959,367L861,335Z" fill="rgb(255,144,75)" stroke="rgb(255,144,75)" stroke-width="1.51"/><path d="M466,525L788,521L556,496Z" fill="rgb(255,172,117)" stroke="rgb(255,172,117)" stroke-width="1.51"/><path d="M963,271L995,226L941,223Z" fill="rgb(255,184,135)" stroke="rgb(255,184,135)" stroke-width="1.51"/><path d="M920,-121L889,-123L914,-5Z" fill="rgb(206,98,63)" stroke="rgb(206,98,63)" stroke-width="1.51"/><path d="M1021,296L995,226L963,271Z" fill="rgb(255,174,120)" stroke="rgb(255,174,120)" stroke-width="1.51"/><path d="M268,327L261,409L358,371Z" fill="rgb(233,128,81)" stroke="rgb(233,128,81)" stroke-width="1.51"/><path d="M322,443L348,518L392,485Z" fill="rgb(240,128,76)" stroke="rgb(240,128,76)" stroke-width="1.51"/><path d="M206,344L261,409L268,327Z" fill="rgb(228,122,77)" stroke="rgb(228,122,77)" stroke-width="1.51"/><path d="M937,445L861,335L839,439Z" fill="rgb(255,143,72)" stroke="rgb(255,143,72)" stroke-width="1.51"/><path d="M258,290L206,344L268,327Z" fill="rgb(228,135,95)" stroke="rgb(228,135,95)" stroke-width="1.51"/><path d="M170,146L182,191L270,152Z" fill="rgb(218,147,125)" stroke="rgb(218,147,125)" stroke-width="1.51"/><path d="M170,146L270,152L269,67Z" fill="rgb(211,131,109)" stroke="rgb(211,131,109)" stroke-width="1.51"/><path d="M914,-5L889,-123L838,-40Z" fill="rgb(206,101,67)" stroke="rgb(206,101,67)" stroke-width="1.51"/><path d="M809,-106L889,-123L643,-113Z" fill="rgb(208,112,82)" stroke="rgb(208,112,82)" stroke-width="1.51"/><path d="M576,-116L889,-123L469,-117Z" fill="rgb(211,126,102)" stroke="rgb(211,126,102)" stroke-width="1.51"/><path d="M1031,-15L914,-5L933,54Z" fill="rgb(208,98,61)" stroke="rgb(208,98,61)" stroke-width="1.51"/><path d="M161,44L170,146L269,67Z" fill="rgb(198,106,86)" stroke="rgb(198,106,86)" stroke-width="1.51"/><path d="M343,-94L269,-89L275,-53Z" fill="rgb(184,77,61)" stroke="rgb(184,77,61)" stroke-width="1.51"/><path d="M469,-117L269,-89L343,-94Z" fill="rgb(190,89,70)" stroke="rgb(190,89,70)" stroke-width="1.51"/><path d="M241,499L348,518L322,443Z" fill="rgb(235,120,67)" stroke="rgb(235,120,67)" stroke-width="1.51"/><path d="M392,485L348,518L466,525Z" fill="rgb(245,137,84)" stroke="rgb(245,137,84)" stroke-width="1.51"/><path d="M261,409L241,499L322,443Z" fill="rgb(232,114,63)" stroke="rgb(232,114,63)" stroke-width="1.51"/><path d="M164,299L206,344L258,290Z" fill="rgb(225,132,93)" stroke="rgb(225,132,93)" stroke-width="1.51"/><path d="M995,226L1019,146L941,223Z" fill="rgb(255,194,151)" stroke="rgb(255,194,151)" stroke-width="1.51"/><path d="M1070,110L1019,146L1080,192Z" fill="rgb(246,161,114)" stroke="rgb(246,161,114)" stroke-width="1.51"/><path d="M199,-16L269,67L275,-53Z" fill="rgb(179,69,53)" stroke="rgb(179,69,53)" stroke-width="1.51"/><path d="M182,191L164,299L258,290Z" fill="rgb(225,147,115)" stroke="rgb(225,147,115)" stroke-width="1.51"/><path d="M788,521L888,494L839,439Z" fill="rgb(255,147,79)" stroke="rgb(255,147,79)" stroke-width="1.51"/><path d="M1037,437L1004,321L959,367Z" fill="rgb(255,137,65)" stroke="rgb(255,137,65)" stroke-width="1.51"/><path d="M959,367L1004,321L963,271Z" fill="rgb(255,158,97)" stroke="rgb(255,158,97)" stroke-width="1.51"/><path d="M888,494L937,445L839,439Z" fill="rgb(255,141,71)" stroke="rgb(255,141,71)" stroke-width="1.51"/><path d="M994,-74L920,-121L914,-5Z" fill="rgb(205,94,58)" stroke="rgb(205,94,58)" stroke-width="1.51"/><path d="M212,-72L199,-16L275,-53Z" fill="rgb(177,65,50)" stroke="rgb(177,65,50)" stroke-width="1.51"/><path d="M1004,321L1021,296L963,271Z" fill="rgb(255,164,104)" stroke="rgb(255,164,104)" stroke-width="1.51"/><path d="M1088,261L1021,296L1103,345Z" fill="rgb(255,154,90)" stroke="rgb(255,154,90)" stroke-width="1.51"/><path d="M1019,146L1025,48L933,54Z" fill="rgb(228,132,91)" stroke="rgb(228,132,91)" stroke-width="1.51"/><path d="M1061,69L1025,48L1019,146Z" fill="rgb(230,130,86)" stroke="rgb(230,130,86)" stroke-width="1.51"/><path d="M135,287L164,299L182,191Z" fill="rgb(222,140,109)" stroke="rgb(222,140,109)" stroke-width="1.51"/><path d="M206,344L213,441L261,409Z" fill="rgb(227,106,56)" stroke="rgb(227,106,56)" stroke-width="1.51"/><path d="M94,224L135,287L182,191Z" fill="rgb(221,144,116)" stroke="rgb(221,144,116)" stroke-width="1.51"/><path d="M199,-16L161,44L269,67Z" fill="rgb(184,79,62)" stroke="rgb(184,79,62)" stroke-width="1.51"/><path d="M103,-5L132,53L161,44Z" fill="rgb(176,64,50)" stroke="rgb(176,64,50)" stroke-width="1.51"/><path d="M269,-89L212,-72L275,-53Z" fill="rgb(179,69,54)" stroke="rgb(179,69,54)" stroke-width="1.51"/><path d="M129,440L213,441L206,344Z" fill="rgb(223,97,47)" stroke="rgb(223,97,47)" stroke-width="1.51"/><path d="M1031,-15L994,-74L914,-5Z" fill="rgb(205,90,52)" stroke="rgb(205,90,52)" stroke-width="1.51"/><path d="M937,445L1037,437L959,367Z" fill="rgb(255,132,56)" stroke="rgb(255,132,56)" stroke-width="1.51"/><path d="M888,494L938,502L937,445Z" fill="rgb(255,138,66)" stroke="rgb(255,138,66)" stroke-width="1.51"/><path d="M788,521L938,502L888,494Z" fill="rgb(255,143,74)" stroke="rgb(255,143,74)" stroke-width="1.51"/><path d="M164,299L107,340L206,344Z" fill="rgb(220,118,77)" stroke="rgb(220,118,77)" stroke-width="1.51"/><path d="M94,224L182,191L170,146Z" fill="rgb(219,150,128)" stroke="rgb(219,150,128)" stroke-width="1.51"/><path d="M1061,69L1031,-15L1025,48Z" fill="rgb(215,101,60)" stroke="rgb(215,101,60)" stroke-width="1.51"/><path d="M1025,48L1031,-15L933,54Z" fill="rgb(213,104,64)" stroke="rgb(213,104,64)" stroke-width="1.51"/><path d="M1070,110L1061,69L1019,146Z" fill="rgb(236,140,94)" stroke="rgb(236,140,94)" stroke-width="1.51"/><path d="M161,44L132,53L170,146Z" fill="rgb(193,96,76)" stroke="rgb(193,96,76)" stroke-width="1.51"/><path d="M103,-5L161,44L199,-16Z" fill="rgb(172,55,43)" stroke="rgb(172,55,43)" stroke-width="1.51"/><path d="M1080,192L1019,146L995,226Z" fill="rgb(255,183,138)" stroke="rgb(255,183,138)" stroke-width="1.51"/><path d="M213,441L241,499L261,409Z" fill="rgb(228,107,57)" stroke="rgb(228,107,57)" stroke-width="1.51"/><path d="M194,510L241,499L213,441Z" fill="rgb(226,104,53)" stroke="rgb(226,104,53)" stroke-width="1.51"/><path d="M1088,261L1080,192L995,226Z" fill="rgb(255,179,128)" stroke="rgb(255,179,128)" stroke-width="1.51"/><path d="M1088,261L995,226L1021,296Z" fill="rgb(255,170,115)" stroke="rgb(255,170,115)" stroke-width="1.51"/><path d="M1103,345L1021,296L1004,321Z" fill="rgb(255,150,85)" stroke="rgb(255,150,85)" stroke-width="1.51"/><path d="M135,287L107,340L164,299Z" fill="rgb(218,120,82)" stroke="rgb(218,120,82)" stroke-width="1.51"/><path d="M85,115L94,224L170,146Z" fill="rgb(210,131,109)" stroke="rgb(210,131,109)" stroke-width="1.51"/><path d="M1014,511L1037,437L937,445Z" fill="rgb(255,129,53)" stroke="rgb(255,129,53)" stroke-width="1.51"/><path d="M132,53L85,115L170,146Z" fill="rgb(197,104,84)" stroke="rgb(197,104,84)" stroke-width="1.51"/><path d="M58,70L85,115L132,53Z" fill="rgb(186,83,66)" stroke="rgb(186,83,66)" stroke-width="1.51"/><path d="M15,275L107,340L135,287Z" fill="rgb(214,114,78)" stroke="rgb(214,114,78)" stroke-width="1.51"/><path d="M241,499L194,510L348,518Z" fill="rgb(231,112,60)" stroke="rgb(231,112,60)" stroke-width="1.51"/><path d="M348,518L-135,520L466,525Z" fill="rgb(227,105,55)" stroke="rgb(227,105,55)" stroke-width="1.51"/><path d="M129,440L194,510L213,441Z" fill="rgb(222,97,47)" stroke="rgb(222,97,47)" stroke-width="1.51"/><path d="M135,-79L103,-5L199,-16Z" fill="rgb(169,48,38)" stroke="rgb(169,48,38)" stroke-width="1.51"/><path d="M212,-72L135,-79L199,-16Z" fill="rgb(172,56,43)" stroke="rgb(172,56,43)" stroke-width="1.51"/><path d="M269,-89L135,-79L212,-72Z" fill="rgb(175,60,47)" stroke="rgb(175,60,47)" stroke-width="1.51"/><path d="M10,-102L135,-79L269,-89Z" fill="rgb(168,46,37)" stroke="rgb(168,46,37)" stroke-width="1.51"/><path d="M1160,146L1070,110L1080,192Z" fill="rgb(247,156,107)" stroke="rgb(247,156,107)" stroke-width="1.51"/><path d="M1143,77L1061,69L1070,110Z" fill="rgb(229,123,77)" stroke="rgb(229,123,77)" stroke-width="1.51"/><path d="M1037,437L1103,345L1004,321Z" fill="rgb(255,134,61)" stroke="rgb(255,134,61)" stroke-width="1.51"/><path d="M107,340L129,440L206,344Z" fill="rgb(219,100,54)" stroke="rgb(219,100,54)" stroke-width="1.51"/><path d="M1037,437L1110,411L1103,345Z" fill="rgb(255,120,37)" stroke="rgb(255,120,37)" stroke-width="1.51"/><path d="M938,502L1014,511L937,445Z" fill="rgb(255,133,58)" stroke="rgb(255,133,58)" stroke-width="1.51"/><path d="M788,521L1014,511L938,502Z" fill="rgb(255,138,67)" stroke="rgb(255,138,67)" stroke-width="1.51"/><path d="M1031,-15L1063,-104L994,-74Z" fill="rgb(204,83,45)" stroke="rgb(204,83,45)" stroke-width="1.51"/><path d="M994,-74L1063,-104L920,-121Z" fill="rgb(204,88,50)" stroke="rgb(204,88,50)" stroke-width="1.51"/><path d="M1061,69L1096,-37L1031,-15Z" fill="rgb(206,83,42)" stroke="rgb(206,83,42)" stroke-width="1.51"/><path d="M1143,77L1096,-37L1061,69Z" fill="rgb(215,96,52)" stroke="rgb(215,96,52)" stroke-width="1.51"/><path d="M1150,200L1080,192L1088,261Z" fill="rgb(255,176,124)" stroke="rgb(255,176,124)" stroke-width="1.51"/><path d="M1096,-37L1063,-104L1031,-15Z" fill="rgb(204,80,40)" stroke="rgb(204,80,40)" stroke-width="1.51"/><path d="M103,-5L58,70L132,53Z" fill="rgb(176,62,48)" stroke="rgb(176,62,48)" stroke-width="1.51"/><path d="M85,115L18,177L94,224Z" fill="rgb(209,127,106)" stroke="rgb(209,127,106)" stroke-width="1.51"/><path d="M94,224L15,275L135,287Z" fill="rgb(215,125,95)" stroke="rgb(215,125,95)" stroke-width="1.51"/><path d="M42,-41L58,70L103,-5Z" fill="rgb(163,35,30)" stroke="rgb(163,35,30)" stroke-width="1.51"/><path d="M1142,285L1150,200L1088,261Z" fill="rgb(255,164,106)" stroke="rgb(255,164,106)" stroke-width="1.51"/><path d="M1160,146L1143,77L1070,110Z" fill="rgb(237,133,84)" stroke="rgb(237,133,84)" stroke-width="1.51"/><path d="M1156,322L1142,285L1103,345Z" fill="rgb(255,141,72)" stroke="rgb(255,141,72)" stroke-width="1.51"/><path d="M1103,345L1142,285L1088,261Z" fill="rgb(255,151,85)" stroke="rgb(255,151,85)" stroke-width="1.51"/><path d="M1212,114L1160,146L1237,223Z" fill="rgb(252,152,97)" stroke="rgb(252,152,97)" stroke-width="1.51"/><path d="M1150,200L1160,146L1080,192Z" fill="rgb(255,169,118)" stroke="rgb(255,169,118)" stroke-width="1.51"/><path d="M1092,488L1110,411L1037,437Z" fill="rgb(255,119,36)" stroke="rgb(255,119,36)" stroke-width="1.51"/><path d="M129,440L122,491L194,510Z" fill="rgb(219,91,42)" stroke="rgb(219,91,42)" stroke-width="1.51"/><path d="M47,493L122,491L129,440Z" fill="rgb(214,82,33)" stroke="rgb(214,82,33)" stroke-width="1.51"/><path d="M45,409L129,440L107,340Z" fill="rgb(213,82,34)" stroke="rgb(213,82,34)" stroke-width="1.51"/><path d="M13,134L18,177L85,115Z" fill="rgb(199,107,87)" stroke="rgb(199,107,87)" stroke-width="1.51"/><path d="M1142,285L1237,223L1150,200Z" fill="rgb(255,164,104)" stroke="rgb(255,164,104)" stroke-width="1.51"/><path d="M1110,411L1156,322L1103,345Z" fill="rgb(255,129,52)" stroke="rgb(255,129,52)" stroke-width="1.51"/><path d="M58,70L13,134L85,115Z" fill="rgb(191,91,72)" stroke="rgb(191,91,72)" stroke-width="1.51"/><path d="M-12,77L13,134L58,70Z" fill="rgb(184,78,62)" stroke="rgb(184,78,62)" stroke-width="1.51"/><path d="M1110,411L1142,433L1156,322Z" fill="rgb(255,117,31)" stroke="rgb(255,117,31)" stroke-width="1.51"/><path d="M1014,511L1092,488L1037,437Z" fill="rgb(255,123,43)" stroke="rgb(255,123,43)" stroke-width="1.51"/><path d="M18,177L15,275L94,224Z" fill="rgb(214,130,105)" stroke="rgb(214,130,105)" stroke-width="1.51"/><path d="M-23,206L15,275L18,177Z" fill="rgb(211,125,101)" stroke="rgb(211,125,101)" stroke-width="1.51"/><path d="M1222,-7L1147,-31L1143,77Z" fill="rgb(207,73,28)" stroke="rgb(207,73,28)" stroke-width="1.51"/><path d="M1143,77L1147,-31L1096,-37Z" fill="rgb(204,73,30)" stroke="rgb(204,73,30)" stroke-width="1.51"/><path d="M1096,-37L1183,-82L1063,-104Z" fill="rgb(203,73,31)" stroke="rgb(203,73,31)" stroke-width="1.51"/><path d="M135,-79L42,-41L103,-5Z" fill="rgb(163,35,30)" stroke="rgb(163,35,30)" stroke-width="1.51"/><path d="M15,275L23,340L107,340Z" fill="rgb(209,101,64)" stroke="rgb(209,101,64)" stroke-width="1.51"/><path d="M23,340L45,409L107,340Z" fill="rgb(210,87,45)" stroke="rgb(210,87,45)" stroke-width="1.51"/><path d="M1092,488L1142,433L1110,411Z" fill="rgb(255,115,28)" stroke="rgb(255,115,28)" stroke-width="1.51"/><path d="M-17,-31L-12,77L58,70Z" fill="rgb(166,43,35)" stroke="rgb(166,43,35)" stroke-width="1.51"/><path d="M-27,124L-23,206L18,177Z" fill="rgb(203,115,94)" stroke="rgb(203,115,94)" stroke-width="1.51"/><path d="M15,275L-32,363L23,340Z" fill="rgb(205,90,53)" stroke="rgb(205,90,53)" stroke-width="1.51"/><path d="M-41,445L47,493L45,409Z" fill="rgb(205,65,18)" stroke="rgb(205,65,18)" stroke-width="1.51"/><path d="M-27,124L18,177L13,134Z" fill="rgb(197,102,82)" stroke="rgb(197,102,82)" stroke-width="1.51"/><path d="M1160,146L1212,114L1143,77Z" fill="rgb(238,128,77)" stroke="rgb(238,128,77)" stroke-width="1.51"/><path d="M1237,223L1160,146L1150,200Z" fill="rgb(255,168,115)" stroke="rgb(255,168,115)" stroke-width="1.51"/><path d="M1237,223L1142,285L1251,302Z" fill="rgb(255,150,84)" stroke="rgb(255,150,84)" stroke-width="1.51"/><path d="M-12,77L-27,124L13,134Z" fill="rgb(187,85,67)" stroke="rgb(187,85,67)" stroke-width="1.51"/><path d="M45,409L47,493L129,440Z" fill="rgb(211,76,29)" stroke="rgb(211,76,29)" stroke-width="1.51"/><path d="M122,491L47,493L194,510Z" fill="rgb(216,86,37)" stroke="rgb(216,86,37)" stroke-width="1.51"/><path d="M-32,363L45,409L23,340Z" fill="rgb(205,76,33)" stroke="rgb(205,76,33)" stroke-width="1.51"/><path d="M1222,-7L1183,-82L1147,-31Z" fill="rgb(203,63,18)" stroke="rgb(203,63,18)" stroke-width="1.51"/><path d="M1147,-31L1183,-82L1096,-37Z" fill="rgb(203,69,26)" stroke="rgb(203,69,26)" stroke-width="1.51"/><path d="M1251,302L1142,285L1156,322Z" fill="rgb(255,141,71)" stroke="rgb(255,141,71)" stroke-width="1.51"/><path d="M1239,58L1222,-7L1143,77Z" fill="rgb(217,87,38)" stroke="rgb(217,87,38)" stroke-width="1.51"/><path d="M-135,105L-87,203L-27,124Z" fill="rgb(196,102,82)" stroke="rgb(196,102,82)" stroke-width="1.51"/><path d="M42,-41L-17,-31L58,70Z" fill="rgb(156,15,21)" stroke="rgb(156,15,21)" stroke-width="1.51"/><path d="M-19,-77L-17,-31L42,-41Z" fill="rgb(153,1,18)" stroke="rgb(153,1,18)" stroke-width="1.51"/><path d="M135,-79L10,-102L42,-41Z" fill="rgb(160,27,26)" stroke="rgb(160,27,26)" stroke-width="1.51"/><path d="M469,-117L10,-102L269,-89Z" fill="rgb(179,69,53)" stroke="rgb(179,69,53)" stroke-width="1.51"/><path d="M1142,433L1237,360L1156,322Z" fill="rgb(255,118,33)" stroke="rgb(255,118,33)" stroke-width="1.51"/><path d="M1092,488L1160,496L1142,433Z" fill="rgb(255,113,25)" stroke="rgb(255,113,25)" stroke-width="1.51"/><path d="M1014,511L1160,496L1092,488Z" fill="rgb(255,118,35)" stroke="rgb(255,118,35)" stroke-width="1.51"/><path d="M1239,58L1143,77L1212,114Z" fill="rgb(230,110,59)" stroke="rgb(230,110,59)" stroke-width="1.51"/><path d="M1338,106L1239,58L1212,114Z" fill="rgb(233,115,63)" stroke="rgb(233,115,63)" stroke-width="1.51"/><path d="M-54,268L-32,363L15,275Z" fill="rgb(206,98,64)" stroke="rgb(206,98,64)" stroke-width="1.51"/><path d="M-54,268L15,275L-23,206Z" fill="rgb(209,115,87)" stroke="rgb(209,115,87)" stroke-width="1.51"/><path d="M-87,203L-23,206L-27,124Z" fill="rgb(205,119,98)" stroke="rgb(205,119,98)" stroke-width="1.51"/><path d="M-87,203L-54,268L-23,206Z" fill="rgb(210,123,98)" stroke="rgb(210,123,98)" stroke-width="1.51"/><path d="M10,-102L-19,-77L42,-41Z" fill="rgb(154,6,19)" stroke="rgb(154,6,19)" stroke-width="1.51"/><path d="M-111,70L-27,124L-12,77Z" fill="rgb(181,73,56)" stroke="rgb(181,73,56)" stroke-width="1.51"/><path d="M1338,30L1287,-27L1239,58Z" fill="rgb(210,74,27)" stroke="rgb(210,74,27)" stroke-width="1.51"/><path d="M1243,446L1237,360L1142,433Z" fill="rgb(255,105,0)" stroke="rgb(255,105,0)" stroke-width="1.51"/><path d="M1237,360L1251,302L1156,322Z" fill="rgb(255,130,55)" stroke="rgb(255,130,55)" stroke-width="1.51"/><path d="M-97,365L-41,445L-32,363Z" fill="rgb(203,65,20)" stroke="rgb(203,65,20)" stroke-width="1.51"/><path d="M-111,70L-12,77L-17,-31Z" fill="rgb(165,41,34)" stroke="rgb(165,41,34)" stroke-width="1.51"/><path d="M1183,-82L1212,-122L1063,-104Z" fill="rgb(203,68,24)" stroke="rgb(203,68,24)" stroke-width="1.51"/><path d="M1063,-104L1212,-122L920,-121Z" fill="rgb(204,79,39)" stroke="rgb(204,79,39)" stroke-width="1.51"/><path d="M920,-121L1212,-122L889,-123Z" fill="rgb(204,86,48)" stroke="rgb(204,86,48)" stroke-width="1.51"/><path d="M1287,-27L1212,-122L1183,-82Z" fill="rgb(203,61,15)" stroke="rgb(203,61,15)" stroke-width="1.51"/><path d="M1287,-27L1183,-82L1222,-7Z" fill="rgb(203,61,15)" stroke="rgb(203,61,15)" stroke-width="1.51"/><path d="M-97,365L-32,363L-54,268Z" fill="rgb(204,88,50)" stroke="rgb(204,88,50)" stroke-width="1.51"/><path d="M-32,363L-41,445L45,409Z" fill="rgb(203,61,15)" stroke="rgb(203,61,15)" stroke-width="1.51"/><path d="M1160,496L1243,446L1142,433Z" fill="rgb(255,107,8)" stroke="rgb(255,107,8)" stroke-width="1.51"/><path d="M1329,328L1315,250L1251,302Z" fill="rgb(255,143,72)" stroke="rgb(255,143,72)" stroke-width="1.51"/><path d="M-87,203L-109,262L-54,268Z" fill="rgb(209,117,89)" stroke="rgb(209,117,89)" stroke-width="1.51"/><path d="M-135,105L-109,262L-87,203Z" fill="rgb(208,125,104)" stroke="rgb(208,125,104)" stroke-width="1.51"/><path d="M-88,-43L-111,70L-17,-31Z" fill="rgb(153,0,17)" stroke="rgb(153,0,17)" stroke-width="1.51"/><path d="M-87,-104L-88,-43L-19,-77Z" fill="rgb(153,0,17)" stroke="rgb(153,0,17)" stroke-width="1.51"/><path d="M-19,-77L-88,-43L-17,-31Z" fill="rgb(153,0,17)" stroke="rgb(153,0,17)" stroke-width="1.51"/><path d="M-109,262L-97,365L-54,268Z" fill="rgb(206,99,65)" stroke="rgb(206,99,65)" stroke-width="1.51"/><path d="M1239,58L1287,-27L1222,-7Z" fill="rgb(206,66,20)" stroke="rgb(206,66,20)" stroke-width="1.51"/><path d="M1338,106L1212,114L1237,223Z" fill="rgb(249,144,91)" stroke="rgb(249,144,91)" stroke-width="1.51"/><path d="M1315,250L1237,223L1251,302Z" fill="rgb(255,154,90)" stroke="rgb(255,154,90)" stroke-width="1.51"/><path d="M1329,328L1251,302L1237,360Z" fill="rgb(255,130,54)" stroke="rgb(255,130,54)" stroke-width="1.51"/><path d="M1315,250L1326,221L1237,223Z" fill="rgb(255,162,103)" stroke="rgb(255,162,103)" stroke-width="1.51"/><path d="M1329,328L1326,221L1315,250Z" fill="rgb(255,151,86)" stroke="rgb(255,151,86)" stroke-width="1.51"/><path d="M-88,-43L-135,105L-111,70Z" fill="rgb(167,45,36)" stroke="rgb(167,45,36)" stroke-width="1.51"/><path d="M-111,70L-135,105L-27,124Z" fill="rgb(184,78,61)" stroke="rgb(184,78,61)" stroke-width="1.51"/><path d="M-109,262L-114,428L-97,365Z" fill="rgb(204,81,40)" stroke="rgb(204,81,40)" stroke-width="1.51"/><path d="M-41,445L-62,504L47,493Z" fill="rgb(203,61,15)" stroke="rgb(203,61,15)" stroke-width="1.51"/><path d="M47,493L-62,504L194,510Z" fill="rgb(210,74,26)" stroke="rgb(210,74,26)" stroke-width="1.51"/><path d="M194,510L-135,520L348,518Z" fill="rgb(218,89,40)" stroke="rgb(218,89,40)" stroke-width="1.51"/><path d="M-114,428L-62,504L-41,445Z" fill="rgb(203,61,15)" stroke="rgb(203,61,15)" stroke-width="1.51"/><path d="M10,-102L-87,-104L-19,-77Z" fill="rgb(153,0,17)" stroke="rgb(153,0,17)" stroke-width="1.51"/><path d="M-88,-43L-87,-104L-135,105Z" fill="rgb(153,0,17)" stroke="rgb(153,0,17)" stroke-width="1.51"/><path d="M469,-117L-87,-104L10,-102Z" fill="rgb(167,45,36)" stroke="rgb(167,45,36)" stroke-width="1.51"/><path d="M1243,446L1297,405L1237,360Z" fill="rgb(255,105,0)" stroke="rgb(255,105,0)" stroke-width="1.51"/><path d="M1326,221L1338,106L1237,223Z" fill="rgb(255,163,109)" stroke="rgb(255,163,109)" stroke-width="1.51"/><path d="M1326,221L1329,328L1338,106Z" fill="rgb(255,167,109)" stroke="rgb(255,167,109)" stroke-width="1.51"/><path d="M1297,405L1329,328L1237,360Z" fill="rgb(255,118,33)" stroke="rgb(255,118,33)" stroke-width="1.51"/><path d="M1243,446L1309,521L1297,405Z" fill="rgb(255,105,0)" stroke="rgb(255,105,0)" stroke-width="1.51"/><path d="M1297,405L1309,521L1329,328Z" fill="rgb(255,105,0)" stroke="rgb(255,105,0)" stroke-width="1.51"/><path d="M1160,496L1263,519L1243,446Z" fill="rgb(255,105,0)" stroke="rgb(255,105,0)" stroke-width="1.51"/><path d="M1014,511L1263,519L1160,496Z" fill="rgb(255,112,21)" stroke="rgb(255,112,21)" stroke-width="1.51"/><path d="M788,521L1263,519L1014,511Z" fill="rgb(255,126,48)" stroke="rgb(255,126,48)" stroke-width="1.51"/><path d="M1309,521L1263,519L788,521Z" fill="rgb(255,115,27)" stroke="rgb(255,115,27)" stroke-width="1.51"/><path d="M-97,365L-114,428L-41,445Z" fill="rgb(203,61,15)" stroke="rgb(203,61,15)" stroke-width="1.51"/><path d="M-135,520L-114,428L-109,262Z" fill="rgb(203,61,15)" stroke="rgb(203,61,15)" stroke-width="1.51"/><path d="M1338,106L1338,30L1239,58Z" fill="rgb(224,100,50)" stroke="rgb(224,100,50)" stroke-width="1.51"/><path d="M1287,-27L1308,-95L1212,-122Z" fill="rgb(203,61,15)" stroke="rgb(203,61,15)" stroke-width="1.51"/><path d="M1338,30L1308,-95L1287,-27Z" fill="rgb(203,61,15)" stroke="rgb(203,61,15)" stroke-width="1.51"/><path d="M1263,519L1309,521L1243,446Z" fill="rgb(255,105,0)" stroke="rgb(255,105,0)" stroke-width="1.51"/><path d="M466,525L1309,521L788,521Z" fill="rgb(255,145,77)" stroke="rgb(255,145,77)" stroke-width="1.51"/><path d="M-62,504L-135,520L194,510Z" fill="rgb(203,61,15)" stroke="rgb(203,61,15)" stroke-width="1.51"/><path d="M-114,428L-135,520L-62,504Z" fill="rgb(203,61,15)" stroke="rgb(203,61,15)" stroke-width="1.51"/><path d="M-135,105L-135,520L-109,262Z" fill="rgb(206,100,66)" stroke="rgb(206,100,66)" stroke-width="1.51"/></svg>