<svg xmlns="http://www.w3.org/2000/svg" width="1200" height="400"><path d="M651,123L723,104L733,-10Z" fill="rgb(249,177,135)" stroke="rgb(249,177,135)" stroke-width="1.51"/><path d="M733,-10L585,-75L651,123Z" fill="rgb(255,166,114)" stroke="rgb(255,166,114)" stroke-width="1.51"/><path d="M585,-75L477,-23L651,123Z" fill="rgb(255,172,117)" stroke="rgb(255,172,117)" stroke-width="1.51"/><path d="M585,-75L500,-170L477,-23Z" fill="rgb(255,164,105)" stroke="rgb(255,164,105)" stroke-width="1.51"/><path d="M733,-10L582,-149L585,-75Z" fill="rgb(255,166,112)" stroke="rgb(255,166,112)" stroke-width="1.51"/><path d="M477,-23L434,97L651,123Z" fill="rgb(255,185,137)" stroke="rgb(255,185,137)" stroke-width="1.51"/><path d="M733,-10L798,-164L582,-149Z" fill="rgb(253,154,100)" stroke="rgb(253,154,100)" stroke-width="1.51"/><path d="M859,-145L798,-164L733,-10Z" fill="rgb(245,137,84)" stroke="rgb(245,137,84)" stroke-width="1.51"/><path d="M956,-31L859,-145L733,-10Z" fill="rgb(240,128,75)" stroke="rgb(240,128,75)" stroke-width="1.51"/><path d="M651,123L784,262L723,104Z" fill="rgb(246,202,175)" stroke="rgb(246,202,175)" stroke-width="1.51"/><path d="M545,305L784,262L651,123Z" fill="rgb(242,208,187)" stroke="rgb(242,208,187)" stroke-width="1.51"/><path d="M936,147L733,-10L723,104Z" fill="rgb(241,163,122)" stroke="rgb(241,163,122)" stroke-width="1.51"/><path d="M582,-149L500,-170L585,-75Z" fill="rgb(255,168,110)" stroke="rgb(255,168,110)" stroke-width="1.51"/><path d="M477,-23L326,63L434,97Z" fill="rgb(255,167,110)" stroke="rgb(255,167,110)" stroke-width="1.51"/><path d="M798,-164L500,-170L582,-149Z" fill="rgb(255,168,113)" stroke="rgb(255,168,113)" stroke-width="1.51"/><path d="M784,262L936,147L723,104Z" fill="rgb(240,188,162)" stroke="rgb(240,188,162)" stroke-width="1.51"/><path d="M434,97L545,305L651,123Z" fill="rgb(255,221,193)" stroke="rgb(255,221,193)" stroke-width="1.51"/><path d="M936,147L956,-31L733,-10Z" fill="rgb(236,135,87)" stroke="rgb(236,135,87)" stroke-width="1.51"/><path d="M434,97L445,281L545,305Z" fill="rgb(248,207,180)" stroke="rgb(248,207,180)" stroke-width="1.51"/><path d="M434,97L326,63L445,281Z" fill="rgb(255,198,156)" stroke="rgb(255,198,156)" stroke-width="1.51"/><path d="M330,-56L326,63L477,-23Z" fill="rgb(255,149,82)" stroke="rgb(255,149,82)" stroke-width="1.51"/><path d="M936,147L1041,138L956,-31Z" fill="rgb(226,133,94)" stroke="rgb(226,133,94)" stroke-width="1.51"/><path d="M784,262L937,265L936,147Z" fill="rgb(229,172,150)" stroke="rgb(229,172,150)" stroke-width="1.51"/><path d="M920,390L937,265L784,262Z" fill="rgb(211,132,109)" stroke="rgb(211,132,109)" stroke-width="1.51"/><path d="M500,-170L330,-56L477,-23Z" fill="rgb(255,155,91)" stroke="rgb(255,155,91)" stroke-width="1.51"/><path d="M545,305L593,400L784,262Z" fill="rgb(225,164,142)" stroke="rgb(225,164,142)" stroke-width="1.51"/><path d="M424,465L593,400L545,305Z" fill="rgb(213,128,102)" stroke="rgb(213,128,102)" stroke-width="1.51"/><path d="M593,400L790,405L784,262Z" fill="rgb(211,133,111)" stroke="rgb(211,133,111)" stroke-width="1.51"/><path d="M937,265L1041,138L936,147Z" fill="rgb(228,165,140)" stroke="rgb(228,165,140)" stroke-width="1.51"/><path d="M330,-56L126,7L326,63Z" fill="rgb(255,137,65)" stroke="rgb(255,137,65)" stroke-width="1.51"/><path d="M500,-170L311,-168L330,-56Z" fill="rgb(255,149,82)" stroke="rgb(255,149,82)" stroke-width="1.51"/><path d="M1041,138L1078,-28L956,-31Z" fill="rgb(222,105,59)" stroke="rgb(222,105,59)" stroke-width="1.51"/><path d="M956,-31L1101,-242L859,-145Z" fill="rgb(227,106,55)" stroke="rgb(227,106,55)" stroke-width="1.51"/><path d="M937,265L1039,303L1041,138Z" fill="rgb(217,146,124)" stroke="rgb(217,146,124)" stroke-width="1.51"/><path d="M790,405L920,390L784,262Z" fill="rgb(203,116,94)" stroke="rgb(203,116,94)" stroke-width="1.51"/><path d="M920,390L1039,303L937,265Z" fill="rgb(201,110,89)" stroke="rgb(201,110,89)" stroke-width="1.51"/><path d="M1041,138L1207,96L1078,-28Z" fill="rgb(213,105,64)" stroke="rgb(213,105,64)" stroke-width="1.51"/><path d="M593,400L619,555L790,405Z" fill="rgb(205,119,98)" stroke="rgb(205,119,98)" stroke-width="1.51"/><path d="M790,405L858,535L920,390Z" fill="rgb(188,86,68)" stroke="rgb(188,86,68)" stroke-width="1.51"/><path d="M445,281L424,465L545,305Z" fill="rgb(222,143,115)" stroke="rgb(222,143,115)" stroke-width="1.51"/><path d="M260,400L424,465L445,281Z" fill="rgb(212,116,85)" stroke="rgb(212,116,85)" stroke-width="1.51"/><path d="M326,63L246,301L445,281Z" fill="rgb(252,200,164)" stroke="rgb(252,200,164)" stroke-width="1.51"/><path d="M78,102L246,301L326,63Z" fill="rgb(255,181,131)" stroke="rgb(255,181,131)" stroke-width="1.51"/><path d="M424,465L619,555L593,400Z" fill="rgb(211,125,101)" stroke="rgb(211,125,101)" stroke-width="1.51"/><path d="M798,-164L1101,-242L500,-170Z" fill="rgb(245,137,84)" stroke="rgb(245,137,84)" stroke-width="1.51"/><path d="M500,-170L1101,-242L311,-168Z" fill="rgb(255,166,111)" stroke="rgb(255,166,111)" stroke-width="1.51"/><path d="M859,-145L1101,-242L798,-164Z" fill="rgb(233,115,64)" stroke="rgb(233,115,64)" stroke-width="1.51"/><path d="M1078,-28L1101,-242L956,-31Z" fill="rgb(220,92,43)" stroke="rgb(220,92,43)" stroke-width="1.51"/><path d="M810,607L858,535L790,405Z" fill="rgb(191,92,73)" stroke="rgb(191,92,73)" stroke-width="1.51"/><path d="M920,390L1049,462L1039,303Z" fill="rgb(179,67,52)" stroke="rgb(179,67,52)" stroke-width="1.51"/><path d="M311,-168L162,-133L330,-56Z" fill="rgb(255,136,64)" stroke="rgb(255,136,64)" stroke-width="1.51"/><path d="M1078,-28L1207,-232L1101,-242Z" fill="rgb(211,76,29)" stroke="rgb(211,76,29)" stroke-width="1.51"/><path d="M1239,282L1207,96L1041,138Z" fill="rgb(213,129,103)" stroke="rgb(213,129,103)" stroke-width="1.51"/><path d="M1239,282L1041,138L1039,303Z" fill="rgb(208,126,104)" stroke="rgb(208,126,104)" stroke-width="1.51"/><path d="M424,465L493,628L619,555Z" fill="rgb(210,122,96)" stroke="rgb(210,122,96)" stroke-width="1.51"/><path d="M246,301L260,400L445,281Z" fill="rgb(226,139,102)" stroke="rgb(226,139,102)" stroke-width="1.51"/><path d="M92,274L260,400L246,301Z" fill="rgb(226,128,86)" stroke="rgb(226,128,86)" stroke-width="1.51"/><path d="M162,-133L126,7L330,-56Z" fill="rgb(255,129,53)" stroke="rgb(255,129,53)" stroke-width="1.51"/><path d="M858,535L1049,462L920,390Z" fill="rgb(180,70,55)" stroke="rgb(180,70,55)" stroke-width="1.51"/><path d="M858,535L1014,648L1049,462Z" fill="rgb(177,64,50)" stroke="rgb(177,64,50)" stroke-width="1.51"/><path d="M619,555L810,607L790,405Z" fill="rgb(199,107,86)" stroke="rgb(199,107,86)" stroke-width="1.51"/><path d="M-52,10L78,102L126,7Z" fill="rgb(255,125,46)" stroke="rgb(255,125,46)" stroke-width="1.51"/><path d="M126,7L78,102L326,63Z" fill="rgb(255,146,77)" stroke="rgb(255,146,77)" stroke-width="1.51"/><path d="M1279,-18L1207,-232L1078,-28Z" fill="rgb(205,64,17)" stroke="rgb(205,64,17)" stroke-width="1.51"/><path d="M243,583L493,628L424,465Z" fill="rgb(207,109,77)" stroke="rgb(207,109,77)" stroke-width="1.51"/><path d="M619,555L493,628L810,607Z" fill="rgb(207,124,102)" stroke="rgb(207,124,102)" stroke-width="1.51"/><path d="M1207,96L1279,-18L1078,-28Z" fill="rgb(205,71,27)" stroke="rgb(205,71,27)" stroke-width="1.51"/><path d="M1418,7L1279,-18L1420,154Z" fill="rgb(204,80,40)" stroke="rgb(204,80,40)" stroke-width="1.51"/><path d="M1188,383L1239,282L1039,303Z" fill="rgb(182,74,58)" stroke="rgb(182,74,58)" stroke-width="1.51"/><path d="M78,102L92,274L246,301Z" fill="rgb(253,173,126)" stroke="rgb(253,173,126)" stroke-width="1.51"/><path d="M260,400L243,583L424,465Z" fill="rgb(206,100,65)" stroke="rgb(206,100,65)" stroke-width="1.51"/><path d="M1049,462L1188,383L1039,303Z" fill="rgb(170,51,40)" stroke="rgb(170,51,40)" stroke-width="1.51"/><path d="M1176,575L1188,383L1049,462Z" fill="rgb(160,27,26)" stroke="rgb(160,27,26)" stroke-width="1.51"/><path d="M92,274L187,474L260,400Z" fill="rgb(209,94,54)" stroke="rgb(209,94,54)" stroke-width="1.51"/><path d="M187,474L243,583L260,400Z" fill="rgb(205,91,54)" stroke="rgb(205,91,54)" stroke-width="1.51"/><path d="M493,628L1014,648L810,607Z" fill="rgb(196,101,81)" stroke="rgb(196,101,81)" stroke-width="1.51"/><path d="M810,607L1014,648L858,535Z" fill="rgb(185,79,62)" stroke="rgb(185,79,62)" stroke-width="1.51"/><path d="M1279,-18L1362,-144L1207,-232Z" fill="rgb(203,61,15)" stroke="rgb(203,61,15)" stroke-width="1.51"/><path d="M1418,7L1362,-144L1279,-18Z" fill="rgb(203,61,15)" stroke="rgb(203,61,15)" stroke-width="1.51"/><path d="M-36,-176L-52,10L126,7Z" fill="rgb(255,107,5)" stroke="rgb(255,107,5)" stroke-width="1.51"/><path d="M78,102L-54,220L92,274Z" fill="rgb(255,176,123)" stroke="rgb(255,176,123)" stroke-width="1.51"/><path d="M92,274L-75,419L187,474Z" fill="rgb(207,77,33)" stroke="rgb(207,77,33)" stroke-width="1.51"/><path d="M187,474L166,600L243,583Z" fill="rgb(204,87,49)" stroke="rgb(204,87,49)" stroke-width="1.51"/><path d="M-52,10L-50,122L78,102Z" fill="rgb(255,133,58)" stroke="rgb(255,133,58)" stroke-width="1.51"/><path d="M1239,282L1375,251L1207,96Z" fill="rgb(208,126,104)" stroke="rgb(208,126,104)" stroke-width="1.51"/><path d="M1335,409L1375,251L1239,282Z" fill="rgb(180,70,55)" stroke="rgb(180,70,55)" stroke-width="1.51"/><path d="M1014,648L1176,575L1049,462Z" fill="rgb(166,42,34)" stroke="rgb(166,42,34)" stroke-width="1.51"/><path d="M1101,-242L-36,-176L311,-168Z" fill="rgb(255,158,95)" stroke="rgb(255,158,95)" stroke-width="1.51"/><path d="M311,-168L-36,-176L162,-133Z" fill="rgb(255,123,42)" stroke="rgb(255,123,42)" stroke-width="1.51"/><path d="M162,-133L-36,-176L126,7Z" fill="rgb(255,115,28)" stroke="rgb(255,115,28)" stroke-width="1.51"/><path d="M1335,409L1239,282L1188,383Z" fill="rgb(166,43,35)" stroke="rgb(166,43,35)" stroke-width="1.51"/><path d="M-50,122L-54,220L78,102Z" fill="rgb(255,156,93)" stroke="rgb(255,156,93)" stroke-width="1.51"/><path d="M-166,137L-54,220L-50,122Z" fill="rgb(255,160,98)" stroke="rgb(255,160,98)" stroke-width="1.51"/><path d="M1420,154L1279,-18L1207,96Z" fill="rgb(205,91,54)" stroke="rgb(205,91,54)" stroke-width="1.51"/><path d="M-40,633L166,600L187,474Z" fill="rgb(204,76,34)" stroke="rgb(204,76,34)" stroke-width="1.51"/><path d="M243,583L166,600L493,628Z" fill="rgb(206,99,65)" stroke="rgb(206,99,65)" stroke-width="1.51"/><path d="M1375,251L1420,154L1207,96Z" fill="rgb(210,120,94)" stroke="rgb(210,120,94)" stroke-width="1.51"/><path d="M1375,251L1399,645L1420,154Z" fill="rgb(169,49,39)" stroke="rgb(169,49,39)" stroke-width="1.51"/><path d="M1176,575L1335,409L1188,383Z" fill="rgb(153,0,17)" stroke="rgb(153,0,17)" stroke-width="1.51"/><path d="M-52,10L-166,137L-50,122Z" fill="rgb(255,137,64)" stroke="rgb(255,137,64)" stroke-width="1.51"/><path d="M-36,-176L-139,-58L-52,10Z" fill="rgb(255,105,0)" stroke="rgb(255,105,0)" stroke-width="1.51"/><path d="M-36,-176L-133,-139L-139,-58Z" fill="rgb(255,105,0)" stroke="rgb(255,105,0)" stroke-width="1.51"/><path d="M-54,220L-75,419L92,274Z" fill="rgb(233,116,65)" stroke="rgb(233,116,65)" stroke-width="1.51"/><path d="M-207,327L-75,419L-54,220Z" fill="rgb(228,107,56)" stroke="rgb(228,107,56)" stroke-width="1.51"/><path d="M-133,-139L-166,137L-139,-58Z" fill="rgb(255,105,0)" stroke="rgb(255,105,0)" stroke-width="1.51"/><path d="M-139,-58L-166,137L-52,10Z" fill="rgb(255,116,30)" stroke="rgb(255,116,30)" stroke-width="1.51"/><path d="M-207,327L-141,480L-75,419Z" fill="rgb(203,61,15)" stroke="rgb(203,61,15)" stroke-width="1.51"/><path d="M-75,419L-40,633L187,474Z" fill="rgb(203,65,20)" stroke="rgb(203,65,20)" stroke-width="1.51"/><path d="M-166,137L-207,327L-54,220Z" fill="rgb(255,157,103)" stroke="rgb(255,157,103)" stroke-width="1.51"/><path d="M-133,-139L-207,327L-166,137Z" fill="rgb(255,143,74)" stroke="rgb(255,143,74)" stroke-width="1.51"/><path d="M166,600L-40,633L493,628Z" fill="rgb(204,88,50)" stroke="rgb(204,88,50)" stroke-width="1.51"/><path d="M493,628L-173,646L1014,648Z" fill="rgb(208,115,86)" stroke="rgb(208,115,86)" stroke-width="1.51"/><path d="M-141,480L-40,633L-75,419Z" fill="rgb(203,61,15)" stroke="rgb(203,61,15)" stroke-width="1.51"/><path d="M1176,575L1399,645L1335,409Z" fill="rgb(153,0,17)" stroke="rgb(153,0,17)" stroke-width="1.51"/><path d="M1335,409L1399,645L1375,251Z" fill="rgb(153,0,17)" stroke="rgb(153,0,17)" stroke-width="1.51"/><path d="M1014,648L1399,645L1176,575Z" fill="rgb(154,2,17)" stroke="rgb(154,2,17)" stroke-width="1.51"/><path d="M-141,480L-173,646L-40,633Z" fill="rgb(203,61,15)" stroke="rgb(203,61,15)" stroke-width="1.51"/><path d="M-40,633L-173,646L493,628Z" fill="rgb(203,74,32)" stroke="rgb(203,74,32)" stroke-width="1.51"/><path d="M-207,327L-173,646L-141,480Z" fill="rgb(203,61,15)" stroke="rgb(203,61,15)" stroke-width="1.51"/></svg>