<svg xmlns="http://www.w3.org/2000/svg" width="1400" height="400"><path d="M661,252L683,122L559,99Z" fill="rgb(240,202,181)" stroke="rgb(240,202,181)" stroke-width="1.51"/><path d="M559,99L537,298L661,252Z" fill="rgb(247,213,189)" stroke="rgb(247,213,189)" stroke-width="1.51"/><path d="M559,99L422,179L537,298Z" fill="rgb(240,202,180)" stroke="rgb(240,202,180)" stroke-width="1.51"/><path d="M422,179L444,290L537,298Z" fill="rgb(240,182,151)" stroke="rgb(240,182,151)" stroke-width="1.51"/><path d="M683,122L688,-8L559,99Z" fill="rgb(223,159,137)" stroke="rgb(223,159,137)" stroke-width="1.51"/><path d="M559,99L414,-71L422,179Z" fill="rgb(211,132,110)" stroke="rgb(211,132,110)" stroke-width="1.51"/><path d="M683,122L818,94L688,-8Z" fill="rgb(227,164,141)" stroke="rgb(227,164,141)" stroke-width="1.51"/><path d="M661,252L818,94L683,122Z" fill="rgb(244,210,188)" stroke="rgb(244,210,188)" stroke-width="1.51"/><path d="M688,-8L551,-44L559,99Z" fill="rgb(207,124,102)" stroke="rgb(207,124,102)" stroke-width="1.51"/><path d="M537,298L544,405L661,252Z" fill="rgb(249,180,139)" stroke="rgb(249,180,139)" stroke-width="1.51"/><path d="M661,252L844,304L818,94Z" fill="rgb(255,224,196)" stroke="rgb(255,224,196)" stroke-width="1.51"/><path d="M444,290L544,405L537,298Z" fill="rgb(245,165,122)" stroke="rgb(245,165,122)" stroke-width="1.51"/><path d="M544,405L736,405L661,252Z" fill="rgb(255,179,132)" stroke="rgb(255,179,132)" stroke-width="1.51"/><path d="M736,405L844,304L661,252Z" fill="rgb(255,193,149)" stroke="rgb(255,193,149)" stroke-width="1.51"/><path d="M818,94L809,-6L688,-8Z" fill="rgb(217,138,113)" stroke="rgb(217,138,113)" stroke-width="1.51"/><path d="M688,-8L727,-120L551,-44Z" fill="rgb(207,124,103)" stroke="rgb(207,124,103)" stroke-width="1.51"/><path d="M815,-144L809,-6L962,-130Z" fill="rgb(209,116,88)" stroke="rgb(209,116,88)" stroke-width="1.51"/><path d="M551,-44L414,-71L559,99Z" fill="rgb(197,102,82)" stroke="rgb(197,102,82)" stroke-width="1.51"/><path d="M441,-210L414,-71L551,-44Z" fill="rgb(193,97,77)" stroke="rgb(193,97,77)" stroke-width="1.51"/><path d="M809,-6L727,-120L688,-8Z" fill="rgb(211,127,104)" stroke="rgb(211,127,104)" stroke-width="1.51"/><path d="M1050,-46L809,-6L818,94Z" fill="rgb(212,121,91)" stroke="rgb(212,121,91)" stroke-width="1.51"/><path d="M736,405L856,380L844,304Z" fill="rgb(255,174,120)" stroke="rgb(255,174,120)" stroke-width="1.51"/><path d="M544,405L538,539L736,405Z" fill="rgb(255,158,104)" stroke="rgb(255,158,104)" stroke-width="1.51"/><path d="M444,290L379,432L544,405Z" fill="rgb(242,143,93)" stroke="rgb(242,143,93)" stroke-width="1.51"/><path d="M266,381L379,432L444,290Z" fill="rgb(235,132,84)" stroke="rgb(235,132,84)" stroke-width="1.51"/><path d="M229,243L444,290L422,179Z" fill="rgb(235,173,145)" stroke="rgb(235,173,145)" stroke-width="1.51"/><path d="M414,-71L248,147L422,179Z" fill="rgb(208,125,103)" stroke="rgb(208,125,103)" stroke-width="1.51"/><path d="M379,432L538,539L544,405Z" fill="rgb(246,140,87)" stroke="rgb(246,140,87)" stroke-width="1.51"/><path d="M736,405L868,522L856,380Z" fill="rgb(255,162,101)" stroke="rgb(255,162,101)" stroke-width="1.51"/><path d="M809,-6L815,-144L727,-120Z" fill="rgb(210,123,98)" stroke="rgb(210,123,98)" stroke-width="1.51"/><path d="M727,-120L581,-224L551,-44Z" fill="rgb(205,119,98)" stroke="rgb(205,119,98)" stroke-width="1.51"/><path d="M1035,157L818,94L844,304Z" fill="rgb(251,210,178)" stroke="rgb(251,210,178)" stroke-width="1.51"/><path d="M248,147L229,243L422,179Z" fill="rgb(228,170,148)" stroke="rgb(228,170,148)" stroke-width="1.51"/><path d="M229,243L266,381L444,290Z" fill="rgb(230,144,106)" stroke="rgb(230,144,106)" stroke-width="1.51"/><path d="M379,432L445,624L538,539Z" fill="rgb(243,135,82)" stroke="rgb(243,135,82)" stroke-width="1.51"/><path d="M815,-144L581,-224L727,-120Z" fill="rgb(211,130,108)" stroke="rgb(211,130,108)" stroke-width="1.51"/><path d="M414,-71L215,-80L248,147Z" fill="rgb(179,69,54)" stroke="rgb(179,69,54)" stroke-width="1.51"/><path d="M581,-224L441,-210L551,-44Z" fill="rgb(198,105,84)" stroke="rgb(198,105,84)" stroke-width="1.51"/><path d="M856,380L1024,265L844,304Z" fill="rgb(255,180,129)" stroke="rgb(255,180,129)" stroke-width="1.51"/><path d="M1024,265L1035,157L844,304Z" fill="rgb(255,198,157)" stroke="rgb(255,198,157)" stroke-width="1.51"/><path d="M856,380L960,456L1024,265Z" fill="rgb(255,160,99)" stroke="rgb(255,160,99)" stroke-width="1.51"/><path d="M682,622L868,522L736,405Z" fill="rgb(255,167,109)" stroke="rgb(255,167,109)" stroke-width="1.51"/><path d="M868,522L960,456L856,380Z" fill="rgb(255,154,91)" stroke="rgb(255,154,91)" stroke-width="1.51"/><path d="M538,539L682,622L736,405Z" fill="rgb(255,165,111)" stroke="rgb(255,165,111)" stroke-width="1.51"/><path d="M815,-144L1188,-204L581,-224Z" fill="rgb(209,116,89)" stroke="rgb(209,116,89)" stroke-width="1.51"/><path d="M1050,-46L962,-130L809,-6Z" fill="rgb(207,109,78)" stroke="rgb(207,109,78)" stroke-width="1.51"/><path d="M248,147L60,234L229,243Z" fill="rgb(223,154,131)" stroke="rgb(223,154,131)" stroke-width="1.51"/><path d="M242,-194L215,-80L414,-71Z" fill="rgb(179,69,53)" stroke="rgb(179,69,53)" stroke-width="1.51"/><path d="M538,539L445,624L682,622Z" fill="rgb(252,150,97)" stroke="rgb(252,150,97)" stroke-width="1.51"/><path d="M280,568L445,624L379,432Z" fill="rgb(236,122,69)" stroke="rgb(236,122,69)" stroke-width="1.51"/><path d="M1035,157L1050,-46L818,94Z" fill="rgb(225,142,108)" stroke="rgb(225,142,108)" stroke-width="1.51"/><path d="M1035,157L1120,115L1050,-46Z" fill="rgb(226,137,99)" stroke="rgb(226,137,99)" stroke-width="1.51"/><path d="M1024,265L1101,233L1035,157Z" fill="rgb(255,198,157)" stroke="rgb(255,198,157)" stroke-width="1.51"/><path d="M1181,381L1101,233L1024,265Z" fill="rgb(255,170,114)" stroke="rgb(255,170,114)" stroke-width="1.51"/><path d="M81,554L280,568L266,381Z" fill="rgb(222,97,47)" stroke="rgb(222,97,47)" stroke-width="1.51"/><path d="M266,381L280,568L379,432Z" fill="rgb(231,112,61)" stroke="rgb(231,112,61)" stroke-width="1.51"/><path d="M1101,233L1120,115L1035,157Z" fill="rgb(249,184,144)" stroke="rgb(249,184,144)" stroke-width="1.51"/><path d="M441,-210L242,-194L414,-71Z" fill="rgb(185,80,63)" stroke="rgb(185,80,63)" stroke-width="1.51"/><path d="M-73,-213L242,-194L441,-210Z" fill="rgb(172,54,42)" stroke="rgb(172,54,42)" stroke-width="1.51"/><path d="M229,243L85,397L266,381Z" fill="rgb(221,115,73)" stroke="rgb(221,115,73)" stroke-width="1.51"/><path d="M65,71L60,234L248,147Z" fill="rgb(207,124,102)" stroke="rgb(207,124,102)" stroke-width="1.51"/><path d="M65,71L248,147L215,-80Z" fill="rgb(183,76,59)" stroke="rgb(183,76,59)" stroke-width="1.51"/><path d="M78,-25L65,71L215,-80Z" fill="rgb(164,38,32)" stroke="rgb(164,38,32)" stroke-width="1.51"/><path d="M1269,141L1148,27L1120,115Z" fill="rgb(232,137,93)" stroke="rgb(232,137,93)" stroke-width="1.51"/><path d="M1120,115L1148,27L1050,-46Z" fill="rgb(214,111,72)" stroke="rgb(214,111,72)" stroke-width="1.51"/><path d="M1050,-46L1188,-204L962,-130Z" fill="rgb(205,97,62)" stroke="rgb(205,97,62)" stroke-width="1.51"/><path d="M93,-167L78,-25L215,-80Z" fill="rgb(165,40,33)" stroke="rgb(165,40,33)" stroke-width="1.51"/><path d="M60,234L85,397L229,243Z" fill="rgb(216,121,85)" stroke="rgb(216,121,85)" stroke-width="1.51"/><path d="M960,456L1181,381L1024,265Z" fill="rgb(255,150,84)" stroke="rgb(255,150,84)" stroke-width="1.51"/><path d="M868,522L1015,602L960,456Z" fill="rgb(255,150,84)" stroke="rgb(255,150,84)" stroke-width="1.51"/><path d="M682,622L1015,602L868,522Z" fill="rgb(255,158,96)" stroke="rgb(255,158,96)" stroke-width="1.51"/><path d="M1187,546L1181,381L960,456Z" fill="rgb(255,134,60)" stroke="rgb(255,134,60)" stroke-width="1.51"/><path d="M1101,233L1269,141L1120,115Z" fill="rgb(249,174,130)" stroke="rgb(249,174,130)" stroke-width="1.51"/><path d="M-103,113L60,234L65,71Z" fill="rgb(195,100,80)" stroke="rgb(195,100,80)" stroke-width="1.51"/><path d="M242,-194L93,-167L215,-80Z" fill="rgb(170,51,40)" stroke="rgb(170,51,40)" stroke-width="1.51"/><path d="M60,234L-31,275L85,397Z" fill="rgb(209,104,69)" stroke="rgb(209,104,69)" stroke-width="1.51"/><path d="M-103,113L-31,275L60,234Z" fill="rgb(211,128,106)" stroke="rgb(211,128,106)" stroke-width="1.51"/><path d="M-103,113L65,71L-96,23Z" fill="rgb(175,61,47)" stroke="rgb(175,61,47)" stroke-width="1.51"/><path d="M-10,396L81,554L85,397Z" fill="rgb(208,70,24)" stroke="rgb(208,70,24)" stroke-width="1.51"/><path d="M85,397L81,554L266,381Z" fill="rgb(217,86,37)" stroke="rgb(217,86,37)" stroke-width="1.51"/><path d="M280,568L-8,593L445,624Z" fill="rgb(225,102,51)" stroke="rgb(225,102,51)" stroke-width="1.51"/><path d="M-31,275L-10,396L85,397Z" fill="rgb(205,81,41)" stroke="rgb(205,81,41)" stroke-width="1.51"/><path d="M1341,230L1269,141L1101,233Z" fill="rgb(255,187,140)" stroke="rgb(255,187,140)" stroke-width="1.51"/><path d="M1181,381L1245,381L1101,233Z" fill="rgb(255,151,85)" stroke="rgb(255,151,85)" stroke-width="1.51"/><path d="M1187,546L1245,381L1181,381Z" fill="rgb(255,125,46)" stroke="rgb(255,125,46)" stroke-width="1.51"/><path d="M1015,602L1187,546L960,456Z" fill="rgb(255,140,69)" stroke="rgb(255,140,69)" stroke-width="1.51"/><path d="M1288,-72L1188,-204L1148,27Z" fill="rgb(204,83,44)" stroke="rgb(204,83,44)" stroke-width="1.51"/><path d="M1148,27L1188,-204L1050,-46Z" fill="rgb(205,91,54)" stroke="rgb(205,91,54)" stroke-width="1.51"/><path d="M962,-130L1188,-204L815,-144Z" fill="rgb(207,104,72)" stroke="rgb(207,104,72)" stroke-width="1.51"/><path d="M-96,23L65,71L78,-25Z" fill="rgb(162,33,29)" stroke="rgb(162,33,29)" stroke-width="1.51"/><path d="M-31,275L-177,257L-10,396Z" fill="rgb(205,95,60)" stroke="rgb(205,95,60)" stroke-width="1.51"/><path d="M-73,-213L-96,23L78,-25Z" fill="rgb(153,0,17)" stroke="rgb(153,0,17)" stroke-width="1.51"/><path d="M1269,141L1288,-72L1148,27Z" fill="rgb(214,98,56)" stroke="rgb(214,98,56)" stroke-width="1.51"/><path d="M1269,141L1440,162L1288,-72Z" fill="rgb(227,113,65)" stroke="rgb(227,113,65)" stroke-width="1.51"/><path d="M1245,381L1341,230L1101,233Z" fill="rgb(255,162,102)" stroke="rgb(255,162,102)" stroke-width="1.51"/><path d="M1499,226L1341,230L1558,316Z" fill="rgb(255,154,90)" stroke="rgb(255,154,90)" stroke-width="1.51"/><path d="M-158,583L-8,593L-10,396Z" fill="rgb(203,61,15)" stroke="rgb(203,61,15)" stroke-width="1.51"/><path d="M-10,396L-8,593L81,554Z" fill="rgb(205,65,18)" stroke="rgb(205,65,18)" stroke-width="1.51"/><path d="M81,554L-8,593L280,568Z" fill="rgb(214,82,33)" stroke="rgb(214,82,33)" stroke-width="1.51"/><path d="M1288,-72L1301,-131L1188,-204Z" fill="rgb(204,77,37)" stroke="rgb(204,77,37)" stroke-width="1.51"/><path d="M1456,-74L1301,-131L1288,-72Z" fill="rgb(203,68,24)" stroke="rgb(203,68,24)" stroke-width="1.51"/><path d="M-103,113L-177,257L-31,275Z" fill="rgb(211,126,102)" stroke="rgb(211,126,102)" stroke-width="1.51"/><path d="M-96,23L-146,8L-103,113Z" fill="rgb(168,48,38)" stroke="rgb(168,48,38)" stroke-width="1.51"/><path d="M-146,-173L-146,8L-96,23Z" fill="rgb(153,0,17)" stroke="rgb(153,0,17)" stroke-width="1.51"/><path d="M93,-167L-73,-213L78,-25Z" fill="rgb(156,15,21)" stroke="rgb(156,15,21)" stroke-width="1.51"/><path d="M242,-194L-73,-213L93,-167Z" fill="rgb(161,31,28)" stroke="rgb(161,31,28)" stroke-width="1.51"/><path d="M581,-224L-73,-213L441,-210Z" fill="rgb(181,73,57)" stroke="rgb(181,73,57)" stroke-width="1.51"/><path d="M-223,171L-177,257L-103,113Z" fill="rgb(206,120,99)" stroke="rgb(206,120,99)" stroke-width="1.51"/><path d="M1187,546L1283,631L1245,381Z" fill="rgb(255,122,40)" stroke="rgb(255,122,40)" stroke-width="1.51"/><path d="M1015,602L1283,631L1187,546Z" fill="rgb(255,129,53)" stroke="rgb(255,129,53)" stroke-width="1.51"/><path d="M682,622L1283,631L1015,602Z" fill="rgb(255,146,77)" stroke="rgb(255,146,77)" stroke-width="1.51"/><path d="M445,624L1283,631L682,622Z" fill="rgb(255,163,104)" stroke="rgb(255,163,104)" stroke-width="1.51"/><path d="M1341,230L1440,162L1269,141Z" fill="rgb(255,165,113)" stroke="rgb(255,165,113)" stroke-width="1.51"/><path d="M1499,226L1440,162L1341,230Z" fill="rgb(255,170,115)" stroke="rgb(255,170,115)" stroke-width="1.51"/><path d="M-146,8L-223,171L-103,113Z" fill="rgb(183,77,60)" stroke="rgb(183,77,60)" stroke-width="1.51"/><path d="M-73,-213L-146,-173L-96,23Z" fill="rgb(153,0,17)" stroke="rgb(153,0,17)" stroke-width="1.51"/><path d="M-146,-173L-223,171L-146,8Z" fill="rgb(154,3,18)" stroke="rgb(154,3,18)" stroke-width="1.51"/><path d="M-211,464L-158,583L-10,396Z" fill="rgb(203,61,15)" stroke="rgb(203,61,15)" stroke-width="1.51"/><path d="M-211,464L-10,396L-177,257Z" fill="rgb(203,73,30)" stroke="rgb(203,73,30)" stroke-width="1.51"/><path d="M-8,593L-158,583L445,624Z" fill="rgb(212,78,30)" stroke="rgb(212,78,30)" stroke-width="1.51"/><path d="M-223,171L-211,464L-177,257Z" fill="rgb(206,100,65)" stroke="rgb(206,100,65)" stroke-width="1.51"/><path d="M1301,-131L1435,-150L1188,-204Z" fill="rgb(203,72,30)" stroke="rgb(203,72,30)" stroke-width="1.51"/><path d="M1440,162L1456,-74L1288,-72Z" fill="rgb(205,65,19)" stroke="rgb(205,65,19)" stroke-width="1.51"/><path d="M1456,-74L1435,-150L1301,-131Z" fill="rgb(203,62,15)" stroke="rgb(203,62,15)" stroke-width="1.51"/><path d="M1440,162L1563,3L1456,-74Z" fill="rgb(213,80,32)" stroke="rgb(213,80,32)" stroke-width="1.51"/><path d="M1486,473L1341,230L1245,381Z" fill="rgb(255,123,42)" stroke="rgb(255,123,42)" stroke-width="1.51"/><path d="M1283,631L1422,588L1245,381Z" fill="rgb(255,114,25)" stroke="rgb(255,114,25)" stroke-width="1.51"/><path d="M1422,588L1486,473L1245,381Z" fill="rgb(255,107,5)" stroke="rgb(255,107,5)" stroke-width="1.51"/><path d="M1584,170L1563,3L1440,162Z" fill="rgb(238,125,73)" stroke="rgb(238,125,73)" stroke-width="1.51"/><path d="M1486,473L1558,316L1341,230Z" fill="rgb(255,127,48)" stroke="rgb(255,127,48)" stroke-width="1.51"/><path d="M1584,170L1440,162L1499,226Z" fill="rgb(255,165,110)" stroke="rgb(255,165,110)" stroke-width="1.51"/><path d="M1456,-74L1644,-197L1435,-150Z" fill="rgb(203,61,15)" stroke="rgb(203,61,15)" stroke-width="1.51"/><path d="M1558,316L1584,170L1499,226Z" fill="rgb(255,161,100)" stroke="rgb(255,161,100)" stroke-width="1.51"/><path d="M1486,473L1558,384L1558,316Z" fill="rgb(255,109,11)" stroke="rgb(255,109,11)" stroke-width="1.51"/><path d="M1573,579L1558,384L1486,473Z" fill="rgb(255,105,0)" stroke="rgb(255,105,0)" stroke-width="1.51"/><path d="M1558,384L1584,170L1558,316Z" fill="rgb(255,144,74)" stroke="rgb(255,144,74)" stroke-width="1.51"/><path d="M1422,588L1573,579L1486,473Z" fill="rgb(255,105,0)" stroke="rgb(255,105,0)" stroke-width="1.51"/><path d="M1558,384L1573,579L1584,170Z" fill="rgb(255,113,24)" stroke="rgb(255,113,24)" stroke-width="1.51"/><path d="M1283,631L1573,579L1422,588Z" fill="rgb(255,105,0)" stroke="rgb(255,105,0)" stroke-width="1.51"/><path d="M1573,579L1644,-197L1584,170Z" fill="rgb(255,164,109)" stroke="rgb(255,164,109)" stroke-width="1.51"/><path d="M1584,170L1644,-197L1563,3Z" fill="rgb(203,61,15)" stroke="rgb(203,61,15)" stroke-width="1.51"/><path d="M1563,3L1644,-197L1456,-74Z" fill="rgb(203,61,15)" stroke="rgb(203,61,15)" stroke-width="1.51"/><path d="M1435,-150L1644,-197L1188,-204Z" fill="rgb(203,61,15)" stroke="rgb(203,61,15)" stroke-width="1.51"/><path d="M1188,-204L1644,-197L581,-224Z" fill="rgb(205,90,53)" stroke="rgb(205,90,53)" stroke-width="1.51"/></svg>