<svg height="100%" width="100%" id="svg" viewBox="0 0 1440 500" xmlns="http://www.w3.org/2000/svg" class="transition duration-300 ease-in-out delay-150"><defs><linearGradient id="gradient"><stop offset="5%" stop-color="#ff690066"></stop><stop offset="95%" stop-color="#99001166"></stop></linearGradient></defs><path d="M 0,500 C 0,500 0,125 0,125 C 84.16626588801097,142.86327722432154 168.33253177602194,160.72655444864307 238,162 C 307.66746822397806,163.27344555135693 362.8361387839231,147.95705942974922 416,135 C 469.1638612160769,122.04294057025076 520.3229130882858,111.44520783236001 591,109 C 661.6770869117142,106.55479216763999 751.8722088629337,112.26210924081073 823,113 C 894.1277911370663,113.73789075918927 946.1882514599795,109.50635520439711 1005,108 C 1063.8117485400205,106.49364479560289 1129.3747852971487,107.71246994160082 1203,111 C 1276.6252147028513,114.28753005839918 1358.3126073514256,119.64376502919959 1440,125 C 1440,125 1440,500 1440,500 Z" stroke="none" stroke-width="0" fill="url(#gradient)" class="transition-all duration-300 ease-in-out delay-150"></path><defs><linearGradient id="gradient"><stop offset="5%" stop-color="#ff690088"></stop><stop offset="95%" stop-color="#99001188"></stop></linearGradient></defs><path d="M 0,500 C 0,500 0,250 0,250 C 90.37375472346275,249.75747165922363 180.7475094469255,249.51494331844725 244,250 C 307.2524905530745,250.48505668155275 343.38371693576084,251.6976983854346 398,249 C 452.61628306423916,246.3023016145654 525.717622810031,239.6942631398145 591,246 C 656.282377189969,252.3057368601855 713.7457918241154,271.5252490553075 787,273 C 860.2542081758846,274.4747509446925 949.2992098935074,258.2047406389556 1023,245 C 1096.7007901064926,231.79525936104434 1155.0573686018552,221.65578838886984 1222,223 C 1288.9426313981448,224.34421161113016 1364.4713156990724,237.17210580556508 1440,250 C 1440,250 1440,500 1440,500 Z" stroke="none" stroke-width="0" fill="url(#gradient)" class="transition-all duration-300 ease-in-out delay-150"></path><defs><linearGradient id="gradient"><stop offset="5%" stop-color="#ff6900ff"></stop><stop offset="95%" stop-color="#990011ff"></stop></linearGradient></defs><path d="M 0,500 C 0,500 0,375 0,375 C 51.32188251459979,373.54826520096185 102.64376502919959,372.0965304019237 169,370 C 235.35623497080041,367.9034695980763 316.74682239780145,365.16214359326693 387,377 C 457.25317760219855,388.83785640673307 516.3689453795946,415.25489522500857 580,405 C 643.6310546204054,394.74510477499143 711.7773960838199,347.81827550669874 789,344 C 866.2226039161801,340.18172449330126 952.5214702851256,379.4720027481965 1026,385 C 1099.4785297148744,390.5279972518035 1160.1367227756782,362.29371350051525 1227,355 C 1293.8632772243218,347.70628649948475 1366.931638612161,361.3531432497424 1440,375 C 1440,375 1440,500 1440,500 Z" stroke="none" stroke-width="0" fill="url(#gradient)" class="transition-all duration-300 ease-in-out delay-150"></path></svg>