<svg height="100%" width="100%" id="svg" viewBox="0 0 1440 500" xmlns="http://www.w3.org/2000/svg" class="transition duration-300 ease-in-out delay-150"><defs><linearGradient id="gradient"><stop offset="5%" stop-color="#99001166"></stop><stop offset="95%" stop-color="#ff690066"></stop></linearGradient></defs><path d="M 0,500 C 0,500 0,125 0,125 C 47.9608381999313,128.22569563723806 95.9216763998626,131.45139127447612 167,127 C 238.0783236001374,122.54860872552388 332.274132600481,110.42013053933358 411,103 C 489.725867399519,95.57986946066642 552.9817931982136,92.8680865681896 621,111 C 689.0182068017864,129.1319134318104 761.7986946066644,168.10752318790796 826,167 C 890.2013053933356,165.89247681209204 945.8234283751287,124.70182068017863 1008,110 C 1070.1765716248713,95.29817931982137 1138.9075918928202,107.08519409137755 1212,114 C 1285.0924081071798,120.91480590862245 1362.54620405359,122.95740295431122 1440,125 C 1440,125 1440,500 1440,500 Z" stroke="none" stroke-width="0" fill="url(#gradient)" class="transition-all duration-300 ease-in-out delay-150"></path><defs><linearGradient id="gradient"><stop offset="5%" stop-color="#99001188"></stop><stop offset="95%" stop-color="#ff690088"></stop></linearGradient></defs><path d="M 0,500 C 0,500 0,250 0,250 C 81.86877361731362,253.70937822054276 163.73754723462724,257.4187564410855 237,258 C 310.26245276537276,258.5812435589145 374.91858467880456,256.0343524562006 424,251 C 473.08141532119544,245.96564754379938 506.5881140501547,238.44383373411196 578,241 C 649.4118859498453,243.55616626588804 758.7289591205772,256.1903126073515 850,255 C 941.2710408794228,253.80968739264853 1014.496049467537,238.7949158364823 1064,231 C 1113.503950532463,223.2050841635177 1139.2868430092751,222.63002404671934 1198,227 C 1256.7131569907249,231.36997595328066 1348.3565784953626,240.68498797664034 1440,250 C 1440,250 1440,500 1440,500 Z" stroke="none" stroke-width="0" fill="url(#gradient)" class="transition-all duration-300 ease-in-out delay-150"></path><defs><linearGradient id="gradient"><stop offset="5%" stop-color="#990011ff"></stop><stop offset="95%" stop-color="#ff6900ff"></stop></linearGradient></defs><path d="M 0,500 C 0,500 0,375 0,375 C 59.23050498110615,376.71006526966676 118.4610099622123,378.42013053933357 182,370 C 245.5389900377877,361.57986946066643 313.3864651322569,343.02954311233253 390,352 C 466.6135348677431,360.97045688766747 551.99312950876,397.4616970113363 618,390 C 684.00687049124,382.5383029886637 730.6410168327036,331.1236688423222 793,329 C 855.3589831672964,326.8763311576778 933.4428031604259,374.0436276193748 1014,390 C 1094.557196839574,405.9563723806252 1177.5877705255928,390.7018206801786 1249,383 C 1320.4122294744072,375.2981793198214 1380.2061147372037,375.1490896599107 1440,375 C 1440,375 1440,500 1440,500 Z" stroke="none" stroke-width="0" fill="url(#gradient)" class="transition-all duration-300 ease-in-out delay-150"></path></svg>