<svg height="100%" width="100%" id="svg" viewBox="0 0 1440 600" xmlns="http://www.w3.org/2000/svg" class="transition duration-300 ease-in-out delay-150"><defs><linearGradient id="gradient"><stop offset="5%" stop-color="#ff690066"></stop><stop offset="95%" stop-color="#faebd766"></stop></linearGradient></defs><path d="M 0,600 C 0,600 0,150 0,150 C 78.72727272727272,177.07177033492823 157.45454545454544,204.14354066985646 243,205 C 328.54545454545456,205.85645933014354 420.9090909090909,180.4976076555024 524,165 C 627.0909090909091,149.5023923444976 740.9090909090911,143.866028708134 858,140 C 975.0909090909089,136.133971291866 1095.4545454545453,134.03827751196172 1193,136 C 1290.5454545454547,137.96172248803828 1365.2727272727275,143.98086124401914 1440,150 C 1440,150 1440,600 1440,600 Z" stroke="none" stroke-width="0" fill="url(#gradient)" class="transition-all duration-300 ease-in-out delay-150"></path><defs><linearGradient id="gradient"><stop offset="5%" stop-color="#ff690088"></stop><stop offset="95%" stop-color="#faebd788"></stop></linearGradient></defs><path d="M 0,600 C 0,600 0,300 0,300 C 101.7129186602871,281.37799043062205 203.4258373205742,262.75598086124404 282,254 C 360.5741626794258,245.24401913875596 416.0095693779904,246.35406698564594 523,245 C 629.9904306220096,243.64593301435406 788.5358851674641,239.82775119617224 909,243 C 1029.4641148325359,246.17224880382776 1111.846889952153,256.3349282296651 1194,267 C 1276.153110047847,277.6650717703349 1358.0765550239234,288.83253588516743 1440,300 C 1440,300 1440,600 1440,600 Z" stroke="none" stroke-width="0" fill="url(#gradient)" class="transition-all duration-300 ease-in-out delay-150"></path><defs><linearGradient id="gradient"><stop offset="5%" stop-color="#ff6900ff"></stop><stop offset="95%" stop-color="#faebd7ff"></stop></linearGradient></defs><path d="M 0,600 C 0,600 0,450 0,450 C 79.49282296650719,466.17224880382776 158.98564593301438,482.34449760765557 247,466 C 335.0143540669856,449.65550239234443 431.5502392344497,400.7942583732057 526,397 C 620.4497607655503,393.2057416267943 712.8133971291867,434.4784688995216 811,438 C 909.1866028708133,441.5215311004784 1013.1961722488038,407.2918660287081 1119,403 C 1224.8038277511962,398.7081339712919 1332.401913875598,424.35406698564594 1440,450 C 1440,450 1440,600 1440,600 Z" stroke="none" stroke-width="0" fill="url(#gradient)" class="transition-all duration-300 ease-in-out delay-150"></path></svg>