<svg xmlns="http://www.w3.org/2000/svg" width="1200" height="400"><path d="M604,270L462,315L564,396Z" fill="rgb(253,185,143)" stroke="rgb(253,185,143)" stroke-width="1.51"/><path d="M462,315L413,387L564,396Z" fill="rgb(250,162,113)" stroke="rgb(250,162,113)" stroke-width="1.51"/><path d="M564,396L652,428L604,270Z" fill="rgb(255,183,134)" stroke="rgb(255,183,134)" stroke-width="1.51"/><path d="M634,566L652,428L564,396Z" fill="rgb(255,171,115)" stroke="rgb(255,171,115)" stroke-width="1.51"/><path d="M462,315L343,301L413,387Z" fill="rgb(242,159,116)" stroke="rgb(242,159,116)" stroke-width="1.51"/><path d="M403,122L343,301L462,315Z" fill="rgb(240,186,157)" stroke="rgb(240,186,157)" stroke-width="1.51"/><path d="M604,270L482,107L462,315Z" fill="rgb(248,210,185)" stroke="rgb(248,210,185)" stroke-width="1.51"/><path d="M482,107L403,122L462,315Z" fill="rgb(239,198,177)" stroke="rgb(239,198,177)" stroke-width="1.51"/><path d="M485,589L634,566L564,396Z" fill="rgb(255,165,111)" stroke="rgb(255,165,111)" stroke-width="1.51"/><path d="M652,428L781,440L604,270Z" fill="rgb(255,171,115)" stroke="rgb(255,171,115)" stroke-width="1.51"/><path d="M604,270L709,101L482,107Z" fill="rgb(243,213,192)" stroke="rgb(243,213,192)" stroke-width="1.51"/><path d="M634,566L781,440L652,428Z" fill="rgb(255,163,104)" stroke="rgb(255,163,104)" stroke-width="1.51"/><path d="M819,193L709,101L604,270Z" fill="rgb(251,217,190)" stroke="rgb(251,217,190)" stroke-width="1.51"/><path d="M413,387L485,589L564,396Z" fill="rgb(252,152,98)" stroke="rgb(252,152,98)" stroke-width="1.51"/><path d="M342,553L485,589L413,387Z" fill="rgb(246,139,86)" stroke="rgb(246,139,86)" stroke-width="1.51"/><path d="M870,310L819,193L604,270Z" fill="rgb(255,200,159)" stroke="rgb(255,200,159)" stroke-width="1.51"/><path d="M259,452L342,553L413,387Z" fill="rgb(239,126,73)" stroke="rgb(239,126,73)" stroke-width="1.51"/><path d="M709,101L552,11L482,107Z" fill="rgb(226,165,143)" stroke="rgb(226,165,143)" stroke-width="1.51"/><path d="M482,107L432,-67L403,122Z" fill="rgb(210,131,109)" stroke="rgb(210,131,109)" stroke-width="1.51"/><path d="M343,301L259,452L413,387Z" fill="rgb(238,132,83)" stroke="rgb(238,132,83)" stroke-width="1.51"/><path d="M145,249L259,452L343,301Z" fill="rgb(228,131,89)" stroke="rgb(228,131,89)" stroke-width="1.51"/><path d="M781,440L870,310L604,270Z" fill="rgb(255,175,122)" stroke="rgb(255,175,122)" stroke-width="1.51"/><path d="M781,440L827,506L870,310Z" fill="rgb(255,148,81)" stroke="rgb(255,148,81)" stroke-width="1.51"/><path d="M634,566L827,506L781,440Z" fill="rgb(255,156,94)" stroke="rgb(255,156,94)" stroke-width="1.51"/><path d="M709,101L700,16L552,11Z" fill="rgb(221,147,122)" stroke="rgb(221,147,122)" stroke-width="1.51"/><path d="M756,-53L700,16L709,101Z" fill="rgb(215,129,101)" stroke="rgb(215,129,101)" stroke-width="1.51"/><path d="M342,553L248,580L485,589Z" fill="rgb(241,130,77)" stroke="rgb(241,130,77)" stroke-width="1.51"/><path d="M259,452L248,580L342,553Z" fill="rgb(233,116,64)" stroke="rgb(233,116,64)" stroke-width="1.51"/><path d="M403,122L168,184L343,301Z" fill="rgb(233,183,161)" stroke="rgb(233,183,161)" stroke-width="1.51"/><path d="M259,452L137,524L248,580Z" fill="rgb(226,103,53)" stroke="rgb(226,103,53)" stroke-width="1.51"/><path d="M282,-60L168,184L403,122Z" fill="rgb(205,119,97)" stroke="rgb(205,119,97)" stroke-width="1.51"/><path d="M552,11L432,-67L482,107Z" fill="rgb(206,120,99)" stroke="rgb(206,120,99)" stroke-width="1.51"/><path d="M462,-185L432,-67L552,11Z" fill="rgb(201,111,90)" stroke="rgb(201,111,90)" stroke-width="1.51"/><path d="M168,184L145,249L343,301Z" fill="rgb(227,155,126)" stroke="rgb(227,155,126)" stroke-width="1.51"/><path d="M168,184L152,201L145,249Z" fill="rgb(223,154,130)" stroke="rgb(223,154,130)" stroke-width="1.51"/><path d="M870,310L945,207L819,193Z" fill="rgb(255,195,152)" stroke="rgb(255,195,152)" stroke-width="1.51"/><path d="M819,193L756,-53L709,101Z" fill="rgb(229,155,125)" stroke="rgb(229,155,125)" stroke-width="1.51"/><path d="M1015,401L945,207L870,310Z" fill="rgb(255,166,108)" stroke="rgb(255,166,108)" stroke-width="1.51"/><path d="M700,16L698,-141L552,11Z" fill="rgb(211,126,101)" stroke="rgb(211,126,101)" stroke-width="1.51"/><path d="M1023,39L756,-53L819,193Z" fill="rgb(222,134,98)" stroke="rgb(222,134,98)" stroke-width="1.51"/><path d="M12,395L137,524L259,452Z" fill="rgb(218,89,40)" stroke="rgb(218,89,40)" stroke-width="1.51"/><path d="M827,506L952,518L870,310Z" fill="rgb(255,142,72)" stroke="rgb(255,142,72)" stroke-width="1.51"/><path d="M634,566L952,518L827,506Z" fill="rgb(255,150,85)" stroke="rgb(255,150,85)" stroke-width="1.51"/><path d="M1153,584L952,518L634,566Z" fill="rgb(255,139,67)" stroke="rgb(255,139,67)" stroke-width="1.51"/><path d="M432,-67L282,-60L403,122Z" fill="rgb(191,91,72)" stroke="rgb(191,91,72)" stroke-width="1.51"/><path d="M168,184L18,120L152,201Z" fill="rgb(212,134,112)" stroke="rgb(212,134,112)" stroke-width="1.51"/><path d="M432,-67L384,-128L282,-60Z" fill="rgb(190,90,71)" stroke="rgb(190,90,71)" stroke-width="1.51"/><path d="M462,-185L384,-128L432,-67Z" fill="rgb(195,101,81)" stroke="rgb(195,101,81)" stroke-width="1.51"/><path d="M952,518L1015,401L870,310Z" fill="rgb(255,135,61)" stroke="rgb(255,135,61)" stroke-width="1.51"/><path d="M756,-53L698,-141L700,16Z" fill="rgb(209,118,91)" stroke="rgb(209,118,91)" stroke-width="1.51"/><path d="M795,-146L698,-141L756,-53Z" fill="rgb(209,115,87)" stroke="rgb(209,115,87)" stroke-width="1.51"/><path d="M149,-169L90,-80L282,-60Z" fill="rgb(171,54,42)" stroke="rgb(171,54,42)" stroke-width="1.51"/><path d="M698,-141L462,-185L552,11Z" fill="rgb(208,126,104)" stroke="rgb(208,126,104)" stroke-width="1.51"/><path d="M945,207L1023,39L819,193Z" fill="rgb(244,173,133)" stroke="rgb(244,173,133)" stroke-width="1.51"/><path d="M1015,401L1045,156L945,207Z" fill="rgb(255,176,123)" stroke="rgb(255,176,123)" stroke-width="1.51"/><path d="M908,-104L795,-146L756,-53Z" fill="rgb(207,108,76)" stroke="rgb(207,108,76)" stroke-width="1.51"/><path d="M698,-141L795,-146L462,-185Z" fill="rgb(211,125,101)" stroke="rgb(211,125,101)" stroke-width="1.51"/><path d="M18,120L145,249L152,201Z" fill="rgb(216,143,122)" stroke="rgb(216,143,122)" stroke-width="1.51"/><path d="M18,120L12,395L145,249Z" fill="rgb(214,124,94)" stroke="rgb(214,124,94)" stroke-width="1.51"/><path d="M145,249L12,395L259,452Z" fill="rgb(218,102,57)" stroke="rgb(218,102,57)" stroke-width="1.51"/><path d="M1045,156L1023,39L945,207Z" fill="rgb(242,158,115)" stroke="rgb(242,158,115)" stroke-width="1.51"/><path d="M1023,39L908,-104L756,-53Z" fill="rgb(206,99,65)" stroke="rgb(206,99,65)" stroke-width="1.51"/><path d="M-1,51L18,120L168,184Z" fill="rgb(195,99,80)" stroke="rgb(195,99,80)" stroke-width="1.51"/><path d="M90,-80L168,184L282,-60Z" fill="rgb(177,64,50)" stroke="rgb(177,64,50)" stroke-width="1.51"/><path d="M1280,199L1056,86L1045,156Z" fill="rgb(247,152,102)" stroke="rgb(247,152,102)" stroke-width="1.51"/><path d="M1045,156L1056,86L1023,39Z" fill="rgb(231,133,89)" stroke="rgb(231,133,89)" stroke-width="1.51"/><path d="M235,-206L282,-60L384,-128Z" fill="rgb(184,78,61)" stroke="rgb(184,78,61)" stroke-width="1.51"/><path d="M18,120L-130,332L12,395Z" fill="rgb(207,104,72)" stroke="rgb(207,104,72)" stroke-width="1.51"/><path d="M90,-80L-1,51L168,184Z" fill="rgb(178,67,52)" stroke="rgb(178,67,52)" stroke-width="1.51"/><path d="M462,-185L235,-206L384,-128Z" fill="rgb(190,89,70)" stroke="rgb(190,89,70)" stroke-width="1.51"/><path d="M235,-206L149,-169L282,-60Z" fill="rgb(176,64,49)" stroke="rgb(176,64,49)" stroke-width="1.51"/><path d="M-140,-38L-162,62L-1,51Z" fill="rgb(161,31,28)" stroke="rgb(161,31,28)" stroke-width="1.51"/><path d="M1015,401L1178,327L1045,156Z" fill="rgb(255,155,92)" stroke="rgb(255,155,92)" stroke-width="1.51"/><path d="M952,518L1148,483L1015,401Z" fill="rgb(255,124,45)" stroke="rgb(255,124,45)" stroke-width="1.51"/><path d="M1148,483L1178,327L1015,401Z" fill="rgb(255,115,29)" stroke="rgb(255,115,29)" stroke-width="1.51"/><path d="M952,518L1153,584L1148,483Z" fill="rgb(255,119,35)" stroke="rgb(255,119,35)" stroke-width="1.51"/><path d="M1278,378L1244,245L1178,327Z" fill="rgb(255,135,61)" stroke="rgb(255,135,61)" stroke-width="1.51"/><path d="M1315,644L1153,584L634,566Z" fill="rgb(255,125,45)" stroke="rgb(255,125,45)" stroke-width="1.51"/><path d="M12,395L-93,644L137,524Z" fill="rgb(205,65,18)" stroke="rgb(205,65,18)" stroke-width="1.51"/><path d="M-227,204L-130,332L18,120Z" fill="rgb(210,125,100)" stroke="rgb(210,125,100)" stroke-width="1.51"/><path d="M-130,332L-134,405L12,395Z" fill="rgb(203,70,28)" stroke="rgb(203,70,28)" stroke-width="1.51"/><path d="M137,524L-93,644L248,580Z" fill="rgb(214,81,33)" stroke="rgb(214,81,33)" stroke-width="1.51"/><path d="M1278,378L1178,327L1148,483Z" fill="rgb(255,107,5)" stroke="rgb(255,107,5)" stroke-width="1.51"/><path d="M1178,327L1244,245L1045,156Z" fill="rgb(255,163,104)" stroke="rgb(255,163,104)" stroke-width="1.51"/><path d="M1056,86L1189,-41L1023,39Z" fill="rgb(212,92,49)" stroke="rgb(212,92,49)" stroke-width="1.51"/><path d="M1023,39L1189,-41L908,-104Z" fill="rgb(204,82,43)" stroke="rgb(204,82,43)" stroke-width="1.51"/><path d="M-134,405L-93,644L12,395Z" fill="rgb(203,61,15)" stroke="rgb(203,61,15)" stroke-width="1.51"/><path d="M248,580L-93,644L485,589Z" fill="rgb(226,103,53)" stroke="rgb(226,103,53)" stroke-width="1.51"/><path d="M485,589L1315,644L634,566Z" fill="rgb(255,150,84)" stroke="rgb(255,150,84)" stroke-width="1.51"/><path d="M1315,644L1278,378L1148,483Z" fill="rgb(255,105,0)" stroke="rgb(255,105,0)" stroke-width="1.51"/><path d="M1280,199L1045,156L1244,245Z" fill="rgb(255,174,119)" stroke="rgb(255,174,119)" stroke-width="1.51"/><path d="M1280,199L1189,-41L1056,86Z" fill="rgb(229,111,62)" stroke="rgb(229,111,62)" stroke-width="1.51"/><path d="M908,-104L1161,-224L795,-146Z" fill="rgb(205,93,56)" stroke="rgb(205,93,56)" stroke-width="1.51"/><path d="M1278,378L1280,199L1244,245Z" fill="rgb(255,149,82)" stroke="rgb(255,149,82)" stroke-width="1.51"/><path d="M-1,51L-162,62L18,120Z" fill="rgb(177,66,51)" stroke="rgb(177,66,51)" stroke-width="1.51"/><path d="M-130,332L-245,409L-134,405Z" fill="rgb(203,69,26)" stroke="rgb(203,69,26)" stroke-width="1.51"/><path d="M-140,-38L-1,51L90,-80Z" fill="rgb(153,0,17)" stroke="rgb(153,0,17)" stroke-width="1.51"/><path d="M-118,-250L-140,-38L90,-80Z" fill="rgb(153,0,17)" stroke="rgb(153,0,17)" stroke-width="1.51"/><path d="M1189,-41L1161,-224L908,-104Z" fill="rgb(204,77,36)" stroke="rgb(204,77,36)" stroke-width="1.51"/><path d="M1361,-65L1210,-74L1189,-41Z" fill="rgb(203,61,15)" stroke="rgb(203,61,15)" stroke-width="1.51"/><path d="M-284,42L-227,204L-162,62Z" fill="rgb(185,79,62)" stroke="rgb(185,79,62)" stroke-width="1.51"/><path d="M-162,62L-227,204L18,120Z" fill="rgb(192,93,74)" stroke="rgb(192,93,74)" stroke-width="1.51"/><path d="M-134,405L-296,562L-93,644Z" fill="rgb(203,61,15)" stroke="rgb(203,61,15)" stroke-width="1.51"/><path d="M-227,204L-245,409L-130,332Z" fill="rgb(205,94,57)" stroke="rgb(205,94,57)" stroke-width="1.51"/><path d="M1210,-74L1161,-224L1189,-41Z" fill="rgb(203,63,17)" stroke="rgb(203,63,17)" stroke-width="1.51"/><path d="M795,-146L1161,-224L462,-185Z" fill="rgb(207,109,78)" stroke="rgb(207,109,78)" stroke-width="1.51"/><path d="M462,-185L1229,-237L235,-206Z" fill="rgb(210,126,103)" stroke="rgb(210,126,103)" stroke-width="1.51"/><path d="M1153,584L1315,644L1148,483Z" fill="rgb(255,105,0)" stroke="rgb(255,105,0)" stroke-width="1.51"/><path d="M1466,348L1443,135L1280,199Z" fill="rgb(255,164,105)" stroke="rgb(255,164,105)" stroke-width="1.51"/><path d="M-93,644L1315,644L485,589Z" fill="rgb(255,167,113)" stroke="rgb(255,167,113)" stroke-width="1.51"/><path d="M-227,204L-284,42L-245,409Z" fill="rgb(211,125,101)" stroke="rgb(211,125,101)" stroke-width="1.51"/><path d="M-140,-38L-284,42L-162,62Z" fill="rgb(160,28,26)" stroke="rgb(160,28,26)" stroke-width="1.51"/><path d="M149,-169L-118,-250L90,-80Z" fill="rgb(158,19,23)" stroke="rgb(158,19,23)" stroke-width="1.51"/><path d="M-140,-38L-295,-222L-284,42Z" fill="rgb(153,0,17)" stroke="rgb(153,0,17)" stroke-width="1.51"/><path d="M235,-206L-118,-250L149,-169Z" fill="rgb(163,35,30)" stroke="rgb(163,35,30)" stroke-width="1.51"/><path d="M1229,-237L-118,-250L235,-206Z" fill="rgb(197,105,84)" stroke="rgb(197,105,84)" stroke-width="1.51"/><path d="M-284,42L-296,562L-245,409Z" fill="rgb(204,86,47)" stroke="rgb(204,86,47)" stroke-width="1.51"/><path d="M-245,409L-296,562L-134,405Z" fill="rgb(203,61,15)" stroke="rgb(203,61,15)" stroke-width="1.51"/><path d="M1161,-224L1229,-237L462,-185Z" fill="rgb(205,93,57)" stroke="rgb(205,93,57)" stroke-width="1.51"/><path d="M1210,-74L1229,-237L1161,-224Z" fill="rgb(203,61,15)" stroke="rgb(203,61,15)" stroke-width="1.51"/><path d="M1361,-65L1229,-237L1210,-74Z" fill="rgb(203,61,15)" stroke="rgb(203,61,15)" stroke-width="1.51"/><path d="M1280,199L1361,-65L1189,-41Z" fill="rgb(213,80,32)" stroke="rgb(213,80,32)" stroke-width="1.51"/><path d="M1315,644L1418,468L1278,378Z" fill="rgb(255,105,0)" stroke="rgb(255,105,0)" stroke-width="1.51"/><path d="M1443,135L1361,-65L1280,199Z" fill="rgb(231,113,62)" stroke="rgb(231,113,62)" stroke-width="1.51"/><path d="M1466,348L1280,199L1278,378Z" fill="rgb(255,137,65)" stroke="rgb(255,137,65)" stroke-width="1.51"/><path d="M1418,468L1466,348L1278,378Z" fill="rgb(255,106,2)" stroke="rgb(255,106,2)" stroke-width="1.51"/><path d="M1315,644L1471,617L1418,468Z" fill="rgb(255,105,0)" stroke="rgb(255,105,0)" stroke-width="1.51"/><path d="M1418,468L1471,617L1466,348Z" fill="rgb(255,105,0)" stroke="rgb(255,105,0)" stroke-width="1.51"/><path d="M-284,42L-295,-222L-296,562Z" fill="rgb(192,93,74)" stroke="rgb(192,93,74)" stroke-width="1.51"/><path d="M-118,-250L-295,-222L-140,-38Z" fill="rgb(153,0,17)" stroke="rgb(153,0,17)" stroke-width="1.51"/><path d="M1361,-65L1433,-231L1229,-237Z" fill="rgb(203,61,15)" stroke="rgb(203,61,15)" stroke-width="1.51"/><path d="M1443,135L1433,-231L1361,-65Z" fill="rgb(203,61,15)" stroke="rgb(203,61,15)" stroke-width="1.51"/><path d="M1466,348L1433,-231L1443,135Z" fill="rgb(230,110,59)" stroke="rgb(230,110,59)" stroke-width="1.51"/></svg>