<svg height="100%" width="100%" id="svg" viewBox="0 0 1440 500" xmlns="http://www.w3.org/2000/svg" class="transition duration-300 ease-in-out delay-150"><defs><linearGradient id="gradient"><stop offset="5%" stop-color="#99001166"></stop><stop offset="95%" stop-color="#ff690066"></stop></linearGradient></defs><path d="M 0,500 C 0,500 0,125 0,125 C 122.33492822966508,113.21052631578948 244.66985645933016,101.42105263157895 330,104 C 415.33014354066984,106.57894736842105 463.6555023923445,123.52631578947368 563,117 C 662.3444976076555,110.47368421052632 812.7081339712919,80.47368421052632 907,92 C 1001.2918660287081,103.52631578947368 1039.511961722488,156.57894736842104 1119,169 C 1198.488038277512,181.42105263157896 1319.244019138756,153.21052631578948 1440,125 C 1440,125 1440,500 1440,500 Z" stroke="none" stroke-width="0" fill="url(#gradient)" class="transition-all duration-300 ease-in-out delay-150"></path><defs><linearGradient id="gradient"><stop offset="5%" stop-color="#99001188"></stop><stop offset="95%" stop-color="#ff690088"></stop></linearGradient></defs><path d="M 0,500 C 0,500 0,250 0,250 C 105.94258373205744,256.57416267942585 211.8851674641149,263.14832535885165 293,276 C 374.1148325358851,288.85167464114835 430.4019138755981,307.98086124401914 537,294 C 643.5980861244019,280.01913875598086 800.5071770334929,232.92822966507177 898,226 C 995.4928229665071,219.07177033492823 1033.5693779904304,252.3062200956938 1114,263 C 1194.4306220095696,273.6937799043062 1317.2153110047848,261.8468899521531 1440,250 C 1440,250 1440,500 1440,500 Z" stroke="none" stroke-width="0" fill="url(#gradient)" class="transition-all duration-300 ease-in-out delay-150"></path><defs><linearGradient id="gradient"><stop offset="5%" stop-color="#990011ff"></stop><stop offset="95%" stop-color="#ff6900ff"></stop></linearGradient></defs><path d="M 0,500 C 0,500 0,375 0,375 C 63.77033492822966,370.37799043062205 127.54066985645932,365.75598086124404 240,369 C 352.4593301435407,372.24401913875596 513.6076555023924,383.35406698564594 614,374 C 714.3923444976076,364.64593301435406 754.0287081339713,334.82775119617224 828,335 C 901.9712918660287,335.17224880382776 1010.2775119617224,365.334928229665 1118,377 C 1225.7224880382776,388.665071770335 1332.8612440191387,381.8325358851675 1440,375 C 1440,375 1440,500 1440,500 Z" stroke="none" stroke-width="0" fill="url(#gradient)" class="transition-all duration-300 ease-in-out delay-150"></path></svg>