<svg height="100%" width="100%" id="svg" viewBox="0 0 1440 500" xmlns="http://www.w3.org/2000/svg" class="transition duration-300 ease-in-out delay-150"><defs><linearGradient id="gradient"><stop offset="5%" stop-color="#ff690088"></stop><stop offset="95%" stop-color="#99001188"></stop></linearGradient></defs><path d="M 0,500 C 0,500 0,166 0,166 C 84.2870813397129,156.11483253588517 168.5741626794258,146.22966507177034 260,158 C 351.4258373205742,169.77033492822966 449.9904306220095,203.19617224880383 542,196 C 634.0095693779905,188.80382775119617 719.464114832536,140.98564593301435 825,125 C 930.535885167464,109.01435406698565 1056.153110047847,124.86124401913875 1162,137 C 1267.846889952153,149.13875598086125 1353.9234449760766,157.5693779904306 1440,166 C 1440,166 1440,500 1440,500 Z" stroke="none" stroke-width="0" fill="url(#gradient)" class="transition-all duration-300 ease-in-out delay-150"></path><defs><linearGradient id="gradient"><stop offset="5%" stop-color="#ff6900ff"></stop><stop offset="95%" stop-color="#990011ff"></stop></linearGradient></defs><path d="M 0,500 C 0,500 0,333 0,333 C 83.59808612440187,361.5071770334928 167.19617224880375,390.0143540669856 260,392 C 352.80382775119625,393.9856459330144 454.8133971291867,369.44976076555025 559,349 C 663.1866028708133,328.55023923444975 769.5502392344498,312.1866028708134 856,317 C 942.4497607655502,321.8133971291866 1008.9856459330144,347.8038277511962 1103,354 C 1197.0143540669856,360.1961722488038 1318.5071770334928,346.5980861244019 1440,333 C 1440,333 1440,500 1440,500 Z" stroke="none" stroke-width="0" fill="url(#gradient)" class="transition-all duration-300 ease-in-out delay-150"></path></svg>