<svg height="100%" width="100%" id="svg" viewBox="0 0 1440 500" xmlns="http://www.w3.org/2000/svg" class="transition duration-300 ease-in-out delay-150"><defs><linearGradient id="gradient"><stop offset="5%" stop-color="#ff690088"></stop><stop offset="95%" stop-color="#99001188"></stop></linearGradient></defs><path d="M 0,500 C 0,500 0,166 0,166 C 73.94258373205744,201.5693779904306 147.8851674641149,237.13875598086125 236,222 C 324.1148325358851,206.86124401913875 426.401913875598,141.01435406698562 536,114 C 645.598086124402,86.98564593301437 762.5071770334929,98.80382775119617 853,118 C 943.4928229665071,137.19617224880383 1007.5693779904304,163.7703349282297 1101,173 C 1194.4306220095696,182.2296650717703 1317.2153110047848,174.11483253588517 1440,166 C 1440,166 1440,500 1440,500 Z" stroke="none" stroke-width="0" fill="url(#gradient)" class="transition-all duration-300 ease-in-out delay-150"></path><defs><linearGradient id="gradient"><stop offset="5%" stop-color="#ff6900ff"></stop><stop offset="95%" stop-color="#990011ff"></stop></linearGradient></defs><path d="M 0,500 C 0,500 0,333 0,333 C 84.33492822966508,348.53110047846894 168.66985645933016,364.06220095693783 262,360 C 355.33014354066984,355.93779904306217 457.6555023923445,332.2822966507177 560,328 C 662.3444976076555,323.7177033492823 764.7081339712918,338.80861244019144 858,328 C 951.2918660287082,317.19138755980856 1035.511961722488,280.48325358851673 1131,277 C 1226.488038277512,273.51674641148327 1333.244019138756,303.25837320574163 1440,333 C 1440,333 1440,500 1440,500 Z" stroke="none" stroke-width="0" fill="url(#gradient)" class="transition-all duration-300 ease-in-out delay-150"></path></svg>