<svg height="100%" width="100%" id="svg" viewBox="0 0 1440 700" xmlns="http://www.w3.org/2000/svg" class="transition duration-300 ease-in-out delay-150"><defs><linearGradient id="gradient"><stop offset="5%" stop-color="#99001188"></stop><stop offset="95%" stop-color="#faebd788"></stop></linearGradient></defs><path d="M 0,700 C 0,700 0,233 0,233 C 113.26315789473685,198.20574162679426 226.5263157894737,163.41148325358853 316,171 C 405.4736842105263,178.58851674641147 471.1578947368421,228.5598086124402 574,241 C 676.8421052631579,253.4401913875598 816.8421052631578,228.34928229665076 911,230 C 1005.1578947368422,231.65071770334924 1053.4736842105262,260.0430622009569 1134,265 C 1214.5263157894738,269.9569377990431 1327.2631578947369,251.47846889952154 1440,233 C 1440,233 1440,700 1440,700 Z" stroke="none" stroke-width="0" fill="url(#gradient)" class="transition-all duration-300 ease-in-out delay-150"></path><defs><linearGradient id="gradient"><stop offset="5%" stop-color="#990011ff"></stop><stop offset="95%" stop-color="#faebd7ff"></stop></linearGradient></defs><path d="M 0,700 C 0,700 0,466 0,466 C 74.20095693779905,488.66985645933016 148.4019138755981,511.33971291866027 243,490 C 337.5980861244019,468.66028708133973 452.5933014354066,403.3110047846891 558,403 C 663.4066985645934,402.6889952153109 759.2248803827752,467.41626794258366 847,495 C 934.7751196172248,522.5837320574163 1014.5071770334928,513.0239234449762 1112,502 C 1209.4928229665072,490.9760765550239 1324.7464114832537,478.4880382775119 1440,466 C 1440,466 1440,700 1440,700 Z" stroke="none" stroke-width="0" fill="url(#gradient)" class="transition-all duration-300 ease-in-out delay-150"></path></svg>