<svg xmlns="http://www.w3.org/2000/svg" width="1200" height="400"><path d="M631,152L571,58L448,265Z" fill="rgb(241,204,183)" stroke="rgb(241,204,183)" stroke-width="1.51"/><path d="M571,58L274,90L448,265Z" fill="rgb(229,173,151)" stroke="rgb(229,173,151)" stroke-width="1.51"/><path d="M472,-77L274,90L571,58Z" fill="rgb(203,115,94)" stroke="rgb(203,115,94)" stroke-width="1.51"/><path d="M274,90L324,333L448,265Z" fill="rgb(237,182,155)" stroke="rgb(237,182,155)" stroke-width="1.51"/><path d="M448,265L749,347L631,152Z" fill="rgb(254,217,186)" stroke="rgb(254,217,186)" stroke-width="1.51"/><path d="M679,450L749,347L448,265Z" fill="rgb(255,184,136)" stroke="rgb(255,184,136)" stroke-width="1.51"/><path d="M472,-77L329,-85L274,90Z" fill="rgb(190,89,70)" stroke="rgb(190,89,70)" stroke-width="1.51"/><path d="M571,58L693,-101L472,-77Z" fill="rgb(209,127,105)" stroke="rgb(209,127,105)" stroke-width="1.51"/><path d="M472,-77L262,-241L329,-85Z" fill="rgb(189,88,69)" stroke="rgb(189,88,69)" stroke-width="1.51"/><path d="M631,152L693,-101L571,58Z" fill="rgb(220,146,122)" stroke="rgb(220,146,122)" stroke-width="1.51"/><path d="M857,134L693,-101L631,152Z" fill="rgb(225,150,121)" stroke="rgb(225,150,121)" stroke-width="1.51"/><path d="M324,333L518,490L448,265Z" fill="rgb(245,154,106)" stroke="rgb(245,154,106)" stroke-width="1.51"/><path d="M518,490L679,450L448,265Z" fill="rgb(255,163,109)" stroke="rgb(255,163,109)" stroke-width="1.51"/><path d="M324,333L316,441L518,490Z" fill="rgb(243,134,81)" stroke="rgb(243,134,81)" stroke-width="1.51"/><path d="M128,286L316,441L324,333Z" fill="rgb(229,127,82)" stroke="rgb(229,127,82)" stroke-width="1.51"/><path d="M749,347L857,134L631,152Z" fill="rgb(254,216,185)" stroke="rgb(254,216,185)" stroke-width="1.51"/><path d="M693,-101L645,-209L472,-77Z" fill="rgb(210,130,109)" stroke="rgb(210,130,109)" stroke-width="1.51"/><path d="M893,-204L645,-209L693,-101Z" fill="rgb(209,116,88)" stroke="rgb(209,116,88)" stroke-width="1.51"/><path d="M274,90L128,286L324,333Z" fill="rgb(229,161,133)" stroke="rgb(229,161,133)" stroke-width="1.51"/><path d="M329,-85L133,47L274,90Z" fill="rgb(183,78,61)" stroke="rgb(183,78,61)" stroke-width="1.51"/><path d="M133,47L128,286L274,90Z" fill="rgb(210,131,109)" stroke="rgb(210,131,109)" stroke-width="1.51"/><path d="M749,347L861,362L857,134Z" fill="rgb(255,187,139)" stroke="rgb(255,187,139)" stroke-width="1.51"/><path d="M679,450L861,362L749,347Z" fill="rgb(255,159,98)" stroke="rgb(255,159,98)" stroke-width="1.51"/><path d="M645,-209L573,-255L472,-77Z" fill="rgb(207,124,103)" stroke="rgb(207,124,103)" stroke-width="1.51"/><path d="M329,-85L83,-128L133,47Z" fill="rgb(172,56,43)" stroke="rgb(172,56,43)" stroke-width="1.51"/><path d="M573,-255L262,-241L472,-77Z" fill="rgb(197,102,82)" stroke="rgb(197,102,82)" stroke-width="1.51"/><path d="M128,286L78,440L316,441Z" fill="rgb(222,100,52)" stroke="rgb(222,100,52)" stroke-width="1.51"/><path d="M133,47L14,270L128,286Z" fill="rgb(217,146,124)" stroke="rgb(217,146,124)" stroke-width="1.51"/><path d="M-33,56L14,270L133,47Z" fill="rgb(194,98,79)" stroke="rgb(194,98,79)" stroke-width="1.51"/><path d="M14,270L78,440L128,286Z" fill="rgb(212,101,62)" stroke="rgb(212,101,62)" stroke-width="1.51"/><path d="M262,717L524,720L518,490Z" fill="rgb(248,143,89)" stroke="rgb(248,143,89)" stroke-width="1.51"/><path d="M169,-245L83,-128L329,-85Z" fill="rgb(173,58,45)" stroke="rgb(173,58,45)" stroke-width="1.51"/><path d="M1120,356L1036,59L857,134Z" fill="rgb(254,184,140)" stroke="rgb(254,184,140)" stroke-width="1.51"/><path d="M679,450L946,451L861,362Z" fill="rgb(255,148,81)" stroke="rgb(255,148,81)" stroke-width="1.51"/><path d="M730,689L946,451L679,450Z" fill="rgb(255,153,88)" stroke="rgb(255,153,88)" stroke-width="1.51"/><path d="M946,-145L893,-204L693,-101Z" fill="rgb(207,105,72)" stroke="rgb(207,105,72)" stroke-width="1.51"/><path d="M645,-209L998,-284L573,-255Z" fill="rgb(209,116,88)" stroke="rgb(209,116,88)" stroke-width="1.51"/><path d="M946,-145L693,-101L857,134Z" fill="rgb(207,107,74)" stroke="rgb(207,107,74)" stroke-width="1.51"/><path d="M262,-241L169,-245L329,-85Z" fill="rgb(180,70,54)" stroke="rgb(180,70,54)" stroke-width="1.51"/><path d="M-172,-334L169,-245L262,-241Z" fill="rgb(162,34,29)" stroke="rgb(162,34,29)" stroke-width="1.51"/><path d="M1036,59L946,-145L857,134Z" fill="rgb(210,102,65)" stroke="rgb(210,102,65)" stroke-width="1.51"/><path d="M1120,356L857,134L861,362Z" fill="rgb(255,172,118)" stroke="rgb(255,172,118)" stroke-width="1.51"/><path d="M-38,-53L-33,56L133,47Z" fill="rgb(161,29,27)" stroke="rgb(161,29,27)" stroke-width="1.51"/><path d="M518,490L730,689L679,450Z" fill="rgb(255,168,111)" stroke="rgb(255,168,111)" stroke-width="1.51"/><path d="M262,717L518,490L316,441Z" fill="rgb(241,131,78)" stroke="rgb(241,131,78)" stroke-width="1.51"/><path d="M524,720L730,689L518,490Z" fill="rgb(255,171,116)" stroke="rgb(255,171,116)" stroke-width="1.51"/><path d="M78,440L140,596L316,441Z" fill="rgb(222,96,47)" stroke="rgb(222,96,47)" stroke-width="1.51"/><path d="M83,-128L-38,-53L133,47Z" fill="rgb(160,26,25)" stroke="rgb(160,26,25)" stroke-width="1.51"/><path d="M-9,-239L-38,-53L83,-128Z" fill="rgb(155,6,18)" stroke="rgb(155,6,18)" stroke-width="1.51"/><path d="M1036,59L1031,-122L946,-145Z" fill="rgb(204,87,48)" stroke="rgb(204,87,48)" stroke-width="1.51"/><path d="M946,-145L998,-284L893,-204Z" fill="rgb(205,94,57)" stroke="rgb(205,94,57)" stroke-width="1.51"/><path d="M140,596L262,717L316,441Z" fill="rgb(228,108,57)" stroke="rgb(228,108,57)" stroke-width="1.51"/><path d="M78,440L-34,456L140,596Z" fill="rgb(210,74,27)" stroke="rgb(210,74,27)" stroke-width="1.51"/><path d="M140,596L12,683L262,717Z" fill="rgb(218,89,40)" stroke="rgb(218,89,40)" stroke-width="1.51"/><path d="M14,270L-34,456L78,440Z" fill="rgb(205,70,25)" stroke="rgb(205,70,25)" stroke-width="1.51"/><path d="M-177,262L-34,456L14,270Z" fill="rgb(204,88,51)" stroke="rgb(204,88,51)" stroke-width="1.51"/><path d="M-183,163L14,270L-33,56Z" fill="rgb(201,112,91)" stroke="rgb(201,112,91)" stroke-width="1.51"/><path d="M946,451L1120,356L861,362Z" fill="rgb(255,135,61)" stroke="rgb(255,135,61)" stroke-width="1.51"/><path d="M1036,59L1204,-81L1031,-122Z" fill="rgb(204,76,35)" stroke="rgb(204,76,35)" stroke-width="1.51"/><path d="M1120,496L1120,356L946,451Z" fill="rgb(255,122,40)" stroke="rgb(255,122,40)" stroke-width="1.51"/><path d="M730,689L890,693L946,451Z" fill="rgb(255,145,77)" stroke="rgb(255,145,77)" stroke-width="1.51"/><path d="M524,720L890,693L730,689Z" fill="rgb(255,160,99)" stroke="rgb(255,160,99)" stroke-width="1.51"/><path d="M169,-245L-9,-239L83,-128Z" fill="rgb(162,32,28)" stroke="rgb(162,32,28)" stroke-width="1.51"/><path d="M1031,-122L998,-284L946,-145Z" fill="rgb(204,88,50)" stroke="rgb(204,88,50)" stroke-width="1.51"/><path d="M893,-204L998,-284L645,-209Z" fill="rgb(207,105,72)" stroke="rgb(207,105,72)" stroke-width="1.51"/><path d="M573,-255L-172,-334L262,-241Z" fill="rgb(176,63,49)" stroke="rgb(176,63,49)" stroke-width="1.51"/><path d="M169,-245L-172,-334L-9,-239Z" fill="rgb(153,0,17)" stroke="rgb(153,0,17)" stroke-width="1.51"/><path d="M1120,356L1184,260L1036,59Z" fill="rgb(255,173,119)" stroke="rgb(255,173,119)" stroke-width="1.51"/><path d="M1031,-122L1204,-81L998,-284Z" fill="rgb(204,78,37)" stroke="rgb(204,78,37)" stroke-width="1.51"/><path d="M-216,-123L-33,56L-38,-53Z" fill="rgb(153,0,17)" stroke="rgb(153,0,17)" stroke-width="1.51"/><path d="M-216,-123L-183,163L-33,56Z" fill="rgb(163,37,31)" stroke="rgb(163,37,31)" stroke-width="1.51"/><path d="M1120,356L1245,425L1184,260Z" fill="rgb(255,126,47)" stroke="rgb(255,126,47)" stroke-width="1.51"/><path d="M1040,638L1120,496L946,451Z" fill="rgb(255,125,45)" stroke="rgb(255,125,45)" stroke-width="1.51"/><path d="M-183,163L-177,262L14,270Z" fill="rgb(210,121,95)" stroke="rgb(210,121,95)" stroke-width="1.51"/><path d="M1184,260L1210,133L1036,59Z" fill="rgb(248,152,101)" stroke="rgb(248,152,101)" stroke-width="1.51"/><path d="M890,693L1040,638L946,451Z" fill="rgb(255,134,59)" stroke="rgb(255,134,59)" stroke-width="1.51"/><path d="M-230,537L12,683L-34,456Z" fill="rgb(203,61,15)" stroke="rgb(203,61,15)" stroke-width="1.51"/><path d="M-34,456L12,683L140,596Z" fill="rgb(208,70,22)" stroke="rgb(208,70,22)" stroke-width="1.51"/><path d="M1210,133L1204,-81L1036,59Z" fill="rgb(215,90,44)" stroke="rgb(215,90,44)" stroke-width="1.51"/><path d="M1210,620L1245,425L1120,496Z" fill="rgb(255,106,3)" stroke="rgb(255,106,3)" stroke-width="1.51"/><path d="M1120,496L1245,425L1120,356Z" fill="rgb(255,110,15)" stroke="rgb(255,110,15)" stroke-width="1.51"/><path d="M1499,245L1471,49L1210,133Z" fill="rgb(247,141,88)" stroke="rgb(247,141,88)" stroke-width="1.51"/><path d="M1455,-39L1293,-303L1204,-81Z" fill="rgb(203,61,15)" stroke="rgb(203,61,15)" stroke-width="1.51"/><path d="M-9,-239L-216,-123L-38,-53Z" fill="rgb(153,0,17)" stroke="rgb(153,0,17)" stroke-width="1.51"/><path d="M-183,163L-230,537L-177,262Z" fill="rgb(205,92,55)" stroke="rgb(205,92,55)" stroke-width="1.51"/><path d="M-177,262L-230,537L-34,456Z" fill="rgb(203,61,15)" stroke="rgb(203,61,15)" stroke-width="1.51"/><path d="M-263,627L-230,537L-183,163Z" fill="rgb(203,61,15)" stroke="rgb(203,61,15)" stroke-width="1.51"/><path d="M1040,638L1210,620L1120,496Z" fill="rgb(255,114,26)" stroke="rgb(255,114,26)" stroke-width="1.51"/><path d="M1486,718L1210,620L1040,638Z" fill="rgb(255,105,0)" stroke="rgb(255,105,0)" stroke-width="1.51"/><path d="M998,-284L-172,-334L573,-255Z" fill="rgb(199,108,87)" stroke="rgb(199,108,87)" stroke-width="1.51"/><path d="M-9,-239L-172,-334L-216,-123Z" fill="rgb(153,0,17)" stroke="rgb(153,0,17)" stroke-width="1.51"/><path d="M-230,537L-263,627L12,683Z" fill="rgb(203,61,15)" stroke="rgb(203,61,15)" stroke-width="1.51"/><path d="M-216,-123L-263,627L-183,163Z" fill="rgb(211,124,99)" stroke="rgb(211,124,99)" stroke-width="1.51"/><path d="M998,-284L1293,-303L-172,-334Z" fill="rgb(210,120,93)" stroke="rgb(210,120,93)" stroke-width="1.51"/><path d="M1204,-81L1293,-303L998,-284Z" fill="rgb(203,66,22)" stroke="rgb(203,66,22)" stroke-width="1.51"/><path d="M1455,-39L1204,-81L1210,133Z" fill="rgb(205,64,18)" stroke="rgb(205,64,18)" stroke-width="1.51"/><path d="M1210,133L1184,260L1499,245Z" fill="rgb(255,168,111)" stroke="rgb(255,168,111)" stroke-width="1.51"/><path d="M1471,49L1455,-39L1210,133Z" fill="rgb(219,90,41)" stroke="rgb(219,90,41)" stroke-width="1.51"/><path d="M1499,245L1184,260L1245,425Z" fill="rgb(255,137,64)" stroke="rgb(255,137,64)" stroke-width="1.51"/><path d="M1469,498L1499,245L1245,425Z" fill="rgb(255,109,13)" stroke="rgb(255,109,13)" stroke-width="1.51"/><path d="M1210,620L1469,498L1245,425Z" fill="rgb(255,105,0)" stroke="rgb(255,105,0)" stroke-width="1.51"/><path d="M1471,49L1505,-294L1455,-39Z" fill="rgb(203,61,15)" stroke="rgb(203,61,15)" stroke-width="1.51"/><path d="M1455,-39L1505,-294L1293,-303Z" fill="rgb(203,61,15)" stroke="rgb(203,61,15)" stroke-width="1.51"/><path d="M1499,245L1505,-294L1471,49Z" fill="rgb(203,61,15)" stroke="rgb(203,61,15)" stroke-width="1.51"/><path d="M524,720L1486,718L890,693Z" fill="rgb(255,133,58)" stroke="rgb(255,133,58)" stroke-width="1.51"/><path d="M890,693L1486,718L1040,638Z" fill="rgb(255,113,23)" stroke="rgb(255,113,23)" stroke-width="1.51"/><path d="M1210,620L1486,718L1469,498Z" fill="rgb(255,105,0)" stroke="rgb(255,105,0)" stroke-width="1.51"/><path d="M1469,498L1486,718L1499,245Z" fill="rgb(255,105,0)" stroke="rgb(255,105,0)" stroke-width="1.51"/></svg>