<svg xmlns="http://www.w3.org/2000/svg" width="1200" height="400"><path d="M567,182L567,137L479,172Z" fill="rgb(241,205,183)" stroke="rgb(241,205,183)" stroke-width="1.51"/><path d="M567,137L466,117L479,172Z" fill="rgb(234,187,166)" stroke="rgb(234,187,166)" stroke-width="1.51"/><path d="M466,117L432,124L479,172Z" fill="rgb(231,178,156)" stroke="rgb(231,178,156)" stroke-width="1.51"/><path d="M479,172L568,251L567,182Z" fill="rgb(247,223,202)" stroke="rgb(247,223,202)" stroke-width="1.51"/><path d="M649,106L612,76L567,137Z" fill="rgb(234,185,162)" stroke="rgb(234,185,162)" stroke-width="1.51"/><path d="M567,137L496,45L466,117Z" fill="rgb(226,166,145)" stroke="rgb(226,166,145)" stroke-width="1.51"/><path d="M466,117L436,36L432,124Z" fill="rgb(220,152,129)" stroke="rgb(220,152,129)" stroke-width="1.51"/><path d="M567,137L575,48L496,45Z" fill="rgb(224,161,139)" stroke="rgb(224,161,139)" stroke-width="1.51"/><path d="M657,175L567,137L567,182Z" fill="rgb(244,216,195)" stroke="rgb(244,216,195)" stroke-width="1.51"/><path d="M612,76L575,48L567,137Z" fill="rgb(229,173,151)" stroke="rgb(229,173,151)" stroke-width="1.51"/><path d="M479,172L479,281L568,251Z" fill="rgb(248,208,181)" stroke="rgb(248,208,181)" stroke-width="1.51"/><path d="M400,208L479,281L479,172Z" fill="rgb(244,202,178)" stroke="rgb(244,202,178)" stroke-width="1.51"/><path d="M568,251L657,175L567,182Z" fill="rgb(251,234,213)" stroke="rgb(251,234,213)" stroke-width="1.51"/><path d="M432,124L400,208L479,172Z" fill="rgb(235,189,168)" stroke="rgb(235,189,168)" stroke-width="1.51"/><path d="M657,175L649,106L567,137Z" fill="rgb(241,200,178)" stroke="rgb(241,200,178)" stroke-width="1.51"/><path d="M496,45L436,36L466,117Z" fill="rgb(216,142,120)" stroke="rgb(216,142,120)" stroke-width="1.51"/><path d="M317,115L359,224L400,208Z" fill="rgb(233,183,161)" stroke="rgb(233,183,161)" stroke-width="1.51"/><path d="M500,-20L436,36L496,45Z" fill="rgb(205,120,99)" stroke="rgb(205,120,99)" stroke-width="1.51"/><path d="M657,175L688,122L649,106Z" fill="rgb(241,194,169)" stroke="rgb(241,194,169)" stroke-width="1.51"/><path d="M649,106L702,27L612,76Z" fill="rgb(227,161,136)" stroke="rgb(227,161,136)" stroke-width="1.51"/><path d="M657,-26L570,-17L575,48Z" fill="rgb(211,132,110)" stroke="rgb(211,132,110)" stroke-width="1.51"/><path d="M568,251L633,288L657,175Z" fill="rgb(254,221,193)" stroke="rgb(254,221,193)" stroke-width="1.51"/><path d="M657,175L722,196L688,122Z" fill="rgb(246,207,181)" stroke="rgb(246,207,181)" stroke-width="1.51"/><path d="M624,344L633,288L568,251Z" fill="rgb(255,204,167)" stroke="rgb(255,204,167)" stroke-width="1.51"/><path d="M400,208L399,288L479,281Z" fill="rgb(242,186,155)" stroke="rgb(242,186,155)" stroke-width="1.51"/><path d="M317,115L400,208L432,124Z" fill="rgb(228,170,148)" stroke="rgb(228,170,148)" stroke-width="1.51"/><path d="M359,224L399,288L400,208Z" fill="rgb(240,185,156)" stroke="rgb(240,185,156)" stroke-width="1.51"/><path d="M479,281L496,360L568,251Z" fill="rgb(249,190,152)" stroke="rgb(249,190,152)" stroke-width="1.51"/><path d="M570,-17L500,-20L496,45Z" fill="rgb(205,119,97)" stroke="rgb(205,119,97)" stroke-width="1.51"/><path d="M570,-17L496,45L575,48Z" fill="rgb(212,134,113)" stroke="rgb(212,134,113)" stroke-width="1.51"/><path d="M657,-26L575,48L612,76Z" fill="rgb(219,146,123)" stroke="rgb(219,146,123)" stroke-width="1.51"/><path d="M436,36L347,68L432,124Z" fill="rgb(213,137,115)" stroke="rgb(213,137,115)" stroke-width="1.51"/><path d="M360,-40L347,68L436,36Z" fill="rgb(197,104,83)" stroke="rgb(197,104,83)" stroke-width="1.51"/><path d="M633,288L722,196L657,175Z" fill="rgb(255,222,193)" stroke="rgb(255,222,193)" stroke-width="1.51"/><path d="M429,348L496,360L479,281Z" fill="rgb(247,171,128)" stroke="rgb(247,171,128)" stroke-width="1.51"/><path d="M582,366L624,344L568,251Z" fill="rgb(255,196,154)" stroke="rgb(255,196,154)" stroke-width="1.51"/><path d="M633,288L685,302L722,196Z" fill="rgb(255,207,171)" stroke="rgb(255,207,171)" stroke-width="1.51"/><path d="M399,288L429,348L479,281Z" fill="rgb(244,173,134)" stroke="rgb(244,173,134)" stroke-width="1.51"/><path d="M365,352L429,348L399,288Z" fill="rgb(241,159,116)" stroke="rgb(241,159,116)" stroke-width="1.51"/><path d="M347,68L317,115L432,124Z" fill="rgb(217,143,121)" stroke="rgb(217,143,121)" stroke-width="1.51"/><path d="M496,360L582,366L568,251Z" fill="rgb(253,187,144)" stroke="rgb(253,187,144)" stroke-width="1.51"/><path d="M624,344L685,302L633,288Z" fill="rgb(255,195,153)" stroke="rgb(255,195,153)" stroke-width="1.51"/><path d="M359,224L327,253L399,288Z" fill="rgb(238,176,145)" stroke="rgb(238,176,145)" stroke-width="1.51"/><path d="M262,202L327,253L359,224Z" fill="rgb(235,177,151)" stroke="rgb(235,177,151)" stroke-width="1.51"/><path d="M688,122L702,27L649,106Z" fill="rgb(231,166,140)" stroke="rgb(231,166,140)" stroke-width="1.51"/><path d="M770,73L702,27L688,122Z" fill="rgb(227,157,128)" stroke="rgb(227,157,128)" stroke-width="1.51"/><path d="M466,-86L425,-49L500,-20Z" fill="rgb(199,107,87)" stroke="rgb(199,107,87)" stroke-width="1.51"/><path d="M702,27L657,-26L612,76Z" fill="rgb(217,138,113)" stroke="rgb(217,138,113)" stroke-width="1.51"/><path d="M500,-20L425,-49L436,36Z" fill="rgb(198,106,85)" stroke="rgb(198,106,85)" stroke-width="1.51"/><path d="M466,-86L500,-20L556,-115Z" fill="rgb(203,115,94)" stroke="rgb(203,115,94)" stroke-width="1.51"/><path d="M722,196L783,114L688,122Z" fill="rgb(242,192,163)" stroke="rgb(242,192,163)" stroke-width="1.51"/><path d="M782,273L773,189L722,196Z" fill="rgb(255,212,179)" stroke="rgb(255,212,179)" stroke-width="1.51"/><path d="M327,253L365,352L399,288Z" fill="rgb(238,163,126)" stroke="rgb(238,163,126)" stroke-width="1.51"/><path d="M429,348L433,408L496,360Z" fill="rgb(248,155,105)" stroke="rgb(248,155,105)" stroke-width="1.51"/><path d="M496,360L567,439L582,366Z" fill="rgb(255,167,114)" stroke="rgb(255,167,114)" stroke-width="1.51"/><path d="M556,-115L500,-20L570,-17Z" fill="rgb(206,121,100)" stroke="rgb(206,121,100)" stroke-width="1.51"/><path d="M317,115L262,202L359,224Z" fill="rgb(230,174,152)" stroke="rgb(230,174,152)" stroke-width="1.51"/><path d="M347,68L275,99L317,115Z" fill="rgb(211,130,108)" stroke="rgb(211,130,108)" stroke-width="1.51"/><path d="M253,59L275,99L347,68Z" fill="rgb(204,117,95)" stroke="rgb(204,117,95)" stroke-width="1.51"/><path d="M702,27L694,-35L657,-26Z" fill="rgb(210,122,96)" stroke="rgb(210,122,96)" stroke-width="1.51"/><path d="M626,-128L556,-115L570,-17Z" fill="rgb(209,128,106)" stroke="rgb(209,128,106)" stroke-width="1.51"/><path d="M759,-17L694,-35L702,27Z" fill="rgb(209,118,91)" stroke="rgb(209,118,91)" stroke-width="1.51"/><path d="M425,-49L360,-40L436,36Z" fill="rgb(194,98,78)" stroke="rgb(194,98,78)" stroke-width="1.51"/><path d="M402,-104L360,-40L425,-49Z" fill="rgb(193,96,76)" stroke="rgb(193,96,76)" stroke-width="1.51"/><path d="M783,114L770,73L688,122Z" fill="rgb(234,169,139)" stroke="rgb(234,169,139)" stroke-width="1.51"/><path d="M773,189L783,114L722,196Z" fill="rgb(247,200,171)" stroke="rgb(247,200,171)" stroke-width="1.51"/><path d="M365,352L433,408L429,348Z" fill="rgb(244,148,100)" stroke="rgb(244,148,100)" stroke-width="1.51"/><path d="M275,99L262,202L317,115Z" fill="rgb(218,148,126)" stroke="rgb(218,148,126)" stroke-width="1.51"/><path d="M327,253L269,322L365,352Z" fill="rgb(234,152,113)" stroke="rgb(234,152,113)" stroke-width="1.51"/><path d="M685,302L782,273L722,196Z" fill="rgb(255,203,165)" stroke="rgb(255,203,165)" stroke-width="1.51"/><path d="M624,344L716,349L685,302Z" fill="rgb(255,186,138)" stroke="rgb(255,186,138)" stroke-width="1.51"/><path d="M701,421L716,349L624,344Z" fill="rgb(255,172,118)" stroke="rgb(255,172,118)" stroke-width="1.51"/><path d="M660,438L624,344L582,366Z" fill="rgb(255,175,123)" stroke="rgb(255,175,123)" stroke-width="1.51"/><path d="M626,-128L570,-17L657,-26Z" fill="rgb(211,129,106)" stroke="rgb(211,129,106)" stroke-width="1.51"/><path d="M759,330L782,273L685,302Z" fill="rgb(255,188,142)" stroke="rgb(255,188,142)" stroke-width="1.51"/><path d="M858,141L843,75L783,114Z" fill="rgb(235,164,130)" stroke="rgb(235,164,130)" stroke-width="1.51"/><path d="M464,437L567,439L496,360Z" fill="rgb(255,156,102)" stroke="rgb(255,156,102)" stroke-width="1.51"/><path d="M433,408L464,437L496,360Z" fill="rgb(251,148,95)" stroke="rgb(251,148,95)" stroke-width="1.51"/><path d="M385,523L464,437L433,408Z" fill="rgb(247,142,88)" stroke="rgb(247,142,88)" stroke-width="1.51"/><path d="M716,349L759,330L685,302Z" fill="rgb(255,183,133)" stroke="rgb(255,183,133)" stroke-width="1.51"/><path d="M782,419L759,330L716,349Z" fill="rgb(255,167,109)" stroke="rgb(255,167,109)" stroke-width="1.51"/><path d="M197,134L208,190L262,202Z" fill="rgb(222,156,134)" stroke="rgb(222,156,134)" stroke-width="1.51"/><path d="M282,-50L253,59L347,68Z" fill="rgb(191,91,72)" stroke="rgb(191,91,72)" stroke-width="1.51"/><path d="M466,-86L402,-104L425,-49Z" fill="rgb(196,102,82)" stroke="rgb(196,102,82)" stroke-width="1.51"/><path d="M360,-40L282,-50L347,68Z" fill="rgb(187,84,66)" stroke="rgb(187,84,66)" stroke-width="1.51"/><path d="M556,-115L402,-104L466,-86Z" fill="rgb(200,109,88)" stroke="rgb(200,109,88)" stroke-width="1.51"/><path d="M697,-116L626,-128L657,-26Z" fill="rgb(211,125,100)" stroke="rgb(211,125,100)" stroke-width="1.51"/><path d="M770,73L759,-17L702,27Z" fill="rgb(216,130,101)" stroke="rgb(216,130,101)" stroke-width="1.51"/><path d="M843,75L759,-17L770,73Z" fill="rgb(219,133,102)" stroke="rgb(219,133,102)" stroke-width="1.51"/><path d="M365,352L318,439L433,408Z" fill="rgb(242,132,79)" stroke="rgb(242,132,79)" stroke-width="1.51"/><path d="M262,202L256,287L327,253Z" fill="rgb(232,164,135)" stroke="rgb(232,164,135)" stroke-width="1.51"/><path d="M208,190L256,287L262,202Z" fill="rgb(230,165,138)" stroke="rgb(230,165,138)" stroke-width="1.51"/><path d="M256,287L269,322L327,253Z" fill="rgb(231,152,117)" stroke="rgb(231,152,117)" stroke-width="1.51"/><path d="M697,-116L657,-26L694,-35Z" fill="rgb(210,122,97)" stroke="rgb(210,122,97)" stroke-width="1.51"/><path d="M556,-115L626,-128L402,-104Z" fill="rgb(205,119,97)" stroke="rgb(205,119,97)" stroke-width="1.51"/><path d="M567,439L660,438L582,366Z" fill="rgb(255,172,117)" stroke="rgb(255,172,117)" stroke-width="1.51"/><path d="M660,438L701,421L624,344Z" fill="rgb(255,166,108)" stroke="rgb(255,166,108)" stroke-width="1.51"/><path d="M197,134L262,202L275,99Z" fill="rgb(217,144,122)" stroke="rgb(217,144,122)" stroke-width="1.51"/><path d="M256,287L199,340L269,322Z" fill="rgb(228,136,96)" stroke="rgb(228,136,96)" stroke-width="1.51"/><path d="M318,-86L282,-50L360,-40Z" fill="rgb(186,82,64)" stroke="rgb(186,82,64)" stroke-width="1.51"/><path d="M253,59L197,134L275,99Z" fill="rgb(205,120,98)" stroke="rgb(205,120,98)" stroke-width="1.51"/><path d="M402,-104L318,-86L360,-40Z" fill="rgb(190,89,70)" stroke="rgb(190,89,70)" stroke-width="1.51"/><path d="M759,-17L697,-116L694,-35Z" fill="rgb(209,119,92)" stroke="rgb(209,119,92)" stroke-width="1.51"/><path d="M194,56L197,134L253,59Z" fill="rgb(199,107,86)" stroke="rgb(199,107,86)" stroke-width="1.51"/><path d="M783,114L843,75L770,73Z" fill="rgb(230,156,123)" stroke="rgb(230,156,123)" stroke-width="1.51"/><path d="M759,-17L796,-106L697,-116Z" fill="rgb(209,115,87)" stroke="rgb(209,115,87)" stroke-width="1.51"/><path d="M858,141L783,114L773,189Z" fill="rgb(244,186,153)" stroke="rgb(244,186,153)" stroke-width="1.51"/><path d="M865,226L773,189L782,273Z" fill="rgb(255,204,166)" stroke="rgb(255,204,166)" stroke-width="1.51"/><path d="M865,226L858,141L773,189Z" fill="rgb(251,203,169)" stroke="rgb(251,203,169)" stroke-width="1.51"/><path d="M660,438L659,493L701,421Z" fill="rgb(255,165,106)" stroke="rgb(255,165,106)" stroke-width="1.51"/><path d="M567,439L589,490L660,438Z" fill="rgb(255,172,117)" stroke="rgb(255,172,117)" stroke-width="1.51"/><path d="M495,522L589,490L567,439Z" fill="rgb(255,163,109)" stroke="rgb(255,163,109)" stroke-width="1.51"/><path d="M759,330L841,288L782,273Z" fill="rgb(255,185,136)" stroke="rgb(255,185,136)" stroke-width="1.51"/><path d="M888,367L841,288L759,330Z" fill="rgb(255,171,115)" stroke="rgb(255,171,115)" stroke-width="1.51"/><path d="M841,288L865,226L782,273Z" fill="rgb(255,192,147)" stroke="rgb(255,192,147)" stroke-width="1.51"/><path d="M195,-44L194,56L253,59Z" fill="rgb(182,75,59)" stroke="rgb(182,75,59)" stroke-width="1.51"/><path d="M464,437L495,522L567,439Z" fill="rgb(255,156,102)" stroke="rgb(255,156,102)" stroke-width="1.51"/><path d="M269,322L318,439L365,352Z" fill="rgb(235,132,84)" stroke="rgb(235,132,84)" stroke-width="1.51"/><path d="M289,443L318,439L269,322Z" fill="rgb(234,118,65)" stroke="rgb(234,118,65)" stroke-width="1.51"/><path d="M701,421L782,419L716,349Z" fill="rgb(255,159,98)" stroke="rgb(255,159,98)" stroke-width="1.51"/><path d="M589,490L659,493L660,438Z" fill="rgb(255,169,112)" stroke="rgb(255,169,112)" stroke-width="1.51"/><path d="M385,523L495,522L464,437Z" fill="rgb(249,146,92)" stroke="rgb(249,146,92)" stroke-width="1.51"/><path d="M589,490L495,522L659,493Z" fill="rgb(255,169,114)" stroke="rgb(255,169,114)" stroke-width="1.51"/><path d="M730,497L782,419L701,421Z" fill="rgb(255,157,96)" stroke="rgb(255,157,96)" stroke-width="1.51"/><path d="M208,190L182,293L256,287Z" fill="rgb(226,150,119)" stroke="rgb(226,150,119)" stroke-width="1.51"/><path d="M127,223L182,293L208,190Z" fill="rgb(224,149,122)" stroke="rgb(224,149,122)" stroke-width="1.51"/><path d="M127,223L208,190L197,134Z" fill="rgb(220,152,130)" stroke="rgb(220,152,130)" stroke-width="1.51"/><path d="M202,415L289,443L269,322Z" fill="rgb(230,113,63)" stroke="rgb(230,113,63)" stroke-width="1.51"/><path d="M352,509L385,523L433,408Z" fill="rgb(243,135,82)" stroke="rgb(243,135,82)" stroke-width="1.51"/><path d="M282,-50L195,-44L253,59Z" fill="rgb(178,67,52)" stroke="rgb(178,67,52)" stroke-width="1.51"/><path d="M318,-86L263,-103L282,-50Z" fill="rgb(183,76,59)" stroke="rgb(183,76,59)" stroke-width="1.51"/><path d="M402,-104L263,-103L318,-86Z" fill="rgb(187,83,65)" stroke="rgb(187,83,65)" stroke-width="1.51"/><path d="M164,-114L263,-103L402,-104Z" fill="rgb(182,74,57)" stroke="rgb(182,74,57)" stroke-width="1.51"/><path d="M182,293L199,340L256,287Z" fill="rgb(225,134,96)" stroke="rgb(225,134,96)" stroke-width="1.51"/><path d="M871,-15L796,-106L759,-17Z" fill="rgb(207,109,78)" stroke="rgb(207,109,78)" stroke-width="1.51"/><path d="M697,-116L796,-106L626,-128Z" fill="rgb(210,120,93)" stroke="rgb(210,120,93)" stroke-width="1.51"/><path d="M933,106L843,75L858,141Z" fill="rgb(234,157,121)" stroke="rgb(234,157,121)" stroke-width="1.51"/><path d="M960,60L871,-15L843,75Z" fill="rgb(217,121,85)" stroke="rgb(217,121,85)" stroke-width="1.51"/><path d="M843,75L871,-15L759,-17Z" fill="rgb(211,115,82)" stroke="rgb(211,115,82)" stroke-width="1.51"/><path d="M263,-103L195,-44L282,-50Z" fill="rgb(179,68,53)" stroke="rgb(179,68,53)" stroke-width="1.51"/><path d="M115,124L127,223L197,134Z" fill="rgb(213,135,114)" stroke="rgb(213,135,114)" stroke-width="1.51"/><path d="M352,509L433,408L318,439Z" fill="rgb(241,131,78)" stroke="rgb(241,131,78)" stroke-width="1.51"/><path d="M277,493L352,509L318,439Z" fill="rgb(236,122,69)" stroke="rgb(236,122,69)" stroke-width="1.51"/><path d="M659,493L730,497L701,421Z" fill="rgb(255,162,102)" stroke="rgb(255,162,102)" stroke-width="1.51"/><path d="M495,522L730,497L659,493Z" fill="rgb(255,169,113)" stroke="rgb(255,169,113)" stroke-width="1.51"/><path d="M865,226L923,190L858,141Z" fill="rgb(252,198,161)" stroke="rgb(252,198,161)" stroke-width="1.51"/><path d="M926,250L923,190L865,226Z" fill="rgb(255,196,154)" stroke="rgb(255,196,154)" stroke-width="1.51"/><path d="M926,250L865,226L841,288Z" fill="rgb(255,189,143)" stroke="rgb(255,189,143)" stroke-width="1.51"/><path d="M132,355L202,415L199,340Z" fill="rgb(222,107,61)" stroke="rgb(222,107,61)" stroke-width="1.51"/><path d="M115,124L197,134L194,56Z" fill="rgb(201,111,90)" stroke="rgb(201,111,90)" stroke-width="1.51"/><path d="M782,419L844,418L759,330Z" fill="rgb(255,155,92)" stroke="rgb(255,155,92)" stroke-width="1.51"/><path d="M852,477L844,418L782,419Z" fill="rgb(255,148,81)" stroke="rgb(255,148,81)" stroke-width="1.51"/><path d="M936,324L926,250L841,288Z" fill="rgb(255,176,123)" stroke="rgb(255,176,123)" stroke-width="1.51"/><path d="M960,60L933,106L1011,124Z" fill="rgb(232,142,101)" stroke="rgb(232,142,101)" stroke-width="1.51"/><path d="M923,190L933,106L858,141Z" fill="rgb(244,175,136)" stroke="rgb(244,175,136)" stroke-width="1.51"/><path d="M120,22L115,124L194,56Z" fill="rgb(189,87,68)" stroke="rgb(189,87,68)" stroke-width="1.51"/><path d="M289,443L277,493L318,439Z" fill="rgb(234,118,66)" stroke="rgb(234,118,66)" stroke-width="1.51"/><path d="M199,340L202,415L269,322Z" fill="rgb(226,119,73)" stroke="rgb(226,119,73)" stroke-width="1.51"/><path d="M132,355L199,340L182,293Z" fill="rgb(221,119,79)" stroke="rgb(221,119,79)" stroke-width="1.51"/><path d="M352,509L182,519L385,523Z" fill="rgb(236,120,68)" stroke="rgb(236,120,68)" stroke-width="1.51"/><path d="M202,415L277,493L289,443Z" fill="rgb(230,111,60)" stroke="rgb(230,111,60)" stroke-width="1.51"/><path d="M844,418L888,367L759,330Z" fill="rgb(255,157,94)" stroke="rgb(255,157,94)" stroke-width="1.51"/><path d="M138,-26L120,22L194,56Z" fill="rgb(174,59,46)" stroke="rgb(174,59,46)" stroke-width="1.51"/><path d="M195,-44L138,-26L194,56Z" fill="rgb(172,54,42)" stroke="rgb(172,54,42)" stroke-width="1.51"/><path d="M164,-114L138,-26L195,-44Z" fill="rgb(171,52,41)" stroke="rgb(171,52,41)" stroke-width="1.51"/><path d="M871,-15L882,-80L796,-106Z" fill="rgb(207,104,72)" stroke="rgb(207,104,72)" stroke-width="1.51"/><path d="M928,-94L882,-80L871,-15Z" fill="rgb(206,100,65)" stroke="rgb(206,100,65)" stroke-width="1.51"/><path d="M933,405L936,324L888,367Z" fill="rgb(255,149,83)" stroke="rgb(255,149,83)" stroke-width="1.51"/><path d="M730,497L789,500L782,419Z" fill="rgb(255,154,91)" stroke="rgb(255,154,91)" stroke-width="1.51"/><path d="M495,522L789,500L730,497Z" fill="rgb(255,165,106)" stroke="rgb(255,165,106)" stroke-width="1.51"/><path d="M202,415L182,519L277,493Z" fill="rgb(227,104,54)" stroke="rgb(227,104,54)" stroke-width="1.51"/><path d="M92,287L132,355L182,293Z" fill="rgb(218,119,81)" stroke="rgb(218,119,81)" stroke-width="1.51"/><path d="M92,287L182,293L127,223Z" fill="rgb(219,133,101)" stroke="rgb(219,133,101)" stroke-width="1.51"/><path d="M933,405L888,367L844,418Z" fill="rgb(255,142,72)" stroke="rgb(255,142,72)" stroke-width="1.51"/><path d="M888,367L936,324L841,288Z" fill="rgb(255,165,107)" stroke="rgb(255,165,107)" stroke-width="1.51"/><path d="M996,183L933,106L923,190Z" fill="rgb(247,177,136)" stroke="rgb(247,177,136)" stroke-width="1.51"/><path d="M933,106L960,60L843,75Z" fill="rgb(228,140,102)" stroke="rgb(228,140,102)" stroke-width="1.51"/><path d="M996,183L923,190L926,250Z" fill="rgb(255,196,154)" stroke="rgb(255,196,154)" stroke-width="1.51"/><path d="M30,268L92,287L127,223Z" fill="rgb(215,127,96)" stroke="rgb(215,127,96)" stroke-width="1.51"/><path d="M23,209L127,223L115,124Z" fill="rgb(214,138,117)" stroke="rgb(214,138,117)" stroke-width="1.51"/><path d="M263,-103L164,-114L195,-44Z" fill="rgb(175,61,47)" stroke="rgb(175,61,47)" stroke-width="1.51"/><path d="M31,50L55,116L120,22Z" fill="rgb(180,70,55)" stroke="rgb(180,70,55)" stroke-width="1.51"/><path d="M626,-128L164,-114L402,-104Z" fill="rgb(193,96,76)" stroke="rgb(193,96,76)" stroke-width="1.51"/><path d="M789,500L852,477L782,419Z" fill="rgb(255,150,84)" stroke="rgb(255,150,84)" stroke-width="1.51"/><path d="M960,60L962,-6L871,-15Z" fill="rgb(209,103,66)" stroke="rgb(209,103,66)" stroke-width="1.51"/><path d="M1015,278L996,183L926,250Z" fill="rgb(255,184,135)" stroke="rgb(255,184,135)" stroke-width="1.51"/><path d="M960,60L1020,23L962,-6Z" fill="rgb(212,104,64)" stroke="rgb(212,104,64)" stroke-width="1.51"/><path d="M120,22L55,116L115,124Z" fill="rgb(189,89,70)" stroke="rgb(189,89,70)" stroke-width="1.51"/><path d="M31,50L120,22L35,-29Z" fill="rgb(164,39,32)" stroke="rgb(164,39,32)" stroke-width="1.51"/><path d="M882,-80L928,-94L796,-106Z" fill="rgb(206,102,69)" stroke="rgb(206,102,69)" stroke-width="1.51"/><path d="M796,-106L1006,-103L626,-128Z" fill="rgb(207,109,78)" stroke="rgb(207,109,78)" stroke-width="1.51"/><path d="M962,-6L928,-94L871,-15Z" fill="rgb(205,97,61)" stroke="rgb(205,97,61)" stroke-width="1.51"/><path d="M936,324L1015,278L926,250Z" fill="rgb(255,171,116)" stroke="rgb(255,171,116)" stroke-width="1.51"/><path d="M852,477L933,405L844,418Z" fill="rgb(255,143,73)" stroke="rgb(255,143,73)" stroke-width="1.51"/><path d="M132,355L127,437L202,415Z" fill="rgb(220,92,42)" stroke="rgb(220,92,42)" stroke-width="1.51"/><path d="M52,448L127,437L132,355Z" fill="rgb(215,83,34)" stroke="rgb(215,83,34)" stroke-width="1.51"/><path d="M996,183L1011,124L933,106Z" fill="rgb(243,163,120)" stroke="rgb(243,163,120)" stroke-width="1.51"/><path d="M127,437L182,519L202,415Z" fill="rgb(222,95,45)" stroke="rgb(222,95,45)" stroke-width="1.51"/><path d="M277,493L182,519L352,509Z" fill="rgb(232,114,62)" stroke="rgb(232,114,62)" stroke-width="1.51"/><path d="M996,183L1077,144L1011,124Z" fill="rgb(246,164,119)" stroke="rgb(246,164,119)" stroke-width="1.51"/><path d="M1003,376L1015,278L936,324Z" fill="rgb(255,155,92)" stroke="rgb(255,155,92)" stroke-width="1.51"/><path d="M92,287L50,333L132,355Z" fill="rgb(213,107,68)" stroke="rgb(213,107,68)" stroke-width="1.51"/><path d="M55,116L23,209L115,124Z" fill="rgb(204,116,95)" stroke="rgb(204,116,95)" stroke-width="1.51"/><path d="M30,268L50,333L92,287Z" fill="rgb(211,110,75)" stroke="rgb(211,110,75)" stroke-width="1.51"/><path d="M127,437L120,491L182,519Z" fill="rgb(219,90,41)" stroke="rgb(219,90,41)" stroke-width="1.51"/><path d="M55,116L-41,182L23,209Z" fill="rgb(204,117,96)" stroke="rgb(204,117,96)" stroke-width="1.51"/><path d="M35,-29L120,22L138,-26Z" fill="rgb(164,37,31)" stroke="rgb(164,37,31)" stroke-width="1.51"/><path d="M23,209L30,268L127,223Z" fill="rgb(215,131,104)" stroke="rgb(215,131,104)" stroke-width="1.51"/><path d="M164,-114L88,-104L138,-26Z" fill="rgb(167,45,36)" stroke="rgb(167,45,36)" stroke-width="1.51"/><path d="M1011,124L1020,23L960,60Z" fill="rgb(225,125,83)" stroke="rgb(225,125,83)" stroke-width="1.51"/><path d="M962,-6L1006,-103L928,-94Z" fill="rgb(205,91,55)" stroke="rgb(205,91,55)" stroke-width="1.51"/><path d="M1035,-16L1020,23L1075,46Z" fill="rgb(209,92,51)" stroke="rgb(209,92,51)" stroke-width="1.51"/><path d="M52,448L120,491L127,437Z" fill="rgb(214,82,33)" stroke="rgb(214,82,33)" stroke-width="1.51"/><path d="M933,405L1003,376L936,324Z" fill="rgb(255,144,75)" stroke="rgb(255,144,75)" stroke-width="1.51"/><path d="M1020,399L1003,376L933,405Z" fill="rgb(255,133,58)" stroke="rgb(255,133,58)" stroke-width="1.51"/><path d="M88,-104L35,-29L138,-26Z" fill="rgb(162,34,29)" stroke="rgb(162,34,29)" stroke-width="1.51"/><path d="M88,-104L52,-99L35,-29Z" fill="rgb(160,26,25)" stroke="rgb(160,26,25)" stroke-width="1.51"/><path d="M1020,23L1035,-16L962,-6Z" fill="rgb(204,87,48)" stroke="rgb(204,87,48)" stroke-width="1.51"/><path d="M1075,46L1020,23L1011,124Z" fill="rgb(223,118,75)" stroke="rgb(223,118,75)" stroke-width="1.51"/><path d="M928,-94L1006,-103L796,-106Z" fill="rgb(205,98,63)" stroke="rgb(205,98,63)" stroke-width="1.51"/><path d="M1035,-16L1006,-103L962,-6Z" fill="rgb(204,87,49)" stroke="rgb(204,87,49)" stroke-width="1.51"/><path d="M1008,502L1020,399L933,405Z" fill="rgb(255,130,54)" stroke="rgb(255,130,54)" stroke-width="1.51"/><path d="M1087,324L1074,258L1015,278Z" fill="rgb(255,160,98)" stroke="rgb(255,160,98)" stroke-width="1.51"/><path d="M1077,216L1077,144L996,183Z" fill="rgb(254,178,132)" stroke="rgb(254,178,132)" stroke-width="1.51"/><path d="M1077,216L996,183L1015,278Z" fill="rgb(255,182,133)" stroke="rgb(255,182,133)" stroke-width="1.51"/><path d="M-20,359L52,448L50,333Z" fill="rgb(206,75,31)" stroke="rgb(206,75,31)" stroke-width="1.51"/><path d="M50,333L52,448L132,355Z" fill="rgb(212,85,41)" stroke="rgb(212,85,41)" stroke-width="1.51"/><path d="M1074,258L1077,216L1015,278Z" fill="rgb(255,171,116)" stroke="rgb(255,171,116)" stroke-width="1.51"/><path d="M495,522L950,517L789,500Z" fill="rgb(255,157,94)" stroke="rgb(255,157,94)" stroke-width="1.51"/><path d="M789,500L950,517L852,477Z" fill="rgb(255,144,75)" stroke="rgb(255,144,75)" stroke-width="1.51"/><path d="M852,477L950,517L933,405Z" fill="rgb(255,139,67)" stroke="rgb(255,139,67)" stroke-width="1.51"/><path d="M1087,324L1015,278L1003,376Z" fill="rgb(255,150,84)" stroke="rgb(255,150,84)" stroke-width="1.51"/><path d="M1077,144L1075,46L1011,124Z" fill="rgb(235,138,92)" stroke="rgb(235,138,92)" stroke-width="1.51"/><path d="M1035,-16L1077,-53L1006,-103Z" fill="rgb(204,82,43)" stroke="rgb(204,82,43)" stroke-width="1.51"/><path d="M30,268L-20,359L50,333Z" fill="rgb(207,95,58)" stroke="rgb(207,95,58)" stroke-width="1.51"/><path d="M23,209L-66,295L30,268Z" fill="rgb(208,113,84)" stroke="rgb(208,113,84)" stroke-width="1.51"/><path d="M-50,140L-41,182L55,116Z" fill="rgb(197,103,83)" stroke="rgb(197,103,83)" stroke-width="1.51"/><path d="M-50,140L55,116L31,50Z" fill="rgb(186,82,64)" stroke="rgb(186,82,64)" stroke-width="1.51"/><path d="M-35,38L31,50L35,-29Z" fill="rgb(161,29,27)" stroke="rgb(161,29,27)" stroke-width="1.51"/><path d="M-33,-40L-35,38L35,-29Z" fill="rgb(153,0,17)" stroke="rgb(153,0,17)" stroke-width="1.51"/><path d="M-35,38L-50,140L31,50Z" fill="rgb(177,65,50)" stroke="rgb(177,65,50)" stroke-width="1.51"/><path d="M-66,295L-20,359L30,268Z" fill="rgb(205,97,61)" stroke="rgb(205,97,61)" stroke-width="1.51"/><path d="M-66,295L23,209L-41,182Z" fill="rgb(210,122,96)" stroke="rgb(210,122,96)" stroke-width="1.51"/><path d="M1169,213L1141,148L1077,216Z" fill="rgb(255,176,125)" stroke="rgb(255,176,125)" stroke-width="1.51"/><path d="M1077,216L1141,148L1077,144Z" fill="rgb(252,167,118)" stroke="rgb(252,167,118)" stroke-width="1.51"/><path d="M1096,-93L1077,-53L1164,-19Z" fill="rgb(203,73,31)" stroke="rgb(203,73,31)" stroke-width="1.51"/><path d="M1020,399L1087,324L1003,376Z" fill="rgb(255,136,63)" stroke="rgb(255,136,63)" stroke-width="1.51"/><path d="M1096,435L1087,324L1020,399Z" fill="rgb(255,126,47)" stroke="rgb(255,126,47)" stroke-width="1.51"/><path d="M1141,148L1075,46L1077,144Z" fill="rgb(237,137,89)" stroke="rgb(237,137,89)" stroke-width="1.51"/><path d="M1075,46L1077,-53L1035,-16Z" fill="rgb(204,80,40)" stroke="rgb(204,80,40)" stroke-width="1.51"/><path d="M950,517L1008,502L933,405Z" fill="rgb(255,133,58)" stroke="rgb(255,133,58)" stroke-width="1.51"/><path d="M52,-99L-33,-40L35,-29Z" fill="rgb(155,10,19)" stroke="rgb(155,10,19)" stroke-width="1.51"/><path d="M-122,61L-93,152L-50,140Z" fill="rgb(189,88,69)" stroke="rgb(189,88,69)" stroke-width="1.51"/><path d="M52,448L18,486L120,491Z" fill="rgb(210,75,27)" stroke="rgb(210,75,27)" stroke-width="1.51"/><path d="M120,491L18,486L182,519Z" fill="rgb(215,83,35)" stroke="rgb(215,83,35)" stroke-width="1.51"/><path d="M-36,399L18,486L52,448Z" fill="rgb(204,63,17)" stroke="rgb(204,63,17)" stroke-width="1.51"/><path d="M-20,359L-36,399L52,448Z" fill="rgb(203,61,15)" stroke="rgb(203,61,15)" stroke-width="1.51"/><path d="M-114,190L-66,295L-41,182Z" fill="rgb(211,124,99)" stroke="rgb(211,124,99)" stroke-width="1.51"/><path d="M-93,152L-41,182L-50,140Z" fill="rgb(200,109,88)" stroke="rgb(200,109,88)" stroke-width="1.51"/><path d="M-114,340L-36,399L-20,359Z" fill="rgb(204,75,33)" stroke="rgb(204,75,33)" stroke-width="1.51"/><path d="M1169,213L1077,216L1074,258Z" fill="rgb(255,173,118)" stroke="rgb(255,173,118)" stroke-width="1.51"/><path d="M-122,61L-50,140L-35,38Z" fill="rgb(178,67,52)" stroke="rgb(178,67,52)" stroke-width="1.51"/><path d="M52,-99L-34,-110L-33,-40Z" fill="rgb(153,0,17)" stroke="rgb(153,0,17)" stroke-width="1.51"/><path d="M-104,-46L-122,61L-35,38Z" fill="rgb(159,24,24)" stroke="rgb(159,24,24)" stroke-width="1.51"/><path d="M88,-104L-34,-110L52,-99Z" fill="rgb(157,17,22)" stroke="rgb(157,17,22)" stroke-width="1.51"/><path d="M164,-114L-34,-110L88,-104Z" fill="rgb(161,30,27)" stroke="rgb(161,30,27)" stroke-width="1.51"/><path d="M-137,-119L-34,-110L164,-114Z" fill="rgb(153,0,17)" stroke="rgb(153,0,17)" stroke-width="1.51"/><path d="M1164,-19L1077,-53L1075,46Z" fill="rgb(203,74,33)" stroke="rgb(203,74,33)" stroke-width="1.51"/><path d="M1077,-53L1096,-93L1006,-103Z" fill="rgb(204,80,40)" stroke="rgb(204,80,40)" stroke-width="1.51"/><path d="M1075,490L1096,435L1020,399Z" fill="rgb(255,122,39)" stroke="rgb(255,122,39)" stroke-width="1.51"/><path d="M1164,293L1169,213L1074,258Z" fill="rgb(255,162,101)" stroke="rgb(255,162,101)" stroke-width="1.51"/><path d="M-135,413L-25,488L-36,399Z" fill="rgb(203,61,15)" stroke="rgb(203,61,15)" stroke-width="1.51"/><path d="M-93,152L-114,190L-41,182Z" fill="rgb(204,118,97)" stroke="rgb(204,118,97)" stroke-width="1.51"/><path d="M-122,61L-114,190L-93,152Z" fill="rgb(193,97,77)" stroke="rgb(193,97,77)" stroke-width="1.51"/><path d="M-36,399L-25,488L18,486Z" fill="rgb(203,61,15)" stroke="rgb(203,61,15)" stroke-width="1.51"/><path d="M18,486L-25,488L182,519Z" fill="rgb(210,73,26)" stroke="rgb(210,73,26)" stroke-width="1.51"/><path d="M-114,340L-20,359L-66,295Z" fill="rgb(204,88,50)" stroke="rgb(204,88,50)" stroke-width="1.51"/><path d="M1008,502L1075,490L1020,399Z" fill="rgb(255,125,45)" stroke="rgb(255,125,45)" stroke-width="1.51"/><path d="M1169,496L1075,490L1211,528Z" fill="rgb(255,111,19)" stroke="rgb(255,111,19)" stroke-width="1.51"/><path d="M1164,293L1074,258L1087,324Z" fill="rgb(255,153,89)" stroke="rgb(255,153,89)" stroke-width="1.51"/><path d="M1185,30L1164,-19L1075,46Z" fill="rgb(209,81,36)" stroke="rgb(209,81,36)" stroke-width="1.51"/><path d="M1150,365L1087,324L1096,435Z" fill="rgb(255,125,46)" stroke="rgb(255,125,46)" stroke-width="1.51"/><path d="M1150,365L1164,293L1087,324Z" fill="rgb(255,138,66)" stroke="rgb(255,138,66)" stroke-width="1.51"/><path d="M-114,190L-114,297L-66,295Z" fill="rgb(208,112,82)" stroke="rgb(208,112,82)" stroke-width="1.51"/><path d="M-104,-46L-35,38L-33,-40Z" fill="rgb(153,0,17)" stroke="rgb(153,0,17)" stroke-width="1.51"/><path d="M-114,190L-135,413L-114,297Z" fill="rgb(206,99,65)" stroke="rgb(206,99,65)" stroke-width="1.51"/><path d="M1151,438L1150,365L1096,435Z" fill="rgb(255,113,24)" stroke="rgb(255,113,24)" stroke-width="1.51"/><path d="M-34,-110L-104,-46L-33,-40Z" fill="rgb(153,0,17)" stroke="rgb(153,0,17)" stroke-width="1.51"/><path d="M1185,30L1075,46L1141,148Z" fill="rgb(227,112,65)" stroke="rgb(227,112,65)" stroke-width="1.51"/><path d="M-135,413L-114,340L-114,297Z" fill="rgb(204,81,41)" stroke="rgb(204,81,41)" stroke-width="1.51"/><path d="M-114,297L-114,340L-66,295Z" fill="rgb(205,95,59)" stroke="rgb(205,95,59)" stroke-width="1.51"/><path d="M1096,-93L1143,-104L1006,-103Z" fill="rgb(204,77,36)" stroke="rgb(204,77,36)" stroke-width="1.51"/><path d="M1006,-103L1143,-104L626,-128Z" fill="rgb(205,96,61)" stroke="rgb(205,96,61)" stroke-width="1.51"/><path d="M1164,-19L1143,-104L1096,-93Z" fill="rgb(203,70,28)" stroke="rgb(203,70,28)" stroke-width="1.51"/><path d="M1164,-19L1243,-80L1143,-104Z" fill="rgb(203,63,18)" stroke="rgb(203,63,18)" stroke-width="1.51"/><path d="M1229,54L1185,30L1141,148Z" fill="rgb(228,108,58)" stroke="rgb(228,108,58)" stroke-width="1.51"/><path d="M1229,54L1141,148L1265,149Z" fill="rgb(240,128,75)" stroke="rgb(240,128,75)" stroke-width="1.51"/><path d="M1075,490L1151,438L1096,435Z" fill="rgb(255,116,30)" stroke="rgb(255,116,30)" stroke-width="1.51"/><path d="M1150,365L1212,322L1164,293Z" fill="rgb(255,134,60)" stroke="rgb(255,134,60)" stroke-width="1.51"/><path d="M1164,293L1239,283L1169,213Z" fill="rgb(255,153,89)" stroke="rgb(255,153,89)" stroke-width="1.51"/><path d="M1261,408L1212,322L1150,365Z" fill="rgb(255,118,33)" stroke="rgb(255,118,33)" stroke-width="1.51"/><path d="M-114,340L-135,413L-36,399Z" fill="rgb(203,68,24)" stroke="rgb(203,68,24)" stroke-width="1.51"/><path d="M-122,61L-135,413L-114,190Z" fill="rgb(211,124,100)" stroke="rgb(211,124,100)" stroke-width="1.51"/><path d="M1185,30L1259,-4L1164,-19Z" fill="rgb(204,63,16)" stroke="rgb(204,63,16)" stroke-width="1.51"/><path d="M1265,149L1141,148L1169,213Z" fill="rgb(254,157,104)" stroke="rgb(254,157,104)" stroke-width="1.51"/><path d="M-34,-110L-137,-119L-104,-46Z" fill="rgb(153,0,17)" stroke="rgb(153,0,17)" stroke-width="1.51"/><path d="M-104,-46L-137,-119L-122,61Z" fill="rgb(153,0,17)" stroke="rgb(153,0,17)" stroke-width="1.51"/><path d="M-122,61L-137,-119L-135,413Z" fill="rgb(189,88,70)" stroke="rgb(189,88,70)" stroke-width="1.51"/><path d="M626,-128L-137,-119L164,-114Z" fill="rgb(176,62,49)" stroke="rgb(176,62,49)" stroke-width="1.51"/><path d="M1212,322L1239,283L1164,293Z" fill="rgb(255,140,69)" stroke="rgb(255,140,69)" stroke-width="1.51"/><path d="M1333,377L1239,283L1212,322Z" fill="rgb(255,131,55)" stroke="rgb(255,131,55)" stroke-width="1.51"/><path d="M1151,438L1261,408L1150,365Z" fill="rgb(255,107,5)" stroke="rgb(255,107,5)" stroke-width="1.51"/><path d="M1075,490L1169,496L1151,438Z" fill="rgb(255,113,25)" stroke="rgb(255,113,25)" stroke-width="1.51"/><path d="M1211,528L1075,490L1008,502Z" fill="rgb(255,117,32)" stroke="rgb(255,117,32)" stroke-width="1.51"/><path d="M1239,283L1263,200L1169,213Z" fill="rgb(255,162,102)" stroke="rgb(255,162,102)" stroke-width="1.51"/><path d="M1263,200L1265,149L1169,213Z" fill="rgb(255,166,111)" stroke="rgb(255,166,111)" stroke-width="1.51"/><path d="M-25,488L-140,500L182,519Z" fill="rgb(204,62,16)" stroke="rgb(204,62,16)" stroke-width="1.51"/><path d="M-135,413L-140,500L-25,488Z" fill="rgb(203,61,15)" stroke="rgb(203,61,15)" stroke-width="1.51"/><path d="M-137,-119L-140,500L-135,413Z" fill="rgb(208,111,80)" stroke="rgb(208,111,80)" stroke-width="1.51"/><path d="M1326,73L1259,-4L1229,54Z" fill="rgb(217,86,37)" stroke="rgb(217,86,37)" stroke-width="1.51"/><path d="M1229,54L1259,-4L1185,30Z" fill="rgb(212,78,30)" stroke="rgb(212,78,30)" stroke-width="1.51"/><path d="M1259,-4L1243,-80L1164,-19Z" fill="rgb(203,61,15)" stroke="rgb(203,61,15)" stroke-width="1.51"/><path d="M1263,200L1326,222L1265,149Z" fill="rgb(255,167,112)" stroke="rgb(255,167,112)" stroke-width="1.51"/><path d="M1239,283L1326,222L1263,200Z" fill="rgb(255,161,101)" stroke="rgb(255,161,101)" stroke-width="1.51"/><path d="M1169,496L1261,408L1151,438Z" fill="rgb(255,106,2)" stroke="rgb(255,106,2)" stroke-width="1.51"/><path d="M1169,496L1211,528L1261,408Z" fill="rgb(255,105,0)" stroke="rgb(255,105,0)" stroke-width="1.51"/><path d="M950,517L1211,528L1008,502Z" fill="rgb(255,122,41)" stroke="rgb(255,122,41)" stroke-width="1.51"/><path d="M495,522L1211,528L950,517Z" fill="rgb(255,141,71)" stroke="rgb(255,141,71)" stroke-width="1.51"/><path d="M385,523L1211,528L495,522Z" fill="rgb(255,162,102)" stroke="rgb(255,162,102)" stroke-width="1.51"/><path d="M1334,258L1326,222L1239,283Z" fill="rgb(255,155,92)" stroke="rgb(255,155,92)" stroke-width="1.51"/><path d="M1265,149L1326,73L1229,54Z" fill="rgb(233,114,63)" stroke="rgb(233,114,63)" stroke-width="1.51"/><path d="M1259,-4L1323,-26L1243,-80Z" fill="rgb(203,61,15)" stroke="rgb(203,61,15)" stroke-width="1.51"/><path d="M1340,127L1326,73L1265,149Z" fill="rgb(239,128,75)" stroke="rgb(239,128,75)" stroke-width="1.51"/><path d="M1326,222L1340,127L1265,149Z" fill="rgb(254,154,100)" stroke="rgb(254,154,100)" stroke-width="1.51"/><path d="M1333,377L1334,258L1239,283Z" fill="rgb(255,138,66)" stroke="rgb(255,138,66)" stroke-width="1.51"/><path d="M1333,377L1212,322L1261,408Z" fill="rgb(255,116,30)" stroke="rgb(255,116,30)" stroke-width="1.51"/><path d="M1334,258L1340,127L1326,222Z" fill="rgb(255,172,117)" stroke="rgb(255,172,117)" stroke-width="1.51"/><path d="M1340,127L1323,-26L1326,73Z" fill="rgb(222,96,46)" stroke="rgb(222,96,46)" stroke-width="1.51"/><path d="M1326,73L1323,-26L1259,-4Z" fill="rgb(208,70,23)" stroke="rgb(208,70,23)" stroke-width="1.51"/><path d="M1340,127L1318,-88L1323,-26Z" fill="rgb(205,64,18)" stroke="rgb(205,64,18)" stroke-width="1.51"/><path d="M1323,-26L1318,-88L1243,-80Z" fill="rgb(203,61,15)" stroke="rgb(203,61,15)" stroke-width="1.51"/><path d="M1243,-80L1318,-88L1143,-104Z" fill="rgb(203,61,15)" stroke="rgb(203,61,15)" stroke-width="1.51"/><path d="M1211,528L1307,452L1261,408Z" fill="rgb(255,105,0)" stroke="rgb(255,105,0)" stroke-width="1.51"/><path d="M1307,452L1333,377L1261,408Z" fill="rgb(255,105,0)" stroke="rgb(255,105,0)" stroke-width="1.51"/><path d="M1334,258L1333,377L1340,127Z" fill="rgb(255,155,92)" stroke="rgb(255,155,92)" stroke-width="1.51"/><path d="M1211,528L1327,494L1307,452Z" fill="rgb(255,105,0)" stroke="rgb(255,105,0)" stroke-width="1.51"/><path d="M1307,452L1327,494L1333,377Z" fill="rgb(255,105,0)" stroke="rgb(255,105,0)" stroke-width="1.51"/></svg>