<svg height="100%" width="100%" id="svg" viewBox="0 0 1440 700" xmlns="http://www.w3.org/2000/svg" class="transition duration-300 ease-in-out delay-150"><defs><linearGradient id="gradient"><stop offset="5%" stop-color="#ff690066"></stop><stop offset="95%" stop-color="#99001166"></stop></linearGradient></defs><path d="M 0,700 C 0,700 0,175 0,175 C 119.30143540669854,161.08612440191388 238.6028708133971,147.17224880382778 332,156 C 425.3971291866029,164.82775119617222 492.88995215311013,196.39712918660285 572,210 C 651.1100478468899,223.60287081339715 741.8373205741627,219.23923444976077 830,201 C 918.1626794258373,182.76076555023923 1003.7607655502393,150.64593301435406 1105,144 C 1206.2392344497607,137.35406698564594 1323.1196172248804,156.17703349282297 1440,175 C 1440,175 1440,700 1440,700 Z" stroke="none" stroke-width="0" fill="url(#gradient)" class="transition-all duration-300 ease-in-out delay-150"></path><defs><linearGradient id="gradient"><stop offset="5%" stop-color="#ff690088"></stop><stop offset="95%" stop-color="#99001188"></stop></linearGradient></defs><path d="M 0,700 C 0,700 0,350 0,350 C 94.97607655502392,318.92822966507174 189.95215311004785,287.85645933014354 282,293 C 374.04784688995215,298.14354066985646 463.16746411483257,339.50239234449754 556,363 C 648.8325358851674,386.49760765550246 745.3779904306219,392.13397129186603 846,377 C 946.6220095693781,361.86602870813397 1051.3205741626796,325.9617224880383 1151,318 C 1250.6794258373204,310.0382775119617 1345.33971291866,330.01913875598086 1440,350 C 1440,350 1440,700 1440,700 Z" stroke="none" stroke-width="0" fill="url(#gradient)" class="transition-all duration-300 ease-in-out delay-150"></path><defs><linearGradient id="gradient"><stop offset="5%" stop-color="#ff6900ff"></stop><stop offset="95%" stop-color="#990011ff"></stop></linearGradient></defs><path d="M 0,700 C 0,700 0,525 0,525 C 106.1531100478469,517.9282296650717 212.3062200956938,510.85645933014354 300,495 C 387.6937799043062,479.14354066985646 456.92822966507174,454.5023923444976 539,465 C 621.0717703349283,475.4976076555024 715.980861244019,521.133971291866 829,531 C 942.019138755981,540.866028708134 1073.148325358852,514.9617224880383 1178,508 C 1282.851674641148,501.03827751196167 1361.425837320574,513.0191387559809 1440,525 C 1440,525 1440,700 1440,700 Z" stroke="none" stroke-width="0" fill="url(#gradient)" class="transition-all duration-300 ease-in-out delay-150"></path></svg>