<svg height="100%" width="100%" id="svg" viewBox="0 0 1440 600" xmlns="http://www.w3.org/2000/svg" class="transition duration-300 ease-in-out delay-150"><defs><linearGradient id="gradient"><stop offset="5%" stop-color="#ff690088"></stop><stop offset="95%" stop-color="#99001188"></stop></linearGradient></defs><path d="M 0,600 C 0,600 0,200 0,200 C 71.23589743589744,211.08205128205128 142.47179487179488,222.1641025641026 214,228 C 285.5282051282051,233.8358974358974 357.348717948718,234.42564102564103 455,213 C 552.651282051282,191.57435897435897 676.1333333333334,148.13333333333335 760,168 C 843.8666666666666,187.86666666666665 888.1179487179486,271.0410256410256 947,262 C 1005.8820512820514,252.9589743589744 1079.394871794872,151.7025641025641 1164,126 C 1248.605128205128,100.29743589743589 1344.302564102564,150.14871794871794 1440,200 C 1440,200 1440,600 1440,600 Z" stroke="none" stroke-width="0" fill="url(#gradient)" class="transition-all duration-300 ease-in-out delay-150"></path><defs><linearGradient id="gradient"><stop offset="5%" stop-color="#ff6900ff"></stop><stop offset="95%" stop-color="#990011ff"></stop></linearGradient></defs><path d="M 0,600 C 0,600 0,400 0,400 C 73.61794871794874,416.65128205128207 147.23589743589747,433.30256410256413 226,416 C 304.76410256410253,398.69743589743587 388.67435897435894,347.44102564102565 463,344 C 537.3256410256411,340.55897435897435 602.0666666666666,384.93333333333334 693,388 C 783.9333333333334,391.06666666666666 901.0589743589746,352.825641025641 992,349 C 1082.9410256410254,345.174358974359 1147.6974358974358,375.7641025641026 1218,390 C 1288.3025641025642,404.2358974358974 1364.1512820512821,402.1179487179487 1440,400 C 1440,400 1440,600 1440,600 Z" stroke="none" stroke-width="0" fill="url(#gradient)" class="transition-all duration-300 ease-in-out delay-150"></path></svg>