<?xml version="1.0" encoding="UTF-8"?>
<!DOCTYPE svg PUBLIC "-//W3C//DTD SVG 1.1//EN" "http://www.w3.org/Graphics/SVG/1.1/DTD/svg11.dtd">
<!-- Creator: CorelDRAW 2021 (64-Bit) -->
<svg xmlns="http://www.w3.org/2000/svg" xml:space="preserve" width="202.018mm" height="187.809mm" version="1.1" style="shape-rendering:geometricPrecision; text-rendering:geometricPrecision; image-rendering:optimizeQuality; fill-rule:evenodd; clip-rule:evenodd"
viewBox="0 0 19865.49 18468.32"
 xmlns:xlink="http://www.w3.org/1999/xlink"
 xmlns:xodm="http://www.corel.com/coreldraw/odm/2003">
 <defs>
  <style type="text/css">
   <![CDATA[
    .str1 {stroke:black;stroke-width:41.3;stroke-linecap:round;stroke-linejoin:round;stroke-miterlimit:22.9256;stroke-opacity:0.301961}
    .str2 {stroke:#263238;stroke-width:41.3;stroke-miterlimit:22.9256}
    .str3 {stroke:#990011;stroke-width:247.81;stroke-linecap:round;stroke-miterlimit:22.9256}
    .str0 {stroke:#263238;stroke-width:41.3;stroke-linecap:round;stroke-linejoin:round;stroke-miterlimit:22.9256}
    .str4 {stroke:#990011;stroke-width:49.17;stroke-linecap:round;stroke-linejoin:round;stroke-miterlimit:22.9256}
    .fil2 {fill:none;fill-rule:nonzero}
    .fil5 {fill:none;fill-rule:nonzero}
    .fil3 {fill:none;fill-rule:nonzero}
    .fil6 {fill:#263238;fill-rule:nonzero}
    .fil0 {fill:#990011;fill-rule:nonzero}
    .fil7 {fill:white;fill-rule:nonzero}
    .fil4 {fill:black;fill-rule:nonzero;fill-opacity:0.200000}
    .fil1 {fill:white;fill-rule:nonzero;fill-opacity:0.701961}
   ]]>
  </style>
 </defs>
 <g id="Layer_x0020_1">
  <metadata id="CorelCorpID_0Corel-Layer"/>
  <g id="freepik--background-simple--inject-83">
   <path id="elxmeb0v36zh" class="fil0" d="M18820.32 3743.82c-65.26,-110.14 -134.09,-218.89 -206.5,-326.28 -954.88,-1418.69 -2604.44,-2387.19 -4225.08,-2827.46 -709.42,-188.59 -1443.36,-296.11 -2177.3,-317.15 -4816.51,-165.2 -6734.53,3632.42 -8326.68,4612.07 -1592.15,979.66 -4040.14,2652.72 -3877,6162.88 163.14,3510.16 2694.06,6814.65 7591.93,7021.15 4897.87,206.5 5224.15,-2000.2 7959.1,-2816.31 1809.39,-540.22 3097.57,-2364.89 3724.93,-4051.21 858.23,-2298.81 817.76,-5284.04 -463.4,-7457.71z"/>
   <g id="el5ixjxdxgukp">
    <path id="elgnjiyxa4x3r" class="fil1" d="M18820.32 3743.82c-65.26,-110.14 -134.09,-218.89 -206.5,-326.28 -954.88,-1418.69 -2604.44,-2387.19 -4225.08,-2827.46 -709.42,-188.59 -1443.36,-296.11 -2177.3,-317.15 -4816.51,-165.2 -6734.53,3632.42 -8326.68,4612.07 -1592.15,979.66 -4040.14,2652.72 -3877,6162.88 163.14,3510.16 2694.06,6814.65 7591.93,7021.15 4897.87,206.5 5224.15,-2000.2 7959.1,-2816.31 1809.39,-540.22 3097.57,-2364.89 3724.93,-4051.21 858.23,-2298.81 817.76,-5284.04 -463.4,-7457.71z"/>
   </g>
  </g>
  <g id="freepik--Floor--inject-83">
   <line id="ele99rsr8yhq" class="fil2 str0" x1="1083.23" y1="17601.51" x2="19782.22" y2= "17601.51" />
  </g>
  <path id="elx6awi8kd65" class="fil3 str1" d="M19785.11 9297.14l0 -635.62 -422.51 0c-32.66,-145.99 -89.43,-285.59 -167.61,-413.07l305.21 -305.21 -449.42 -448.88 -303.97 303.56c-124.82,-77.46 -262.04,-134.65 -405.11,-168.51l-0.05 -441.09 -635.62 0 0 441.09c-140.27,33.39 -274.64,89.36 -397.3,165.12l-320.51 -321.24 -449.35 449.35 318.84 318.84c-75.05,120.61 -130.95,252.56 -165.23,390.32l-459.65 -0.03 0 635.62 452.24 0c31.19,138.32 84.07,271.4 156.49,393.55l-323.8 324.21 449.35 449.35 315.13 -315.13c121.28,77.86 254.46,136.27 393.65,172.66l-0.01 448.14 635.62 0 0 -433.25c143.97,-30.92 282.41,-85.49 408.87,-160.7l308.93 309.34 449.35 -449.35 -299.84 -300.26c80.64,-125.49 140.48,-264.05 176.42,-408.79l429.88 -0.05zm-2367.37 800c-0.06,-0.01 -0.32,-0.01 -0.41,-0.01 -400.02,0 -724.42,-324.4 -724.42,-724.41 0,-400.02 324.4,-724.42 724.42,-724.42 400.02,0 724.42,324.4 724.42,724.42 0,0.09 0,0.35 0,0.44 -13.88,112.73 -54.37,220.74 -117.75,315.06l-606.26 408.92z"/>
  <path id="el8kns35p0ug8" class="fil3 str1" d="M4528.56 15465.84l0 -635.62 -422.1 0c-32.79,-145.78 -89.75,-285.7 -168.07,-413.04l305.63 -305.21 -449.8 -448.91 -301.5 303.56c-125,-77.61 -262.15,-134.84 -405.14,-168.87l-0.02 -441.14 -637.69 0 0 441.09c-140.24,33.63 -274.87,89.73 -397.78,165.25l-320.08 -320.5 -449.3 448.48 318.84 320.91c-75.04,120.6 -130.95,252.55 -165.22,390.32l-460.07 -0.03 0 635.62 451.42 0c31.02,138.58 84.1,271.69 156.56,393.62l-321.76 322.13 449.35 449.35 315.13 -315.13c120.48,77.47 253.43,135.87 392.03,172.15l0 448.94 636.36 0.08 0 -432.01c143.98,-30.92 282.42,-85.49 408.88,-160.7l308.93 308.93 449.35 -449.35 -300.26 -299.84c80.66,-125.6 140.4,-263.88 176.35,-408.81l429.95 -1.27zm-1761.07 391.53c-399.71,-0.36 -723.58,-324.67 -723.58,-724.43 0,-400.02 324.4,-724.42 724.42,-724.42 400.02,0 724.42,324.4 724.42,724.42 0,0.06 0,0.32 0,0.41 0,399.79 -324.21,724 -724,724 -0.35,0 -0.89,0 -1.24,0l-0.01 0.01z"/>
  <path id="elyh8pjo6xs3" class="fil4" d="M13431.38 1370.67c123.9,130.1 495.61,279.19 495.61,279.19 0,0 23.54,-275.48 22.72,-292.82 -8.67,-204.03 -145.79,-593.08 -365.93,-653.38 -21.13,-5.22 -42.96,-7.87 -64.76,-7.87 -135.51,0 -250.15,100.33 -268.11,234.62 -26.86,159 75.57,329.16 180.48,440.26z"/>
  <path id="elpetr4nf4x6" class="fil4" d="M17130.29 3042.53c2.48,3.3 171.81,-216.83 180.9,-231.7 104.9,-175.12 206.5,-574.91 54.93,-747.13 -51.18,-55.42 -123.28,-87 -198.75,-87 -78.18,0 -152.59,33.85 -203.94,92.77 -110.27,117.71 -118.53,316.36 -92.51,466.7 30.56,176.36 259.37,505.95 259.37,506.36z"/>
  <path id="el0y37311jk1un" class="fil4" d="M18802.15 2174.38c-199.9,-111.51 -570.37,68.97 -719.87,206.5 -12.8,11.98 -193.29,223.02 -189.16,224.68l4.13 0c-58.65,28.08 -121.01,59.06 -188.75,93.75 -123.9,65.67 -265.15,141.25 -413.01,233.35 -159.34,97.06 -313.9,204.77 -460.24,320.1 -164.44,129.01 -318.07,274.08 -456.71,430.7l-4.96 5.78c27.26,-61.13 98.3,-234.59 102.01,-247.81 55.34,-196.18 46.26,-608.36 -144.14,-734.74 -42.88,-26.84 -92.58,-41.11 -143.26,-41.11 -103.65,0 -198.19,59.36 -243.23,152.68 -75.17,142.9 -30.98,336.6 33.87,474.55 72.69,155.7 356.84,397.31 379.56,416.73 -137.73,161.47 -266.98,333.41 -381.8,512.27 -68.15,104.08 -133.4,210.63 -197.42,318.84 21.89,-53.69 41.3,-102.01 41.3,-109.03 55.34,-196.18 46.26,-608.36 -144.14,-734.74 -42.79,-27.02 -92.48,-41.3 -143.17,-41.3 -103.65,0 -198.19,59.36 -243.23,152.68 -75.17,142.9 -30.98,336.6 33.87,474.96 64.84,138.36 303.56,350.64 367.17,405.57 -23.95,41.3 -48.74,82.6 -72.69,123.9 -115.23,200.31 -229.22,400.62 -346.93,593.91 -41.3,68.15 -84.67,133.4 -128.03,199.48 19.41,-47.91 35.52,-87.97 37.17,-94.58 55.34,-196.59 46.26,-608.78 -144.14,-735.16 -42.88,-26.69 -92.48,-40.89 -143.02,-40.89 -103.77,0 -198.42,59.41 -243.57,152.81 -75.17,142.9 -30.98,336.6 33.87,474.55 64.84,137.95 280.43,330.41 356.01,396.08 -46.26,65.67 -92.51,132.16 -140.42,193.7 -33.45,41.3 -62.78,82.6 -99.12,123.9l-103.25 119.36c-68.56,73.52 -139.18,149.51 -206.5,219.31 -47.5,49.15 -93.34,94.99 -139.6,141.25 41.3,-67.32 121.42,-200.72 126.79,-212.7 51.86,-126.46 78.67,-262.18 78.67,-398.92 0,-42.21 -2.69,-84.66 -7.7,-126.48 8.31,-18.14 15.01,-37.17 19.9,-56.53 6.92,-24.25 10.49,-49.41 10.49,-74.65 0,-131.45 -94.56,-243.9 -224.02,-266.49 -226.33,-32.21 -507.18,269.28 -596.8,454.31 -4.96,11.15 -49.15,134.64 -75.99,213.53 8.67,-48.74 17.76,-95.82 26.02,-145.79 16.93,-99.12 30.98,-198.24 46.26,-305.21 5.78,-51.63 11.56,-104.08 17.35,-156.94 5.78,-52.87 7.43,-108.21 11.56,-162.73 6.61,-127.21 7.02,-256.07 4.54,-386.16 86.73,14.46 395.25,62.36 543.52,23.95 148.27,-38.41 325.45,-127.21 387.4,-276.3 16.24,-35.37 24.71,-73.96 24.71,-112.9 0,-116.34 -74.59,-219.65 -184.96,-256.32 -220.14,-68.17 -543.53,189.55 -657.93,354.76 -7.02,10.33 -77.23,140.01 -113.99,212.29 -2.07,-78.47 -3.72,-156.12 -8.26,-235.42 -13.22,-227.98 -33.87,-458.03 -53.28,-688.07 -6.2,-70.62 -11.15,-140.84 -16.52,-211.05 30.56,5.78 396.49,70.21 562.52,27.26 147.44,-38 325.04,-127.21 387.4,-276.3 16.08,-35.26 24.42,-73.63 24.42,-112.4 0,-116.36 -74.36,-219.8 -184.66,-256.84 -218.89,-66.08 -542.28,189.57 -658.34,357.25 -9.09,12.8 -109.45,199.48 -132.58,247.81 -11.56,-154.88 -21.89,-309.34 -26.02,-461.74 -1.26,-50.03 -2.42,-101.13 -2.42,-151.64 0,-156.19 8.13,-312.95 23.23,-467.98 14.04,2.48 395.25,71.45 565.41,27.67 147.86,-38 325.45,-127.21 387.4,-276.3 16.09,-35.24 24.56,-73.83 24.56,-112.77 0,-116.34 -74.59,-219.65 -184.96,-256.32 -218.48,-66.49 -541.87,189.57 -658.34,357.25 -7.43,11.15 -82.6,153.23 -118.95,221.79l-12.39 -3.72c25.22,-205.7 70.32,-409.3 132.29,-607 32.63,-109.45 70.21,-212.29 109.03,-311.41 69.39,20.24 389.05,108.62 546.41,85.91 157.36,-22.72 337.43,-90.86 415.49,-231.7 25.02,-42.16 38.31,-90.28 38.31,-139.27 0,-105.48 -61.29,-201.44 -156.98,-245.8 -210.22,-90.04 -559.63,128.86 -693.86,282.91 -7.02,8.26 -71.86,101.6 -118.12,170.16 18.17,-44.6 36.34,-90.86 54.52,-132.99 67.73,-159.01 140.01,-300.26 206.5,-424.99 37.58,-70.62 72.69,-133.4 106.14,-192.05 78.88,-16.11 395.25,-82.6 522.46,-175.12 127.21,-92.51 257.3,-235.83 261.43,-397.31 0.32,-5.59 0.52,-11.22 0.52,-16.83 0,-149.16 -120.95,-270.11 -270.11,-270.11 -4.29,0 -8.67,0.1 -12.93,0.3 -227.98,16.93 -437.38,371.71 -485.29,570.37 -4.13,17.35 -38.41,292.82 -33.87,292l4.54 0c-33.45,55.76 -68.56,116.06 -105.73,182.55 -67.73,123.9 -143.31,263.5 -215.18,421.68 -78.19,168.96 -147.62,343.74 -206.28,520.92 -68.35,198.79 -119.36,404.11 -151.19,612.06 -0.08,1.14 -0.02,2.39 -0.02,3.63 0,1.24 -0.06,2.49 -0.16,3.72 -11.15,-66.08 -47.91,-247.81 -52.04,-263.5 -62.36,-194.53 -297.37,-533.61 -525.76,-533.61 -146.52,3.58 -263.49,123.45 -263.49,270.03 0,12.16 0.86,24.41 2.48,36.44 16.11,160.66 159.83,297.78 289.11,377.08 147.03,89.62 517.09,134.64 546.41,137.95 -23.65,193.08 -35.85,388.29 -35.85,582.91 0,18.01 0.58,37.76 0.58,55.2 0,123.9 4.96,247.81 11.15,374.6 -11.56,-57 -21.89,-107.8 -23.95,-114.4 -62.36,-194.53 -297.37,-533.19 -525.76,-533.61 -146.74,3.61 -263.64,123.44 -263.64,269.99 0,11.91 0.79,23.85 2.34,35.62 16.11,160.66 159.83,297.78 289.11,377.08 129.27,79.3 446.88,123.9 530.3,135.88 2.89,47.91 5.37,96.23 8.26,144.14 14.46,230.46 29.74,460.51 38,686.83 3.3,79.71 2.89,158.18 3.3,236.65 -9.91,-50.39 -19,-92.51 -21.06,-99.12 -62.36,-194.11 -296.95,-533.19 -525.76,-533.61 -146.34,3.76 -263.12,123.56 -263.12,270.01 0,12.3 0.89,24.66 2.54,36.84 15.69,160.66 159.83,297.78 289.11,377.08 129.27,79.3 416.31,120.6 515.44,133.81 -2.48,80.54 -4.54,161.07 -9.91,239.13 -5.37,52.87 -6.61,104.49 -14.46,157.77 -7.85,53.28 -14.04,104.49 -20.65,156.53 -16.93,98.71 -33.45,201.14 -52.04,297.37 -12.8,66.91 -26.02,130.51 -38.82,194.94 -2.07,-79.71 -9.5,-234.59 -11.56,-247.81 -32.21,-201.55 -212.7,-572.02 -438.62,-606.71 -11.23,-1.4 -22.59,-2.12 -33.92,-2.12 -147.49,0 -267.85,118.17 -270.49,265.63 -8.26,161.07 112.75,318.43 229.63,416.73 128.45,107.8 472.9,206.5 515.85,218.07 -21.89,106.14 -44.19,208.98 -66.91,305.63 -77.23,332.47 -154.05,607.12 -211.05,799.17l142.49 60.71 3.72 -12.8c53.28,-196.18 123.9,-477.03 197.01,-817.76 22.72,-107.38 45.02,-223.02 66.91,-341.56 20.07,0.28 41.24,0.64 61.69,0.64 94.55,0 189.46,-4.75 283.28,-13.51 58.23,162.31 275.89,416.31 303.97,448.94 -76.82,75.99 -152.4,149.51 -224.68,218.07 -247.81,234.59 -463.4,420.86 -616.62,550.13l156.12 66.49c147.03,-130.51 338.67,-305.63 554.67,-519.57 78.47,-77.23 160.66,-161.07 244.09,-247.81 36.34,25.19 330.41,228.81 495.61,258.96 149.92,27.67 348.58,20.65 467.53,-88.38 59.85,-51.27 94.39,-126.38 94.39,-205.34 0,-74.71 -30.95,-146.18 -85.4,-197.27 -170.57,-151.57 -571.6,-54.93 -747.55,48.74 -10.33,5.78 -115.23,82.6 -180.9,135.88 33.87,-35.93 67.32,-70.21 102.01,-107.38 68.56,-73.1 135.05,-148.27 206.5,-228.81l100.77 -121.42c34.69,-41.3 66.08,-86.32 99.54,-129.68 75.58,-102.43 147.44,-209.81 217.24,-319.26 64.02,59.89 295.3,270.11 439.85,320.08 144.55,49.97 341.56,73.1 475.79,-16.93 79.25,-49.38 127.43,-136.2 127.43,-229.57 0,-60.51 -20.31,-119.33 -57.63,-166.91 -145.79,-175.94 -556.32,-140.84 -745.89,-65.26 -11.98,4.54 -142.08,74.34 -212.29,113.99 41.3,-66.08 82.6,-132.16 123.9,-200.72 114.82,-197.42 224.68,-401.03 335.36,-603.41 33.87,-61.95 68.01,-123.63 102.43,-185.03 22.72,21.48 292,277.13 454.31,333.3 143.73,49.56 341.15,73.1 475.37,-16.93 79.39,-49.33 127.71,-136.25 127.71,-229.75 0,-60.44 -20.25,-119.16 -57.5,-166.75 -146.21,-175.94 -556.74,-140.84 -746.31,-65.26 -14.46,5.78 -201.14,106.14 -247.81,134.23 75.58,-135.88 151.99,-270.11 232.94,-399.79 107.99,-175.04 228.27,-344.02 357.93,-503.61 10.33,10.33 289.11,278.37 456.38,335.78 144.14,49.56 341.56,73.1 475.37,-16.93 79.53,-49.58 127.86,-136.51 127.86,-230.01 0,-60.44 -20.25,-119.16 -57.5,-166.75 -145.79,-175.94 -556.74,-140.84 -746.31,-65.26 -12.39,4.96 -154.88,82.6 -221.79,119.36l-8.26 -10.33c134.86,-156.59 284.65,-302.53 445.15,-433.07 87.97,-73.1 175.94,-138.36 262.67,-199.48 47.08,54.93 264.74,305.21 408.47,371.71 143.73,66.49 330.41,110.27 474.55,35.52 93.9,-45.15 153.65,-140.03 153.65,-244.1 0,-50.23 -14,-99.51 -40.39,-142.21 -123.9,-191.22 -536.91,-201.55 -734.33,-147.03 -10.74,2.89 -116.47,45.43 -192.46,76.82 41.3,-26.85 80.12,-55.76 118.53,-82.6 144.55,-94.99 282.5,-173.05 405.16,-241.2 70.21,-38 134.64,-71.45 194.94,-101.6 74.34,30.15 375.84,147.86 531.96,142.08 156.12,-5.78 344.86,-54.93 437.38,-187.09 34.61,-46.57 53.35,-103.16 53.35,-161.2 0,-93.42 -48.34,-180.28 -127.72,-229.52l0.01 -0.01z"/>
  <path id="el7rkgwcpl51b" class="fil5" d="M3143.32 3111.53c-4.73,6.94 -7.39,10.71 -7.43,10.71 0,0.93 -10.86,-12.29 -27.23,-32.86"/>
  <path id="elm7ufhp25ae" class="fil4" d="M1464.44 2254.1c199.48,-111.51 569.95,68.97 719.46,206.5 12.8,11.98 193.29,223.02 189.57,224.68l-4.54 0c58.65,27.67 121.42,58.65 189.16,93.75 123.9,65.67 264.74,140.84 413.01,232.94 159.05,97.46 313.67,205.16 460.47,320.06 164.65,129.59 318.4,275.01 457.69,431.38l4.54 6.2c-27.26,-61.13 -97.88,-235 -102.01,-247.81 -54.93,-196.59 -46.26,-608.78 144.14,-735.16 42.92,-26.99 92.63,-41.26 143.29,-41.26 103.83,0 198.59,59.51 243.67,153.01 75.17,142.49 30.98,336.6 -33.87,474.55 -73.1,155.7 -357.25,397.31 -379.97,416.31 137.94,161.63 266.62,334.18 381.84,512.57 67.73,103.67 132.99,210.63 197.42,318.43 -22.3,-53.69 -41.3,-101.6 -41.3,-108.62 -54.93,-196.59 -46.26,-608.78 144.14,-735.16 43.15,-26.85 92.86,-41.11 143.52,-41.11 103.83,0 198.59,59.51 243.67,153.01 75.17,142.9 30.98,336.6 -33.87,474.55 -64.84,137.95 -303.97,351.06 -367.58,405.99 24.37,41.3 48.74,82.6 72.69,123.9 115.23,200.31 229.22,400.62 346.93,593.49 41.3,68.15 85.08,133.81 128.03,199.48 -19.41,-47.5 -35.11,-87.97 -37.17,-94.17 -54.93,-196.59 -46.26,-608.78 144.14,-735.16 42.95,-26.82 92.66,-41.08 143.32,-41.08 103.83,0 198.59,59.51 243.67,153.01 75.17,142.49 30.98,336.6 -33.87,474.55 -64.84,137.95 -280.85,330.41 -356.01,395.66 46.26,66.08 92.51,132.16 140.01,194.11 33.87,41.3 63.19,82.6 99.12,123.9l103.67 118.95c68.56,73.52 138.77,149.51 206.5,219.72 47.5,48.74 93.75,94.58 140.01,140.84 -41.3,-67.32 -121.84,-200.72 -127.21,-212.7 -51.67,-125.9 -78.47,-261.23 -78.47,-397.45 0,-42.64 2.68,-85.67 7.79,-127.92 -8.29,-18.07 -15.13,-36.86 -20.2,-56.14 -6.83,-24.08 -10.34,-49.08 -10.34,-74.12 0,-131.71 94.91,-244.33 224.72,-266.63 226.33,-32.63 507.18,269.28 596.8,454.31 5.37,10.74 49.56,134.64 75.99,213.11 -8.67,-48.74 -17.35,-95.41 -25.61,-145.79 -16.93,-98.71 -30.98,-198.24 -46.67,-304.8 -5.37,-52.04 -11.15,-104.08 -16.93,-156.94 -5.78,-52.87 -7.43,-108.62 -11.56,-165.2 -6.61,-127.21 -7.02,-256.07 -4.96,-386.16 -86.73,14.87 -395.25,62.36 -543.52,24.37 -148.27,-38 -325.04,-127.62 -387.4,-276.3 -16.19,-35.35 -24.58,-73.85 -24.58,-112.75 0,-116.43 74.46,-219.9 184.83,-256.87 218.89,-66.08 542.28,189.57 658.34,357.25 7.43,10.74 77.23,140.42 114.4,212.29 2.07,-78.06 3.3,-156.12 8.26,-235 13.22,-227.98 33.45,-458.44 53.28,-688.49 5.78,-70.21 10.74,-140.42 16.52,-211.05 -30.98,5.78 -396.49,70.21 -562.52,27.67 -147.86,-38 -325.45,-127.62 -387.4,-276.3 -16.25,-35.37 -24.73,-73.96 -24.73,-112.9 0,-116.34 74.59,-219.65 184.96,-256.32 218.48,-66.49 541.87,189.16 658.34,356.84 8.67,12.8 109.03,199.48 132.16,247.81 11.98,-154.47 22.3,-308.93 26.43,-461.74 1.22,-49.08 2.38,-100.17 2.38,-150.11 0,-155.61 -8.13,-312.95 -23.23,-467.4 -14.46,2.48 -395.66,71.86 -565.82,28.08 -147.44,-38 -325.04,-127.62 -387.4,-276.3 -16.5,-35.78 -25.2,-74.95 -25.2,-114.51 0,-116.76 74.85,-220.43 185.66,-257.18 218.89,-66.08 542.28,189.57 658.34,357.25 7.85,11.15 82.6,153.64 119.36,221.79l12.39 -3.72c-25.63,-205.48 -70.48,-409.66 -132.41,-606.99 -32.63,-109.45 -70.21,-212.29 -108.62,-311.41 -69.8,20.24 -389.47,108.62 -546.82,86.32 -150.75,-21.48 -337.02,-90.86 -415.49,-232.11 -25.23,-42.05 -38.51,-90.07 -38.51,-138.95 0,-105.55 61.43,-201.53 157.27,-245.68 210.22,-90.04 559.63,128.45 693.44,282.5 7.43,8.26 71.86,101.6 118.12,170.16 -18.17,-44.19 -35.93,-90.45 -54.1,-132.99 -68.15,-158.6 -140.42,-300.26 -206.5,-424.57 -37.17,-70.62 -72.69,-133.81 -106.14,-192.46 -78.88,-16.11 -395.25,-82.6 -522.04,-174.7 -126.79,-92.1 -258.53,-233.76 -261.84,-395.66 -0.29,-5.43 -0.48,-10.92 -0.48,-16.37 0,-149.61 121.33,-270.93 270.93,-270.93 4,0 8.1,0.1 12.08,0.27 227.98,16.93 437.38,371.71 485.29,570.78 4.13,16.93 38.41,292.82 34.28,292l-4.96 0c33.45,55.76 68.97,116.06 106.14,182.55 67.73,123.9 142.9,263.91 214.76,421.68 78.76,169.06 148.31,344.38 206.37,521.42 67.38,198.14 116.94,402.77 147.28,609.55 0,2.48 0,4.96 0,7.43 10.74,-66.08 47.5,-249.87 52.04,-263.5 63.88,-196.34 296.82,-533.77 527.27,-534.18 146.65,4.02 263.44,124.13 263.44,270.83 0,12.04 -0.83,24.11 -2.42,36.02 -16.11,160.25 -160.25,297.78 -289.11,377.08 -146.62,89.21 -516.67,134.23 -546.41,137.53 24.02,193.86 36.23,390.21 36.23,585.98 0,16.84 0,35.44 0,52.28 0,123.9 -5.37,247.81 -11.15,374.6 11.15,-56.58 21.89,-107.38 23.95,-114.4 62.36,-194.53 296.95,-533.19 525.76,-533.61 146.35,3.87 263.15,123.98 263.15,270.68 0,12.04 -0.83,24.11 -2.42,36.02 -16.11,160.25 -160.25,297.78 -289.11,377.08 -128.86,79.3 -446.88,123.9 -530.3,135.88 -2.89,47.91 -4.96,95.82 -8.26,144.14 -14.46,230.46 -29.74,460.51 -38,686.42 -2.89,79.71 -2.89,158.18 -3.3,237.07 10.33,-50.39 19,-92.93 21.06,-99.12 62.36,-194.53 297.37,-533.61 525.76,-533.61 146.53,3.6 263.5,123.47 263.5,270.05 0,12.16 -0.86,24.41 -2.48,36.44 -16.11,160.66 -159.83,297.78 -289.11,377.08 -129.27,79.3 -416.31,120.6 -515.44,133.81 0,80.54 4.13,161.07 9.91,239.13 4.96,53.28 6.2,104.49 14.46,157.77 8.26,53.28 13.63,104.9 20.65,156.53 16.52,99.12 33.04,201.14 52.04,297.37 12.39,67.32 25.61,130.92 38.82,194.94 0,-79.3 9.09,-234.59 11.15,-247.81 32.21,-201.55 213.11,-572.02 439.03,-607.12 11.23,-1.43 22.61,-2.15 33.92,-2.15 147.4,0 267.63,118.25 270.08,265.62 8.67,161.07 -112.75,318.43 -229.22,416.73 -128.45,108.21 -473.31,206.5 -516.26,218.07 21.89,106.14 44.6,208.98 67.32,305.63 77.23,332.89 154.05,607.12 211.05,799.59l-142.9 60.71c0,-4.54 0,-8.67 -3.3,-13.22 -53.28,-195.77 -125.97,-477.03 -197.42,-817.76 -22.72,-107.38 -45.02,-223.02 -66.49,-341.56 -21.16,0.39 -43.81,0.75 -65.4,0.75 -93.45,0 -187.25,-4.6 -279.99,-13.45 -57.82,162.31 -275.48,416.31 -303.97,448.94 76.82,76.41 152.4,149.92 224.68,218.07 247.81,234.59 463.4,421.27 617.04,550.13l-161.39 66.82c-146.62,-130.1 -338.25,-305.63 -554.67,-519.15 -78.06,-77.23 -160.66,-161.49 -244.09,-247.81 -35.93,24.78 -330.41,228.81 -495.61,258.96 -150.34,27.26 -348.99,20.24 -467.53,-88.8 -60.05,-51.33 -94.68,-126.38 -94.68,-205.39 0,-74.56 30.87,-145.82 85.18,-196.87 170.99,-151.99 571.6,-55.34 747.55,48.32 10.33,6.2 115.64,85.08 180.9,135.88 -33.87,-35.93 -67.32,-70.21 -101.6,-107.38 -68.97,-73.1 -135.47,-148.27 -206.5,-228.81l-100.77 -121.42c-34.69,-41.3 -66.08,-86.32 -99.54,-129.68 -75.58,-102.01 -147.03,-209.4 -216.83,-319.26 -64.43,60.3 -295.3,270.11 -440.27,320.08 -144.97,49.97 -341.56,73.1 -475.37,-16.93 -79.37,-49.24 -127.68,-136.1 -127.68,-229.52 0,-60.38 20.25,-119.04 57.48,-166.56 145.79,-176.35 556.74,-141.25 746.31,-65.67 11.56,4.96 141.66,74.75 212.29,114.4 -41.3,-66.49 -82.6,-132.58 -123.9,-200.72 -114.4,-197.42 -224.68,-401.03 -334.95,-603.41 -33.87,-62.36 -68.56,-123.9 -102.84,-185.44 -22.3,21.89 -292,277.13 -454.31,333.3 -144.14,49.97 -341.56,73.1 -475.79,-16.52 -79.25,-49.39 -127.43,-136.21 -127.43,-229.58 0,-60.51 20.31,-119.33 57.63,-166.91 145.79,-176.35 556.74,-141.25 745.89,-65.26 14.46,5.37 201.14,106.14 247.81,133.81 -75.58,-135.47 -151.99,-270.11 -232.94,-399.38 -107.5,-175.25 -228.11,-344.79 -357.82,-504.09 -10.74,9.91 -289.11,277.96 -454.31,335.36 -144.14,49.56 -341.56,73.1 -475.79,-16.93 -79.27,-48.99 -127.71,-135.92 -127.71,-229.41 0,-59.79 19.88,-117.92 56.42,-165.21 145.79,-176.35 556.32,-141.25 745.89,-65.67 12.39,4.96 154.88,82.6 221.79,119.36l8.26 -9.91c-134.78,-157.22 -284.44,-303.05 -445.15,-433.57 -87.56,-73.1 -175.53,-137.95 -262.67,-199.48 -47.08,55.34 -264.74,305.21 -408.47,371.71 -137.53,65.67 -330.41,110.27 -474.13,35.93 -94.18,-44.95 -154.18,-140 -154.18,-244.27 0,-50.3 14.07,-99.67 40.52,-142.41 125.97,-190.81 536.91,-201.14 734.74,-146.62 10.74,2.89 116.06,45.02 192.46,76.82 -41.3,-27.26 -80.12,-55.76 -118.53,-82.6 -144.55,-94.99 -282.5,-173.05 -405.57,-241.61 -70.23,-36.33 -132.18,-70.2 -194.96,-99.94 -74.34,30.15 -375.84,147.86 -531.96,142.49 -156.12,-5.37 -344.86,-54.93 -437.79,-187.09 -35.13,-46.89 -54.14,-103.94 -54.14,-162.52 0,-95.42 50.24,-183.88 132.21,-232.73l-0.01 0z"/>
  <g id="freepik--Clipboard--inject-83">
   <path class="fil6 str0" d="M5829.53 4018.06l8674.84 0c138.66,0 251.11,112.45 251.11,251.11l0 13085.78c0,138.65 -112.45,251.1 -251.11,251.1l-8674.84 0.01c-138.65,-0.01 -251.1,-112.46 -251.1,-251.12l-0.01 -13085.77c0.01,-138.66 112.46,-251.11 251.12,-251.11z"/>
   <rect id="elk56825r713j" class="fil7 str0" x="6044.71" y="4324.51" width="8244.07" height="12758.26"/>
   <path id="elyvqf610s2q" class="fil6 str0" d="M10860.81 2947.54c-38.54,0 -69.8,-31.26 -69.8,-69.8l0 -394.42c0,0 0,0 0,0 0,-82.33 -66.77,-149.1 -149.1,-149.1 -0.13,0 -0.3,0 -0.42,0l-635.61 0c-0.11,0 -0.28,0 -0.4,0 -82.1,0 -148.68,66.58 -148.68,148.68 0,0.13 0,0.3 0,0.41l0 394.42c0,0 0,0 0,0 0,38.54 -31.26,69.8 -69.8,69.8 -0.14,0 -0.28,0 -0.41,0l-0.01 0c0.01,0 0.01,0 0.01,0 -38.54,0 -69.8,31.26 -69.8,69.8 0,0.14 0,0.28 0,0.41l-0.01 1068.87 1214.25 0 0 -1068.87c0,-38.77 -31.44,-70.21 -70.21,-70.21zm-466.7 33.45c-108.1,0 -195.77,-87.67 -195.77,-195.77 0,-108.1 87.67,-195.77 195.77,-195.77 108.1,0 195.77,87.67 195.77,195.77 -24.31,83.81 -101.12,141.53 -188.42,141.53 -26.66,0 -53.07,-5.46 -77.55,-15.98l70.2 70.21z"/>
   <path id="ela22o3bcy43k" class="fil7 str0" d="M8784.62 3746.71l3078.16 0c197.27,0 357.25,159.98 357.25,357.25l0 315.54 -3792.66 0 0 -315.54c0.01,-197.27 159.99,-357.25 357.26,-357.25l-0.01 0z"/>
   <path id="ely9y6rbdmdsf" class="fil6 str0" d="M8521.53 3863.18l3603.09 0c-67.47,-74.13 -163.21,-116.47 -263.51,-116.47l-3076.49 0c-100.14,0 -195.73,42.37 -263.07,116.48l-0.02 -0.01z"/>
   <rect id="el256ccucs80y" class="fil7 str0" x="8427.36" y="4416.2" width="3792.66" height="220.96"/>
  </g>
  <g id="freepik--Checklist--inject-83">
   <line id="els3fv3itlq7" class="fil2 str2" x1="11318.01" y1="7634.37" x2="11958.18" y2= "7634.37" />
   <line id="elubl20wn0yl" class="fil2 str2" x1="6878.17" y1="7634.37" x2="10822.4" y2= "7634.37" />
   <line id="el24wruh77h77" class="fil2 str2" x1="10368.09" y1="8129.98" x2="11958.18" y2= "8129.98" />
   <line id="elrb8614q6pj" class="fil2 str2" x1="7931.34" y1="8129.98" x2="9934.43" y2= "8129.98" />
   <line id="el34sln9ghz2a" class="fil2 str2" x1="6878.17" y1="8129.98" x2="7559.63" y2= "8129.98" />
   <line id="el0f4q32nh2wq5" class="fil2 str2" x1="8860.61" y1="8625.59" x2="11958.18" y2= "8625.59" />
   <line id="el1doiud27y18" class="fil2 str2" x1="6878.17" y1="8625.59" x2="8179.14" y2= "8625.59" />
   <circle id="el8zwehtsv7" class="fil2 str2" cx="13424.36" cy="8088.68" r="536.91"/>
   <line id="eliq1hekyi2n" class="fil2 str2" x1="7518.33" y1="9843.96" x2="6878.17" y2= "9843.96" />
   <line id="el37ijsb4rfzn" class="fil2 str2" x1="11958.18" y1="9843.96" x2="8013.94" y2= "9843.96" />
   <line id="el3cnrvj8hncp" class="fil2 str2" x1="8468.25" y1="10339.57" x2="6878.17" y2= "10339.57" />
   <line id="elsf7i0eq01x" class="fil2 str2" x1="10905" y1="10339.57" x2="8901.91" y2= "10339.57" />
   <line id="eltrpo5xje3b" class="fil2 str2" x1="11958.18" y1="10339.57" x2="11276.71" y2= "10339.57" />
   <line id="elkc4pom50r0e" class="fil2 str2" x1="9975.73" y1="10835.19" x2="6878.17" y2= "10835.19" />
   <line id="elohnq4q46u7" class="fil2 str2" x1="11958.18" y1="10835.19" x2="10657.2" y2= "10835.19" />
   <circle id="eltp4xrurjc2" class="fil2 str2" cx="13424.36" cy="10298.27" r="536.91"/>
   <line id="el8pxabp5a0ay" class="fil2 str2" x1="11318.01" y1="12053.56" x2="11958.18" y2= "12053.56" />
   <line id="elgoiyxfvp8z7" class="fil2 str2" x1="6878.17" y1="12053.56" x2="10822.4" y2= "12053.56" />
   <line id="eloht85dxs5sh" class="fil2 str2" x1="10368.09" y1="12549.17" x2="11958.18" y2= "12549.17" />
   <line id="el8amuarwoiyh" class="fil2 str2" x1="7931.34" y1="12549.17" x2="9934.43" y2= "12549.17" />
   <line id="elre55c9ajqd9" class="fil2 str2" x1="6878.17" y1="12549.17" x2="7559.63" y2= "12549.17" />
   <line id="el3bp4cpabg6x" class="fil2 str2" x1="8860.61" y1="13044.78" x2="11958.18" y2= "13044.78" />
   <line id="elvp1gj5hem8r" class="fil2 str2" x1="6878.17" y1="13044.78" x2="8179.14" y2= "13044.78" />
   <circle id="ellok7njj4xk" class="fil2 str2" cx="13424.36" cy="12507.87" r="536.91"/>
   <polyline id="elv94g5k0vpb" class="fil2 str3" points="13219.92,10209.06 13365.71,10468.43 13917.08,9933.59 "/>
   <polyline id="el2oxxddm6ytq" class="fil2 str3" points="13219.92,7975.92 13365.71,8235.71 13917.08,7700.45 "/>
   <polyline id="elksgvxkko7d" class="fil2 str3" points="13142.69,12315.82 13288.48,12575.61 13839.85,12040.35 "/>
  </g>
  <g id="freepik--Icons--inject-83">
   <circle id="elyesavzg186c" class="fil0" cx="18021.98" cy="15270.49" r="775.22"/>
   <path class="fil7" d="M17528.84 15125.52l248.22 0c21.89,-0.01 39.65,17.75 39.65,39.64l0 477.45c0,21.88 -17.76,39.64 -39.65,39.64l-248.22 0.01c-21.89,-0.01 -39.65,-17.77 -39.65,-39.66l0 -477.43c0,-21.9 17.76,-39.66 39.65,-39.66z"/>
   <path id="elvb576gunrb" class="fil7" d="M18490.33 15206.06c82.6,-123.9 -30.98,-158.6 -30.98,-158.6l-299.02 0 4.96 -26.02c0,0 26.02,-203.2 -7.85,-265.56 -33.87,-62.36 -156.12,-88.38 -161.07,-64.84 -4.96,23.54 2.48,127.21 -7.85,184.62 -30.66,93.78 -69.28,185.19 -114.3,272.94 -4.91,7.35 -11.09,13.67 -18.28,18.63l0 462.99c18.86,11.64 40.63,17.85 62.81,17.85 1.63,0 3.3,-0.04 4.93,-0.1l434.07 0.01c42.97,-12.38 72.57,-51.72 72.57,-96.45 0,-10.44 -1.63,-20.83 -4.83,-30.77 39,-22.7 63.02,-64.46 63.02,-109.59 0,-13.11 -2.05,-26.19 -6.04,-38.67 104.08,-88.38 7.85,-166.44 7.85,-166.44z"/>
   <g id="elt6npmh8xb8j">
    <circle id="elfkzw39lgiff" class="fil0" cx="1881.17" cy="5197.61" r="1270.42"/>
   </g>
   <path class="fil7" d="M1072.91 4959.72l407.23 0c35.81,0 64.85,29.04 64.85,64.84l-0.01 782.24c0.01,35.8 -29.03,64.84 -64.83,64.84l-407.24 0c-35.79,0 -64.83,-29.04 -64.83,-64.84l-0.01 -782.24c0.01,-35.8 29.05,-64.84 64.85,-64.84z"/>
   <path id="elgaincxof8b" class="fil7" d="M2648.95 5091.88c136.29,-200.31 -51.21,-260.2 -51.21,-260.2l-490.24 0 8.67 -41.3c0,0 41.3,-330.41 -12.8,-434.9 -54.1,-104.49 -255.65,-144.97 -262.67,-107.8 -7.02,37.17 4.54,208.98 -12.8,302.74 -17.35,93.75 -165.2,409.29 -187.51,447.7 -8.05,11.55 -17.98,21.77 -29.31,30.14l0 758.7c30.64,19.24 66.17,29.49 102.38,29.49 2.64,0 5.29,-0.07 7.9,-0.17l710.37 0.01c70.47,-20.53 118.98,-85.19 118.98,-158.61 0,-17.08 -2.66,-34.12 -7.87,-50.38 149.1,-106.56 93.75,-242.85 93.75,-242.85 170.15,-144.97 12.38,-272.59 12.38,-272.59z"/>
   <circle id="eltgsvundlu5" class="fil0" cx="11552.6" cy="1432.62" r="775.22"/>
   <path class="fil7" d="M11059.47 1287.24l248.22 0c21.89,0 39.65,17.76 39.65,39.65l0 477.44c0,21.89 -17.76,39.65 -39.65,39.65l-248.22 0c-21.89,0 -39.65,-17.76 -39.65,-39.65l0 -477.44c0,-21.89 17.76,-39.65 39.65,-39.65z"/>
   <path id="el35bah49w167" class="fil7" d="M12020.95 1367.78c82.6,-123.9 -30.98,-158.6 -30.98,-158.6l-299.02 0 4.96 -26.02c0,0 26.02,-202.79 -7.85,-265.15 -33.87,-62.36 -155.7,-88.38 -161.07,-64.84 -5.37,23.54 2.48,127.21 -7.85,184.62 -30.79,93.5 -69.29,185.21 -114.32,272.95 -4.99,7.25 -11.15,13.56 -18.25,18.63l0 462.57c18.82,11.92 40.69,18.27 62.98,18.27 1.58,0 3.19,-0.04 4.76,-0.1l434.06 0c43,-12.53 72.58,-51.96 72.58,-96.75 0,-10.47 -1.65,-20.91 -4.85,-30.87 39.01,-22.7 63.03,-64.46 63.03,-109.59 0,-13.11 -2.05,-26.2 -6.04,-38.67 104.08,-88.39 7.85,-166.45 7.85,-166.45z"/>
  </g>
  <g id="freepik--Badge--inject-83">
   <polygon id="elmkoziwen3qb" class="fil0 str2" points="7745.9,15562.07 7325.87,18109.1 7969.75,17381.38 8669.39,18137.19 8417.45,15505.91 "/>
   <polygon id="elbtqi5sjv0ct" class="fil0 str2" points="8110.58,15583.55 8217.55,18162.79 8699.95,17319.43 9538.77,17917.05 8757.36,15391.91 "/>
   <path id="elwm51hltiqkq" class="fil6" d="M9678.78 15031.36c0,-74.34 159.01,-159.42 148.68,-230.87 -10.33,-71.45 -187.09,-110.27 -206.5,-179.66 -19.41,-69.39 107.8,-197.42 77.23,-263.5 -30.56,-66.08 -210.22,-52.45 -247.81,-113.99 -37.58,-61.54 47.91,-219.31 0,-274.24 -47.91,-54.93 -216.42,9.09 -271.76,-38.82 -55.34,-47.91 -15.28,-223.85 -76.82,-263.91 -61.54,-40.06 -206.5,69.8 -271.76,39.24 -65.26,-30.56 -77.65,-210.22 -148.27,-231.29 -70.62,-21.06 -176.35,123.9 -247.81,114.82 -71.45,-9.09 -132.99,-180.07 -206.5,-180.07 -73.52,0 -135.88,169.75 -206.5,180.07 -70.62,10.33 -179.66,-135.05 -247.81,-114.82 -68.15,20.24 -82.6,201.14 -148.27,231.29 -65.67,30.15 -210.22,-78.47 -271.76,-39.24 -61.54,39.24 -21.48,216 -76.82,263.91 -55.34,47.91 -223.85,-16.52 -272.17,38.82 -48.32,55.34 41.3,212.7 0,274.65 -41.3,61.95 -219.72,46.67 -250.28,113.58 -30.56,66.91 98.3,192.46 77.65,263.5 -20.65,71.04 -197.01,106.14 -206.5,179.66 -9.5,73.52 148.68,156.53 148.68,230.87 0,74.34 -159.01,159.01 -148.68,230.87 10.33,71.86 187.09,110.27 206.5,179.66 19.41,69.39 -107.8,197.42 -77.65,263.5 30.15,66.08 210.63,52.45 250.28,113.58 39.65,61.13 -48.32,219.31 0,274.65 48.32,55.34 216.42,-9.09 271.76,38.82 55.34,47.91 15.28,223.85 76.82,263.5 61.54,39.65 206.5,-69.39 271.76,-38.82 65.26,30.56 77.65,210.22 148.27,230.87 70.62,20.65 176.35,-123.9 247.81,-114.4 71.45,9.5 133.4,180.07 206.5,180.07 73.1,0 135.88,-169.75 206.5,-180.07 70.62,-10.33 180.07,135.05 247.81,114.4 67.73,-20.65 82.6,-200.72 148.27,-230.87 65.67,-30.15 210.22,78.47 271.76,38.82 61.54,-39.65 21.48,-215.59 76.82,-263.5 55.34,-47.91 223.85,16.52 271.76,-38.82 47.91,-55.34 -41.3,-212.7 0,-274.65 41.3,-61.95 219.31,-46.67 250.28,-113.58 30.98,-66.91 -98.71,-192.46 -77.65,-263.5 21.06,-71.04 197.01,-106.56 206.5,-179.66 9.5,-73.1 -150.34,-157.77 -150.34,-230.87z"/>
   <circle id="el5dj408k7zzr" class="fil7 str0" cx="8221.68" cy="15030.12" r="1156.84"/>
   <g id="elbhyi09cnzsw">
    <circle id="elagsy1bkcl15" class="fil7 str0" cx="8221.68" cy="15030.12" r="807.85"/>
   </g>
   <circle id="eluh0d2fsqn6k" class="fil0" cx="8222.92" cy="15028.05" r="635.21"/>
   <path class="fil7" d="M7819 14909.11l203.2 0c18.02,-0.01 32.64,14.6 32.64,32.62l-0.01 390.72c0.01,18.01 -14.6,32.62 -32.62,32.62l-203.21 0.01c-18.01,-0.01 -32.62,-14.62 -32.62,-32.64l-0.01 -390.7c0.01,-18.02 14.62,-32.64 32.64,-32.64z"/>
   <path id="el43uvgkg1mku" class="fil7" d="M8607.02 14975.19c68.15,-100.36 -25.61,-130.1 -25.61,-130.1l-244.91 0 4.13 -21.48c0,0 21.48,-165.2 -6.2,-217.24 -27.67,-52.04 -128.03,-72.28 -132.16,-53.28 -4.13,19 2.07,104.49 -6.61,151.16 -25.23,76.87 -56.67,151.91 -93.72,223.76 -3.95,6.07 -9.02,11.26 -14.89,15.36l0 379.14c15.62,9.75 33.66,14.93 52.07,14.93 1.09,0 2.19,-0.02 3.27,-0.06l356 0.01c35.15,-10.35 59.31,-42.62 59.31,-79.26 0,-8.57 -1.34,-17.09 -3.95,-25.24 32.15,-18.49 52,-52.79 52,-89.88 0,-10.71 -1.67,-21.36 -4.93,-31.56 24.34,-15.04 39.18,-41.64 39.18,-70.25 0,-25.97 -12.22,-50.44 -32.97,-66.03l-0.01 0.01z"/>
  </g>
  <g id="freepik--character-2--inject-83">
   <path id="elrk64tn3kf3e" class="fil6 str0" d="M15627.35 11512.52c0,0 -23.13,1055.24 11.98,1391.43 35.11,336.19 236.24,2048.53 314.71,2643.26 78.47,594.73 112.75,1734.64 112.75,1734.64 0,0 -90.04,22.72 -90.04,101.19 -0.12,49.01 -3.94,98.2 -11.11,146.65 -50.11,61.88 -107.04,118.81 -168.95,168.95 -67.73,45.02 -439.03,135.05 -382.86,225.09 56.17,90.04 945.79,45.02 945.79,45.02 0,0 -292.82,135.05 -461.74,168.92 -168.92,33.87 -112.34,180.07 101.19,191.22 213.53,11.15 472.9,33.87 709.55,33.87 236.65,0 337.84,-90.04 529.06,-101.19 191.22,-11.15 258.96,-11.56 292.82,-33.87 33.87,-22.3 56.17,-348.99 56.17,-348.99l-45.02 -326.69c0,0 222.2,-1175.42 135.05,-1970.05 -32.96,-328.68 -50.73,-660.34 -50.73,-990.83 0,-480.92 36.72,-964.2 107.8,-1439.19 71.08,-474.99 217.66,-760.35 182.96,-1096.13 -34.69,-335.78 -92.59,-692.39 -92.59,-692.39l-2139.39 70.62 -57.41 78.47z"/>
   <path id="elp6o871bu25b" class="fil7 str0" d="M16369.53 8282.79c0,0 -391.95,296.54 -503.87,498.09 -111.93,201.55 -118.12,1317.91 -130.1,1630.15 -11.98,312.23 -126.38,724 -123.9,900.77 2.48,176.77 -6.2,395.66 608.36,394.84 614.56,-0.83 1480.22,-128.45 1583.89,-211.46 103.67,-83.01 144.97,-94.17 191.22,-274.24 46.26,-180.07 366.75,-1380.69 398.97,-1761.48 32.21,-380.79 19.82,-553.85 -308.93,-1044.09 -328.76,-490.24 -744.24,-562.11 -744.24,-562.11l-761.59 305.63 -209.81 123.9z"/>
   <polygon id="elal711titav7" class="fil6 str0" points="16369.53,8282.79 16387.29,8660.28 15908.61,11080.51 16102.31,11563.73 16520.28,11046.23 16495.08,8635.91 16671.85,8396.37 16579.34,8158.89 "/>
   <polygon id="elsieqdd7rb2" class="fil7 str0" points="16526.06,7994.1 16355.9,8090.33 16182.02,8489.71 16369.53,8282.79 16456.26,8318.72 16675.98,8093.22 "/>
   <path id="eloocorl6p7mf" class="fil7 str0" d="M15989.97 6281.76c0,0 -2.48,519.98 13.63,610.84 16.11,90.86 4.96,281.26 87.56,421.27 82.6,140.01 155.29,416.31 216.42,454.31 51.4,27.24 107.49,44.78 165.19,51.64l47.5 399.79 725.67 -568.72 -34.28 -420.03c70.48,-68.55 111.23,-162.27 113.14,-260.61 2.89,-165.2 -13.63,-261.02 -93.34,-289.11 -52.03,-20.22 -100.1,-49.86 -141.63,-87.14l62.36 -286.22c0,0 154.88,-214.76 -297.37,-294.48 -452.24,-79.71 -830.98,125.55 -864.85,268.46z"/>
   <path id="elym7o5284ds" class="fil6 str0" d="M15825.18 6147.53c0,0 -21.06,113.16 371.71,226.74 392.77,113.58 603.82,98.71 603.82,98.71 0,0 -55.34,38 -9.5,73.52 28.6,21.64 61.17,37.52 95.83,46.66 34.65,9.14 17.35,319.26 52.04,330.41 34.69,11.15 100.36,-26.43 100.36,-26.43 0,0 -9.09,-123.9 60.71,-169.33 40.04,-25.51 85.41,-41.92 132.55,-47.89 47.13,-5.97 121.01,-495.61 -31.39,-662.88 -152.4,-167.27 -350.23,-213.53 -815.69,-137.53 -465.46,75.99 -602.97,213.1 -560.43,268.03z"/>
   <polyline id="elyvty7lpx1u" class="fil2 str0" points="16399.26,7277.94 16245.21,7293.63 16229.93,6866.99 16114.29,6739.37 16029.62,6711.29 "/>
   <path id="el9quq40fz2a" class="fil2 str0" d="M16309.64 7453.88c13.87,0.71 28.08,1.1 42,1.1 32.83,0 65.87,-2.06 98.41,-6.08 45.04,-7.2 90.09,-16.8 134.17,-28.51 44.07,-11.71 -105.32,94.58 -181.72,109.45 -76.41,14.87 -92.86,-75.96 -92.86,-75.96z"/>
   <path id="el25q6yelnv6k" class="fil2 str0" d="M16471.13 7821.46c0,0 6.2,14.04 95.82,-21.06 74.98,-36.36 145.36,-82.51 208.92,-136.34"/>
   <path id="elv0ve2x3eqje" class="fil2 str0" d="M16673.91 6690.64c-89.62,-32.63 -318.43,26.85 -318.43,26.85"/>
   <path id="elprykpd7stig" class="fil6" d="M16585.12 6888.47c2.07,33.45 -11.15,61.54 -29.74,62.78 -18.59,1.24 -35.52,-24.78 -38,-58.23 -2.48,-33.45 10.74,-61.13 29.74,-62.78 19,-1.65 38,23.54 38,58.23z"/>
   <path id="el4w4kwnv7ufx" class="fil6" d="M16194.41 6913.25c0,33.45 -11.15,61.54 -29.74,62.78 -18.59,1.24 -35.52,-24.37 -38,-57.82 -2.48,-33.45 10.74,-61.54 29.74,-62.78 19,-1.24 35.52,24.78 38,57.82z"/>
   <polygon id="el13wz9e2tyij" class="fil7 str0" points="16502.52,8139.06 16695.8,8495.9 17445.42,7786.77 17298.8,7612.06 "/>
   <polygon id="elrqix5c4z70q" class="fil0 str2" points="14467.62,9247.99 15851.61,9475.97 16064.31,11270.5 14817.44,11072.67 "/>
   <path id="eljap0wxqnccp" class="fil7 str0" d="M14526.68 9649.85c0,0 -90.04,7.43 -112.75,74.75 -7.44,20.6 -11.26,42.42 -11.26,64.34 0,38.7 11.87,76.53 33.97,108.29 30.15,37.58 172.64,82.6 247.81,59.89 75.17,-22.72 97.88,-82.6 45.02,-119.77 -48.89,-28.19 -102.12,-48.65 -157.38,-60.31l-45.41 -127.19z"/>
   <path id="elk7ps9y9kb3" class="fil7 str0" d="M14437.47 9897.24c0,0 -30.15,97.47 22.3,149.92 52.45,52.45 195.35,67.73 240.37,15.28 45.02,-52.45 -15.28,-105.32 -15.28,-105.32 0,0 -195.77,-14.87 -247.39,-59.89z"/>
   <path id="elj4dx4vmky1j" class="fil7 str0" d="M14481.66 10116.55c0,0 -7.43,157.36 52.45,225.09 59.89,67.73 127.62,30.15 112.75,-30.15 -9.66,-36.96 -24.91,-72.43 -45.03,-104.9l-120.18 -90.04z"/>
   <path id="el07a6upk8ictj" class="fil7 str0" d="M14458.95 10047.16c-0.84,5.85 -1.28,11.82 -1.28,17.77 0,40.98 20.29,79.36 54.15,102.41 67.32,45.02 165.2,90.04 194.94,22.72 7.5,-17.78 11.39,-36.94 11.39,-56.27 0,-25.01 -6.49,-49.61 -18.83,-71.35 -12.34,-21.74 -150.34,37.59 -240.37,-15.27z"/>
   <path id="el9glq82vjot4" class="fil6 str0" d="M14822.81 9351.66l11.56 73.1 682.7 119.77 0 -111.1c0,-0.07 0,-0.13 0,-0.19 0,-40.95 -26.6,-77.18 -65.67,-89.44l-76.82 -24.37 -15.69 -54.93c-8.76,-30.55 -34.32,-53.38 -65.66,-58.65l-250.28 -41.3c-4.51,-0.75 -9.08,-1.13 -13.65,-1.13 -45.61,0 -82.6,36.99 -82.6,82.6 0,0.37 0.01,0.77 0.01,1.13l0 0 -26.43 0c-1.43,-0.05 -2.9,-0.1 -4.35,-0.1 -51.77,0 -93.75,41.98 -93.75,93.75 0,3.62 0.22,7.26 0.63,10.84z"/>
   <path id="elawfj1g9gvst" class="fil7 str0" d="M16334.42 10301.99c0,0 -93.34,-101.19 -135.47,-135.05 -42.13,-33.87 -270.93,-33.87 -270.93,-33.87l0 143.73c0,0 -355.19,25.19 -456.79,41.3 -101.6,16.11 -118.53,67.73 -92.93,110.27 25.61,42.54 279.19,16.93 279.19,16.93l126.79 16.93c0,0 -194.53,50.8 -254,59.06 -59.47,8.26 -177.59,0 -177.59,41.3 0,41.3 16.93,67.32 109.86,75.99 92.93,8.67 245.74,8.26 346.93,33.87 101.19,25.61 -168.92,41.3 -245.33,41.3 -76.41,0 -82.6,67.73 -33.87,84.67 48.74,16.93 211.87,41.3 211.87,41.3 61.06,33.97 126.62,59.63 194.55,75.95 126.79,33.87 41.3,16.93 321.32,0 137,-3.79 273.86,-23.87 406.36,-59.01l8.26 -389.47 -262.26 -82.6 -75.97 -82.61z"/>
   <line id="elz32j24qmrmg" class="fil2 str0" x1="15928.02" y1="10276.8" x2="16080.42" y2= "10293.73" />
   <line id="el7m5qukgh3q7" class="fil2 str0" x1="15742.17" y1="10843.86" x2="15995.75" y2= "10852.12" />
   <polygon id="el3zix5rpmpyq" class="fil7 str0" points="16672.68,10471.32 16638.81,10953.72 16816.4,10962.39 16833.34,10480 "/>
   <g>
    <path id="el4vyr7xses9o" class="fil7" d="M17700.24 8051.5c126.79,41.3 842.95,454.31 842.95,816.11 0,361.8 -101.19,1734.64 -135.05,2054.31 -33.87,319.67 -135.47,254 -499.33,254 -363.86,0 -913.58,-16.93 -1015.18,-59.47 -48.49,-21.4 -79.81,-69.42 -79.81,-122.44 0,-10.08 1.14,-20.14 3.4,-29.96l15.69 -484.05c0,0 25.61,-118.53 110.27,-135.47 84.67,-16.93 633.14,61.13 633.14,61.13 0,0 101.6,-922.25 118.53,-1099.84 16.93,-177.59 -47.08,-495.61 88.38,-571.19l-83.01 -683.12zm0 0l0 0 0 0z"/>
    <path id="_1" class="fil2 str0" d="M17700.24 8051.5c126.79,41.3 842.95,454.31 842.95,816.11 0,361.8 -101.19,1734.64 -135.05,2054.31 -33.87,319.67 -135.47,254 -499.33,254 -363.86,0 -913.58,-16.93 -1015.18,-59.47 -48.49,-21.4 -79.81,-69.42 -79.81,-122.44 0,-10.08 1.14,-20.14 3.4,-29.96l15.69 -484.05c0,0 25.61,-118.53 110.27,-135.47 84.67,-16.93 633.14,61.13 633.14,61.13 0,0 101.6,-922.25 118.53,-1099.84 16.93,-177.59 -47.08,-495.61 88.38,-571.19m-83.01 -683.12l0 0 0 0z"/>
   </g>
   <path id="ely1qsnxybc4p" class="fil2 str0" d="M17975.72 10674.52c-126.79,-50.8 -399.38,-268.87 -399.38,-268.87 0,0 321.73,84.67 363.86,76.41"/>
  </g>
  <g id="freepik--character-1--inject-83">
   <path id="el3q6g3ajlaq3" class="fil6 str2" d="M3064.85 8010.2c46.8,66.4 80.56,141.44 99.1,220.59 21.89,115.64 -22.3,187.51 -110.27,181.72 -54.47,-6.56 -101.09,-42.41 -121.41,-93.39 -20.32,-50.98 16.93,187.09 82.6,275.48 65.67,88.38 115.64,76.82 501.39,121.01 385.75,44.19 964.38,0 1124.21,-21.89 159.83,-21.89 264.33,-49.56 319.26,-132.16 48.49,-79.56 93.05,-162.91 132.45,-247.78 39.4,-84.86 -165.2,121.42 -253.59,93.75 -88.38,-27.67 -88.38,-204.03 -60.71,-275.48 20.85,-50.92 44.89,-100.73 71.93,-148.66 34.15,-101.43 54.59,-207.51 60.38,-314.31 0,-137.53 -49.56,-280.85 -137.53,-600.52 -87.97,-319.67 -358.08,-600.52 -562.11,-804.54 -204.03,-204.03 -424.16,-66.08 -672.38,60.71 -248.22,126.79 -529.06,815.28 -578.21,1096.54 -49.15,281.26 104.88,588.92 104.88,588.92z"/>
   <polygon id="elmy0s2toydvq" class="fil7 str2" points="3514.62,8534.72 3979.67,8196.06 4467.84,8534.72 4003.21,9661.41 "/>
   <polygon id="el7s2li1fqa7" class="fil6 str2" points="3825.2,8615.26 3973.89,8857.7 3841.72,9408.65 4023.45,9734.1 4216.32,9359.09 4062.27,8857.7 4172.13,8631.78 3996.19,8361.67 "/>
   <path id="eln7plf5pkzjn" class="fil7 str2" d="M3687.26 7721.1c0,0 5.78,457.2 16.52,495.61 10.74,38.41 231.7,264.74 275.48,281.26 43.78,16.52 242.85,-281.26 259.37,-303.15 16.52,-21.89 5.37,-462.98 5.37,-462.98l-556.74 -10.74z"/>
   <path id="ely27ogs62hd" class="fil6 str2" d="M4062.27 6245.83c0,0 -187.51,220.55 -408.05,435.31 -220.55,214.76 -479.09,490.24 -578.21,766.13 -99.12,275.89 -10.74,561.69 -10.74,561.69 -129.2,-165.26 -200.96,-368.41 -204.01,-578.15 5.37,-330.41 66.08,-937.12 352.71,-1284.05 286.63,-346.93 738.46,-363.86 949.92,-314.3 211.46,49.56 462.98,303.15 578.21,611.67 115.23,308.52 225.92,898.29 214.76,1146.1 -2.14,136.91 -38.17,271.62 -104.51,391.43 2.51,-35.54 3.94,-71.77 3.94,-107.46 0,-226.34 -52.55,-450.17 -152.99,-652.84 -192.88,-369.23 -385.75,-529.06 -529.06,-667.01 -73.14,-68.07 -114.78,-163.66 -114.78,-263.6 0,-15 0.96,-30.07 2.81,-44.94l-0.01 0.01z"/>
   <polygon id="el1p95t425e39" class="fil7 str2" points="3979.25,8499.62 3726.08,8857.7 3506.36,8341.44 3703.78,8174.58 "/>
   <polygon id="elqvmq2c20mi" class="fil7 str2" points="3979.25,8499.62 4238.62,8885.37 4442.24,8350.94 4238.62,8196.47 "/>
   <path id="elsrsr5mc9vxr" class="fil0 str2" d="M2670.43 8593.79c0,0 -1032.52,1388.54 -1087.45,1472.79 -54.93,84.25 -101.19,82.6 -73.1,151.16 28.08,68.56 218.89,275.06 359.32,280.85 140.42,5.78 179.25,-39.24 241.2,-129.27 61.95,-90.04 829.32,-1037.48 829.32,-1037.48 0,0 -207.33,-709.96 -269.28,-738.05z"/>
   <polygon id="el0wc2ra0ttkm" class="fil6 str2" points="3897.48,17538.32 3859.48,18320.98 3783.07,18320.98 3763.66,17839.41 "/>
   <path id="elf5a6zcjkvot" class="fil7 str2" d="M3142.91 13788.2c0,0 85.91,578.21 66.91,937.53 -19,359.32 -47.5,594.73 -9.5,920.18 38,325.45 238.72,1470.73 238.72,1728.86 0,258.13 -85.91,498.91 -143.31,584.82 -57.41,85.91 -382.03,301.08 -401.03,395.66 -19,94.58 229.22,68.97 458.44,34.69 229.22,-34.28 363.03,-43.37 391.53,-77.65 28.5,-34.28 -9.5,-240.78 57.41,-481.57 66.91,-240.78 133.4,-232.11 104.9,-378.32 -28.5,-146.21 -143.31,-309.76 -143.31,-550.54 0,-240.78 152.81,-1677.23 114.82,-2047.29 -38,-370.06 -55.34,-1057.72 -55.34,-1057.72l-680.23 -8.67z"/>
   <path id="ela8rjv3axfe" class="fil6 str2" d="M3649.26 18062.84c-82.85,-30.54 -169.84,-51.05 -257.74,-60.37 -26.32,-3.98 -53.07,-6.04 -79.75,-6.04 -16.61,0 -33.41,0.84 -49.9,2.37 -101.6,99.95 -350.23,274.24 -367.17,356.43 -19,94.58 229.22,68.97 458.44,34.69 229.22,-34.28 363.03,-43.37 391.53,-77.65 28.5,-34.28 -9.5,-240.78 57.41,-481.57 66.91,-240.78 133.4,-232.11 104.9,-378.32 -66.91,154.47 -114.4,171.81 -181.31,300.67 -43.74,97.75 -69.76,202.91 -76.43,309.82l0 -0.04z"/>
   <polygon id="ellybxll1q8s8" class="fil6 str2" points="5170.79,17601.93 5250.91,18381.69 5326.49,18378.38 5319.06,17896.4 "/>
   <path id="elon11aig8rog" class="fil7 str2" d="M4966.35 13779.53c45.97,331.15 134.01,657.38 260.69,966.49 137.53,339.49 154.47,542.69 220.55,867.32 64.84,316.36 10.74,1417.45 28.08,1737.53 14.04,257.72 250.28,563.34 311.82,646.77 61.54,83.43 393.18,283.32 417.14,377.08 23.95,93.75 -222.61,78.88 -450.59,54.93 -227.98,-23.95 -360.14,-26.85 -390.29,-59.89 -30.15,-33.04 -3.72,-241.2 -82.6,-478.68 -78.88,-237.48 -144.55,-225.92 -123.9,-371.71 20.65,-145.79 -11.15,-348.17 -58.23,-571.6 -49.97,-236.65 -384.51,-1539.28 -463.81,-1903.56 -79.3,-364.27 -357.74,-1238.66 -357.74,-1238.66l688.9 -26.02z"/>
   <path id="el2hc8tg5f0gq" class="fil6 str2" d="M5444.2 18114.47c80.23,-34.15 164.93,-58.35 251.16,-71.47 33.96,-6.93 68.72,-10.46 103.47,-10.46 8.01,0 16.15,0.26 24.09,0.57 105.73,95.82 360.56,258.13 381.62,339.91 23.95,93.75 -222.61,78.88 -450.59,54.93 -227.98,-23.95 -360.14,-26.85 -390.29,-59.89 -30.15,-33.04 -3.72,-241.2 -82.6,-478.68 -78.88,-237.48 -144.55,-225.92 -123.9,-371.71 74.34,151.57 123.9,165.2 195.35,292.41 48,95.22 79.2,198.45 91.73,304.36l-0.03 0.03z"/>
   <path id="elmqgolfx66o" class="fil6 str2" d="M2790.61 11517.48c-60.18,210.34 -98.08,426.99 -111.84,645.13 -17.35,335.36 34.28,2219.51 34.28,2219.51 0,0 325.36,103.24 944.88,120.18 619.51,16.93 1754.46,-111.93 1754.46,-111.93 0,0 -51.63,-1909.34 -180.48,-2390.91 -128.86,-481.57 -206.5,-619.51 -206.5,-619.51 0,0 -1254.31,-834.28 -2234.79,137.53z"/>
   <path id="eldpbpo62nhmj" class="fil0 str2" d="M5219.93 8619.8c0,0 990.4,1414.14 1046.98,1496.74 56.58,82.6 101.19,82.6 73.52,151.16 -27.67,68.56 -217.66,275.48 -358.08,281.67 -140.42,6.2 -179.66,-38.41 -241.61,-128.03 -61.95,-89.62 -835.1,-1039.54 -835.1,-1039.54 0,0 252.76,-733.92 314.3,-762z"/>
   <path id="elxvlj5pv7zy" class="fil0 str2" d="M3506.36 8340.61l495.61 1156.43 440.68 -1146.1 773.57 268.04 -619.51 1792.46 689.73 1447.6c0,0 -306.87,157.36 -843.78,226.33 -536.91,68.97 -1008.16,20.65 -1239.03,-52.45 -230.87,-73.1 -555.5,-247.81 -536.91,-247.81 18.59,0 583.17,-1442.23 583.17,-1442.23l-578.21 -1750.33 834.69 -251.94z"/>
   <polygon id="el24t903wgk57" class="fil0 str2" points="4007.75,9797.29 4561.18,9126.98 4406.72,8903.54 4731.34,8770.55 4622.31,8430.65 4442.24,8350.94 4000.32,9497.04 3506.36,8341.44 3338.26,8392.24 3252.77,8839.53 3619.52,8914.28 3465.47,9158.78 "/>
   <path id="el0u8p77zdd58" class="fil7 str2" d="M2816.22 11311.38c72.85,-14.79 145.2,-35.33 215.11,-60.39 120.19,-41.3 180.48,-17.35 258.13,41.3 77.65,58.65 275.06,186.68 247.81,229.63 -27.26,42.95 -41.3,62.78 -85.91,36.76 -44.6,-26.02 -257.72,-197.83 -301.08,-197.83 -53.05,11.12 -104.69,29.19 -153.18,53.39 72.37,4.98 142.92,25.64 206.56,60.29 77.65,51.63 247.81,180.9 240.78,223.85 -7.02,42.95 -41.3,49.15 -85.49,41.3 -44.19,-7.85 -215.18,-161.07 -241.2,-161.07l-189.61 -0.01c72.91,34.02 143.46,74.32 209.84,119.72 34.28,34.69 82.6,69.39 82.6,94.99 0,25.61 -15.69,91.69 -66.91,74.75 -51.21,-16.93 -197.86,-144.09 -197.86,-144.09 0,0 137.53,145.79 129.27,170.57 -11.98,36.34 -34.69,35.93 -60.3,18.59 -25.61,-17.35 -211.87,-127.21 -272.17,-178.83 -43.78,-37.58 -37.58,-44.6 -89.21,-53.28 -51.63,-8.67 -103.25,-120.6 -103.25,-120.6l256.07 -249.04z"/>
   <path id="el8n06ncjq3cf" class="fil2 str2" d="M2955.82 11723.98c0,0 -86.32,-84.67 -137.53,-84.67"/>
   <path id="eldt7bnaqr4um" class="fil7 str2" d="M5144.77 11311.38c-72.83,-14.79 -145.18,-35.33 -215.09,-60.39 -120.19,-41.3 -180.48,-17.35 -257.72,41.3 -77.23,58.65 -275.06,186.68 -247.81,229.63 27.26,42.95 41.3,62.78 85.91,36.76 44.6,-26.02 258.13,-197.83 301.08,-197.83 53.47,10.57 105.63,27.99 154.78,51.74 -72.29,5.02 -142.82,25.68 -206.49,60.29 -77.23,51.63 -247.81,180.9 -240.78,223.85 7.02,42.95 41.3,49.15 85.49,41.3 44.19,-7.85 215.59,-161.07 241.2,-161.07 38.14,-5.8 76.02,-14.75 112.74,-26.48l-138.77 139.18c-34.28,34.28 -82.6,90.86 -82.6,116.88 0,26.02 21.06,76.82 72.69,59.89 51.63,-16.93 197.83,-198.66 197.83,-198.66 0,0 -137.95,201.14 -129.68,225.92 11.98,36.34 34.69,35.93 60.3,18.59 25.61,-17.35 172.22,-137.53 232.52,-189.16 43.78,-37.58 77.23,-34.28 128.86,-41.3 51.63,-7.02 103.25,-120.6 103.25,-120.6l-257.71 -249.84z"/>
   <path id="elw09wnsgukw" class="fil2 str2" d="M5009.3 11668.64c25.21,-45.61 67.15,-79.85 116.89,-95.41"/>
   <polygon id="elp8idfny4jbb" class="fil7 str2" points="5310.8,11121.81 5103.46,11311.38 5387.2,11655.01 5608.58,11446.03 "/>
   <g>
    <path id="elpuxp5mfjw0c" class="fil0" d="M5851.42 10157.85l-624.06 1010.63 326.28 420.44c0,0 294.06,-389.05 439.44,-595.97 145.38,-206.92 374.6,-692.62 365.93,-752.92 -8.67,-60.3 -216.42,-265.98 -216.42,-265.98l-291.17 183.79zm0 0l0 0 0 0z"/>
    <path id="_1_0" class="fil2 str2" d="M5851.42 10157.85l-624.06 1010.63 326.28 420.44c0,0 294.06,-389.05 439.44,-595.97 145.38,-206.92 374.6,-692.62 365.93,-752.92 -8.67,-60.3 -216.42,-265.98 -216.42,-265.98m-291.17 183.79l0 0 0 0z"/>
   </g>
   <polygon id="el2ohg93tszww" class="fil7 str2" points="2608.89,11121.81 2816.22,11311.38 2532.48,11655.01 2311.11,11446.03 "/>
   <g>
    <path id="el591n8gc7u4k" class="fil0" d="M1998.46 10104.16l654.62 1052.35 -309.76 390.71c0,0 -461.33,-546.41 -606.71,-752.92 -145.38,-206.5 -254.41,-543.93 -245.74,-604.23 8.67,-60.3 214.76,-266.8 214.76,-266.8l292.82 180.9zm0 0l0 0 0 0z"/>
    <path id="_1_1" class="fil2 str2" d="M1998.46 10104.16l654.62 1052.35 -309.76 390.71c0,0 -461.33,-546.41 -606.71,-752.92 -145.38,-206.5 -254.41,-543.93 -245.74,-604.23 8.67,-60.3 214.76,-266.8 214.76,-266.8m292.82 180.9l0 0 0 0z"/>
   </g>
   <path id="ely50xnlvbxy" class="fil7 str2" d="M4045.75 6440.77c0,0 -254,352.3 -368.82,475.37l-114.82 123.9 -247.81 49.15c16.63,59.16 38.63,117 65.69,172.23 32.63,57.41 123.9,73.52 123.9,73.52 0,0 24.78,206.5 98.3,311.82 73.52,105.32 273.41,273.41 573.67,327.52 90.45,16.11 277.54,-107.38 367.58,-517.5 90.04,-410.12 0,-531.54 -47.91,-670.73 -47.91,-139.18 -341.99,-345.29 -449.79,-345.29z"/>
   <path id="el6ptbglftlsa" class="fil2 str2" d="M4518.23 6966.53c0,0 -106.56,-99.12 -159.83,53.28 -19.41,54.52 91.28,320.08 53.28,342.8 -38,22.72 -53.28,-7.43 -106.97,30.56"/>
   <path id="elrbq9yxnm3yb" class="fil2 str2" d="M4365.83 7553.42c0,0 -206.5,61.13 -289.11,-82.6"/>
   <path id="elbrzep3sz7jb" class="fil2 str2" d="M4167.59 6905.4c0,0 -167.68,-61.13 -266.8,30.56"/>
   <path id="elhstiw44qb2n" class="fil6" d="M4137.02 7106.54c0,41.3 -20.65,73.1 -46.67,73.1 -26.02,0 -46.67,-32.63 -46.67,-73.1 0,-40.47 21.06,-73.52 46.67,-73.52 25.61,0 46.67,33.04 46.67,73.52z"/>
   <path id="el1d9xtik3eqi" class="fil6" d="M4502.95 7118.93c0,41.3 -20.65,73.1 -46.67,73.1 -26.02,0 -46.26,-32.63 -46.26,-73.1 0,-40.47 20.65,-73.52 46.26,-73.52 25.61,0 46.67,33.04 46.67,73.52z"/>
  </g>
  <path class="fil2 str4" d="M8283.82 5738.1l-542.98 0c-13.92,0 -20.88,5.97 -20.88,17.91l0 107.4c0,13.91 6.95,20.88 20.88,20.88l105.92 0c7.96,0 11.93,3.24 11.93,9.7 0,6.47 -3.97,9.7 -11.93,9.7l-105.92 0c-26.85,0 -40.28,-13.42 -40.28,-40.27l0 -107.4c0,-11.94 3.48,-21.63 10.44,-29.09 6.96,-7.46 16.91,-11.19 29.83,-11.19l542.98 0c12.93,0 22.63,3.73 29.09,11.19 6.46,7.45 9.7,17.15 9.7,29.09l0 107.4c0,26.85 -12.93,40.27 -38.78,40.27l-331.15 0c-10.94,0 -16.41,6.47 -16.41,19.39l0 662.32c0,13.91 5.47,20.88 16.41,20.88l114.86 0c13.92,0 20.89,-6.96 20.89,-20.88l0 -641.43c0,-5.97 3.24,-8.95 9.7,-8.95 6.46,0 9.7,2.98 9.7,8.95l0 641.43c0,27.84 -13.42,41.76 -40.28,41.76l-114.86 0c-24.86,0 -37.3,-13.92 -37.3,-41.76l0 -662.32c0,-25.85 12.44,-38.78 37.3,-38.78l331.15 0c6.96,0 12.18,-2.23 15.66,-6.71 3.48,-4.47 5.22,-9.2 5.22,-14.17l0 -107.4c0,-11.94 -6.96,-17.91 -20.89,-17.91zm729.43 0l-114.86 0c-13.92,0 -20.89,5.97 -20.89,17.91l0 329.66 -222.26 0c-4.98,0 -7.46,-3.48 -7.46,-10.44 0,-6.96 2.49,-10.44 7.46,-10.44l201.37 0 0 -308.77c0,-11.94 3.48,-21.63 10.44,-29.09 6.72,-7.46 17.16,-11.19 31.08,-11.19l113.86 0c10.93,0 20.38,3.73 28.09,11.19 7.96,7.45 11.93,17.15 11.93,29.09l0 829.38c0,12.92 -3.97,23.12 -11.93,30.57 -7.71,7.46 -17.16,11.19 -28.09,11.19l-113.86 0c-27.6,0 -41.53,-13.92 -41.53,-41.76l0 -334.14 -256.57 0c-25.85,0 -38.78,-13.42 -38.78,-40.28l0 -454.96c0,-11.94 -6.96,-17.91 -20.89,-17.91l-114.86 0c-13.92,0 -20.89,5.97 -20.89,17.91l0 829.38c0,13.91 6.96,20.88 20.89,20.88l114.86 0c13.92,0 20.89,-6.96 20.89,-20.88l0 -250.61c0,-7.96 3.24,-11.94 9.7,-11.94 6.46,0 9.7,3.98 9.7,11.94l0 250.61c0,27.84 -13.42,41.76 -40.28,41.76l-114.86 0c-26.86,0 -40.28,-13.92 -40.28,-41.76l0 -829.38c0,-11.94 3.24,-21.63 9.7,-29.09 6.46,-7.46 16.66,-11.19 30.58,-11.19l114.86 0c13.92,0 24.12,3.73 30.58,11.19 6.46,7.45 9.7,17.15 9.7,29.09l0 454.96c0,13.92 6.46,20.89 19.39,20.89l277.45 0 0 353.54c0,13.91 6.96,20.88 20.89,20.88l114.86 0c12.93,0 19.39,-6.96 19.39,-20.88l0 -829.38c0,-11.94 -6.46,-17.91 -19.39,-17.91zm625.02 721.98l-320.71 0 -11.94 0 1.49 -13.42 -1.49 -120.82c0,-6.96 3.98,-10.44 11.94,-10.44 7.96,0 11.93,3.48 11.93,10.44l0 113.37 308.78 0c26.86,0 40.28,12.92 40.28,38.78l0 107.4c0,27.84 -13.42,41.76 -40.28,41.76l-462.42 0c-27.85,0 -41.76,-13.92 -41.76,-41.76l0 -308.78c0,-25.85 13.91,-38.78 41.52,-38.78l425.38 0c12.92,0 19.39,-6.96 19.39,-20.89l0 -102.93c0,-13.92 -6.47,-20.88 -19.39,-20.88l-295.36 0 0 -208.84 328.18 0c6.96,0 11.94,-2.23 14.92,-6.71 2.98,-4.47 4.47,-9.2 4.47,-14.17l0 -107.4c0,-11.94 -6.46,-17.91 -19.39,-17.91l-458.19 0c-13.92,0 -20.89,5.97 -20.89,17.91l0 413.2c-1.99,6.96 -5.97,9.94 -11.68,8.95 -5.97,-0.99 -8.95,-3.97 -8.95,-8.95l0 -413.2c0,-11.94 3.73,-21.63 11.18,-29.09 7.46,-7.46 17.65,-11.19 30.58,-11.19l457.95 0c12.93,0 22.63,3.73 29.09,11.19 6.46,7.45 9.7,17.15 9.7,29.09l0 107.4c0,26.85 -12.93,40.27 -38.78,40.27l-304.31 0 0 171.55 271.49 0c26.85,0 40.28,13.42 40.28,40.03l0 101.92c0,27.6 -13.43,41.53 -40.28,41.53l-426.63 0c-13.91,0 -20.88,5.96 -20.88,17.9l0 308.78c0,13.91 6.96,20.88 20.88,20.88l463.92 0c13.92,0 20.89,-6.96 20.89,-20.88l0 -107.4c0,-11.94 -6.96,-17.91 -20.89,-17.91zm1027.77 -498.23c0,-31.82 -6.21,-61.66 -18.64,-89.25 -12.43,-27.59 -30.08,-51.21 -52.95,-71.11 -44.75,-42.26 -105.42,-63.64 -181.99,-63.64l-335.63 0c-13.91,0 -20.88,5.97 -20.88,17.9l0 50.22c0,5.97 -3.48,8.96 -10.44,8.96 -6.96,0 -10.44,-2.99 -10.44,-8.96l0 -50.22c0,-11.93 3.48,-21.62 10.44,-28.83 6.96,-7.46 17.41,-11.19 31.32,-11.19l335.63 0c39.79,0 76.57,6.46 110.39,19.39 33.81,12.93 62.65,30.33 86.52,52.21 24.86,22.87 44.01,49.23 57.43,79.06 13.43,29.83 20.14,62.16 20.14,96.96 0,38.78 -9.45,74.59 -28.34,107.4 47.49,26.86 83.78,63.64 109.39,110.38 25.61,46.75 38.29,96.97 38.29,150.67 0,41.76 -7.22,80.55 -21.63,116.35 -14.42,35.79 -34.8,67.12 -60.91,93.97 -26.35,26.86 -57.18,47.74 -92.48,62.66 -35.06,14.92 -73.59,22.37 -115.36,22.37l-439.06 0c-27.84,0 -41.76,-13.92 -41.76,-41.76l0 -663.8c0,-13.92 3.48,-24.86 10.44,-32.82 6.96,-7.96 17.41,-11.93 31.32,-11.93l335.63 0c28.84,0 52.46,9.19 70.86,27.59 18.4,18.4 27.59,42.02 27.59,70.86 0,13.92 -2.73,26.85 -8.2,38.78 -5.47,11.93 -12.18,22.87 -20.14,32.81l-2.98 2.98 -4.47 0 -223.75 0c-13.92,0 -20.89,6.96 -20.89,20.89l0 93.98c0,13.92 6.96,20.89 20.89,20.89l241.65 0c43.76,0 77.81,12.68 102.18,38.04 24.37,25.36 36.54,58.92 36.54,100.69 0,41.77 -12.43,75.08 -37.29,99.95 -24.86,24.86 -58.67,37.29 -101.43,37.29l-241.65 0c-27.85,0 -41.77,-12.93 -41.77,-38.78l0 -134.26c0,-7.96 3.48,-11.93 10.44,-11.93 6.96,0 10.44,3.97 10.44,11.93l0 134.26c0,13.92 6.96,20.89 20.89,20.89l241.65 0c36.8,0 65.63,-10.7 86.52,-32.32 20.89,-21.38 31.33,-50.22 31.33,-86.27 0,-79.06 -39.29,-118.59 -117.85,-118.59l-241.65 0c-12.93,0 -23.13,-3.97 -30.58,-11.93 -7.46,-7.96 -11.19,-17.91 -11.19,-29.83l0 -93.98c0,-26.85 13.92,-40.28 41.77,-40.28l219.28 0c13.91,-17.15 20.88,-35.79 20.88,-55.93 0,-23.12 -7.21,-41.27 -21.62,-54.95 -14.43,-13.67 -33.56,-20.38 -57.44,-20.38l-335.63 0c-13.91,0 -20.88,6.96 -20.88,20.89l0 663.8c0,13.92 6.96,20.89 20.88,20.89l440.05 0c38.78,0 74.83,-6.96 108.15,-20.89 33.32,-13.92 62.15,-33.07 86.52,-57.43 24.37,-24.37 43.26,-53.46 56.68,-87.26 13.43,-33.82 20.14,-70.11 20.14,-108.9 0,-53.7 -12.92,-102.18 -38.78,-145.44 -25.85,-43.26 -62.15,-77.82 -108.89,-103.68l-11.94 -4.47c11.94,-18.9 21.13,-37.04 27.59,-54.45 6.47,-17.41 9.7,-37.54 9.7,-60.42zm720.48 498.23l-320.71 0 -11.94 0 1.49 -13.42 -1.49 -120.82c0,-6.96 3.98,-10.44 11.94,-10.44 7.96,0 11.93,3.48 11.93,10.44l0 113.37 308.78 0c26.86,0 40.28,12.92 40.28,38.78l0 107.4c0,27.84 -13.42,41.76 -40.28,41.76l-462.42 0c-27.85,0 -41.76,-13.92 -41.76,-41.76l0 -308.78c0,-25.85 13.91,-38.78 41.52,-38.78l425.38 0c12.92,0 19.39,-6.96 19.39,-20.89l0 -102.93c0,-13.92 -6.47,-20.88 -19.39,-20.88l-295.36 0 0 -208.84 328.18 0c6.96,0 11.94,-2.23 14.92,-6.71 2.98,-4.47 4.47,-9.2 4.47,-14.17l0 -107.4c0,-11.94 -6.46,-17.91 -19.39,-17.91l-458.19 0c-13.92,0 -20.89,5.97 -20.89,17.91l0 413.2c-1.99,6.96 -5.97,9.94 -11.68,8.95 -5.97,-0.99 -8.95,-3.97 -8.95,-8.95l0 -413.2c0,-11.94 3.73,-21.63 11.18,-29.09 7.46,-7.46 17.65,-11.19 30.58,-11.19l457.95 0c12.93,0 22.63,3.73 29.09,11.19 6.46,7.45 9.7,17.15 9.7,29.09l0 107.4c0,26.85 -12.93,40.27 -38.78,40.27l-304.31 0 0 171.55 271.49 0c26.85,0 40.28,13.42 40.28,40.03l0 101.92c0,27.6 -13.43,41.53 -40.28,41.53l-426.63 0c-13.91,0 -20.88,5.96 -20.88,17.9l0 308.78c0,13.91 6.96,20.88 20.88,20.88l463.92 0c13.92,0 20.89,-6.96 20.89,-20.88l0 -107.4c0,-11.94 -6.96,-17.91 -20.89,-17.91zm587.73 131.27c45.74,-19.88 80.55,-48.48 104.41,-85.77 23.87,-37.29 35.8,-81.29 35.8,-132.02 0,-42.77 -8.21,-78.31 -24.61,-106.65 -16.41,-28.34 -37.3,-52.46 -62.65,-72.35 -25.36,-19.89 -53.7,-36.55 -85.03,-49.97 -31.32,-13.42 -61.9,-26.11 -91.74,-38.04 -21.88,-6.96 -44.75,-14.92 -68.62,-23.87 -23.87,-8.95 -44.25,-19.89 -61.15,-32.82 -22.87,-16.9 -37.54,-35.79 -44.01,-56.68 -6.47,-20.89 -5.72,-40.52 2.23,-58.92 7.96,-18.4 22.38,-33.81 43.26,-46.24 20.89,-12.43 46.25,-18.65 76.08,-18.65 34.8,0 64.13,7.22 88.01,21.63 23.87,14.42 39.78,39.53 47.73,75.33 1.99,5.96 3.97,10.43 5.97,13.42 1.99,2.98 6.46,4.47 13.42,4.47l117.85 0c8.95,0 14.17,-2.49 15.66,-7.46 1.49,-4.97 2.24,-11.44 2.24,-19.39 -4.98,-37.79 -15.66,-71.6 -32.07,-101.43 -16.41,-29.83 -37.54,-54.94 -63.4,-75.32 -25.86,-20.38 -55.44,-35.8 -88.76,-46.25 -33.32,-10.44 -68.86,-15.66 -106.65,-15.66 -37.79,0 -73.35,5.48 -106.66,16.41 -33.31,10.93 -62.9,26.85 -88.75,47.73 -25.86,20.89 -46.25,46.74 -61.16,77.57 -14.92,30.83 -22.37,66.13 -22.37,105.92 0,44.74 8.2,82.04 24.61,111.88 16.4,29.83 37.79,54.69 64.14,74.58 26.35,19.89 55.44,36.55 87.26,49.97 31.82,13.42 63.14,26.11 93.97,38.04 74.59,25.86 127.54,59.67 158.87,101.43 31.32,41.77 45.99,83.54 44.01,125.31 -1.99,41.76 -18.64,79.31 -49.97,112.62 -31.32,33.31 -72.85,53.45 -124.55,60.41 -38.78,5.97 -76.33,3.98 -112.62,-5.97 -36.3,-9.94 -69.12,-25.61 -98.45,-46.98 -29.33,-21.38 -54.2,-47.73 -74.59,-79.06 -20.38,-31.32 -34.05,-65.87 -41.02,-103.67 -0.99,-6.96 -2.24,-14.92 -3.74,-23.88 -1.48,-8.95 -1.48,-16.9 0,-23.87 1.49,-6.96 4.98,-12.92 10.44,-17.9 5.47,-4.98 14.17,-7.45 26.11,-7.45l116.35 0c23.87,0 37.29,12.92 40.28,38.78 4.97,22.87 16.4,40.77 34.31,53.7 17.9,12.92 38.28,21.62 61.15,26.1 22.87,4.47 46.25,5.47 70.11,2.99 23.87,-2.49 43.76,-8.21 59.67,-17.16 4.97,-4.97 9.19,-4.72 12.68,0.75 3.48,5.47 1.74,11.19 -5.22,17.15 -18.89,9.95 -41.52,16.17 -67.87,18.65 -26.35,2.48 -52.21,0.75 -77.57,-5.22 -25.36,-5.97 -47.99,-16.41 -67.87,-31.33 -19.89,-14.92 -32.32,-35.3 -37.3,-61.15 -1.99,-7.96 -4.22,-13.68 -6.71,-17.16 -2.49,-3.48 -7.71,-5.22 -15.66,-5.22l-116.35 0c-13.92,0 -20.38,6.47 -19.39,19.39 0.99,12.93 2.98,23.87 5.97,32.82 6.96,34.8 20.14,66.62 39.53,95.46 19.39,28.84 42.76,52.95 70.1,72.35 27.35,19.39 57.93,33.32 91.74,41.77 33.82,8.45 69.12,10.19 105.92,5.22 45.75,-6.96 82.53,-25.36 110.38,-55.2 27.85,-29.83 42.26,-63.4 43.26,-100.69 0.99,-37.3 -13.42,-74.83 -43.26,-112.62 -29.83,-37.79 -79.06,-68.62 -147.68,-92.48 -31.82,-11.94 -64.39,-24.87 -97.71,-38.78 -33.31,-13.92 -63.64,-31.58 -90.99,-52.96 -27.35,-21.38 -49.72,-48.22 -67.12,-80.55 -17.41,-32.32 -26.11,-72.35 -26.11,-120.08 0,-41.77 7.96,-79.32 23.87,-112.62 15.91,-33.32 37.79,-61.41 65.64,-84.28 27.84,-22.87 59.67,-40.52 95.46,-52.95 35.8,-12.43 74.09,-18.64 114.87,-18.64 40.77,0 79.05,5.71 114.86,17.15 35.8,11.44 67.63,28.09 95.46,49.97 27.85,21.88 50.48,48.97 67.88,81.29 17.4,32.32 28.59,69.37 33.56,111.13 0.99,13.92 -1.74,25.36 -8.21,34.31 -6.46,8.96 -16.66,13.43 -30.57,13.43l-117.85 0c-11.94,0 -21.13,-3.48 -27.6,-10.44 -6.46,-6.96 -10.69,-14.92 -12.68,-23.87 -5.97,-32.82 -18.89,-54.69 -38.78,-65.64 -19.89,-10.93 -45.24,-16.41 -76.07,-16.41 -24.87,0 -45.75,4.73 -62.66,14.18 -16.9,9.44 -28.83,21.38 -35.79,35.79 -6.96,14.43 -8.21,30.08 -3.73,46.99 4.47,16.9 16.16,32.81 35.05,47.73 17.91,12.92 38.05,23.62 60.42,32.07 22.37,8.46 44.01,16.66 64.89,24.61 31.82,11.94 64.39,24.61 97.71,38.04 33.31,13.43 63.4,30.58 90.24,51.47 26.86,20.89 48.73,46.98 65.64,78.31 16.9,31.32 25.35,69.86 25.35,115.6 0,52.71 -13.17,99.2 -39.52,139.47 -26.35,40.28 -63.4,72.36 -111.14,96.22 -7.96,3.97 -13.18,2.73 -15.66,-3.74 -2.49,-6.46 -0.75,-11.18 5.22,-14.17zm750.32 -853.25l-542.98 0c-13.92,0 -20.88,5.97 -20.88,17.91l0 107.4c0,13.91 6.95,20.88 20.88,20.88l105.92 0c7.96,0 11.93,3.24 11.93,9.7 0,6.47 -3.97,9.7 -11.93,9.7l-105.92 0c-26.85,0 -40.28,-13.42 -40.28,-40.27l0 -107.4c0,-11.94 3.48,-21.63 10.44,-29.09 6.96,-7.46 16.91,-11.19 29.83,-11.19l542.98 0c12.93,0 22.63,3.73 29.09,11.19 6.46,7.45 9.7,17.15 9.7,29.09l0 107.4c0,26.85 -12.93,40.27 -38.78,40.27l-331.15 0c-10.94,0 -16.41,6.47 -16.41,19.39l0 662.32c0,13.91 5.47,20.88 16.41,20.88l114.86 0c13.92,0 20.89,-6.96 20.89,-20.88l0 -641.43c0,-5.97 3.24,-8.95 9.7,-8.95 6.46,0 9.7,2.98 9.7,8.95l0 641.43c0,27.84 -13.42,41.76 -40.28,41.76l-114.86 0c-24.86,0 -37.3,-13.92 -37.3,-41.76l0 -662.32c0,-25.85 12.44,-38.78 37.3,-38.78l331.15 0c6.96,0 12.18,-2.23 15.66,-6.71 3.48,-4.47 5.22,-9.2 5.22,-14.17l0 -107.4c0,-11.94 -6.96,-17.91 -20.89,-17.91z"/>
  <path id="elyh8pjo6xs3_2" class="fil4" d="M6835.7 1461.23c-123.9,130.1 -495.61,279.19 -495.61,279.19 0,0 -23.54,-275.48 -22.72,-292.82 8.67,-204.03 145.79,-593.08 365.93,-653.38 21.13,-5.22 42.96,-7.87 64.76,-7.87 135.51,0 250.15,100.33 268.11,234.62 26.86,159 -75.57,329.16 -180.48,440.26z"/>
  <path id="elyh8pjo6xs3_3" class="fil4" d="M3501.71 2713.64c-71.94,164.63 -370.23,431.87 -370.23,431.87 0,0 -116.34,-250.81 -121.5,-267.39 -61.63,-194.69 -65.85,-607.18 120.39,-739.14 18.07,-12.13 37.68,-22.09 58.17,-29.54 127.33,-46.35 269.38,8.72 332.19,128.77 79.62,140.23 41.57,335.16 -19.01,475.43z"/>
 </g>
</svg>
