<svg xmlns="http://www.w3.org/2000/svg" width="1400" height="400"><path d="M668,173L554,267L697,240Z" fill="rgb(250,218,193)" stroke="rgb(250,218,193)" stroke-width="1.51"/><path d="M668,173L536,129L554,267Z" fill="rgb(243,212,191)" stroke="rgb(243,212,191)" stroke-width="1.51"/><path d="M554,267L665,411L697,240Z" fill="rgb(252,192,154)" stroke="rgb(252,192,154)" stroke-width="1.51"/><path d="M536,129L438,158L554,267Z" fill="rgb(238,198,177)" stroke="rgb(238,198,177)" stroke-width="1.51"/><path d="M554,267L508,422L665,411Z" fill="rgb(251,164,115)" stroke="rgb(251,164,115)" stroke-width="1.51"/><path d="M423,330L508,422L554,267Z" fill="rgb(244,161,116)" stroke="rgb(244,161,116)" stroke-width="1.51"/><path d="M438,158L423,330L554,267Z" fill="rgb(240,185,154)" stroke="rgb(240,185,154)" stroke-width="1.51"/><path d="M664,-69L563,-66L536,129Z" fill="rgb(202,114,93)" stroke="rgb(202,114,93)" stroke-width="1.51"/><path d="M697,240L851,149L668,173Z" fill="rgb(249,225,202)" stroke="rgb(249,225,202)" stroke-width="1.51"/><path d="M896,281L851,149L697,240Z" fill="rgb(255,217,187)" stroke="rgb(255,217,187)" stroke-width="1.51"/><path d="M863,418L896,281L697,240Z" fill="rgb(255,189,143)" stroke="rgb(255,189,143)" stroke-width="1.51"/><path d="M665,411L863,418L697,240Z" fill="rgb(255,183,133)" stroke="rgb(255,183,133)" stroke-width="1.51"/><path d="M755,561L863,418L665,411Z" fill="rgb(255,167,109)" stroke="rgb(255,167,109)" stroke-width="1.51"/><path d="M536,129L378,-68L438,158Z" fill="rgb(211,132,110)" stroke="rgb(211,132,110)" stroke-width="1.51"/><path d="M664,-69L536,129L668,173Z" fill="rgb(223,160,137)" stroke="rgb(223,160,137)" stroke-width="1.51"/><path d="M851,149L664,-69L668,173Z" fill="rgb(230,172,149)" stroke="rgb(230,172,149)" stroke-width="1.51"/><path d="M423,330L369,433L508,422Z" fill="rgb(242,133,81)" stroke="rgb(242,133,81)" stroke-width="1.51"/><path d="M508,422L560,566L665,411Z" fill="rgb(253,154,100)" stroke="rgb(253,154,100)" stroke-width="1.51"/><path d="M232,281L369,433L423,330Z" fill="rgb(232,134,90)" stroke="rgb(232,134,90)" stroke-width="1.51"/><path d="M456,561L560,566L508,422Z" fill="rgb(248,143,89)" stroke="rgb(248,143,89)" stroke-width="1.51"/><path d="M438,158L232,281L423,330Z" fill="rgb(234,167,136)" stroke="rgb(234,167,136)" stroke-width="1.51"/><path d="M378,-68L305,91L438,158Z" fill="rgb(202,114,93)" stroke="rgb(202,114,93)" stroke-width="1.51"/><path d="M560,566L755,561L665,411Z" fill="rgb(255,166,112)" stroke="rgb(255,166,112)" stroke-width="1.51"/><path d="M369,433L456,561L508,422Z" fill="rgb(243,134,80)" stroke="rgb(243,134,80)" stroke-width="1.51"/><path d="M863,418L961,399L896,281Z" fill="rgb(255,164,105)" stroke="rgb(255,164,105)" stroke-width="1.51"/><path d="M1020,219L1005,131L851,149Z" fill="rgb(248,194,161)" stroke="rgb(248,194,161)" stroke-width="1.51"/><path d="M958,582L961,399L863,418Z" fill="rgb(255,151,86)" stroke="rgb(255,151,86)" stroke-width="1.51"/><path d="M563,-66L378,-68L536,129Z" fill="rgb(195,100,80)" stroke="rgb(195,100,80)" stroke-width="1.51"/><path d="M510,-173L378,-68L563,-66Z" fill="rgb(195,99,79)" stroke="rgb(195,99,79)" stroke-width="1.51"/><path d="M369,433L241,531L456,561Z" fill="rgb(235,120,68)" stroke="rgb(235,120,68)" stroke-width="1.51"/><path d="M305,91L232,281L438,158Z" fill="rgb(227,166,144)" stroke="rgb(227,166,144)" stroke-width="1.51"/><path d="M1020,219L851,149L896,281Z" fill="rgb(255,210,176)" stroke="rgb(255,210,176)" stroke-width="1.51"/><path d="M851,149L882,-77L664,-69Z" fill="rgb(211,122,97)" stroke="rgb(211,122,97)" stroke-width="1.51"/><path d="M961,399L1020,219L896,281Z" fill="rgb(255,181,130)" stroke="rgb(255,181,130)" stroke-width="1.51"/><path d="M969,5L882,-77L851,149Z" fill="rgb(215,126,96)" stroke="rgb(215,126,96)" stroke-width="1.51"/><path d="M690,-207L510,-173L563,-66Z" fill="rgb(202,114,93)" stroke="rgb(202,114,93)" stroke-width="1.51"/><path d="M560,566L844,575L755,561Z" fill="rgb(255,171,115)" stroke="rgb(255,171,115)" stroke-width="1.51"/><path d="M755,561L844,575L863,418Z" fill="rgb(255,162,101)" stroke="rgb(255,162,101)" stroke-width="1.51"/><path d="M1005,131L969,5L851,149Z" fill="rgb(232,159,125)" stroke="rgb(232,159,125)" stroke-width="1.51"/><path d="M690,-207L563,-66L664,-69Z" fill="rgb(206,122,101)" stroke="rgb(206,122,101)" stroke-width="1.51"/><path d="M232,281L251,444L369,433Z" fill="rgb(229,113,64)" stroke="rgb(229,113,64)" stroke-width="1.51"/><path d="M813,-181L690,-207L664,-69Z" fill="rgb(211,129,106)" stroke="rgb(211,129,106)" stroke-width="1.51"/><path d="M1017,-232L813,-181L882,-77Z" fill="rgb(208,113,83)" stroke="rgb(208,113,83)" stroke-width="1.51"/><path d="M882,-77L813,-181L664,-69Z" fill="rgb(210,123,98)" stroke="rgb(210,123,98)" stroke-width="1.51"/><path d="M209,-135L268,-59L378,-68Z" fill="rgb(178,68,53)" stroke="rgb(178,68,53)" stroke-width="1.51"/><path d="M378,-68L268,-59L305,91Z" fill="rgb(181,73,57)" stroke="rgb(181,73,57)" stroke-width="1.51"/><path d="M95,139L140,297L232,281Z" fill="rgb(221,142,113)" stroke="rgb(221,142,113)" stroke-width="1.51"/><path d="M510,-173L439,-213L378,-68Z" fill="rgb(191,92,73)" stroke="rgb(191,92,73)" stroke-width="1.51"/><path d="M690,-207L439,-213L510,-173Z" fill="rgb(199,108,88)" stroke="rgb(199,108,88)" stroke-width="1.51"/><path d="M107,430L241,531L251,444Z" fill="rgb(222,95,46)" stroke="rgb(222,95,46)" stroke-width="1.51"/><path d="M251,444L241,531L369,433Z" fill="rgb(229,109,58)" stroke="rgb(229,109,58)" stroke-width="1.51"/><path d="M844,575L958,582L863,418Z" fill="rgb(255,155,92)" stroke="rgb(255,155,92)" stroke-width="1.51"/><path d="M1177,288L1134,122L1020,219Z" fill="rgb(255,195,152)" stroke="rgb(255,195,152)" stroke-width="1.51"/><path d="M560,566L958,582L844,575Z" fill="rgb(255,164,106)" stroke="rgb(255,164,106)" stroke-width="1.51"/><path d="M232,281L140,297L251,444Z" fill="rgb(222,117,74)" stroke="rgb(222,117,74)" stroke-width="1.51"/><path d="M95,139L232,281L305,91Z" fill="rgb(218,147,124)" stroke="rgb(218,147,124)" stroke-width="1.51"/><path d="M1005,131L1134,122L969,5Z" fill="rgb(229,145,108)" stroke="rgb(229,145,108)" stroke-width="1.51"/><path d="M969,5L1017,-232L882,-77Z" fill="rgb(207,108,76)" stroke="rgb(207,108,76)" stroke-width="1.51"/><path d="M1020,219L1134,122L1005,131Z" fill="rgb(246,181,143)" stroke="rgb(246,181,143)" stroke-width="1.51"/><path d="M1177,288L1020,219L961,399Z" fill="rgb(255,172,116)" stroke="rgb(255,172,116)" stroke-width="1.51"/><path d="M98,-53L95,139L305,91Z" fill="rgb(186,82,64)" stroke="rgb(186,82,64)" stroke-width="1.51"/><path d="M140,297L107,430L251,444Z" fill="rgb(218,93,45)" stroke="rgb(218,93,45)" stroke-width="1.51"/><path d="M-85,255L107,430L140,297Z" fill="rgb(209,98,59)" stroke="rgb(209,98,59)" stroke-width="1.51"/><path d="M268,-59L98,-53L305,91Z" fill="rgb(173,57,45)" stroke="rgb(173,57,45)" stroke-width="1.51"/><path d="M439,-213L209,-135L378,-68Z" fill="rgb(183,77,60)" stroke="rgb(183,77,60)" stroke-width="1.51"/><path d="M1136,463L1177,288L961,399Z" fill="rgb(255,142,71)" stroke="rgb(255,142,71)" stroke-width="1.51"/><path d="M958,582L1136,463L961,399Z" fill="rgb(255,143,74)" stroke="rgb(255,143,74)" stroke-width="1.51"/><path d="M958,582L1137,524L1136,463Z" fill="rgb(255,137,65)" stroke="rgb(255,137,65)" stroke-width="1.51"/><path d="M1261,430L1277,250L1177,288Z" fill="rgb(255,148,81)" stroke="rgb(255,148,81)" stroke-width="1.51"/><path d="M209,-135L98,-53L268,-59Z" fill="rgb(171,52,41)" stroke="rgb(171,52,41)" stroke-width="1.51"/><path d="M107,430L97,518L241,531Z" fill="rgb(217,87,38)" stroke="rgb(217,87,38)" stroke-width="1.51"/><path d="M241,531L-103,587L456,561Z" fill="rgb(222,95,45)" stroke="rgb(222,95,45)" stroke-width="1.51"/><path d="M-92,432L97,518L107,430Z" fill="rgb(207,68,21)" stroke="rgb(207,68,21)" stroke-width="1.51"/><path d="M1256,162L1176,-1L1134,122Z" fill="rgb(232,136,92)" stroke="rgb(232,136,92)" stroke-width="1.51"/><path d="M1134,122L1176,-1L969,5Z" fill="rgb(217,117,79)" stroke="rgb(217,117,79)" stroke-width="1.51"/><path d="M1176,-1L1017,-232L969,5Z" fill="rgb(206,99,64)" stroke="rgb(206,99,64)" stroke-width="1.51"/><path d="M813,-181L1017,-232L690,-207Z" fill="rgb(209,118,91)" stroke="rgb(209,118,91)" stroke-width="1.51"/><path d="M690,-207L1017,-232L439,-213Z" fill="rgb(211,129,107)" stroke="rgb(211,129,107)" stroke-width="1.51"/><path d="M1177,288L1256,162L1134,122Z" fill="rgb(255,186,142)" stroke="rgb(255,186,142)" stroke-width="1.51"/><path d="M1277,250L1256,162L1177,288Z" fill="rgb(255,176,124)" stroke="rgb(255,176,124)" stroke-width="1.51"/><path d="M1261,430L1177,288L1136,463Z" fill="rgb(255,129,52)" stroke="rgb(255,129,52)" stroke-width="1.51"/><path d="M209,-135L104,-187L98,-53Z" fill="rgb(166,41,34)" stroke="rgb(166,41,34)" stroke-width="1.51"/><path d="M439,-213L104,-187L209,-135Z" fill="rgb(176,62,48)" stroke="rgb(176,62,48)" stroke-width="1.51"/><path d="M1137,524L1261,430L1136,463Z" fill="rgb(255,128,50)" stroke="rgb(255,128,50)" stroke-width="1.51"/><path d="M-98,109L95,139L-77,18Z" fill="rgb(181,72,56)" stroke="rgb(181,72,56)" stroke-width="1.51"/><path d="M-98,109L-85,255L95,139Z" fill="rgb(202,114,93)" stroke="rgb(202,114,93)" stroke-width="1.51"/><path d="M95,139L-85,255L140,297Z" fill="rgb(213,129,102)" stroke="rgb(213,129,102)" stroke-width="1.51"/><path d="M1176,-1L1197,-182L1017,-232Z" fill="rgb(205,91,54)" stroke="rgb(205,91,54)" stroke-width="1.51"/><path d="M1298,-19L1197,-182L1176,-1Z" fill="rgb(204,81,41)" stroke="rgb(204,81,41)" stroke-width="1.51"/><path d="M1298,-19L1176,-1L1256,162Z" fill="rgb(218,105,62)" stroke="rgb(218,105,62)" stroke-width="1.51"/><path d="M1413,27L1298,-19L1256,162Z" fill="rgb(221,103,56)" stroke="rgb(221,103,56)" stroke-width="1.51"/><path d="M-77,18L95,139L98,-53Z" fill="rgb(168,46,36)" stroke="rgb(168,46,36)" stroke-width="1.51"/><path d="M-51,-186L-77,18L98,-53Z" fill="rgb(153,0,17)" stroke="rgb(153,0,17)" stroke-width="1.51"/><path d="M-85,255L-92,432L107,430Z" fill="rgb(203,73,30)" stroke="rgb(203,73,30)" stroke-width="1.51"/><path d="M-179,369L-92,432L-85,255Z" fill="rgb(204,81,40)" stroke="rgb(204,81,40)" stroke-width="1.51"/><path d="M1137,524L1298,602L1261,430Z" fill="rgb(255,123,41)" stroke="rgb(255,123,41)" stroke-width="1.51"/><path d="M1429,94L1256,162L1277,250Z" fill="rgb(253,163,112)" stroke="rgb(253,163,112)" stroke-width="1.51"/><path d="M1429,94L1413,27L1256,162Z" fill="rgb(233,119,68)" stroke="rgb(233,119,68)" stroke-width="1.51"/><path d="M958,582L1298,602L1137,524Z" fill="rgb(255,132,57)" stroke="rgb(255,132,57)" stroke-width="1.51"/><path d="M-245,598L1298,602L958,582Z" fill="rgb(255,168,113)" stroke="rgb(255,168,113)" stroke-width="1.51"/><path d="M-103,587L958,582L560,566Z" fill="rgb(245,138,84)" stroke="rgb(245,138,84)" stroke-width="1.51"/><path d="M-173,162L-85,255L-98,109Z" fill="rgb(204,118,97)" stroke="rgb(204,118,97)" stroke-width="1.51"/><path d="M-173,162L-159,271L-85,255Z" fill="rgb(210,122,96)" stroke="rgb(210,122,96)" stroke-width="1.51"/><path d="M-221,-8L-173,162L-98,109Z" fill="rgb(180,71,56)" stroke="rgb(180,71,56)" stroke-width="1.51"/><path d="M104,-187L-51,-186L98,-53Z" fill="rgb(158,21,23)" stroke="rgb(158,21,23)" stroke-width="1.51"/><path d="M439,-213L-51,-186L104,-187Z" fill="rgb(168,47,37)" stroke="rgb(168,47,37)" stroke-width="1.51"/><path d="M1298,-19L1317,-153L1197,-182Z" fill="rgb(204,76,35)" stroke="rgb(204,76,35)" stroke-width="1.51"/><path d="M1197,-182L1460,-207L1017,-232Z" fill="rgb(204,81,41)" stroke="rgb(204,81,41)" stroke-width="1.51"/><path d="M1413,27L1317,-153L1298,-19Z" fill="rgb(203,68,24)" stroke="rgb(203,68,24)" stroke-width="1.51"/><path d="M-221,-8L-98,109L-77,18Z" fill="rgb(166,42,34)" stroke="rgb(166,42,34)" stroke-width="1.51"/><path d="M-245,598L-103,587L-92,432Z" fill="rgb(203,61,15)" stroke="rgb(203,61,15)" stroke-width="1.51"/><path d="M-92,432L-103,587L97,518Z" fill="rgb(203,61,15)" stroke="rgb(203,61,15)" stroke-width="1.51"/><path d="M97,518L-103,587L241,531Z" fill="rgb(210,75,27)" stroke="rgb(210,75,27)" stroke-width="1.51"/><path d="M456,561L-103,587L560,566Z" fill="rgb(231,112,60)" stroke="rgb(231,112,60)" stroke-width="1.51"/><path d="M-159,271L-179,369L-85,255Z" fill="rgb(206,99,65)" stroke="rgb(206,99,65)" stroke-width="1.51"/><path d="M-173,162L-179,369L-159,271Z" fill="rgb(207,110,79)" stroke="rgb(207,110,79)" stroke-width="1.51"/><path d="M1429,94L1277,250L1466,229Z" fill="rgb(255,168,114)" stroke="rgb(255,168,114)" stroke-width="1.51"/><path d="M1466,229L1277,250L1457,410Z" fill="rgb(255,141,71)" stroke="rgb(255,141,71)" stroke-width="1.51"/><path d="M1571,0L1460,-207L1413,27Z" fill="rgb(203,61,15)" stroke="rgb(203,61,15)" stroke-width="1.51"/><path d="M1457,410L1277,250L1261,430Z" fill="rgb(255,125,46)" stroke="rgb(255,125,46)" stroke-width="1.51"/><path d="M1298,602L1457,410L1261,430Z" fill="rgb(255,112,20)" stroke="rgb(255,112,20)" stroke-width="1.51"/><path d="M-173,162L-221,-8L-179,369Z" fill="rgb(204,118,97)" stroke="rgb(204,118,97)" stroke-width="1.51"/><path d="M-226,-132L-221,-8L-77,18Z" fill="rgb(153,0,17)" stroke="rgb(153,0,17)" stroke-width="1.51"/><path d="M-51,-186L-226,-132L-77,18Z" fill="rgb(153,0,17)" stroke="rgb(153,0,17)" stroke-width="1.51"/><path d="M-179,369L-245,598L-92,432Z" fill="rgb(203,61,15)" stroke="rgb(203,61,15)" stroke-width="1.51"/><path d="M-103,587L-245,598L958,582Z" fill="rgb(222,96,46)" stroke="rgb(222,96,46)" stroke-width="1.51"/><path d="M-221,-8L-245,598L-179,369Z" fill="rgb(205,92,56)" stroke="rgb(205,92,56)" stroke-width="1.51"/><path d="M-226,-132L-245,598L-221,-8Z" fill="rgb(199,106,86)" stroke="rgb(199,106,86)" stroke-width="1.51"/><path d="M1298,602L1503,561L1457,410Z" fill="rgb(255,105,0)" stroke="rgb(255,105,0)" stroke-width="1.51"/><path d="M1457,410L1613,393L1466,229Z" fill="rgb(255,125,46)" stroke="rgb(255,125,46)" stroke-width="1.51"/><path d="M1317,-153L1460,-207L1197,-182Z" fill="rgb(203,70,27)" stroke="rgb(203,70,27)" stroke-width="1.51"/><path d="M1413,27L1460,-207L1317,-153Z" fill="rgb(203,62,15)" stroke="rgb(203,62,15)" stroke-width="1.51"/><path d="M1571,0L1413,27L1429,94Z" fill="rgb(216,86,37)" stroke="rgb(216,86,37)" stroke-width="1.51"/><path d="M1571,0L1429,94L1636,130Z" fill="rgb(227,105,54)" stroke="rgb(227,105,54)" stroke-width="1.51"/><path d="M1636,130L1429,94L1466,229Z" fill="rgb(249,146,93)" stroke="rgb(249,146,93)" stroke-width="1.51"/><path d="M1503,561L1613,393L1457,410Z" fill="rgb(255,105,0)" stroke="rgb(255,105,0)" stroke-width="1.51"/><path d="M1650,288L1636,130L1466,229Z" fill="rgb(255,167,110)" stroke="rgb(255,167,110)" stroke-width="1.51"/><path d="M1613,393L1650,288L1466,229Z" fill="rgb(255,139,67)" stroke="rgb(255,139,67)" stroke-width="1.51"/><path d="M1503,561L1617,605L1613,393Z" fill="rgb(255,105,0)" stroke="rgb(255,105,0)" stroke-width="1.51"/><path d="M1613,393L1617,605L1650,288Z" fill="rgb(255,105,0)" stroke="rgb(255,105,0)" stroke-width="1.51"/><path d="M1298,602L1617,605L1503,561Z" fill="rgb(255,105,0)" stroke="rgb(255,105,0)" stroke-width="1.51"/><path d="M-245,598L1617,605L1298,602Z" fill="rgb(255,155,92)" stroke="rgb(255,155,92)" stroke-width="1.51"/><path d="M1650,288L1625,-193L1636,130Z" fill="rgb(227,105,55)" stroke="rgb(227,105,55)" stroke-width="1.51"/><path d="M1636,130L1625,-193L1571,0Z" fill="rgb(203,61,15)" stroke="rgb(203,61,15)" stroke-width="1.51"/><path d="M1571,0L1625,-193L1460,-207Z" fill="rgb(203,61,15)" stroke="rgb(203,61,15)" stroke-width="1.51"/></svg>