<svg xmlns="http://www.w3.org/2000/svg" width="1400" height="400"><path d="M645,248L504,160L505,245Z" fill="rgb(245,207,183)" stroke="rgb(245,207,183)" stroke-width="1.51"/><path d="M505,245L535,453L645,248Z" fill="rgb(248,178,138)" stroke="rgb(248,178,138)" stroke-width="1.51"/><path d="M384,145L436,307L505,245Z" fill="rgb(239,186,159)" stroke="rgb(239,186,159)" stroke-width="1.51"/><path d="M645,248L711,80L504,160Z" fill="rgb(241,203,182)" stroke="rgb(241,203,182)" stroke-width="1.51"/><path d="M504,160L384,145L505,245Z" fill="rgb(236,190,169)" stroke="rgb(236,190,169)" stroke-width="1.51"/><path d="M389,2L384,145L504,160Z" fill="rgb(217,143,121)" stroke="rgb(217,143,121)" stroke-width="1.51"/><path d="M711,80L674,-28L504,160Z" fill="rgb(222,157,135)" stroke="rgb(222,157,135)" stroke-width="1.51"/><path d="M436,307L535,453L505,245Z" fill="rgb(244,162,118)" stroke="rgb(244,162,118)" stroke-width="1.51"/><path d="M674,-28L575,-69L504,160Z" fill="rgb(208,124,103)" stroke="rgb(208,124,103)" stroke-width="1.51"/><path d="M575,-69L389,2L504,160Z" fill="rgb(204,116,95)" stroke="rgb(204,116,95)" stroke-width="1.51"/><path d="M645,248L849,254L711,80Z" fill="rgb(251,229,207)" stroke="rgb(251,229,207)" stroke-width="1.51"/><path d="M711,80L863,17L674,-28Z" fill="rgb(216,138,114)" stroke="rgb(216,138,114)" stroke-width="1.51"/><path d="M708,449L849,254L645,248Z" fill="rgb(255,195,152)" stroke="rgb(255,195,152)" stroke-width="1.51"/><path d="M535,453L708,449L645,248Z" fill="rgb(255,167,115)" stroke="rgb(255,167,115)" stroke-width="1.51"/><path d="M849,254L859,104L711,80Z" fill="rgb(243,197,170)" stroke="rgb(243,197,170)" stroke-width="1.51"/><path d="M384,145L224,319L436,307Z" fill="rgb(233,164,133)" stroke="rgb(233,164,133)" stroke-width="1.51"/><path d="M436,307L392,473L535,453Z" fill="rgb(243,135,82)" stroke="rgb(243,135,82)" stroke-width="1.51"/><path d="M389,2L261,133L384,145Z" fill="rgb(209,126,105)" stroke="rgb(209,126,105)" stroke-width="1.51"/><path d="M535,453L688,575L708,449Z" fill="rgb(255,164,109)" stroke="rgb(255,164,109)" stroke-width="1.51"/><path d="M224,319L392,473L436,307Z" fill="rgb(234,130,83)" stroke="rgb(234,130,83)" stroke-width="1.51"/><path d="M859,104L863,17L711,80Z" fill="rgb(226,155,129)" stroke="rgb(226,155,129)" stroke-width="1.51"/><path d="M661,-166L512,-154L575,-69Z" fill="rgb(202,114,92)" stroke="rgb(202,114,92)" stroke-width="1.51"/><path d="M389,2L244,-2L261,133Z" fill="rgb(192,94,75)" stroke="rgb(192,94,75)" stroke-width="1.51"/><path d="M575,-69L512,-154L389,2Z" fill="rgb(195,100,80)" stroke="rgb(195,100,80)" stroke-width="1.51"/><path d="M661,-166L575,-69L674,-28Z" fill="rgb(206,122,100)" stroke="rgb(206,122,100)" stroke-width="1.51"/><path d="M261,133L224,319L384,145Z" fill="rgb(229,173,151)" stroke="rgb(229,173,151)" stroke-width="1.51"/><path d="M807,-177L661,-166L674,-28Z" fill="rgb(211,130,107)" stroke="rgb(211,130,107)" stroke-width="1.51"/><path d="M392,473L525,582L535,453Z" fill="rgb(246,139,86)" stroke="rgb(246,139,86)" stroke-width="1.51"/><path d="M261,133L139,148L224,319Z" fill="rgb(224,161,139)" stroke="rgb(224,161,139)" stroke-width="1.51"/><path d="M288,-126L244,-2L389,2Z" fill="rgb(180,71,56)" stroke="rgb(180,71,56)" stroke-width="1.51"/><path d="M525,582L688,575L535,453Z" fill="rgb(254,155,100)" stroke="rgb(254,155,100)" stroke-width="1.51"/><path d="M708,449L868,474L849,254Z" fill="rgb(255,165,106)" stroke="rgb(255,165,106)" stroke-width="1.51"/><path d="M219,477L371,543L392,473Z" fill="rgb(233,115,64)" stroke="rgb(233,115,64)" stroke-width="1.51"/><path d="M392,473L371,543L525,582Z" fill="rgb(241,131,78)" stroke="rgb(241,131,78)" stroke-width="1.51"/><path d="M688,575L868,474L708,449Z" fill="rgb(255,167,110)" stroke="rgb(255,167,110)" stroke-width="1.51"/><path d="M849,254L1004,296L859,104Z" fill="rgb(255,211,177)" stroke="rgb(255,211,177)" stroke-width="1.51"/><path d="M859,104L1001,73L863,17Z" fill="rgb(225,146,115)" stroke="rgb(225,146,115)" stroke-width="1.51"/><path d="M344,-173L288,-126L389,2Z" fill="rgb(183,77,60)" stroke="rgb(183,77,60)" stroke-width="1.51"/><path d="M868,474L1004,296L849,254Z" fill="rgb(255,172,118)" stroke="rgb(255,172,118)" stroke-width="1.51"/><path d="M244,-2L139,148L261,133Z" fill="rgb(199,107,87)" stroke="rgb(199,107,87)" stroke-width="1.51"/><path d="M104,-66L139,148L244,-2Z" fill="rgb(176,63,49)" stroke="rgb(176,63,49)" stroke-width="1.51"/><path d="M661,-166L344,-173L512,-154Z" fill="rgb(196,102,82)" stroke="rgb(196,102,82)" stroke-width="1.51"/><path d="M512,-154L344,-173L389,2Z" fill="rgb(189,88,70)" stroke="rgb(189,88,70)" stroke-width="1.51"/><path d="M863,17L807,-177L674,-28Z" fill="rgb(211,124,99)" stroke="rgb(211,124,99)" stroke-width="1.51"/><path d="M661,-166L807,-177L344,-173Z" fill="rgb(204,117,96)" stroke="rgb(204,117,96)" stroke-width="1.51"/><path d="M959,-176L807,-177L863,17Z" fill="rgb(209,115,86)" stroke="rgb(209,115,86)" stroke-width="1.51"/><path d="M1004,296L1001,73L859,104Z" fill="rgb(246,190,157)" stroke="rgb(246,190,157)" stroke-width="1.51"/><path d="M224,319L219,477L392,473Z" fill="rgb(228,108,57)" stroke="rgb(228,108,57)" stroke-width="1.51"/><path d="M127,391L219,477L224,319Z" fill="rgb(220,95,46)" stroke="rgb(220,95,46)" stroke-width="1.51"/><path d="M139,148L107,237L224,319Z" fill="rgb(221,143,116)" stroke="rgb(221,143,116)" stroke-width="1.51"/><path d="M1001,73L1002,-13L863,17Z" fill="rgb(214,121,89)" stroke="rgb(214,121,89)" stroke-width="1.51"/><path d="M1098,-32L1002,-13L1001,73Z" fill="rgb(208,105,71)" stroke="rgb(208,105,71)" stroke-width="1.51"/><path d="M107,237L127,391L224,319Z" fill="rgb(217,117,78)" stroke="rgb(217,117,78)" stroke-width="1.51"/><path d="M868,474L1050,479L1004,296Z" fill="rgb(255,147,80)" stroke="rgb(255,147,80)" stroke-width="1.51"/><path d="M688,575L847,610L868,474Z" fill="rgb(255,163,104)" stroke="rgb(255,163,104)" stroke-width="1.51"/><path d="M525,582L847,610L688,575Z" fill="rgb(255,170,116)" stroke="rgb(255,170,116)" stroke-width="1.51"/><path d="M525,582L206,591L847,610Z" fill="rgb(249,146,92)" stroke="rgb(249,146,92)" stroke-width="1.51"/><path d="M371,543L206,591L525,582Z" fill="rgb(236,122,69)" stroke="rgb(236,122,69)" stroke-width="1.51"/><path d="M219,477L206,591L371,543Z" fill="rgb(227,106,55)" stroke="rgb(227,106,55)" stroke-width="1.51"/><path d="M153,552L206,591L219,477Z" fill="rgb(221,94,45)" stroke="rgb(221,94,45)" stroke-width="1.51"/><path d="M1002,-13L959,-176L863,17Z" fill="rgb(207,109,78)" stroke="rgb(207,109,78)" stroke-width="1.51"/><path d="M-101,156L-89,220L107,237Z" fill="rgb(211,129,107)" stroke="rgb(211,129,107)" stroke-width="1.51"/><path d="M131,-122L104,-66L244,-2Z" fill="rgb(167,46,37)" stroke="rgb(167,46,37)" stroke-width="1.51"/><path d="M131,-122L244,-2L288,-126Z" fill="rgb(173,57,44)" stroke="rgb(173,57,44)" stroke-width="1.51"/><path d="M1031,609L1050,479L868,474Z" fill="rgb(255,146,79)" stroke="rgb(255,146,79)" stroke-width="1.51"/><path d="M1134,72L1098,-32L1001,73Z" fill="rgb(216,116,79)" stroke="rgb(216,116,79)" stroke-width="1.51"/><path d="M127,391L153,552L219,477Z" fill="rgb(219,90,41)" stroke="rgb(219,90,41)" stroke-width="1.51"/><path d="M344,-173L131,-122L288,-126Z" fill="rgb(176,62,49)" stroke="rgb(176,62,49)" stroke-width="1.51"/><path d="M1002,-13L1098,-32L959,-176Z" fill="rgb(206,102,68)" stroke="rgb(206,102,68)" stroke-width="1.51"/><path d="M1134,72L1001,73L1004,296Z" fill="rgb(244,176,138)" stroke="rgb(244,176,138)" stroke-width="1.51"/><path d="M1189,248L1134,72L1004,296Z" fill="rgb(255,197,155)" stroke="rgb(255,197,155)" stroke-width="1.51"/><path d="M1179,370L1189,248L1004,296Z" fill="rgb(255,164,105)" stroke="rgb(255,164,105)" stroke-width="1.51"/><path d="M847,610L1031,609L868,474Z" fill="rgb(255,153,88)" stroke="rgb(255,153,88)" stroke-width="1.51"/><path d="M127,391L1,412L153,552Z" fill="rgb(212,78,30)" stroke="rgb(212,78,30)" stroke-width="1.51"/><path d="M107,237L1,412L127,391Z" fill="rgb(211,95,53)" stroke="rgb(211,95,53)" stroke-width="1.51"/><path d="M-89,220L1,412L107,237Z" fill="rgb(207,103,70)" stroke="rgb(207,103,70)" stroke-width="1.51"/><path d="M1179,370L1004,296L1050,479Z" fill="rgb(255,143,74)" stroke="rgb(255,143,74)" stroke-width="1.51"/><path d="M1248,396L1179,370L1050,479Z" fill="rgb(255,129,53)" stroke="rgb(255,129,53)" stroke-width="1.51"/><path d="M1098,-32L1137,-149L959,-176Z" fill="rgb(205,98,63)" stroke="rgb(205,98,63)" stroke-width="1.51"/><path d="M1288,10L1137,-149L1098,-32Z" fill="rgb(204,86,48)" stroke="rgb(204,86,48)" stroke-width="1.51"/><path d="M1288,10L1098,-32L1134,72Z" fill="rgb(209,96,56)" stroke="rgb(209,96,56)" stroke-width="1.51"/><path d="M-101,156L139,148L104,-66Z" fill="rgb(182,74,58)" stroke="rgb(182,74,58)" stroke-width="1.51"/><path d="M-101,156L107,237L139,148Z" fill="rgb(209,128,106)" stroke="rgb(209,128,106)" stroke-width="1.51"/><path d="M1189,248L1247,229L1134,72Z" fill="rgb(254,182,137)" stroke="rgb(254,182,137)" stroke-width="1.51"/><path d="M1248,396L1247,229L1189,248Z" fill="rgb(255,159,97)" stroke="rgb(255,159,97)" stroke-width="1.51"/><path d="M-97,-81L-101,156L104,-66Z" fill="rgb(154,5,19)" stroke="rgb(154,5,19)" stroke-width="1.51"/><path d="M131,-122L-18,-132L104,-66Z" fill="rgb(160,27,26)" stroke="rgb(160,27,26)" stroke-width="1.51"/><path d="M-160,-231L-18,-132L131,-122Z" fill="rgb(153,0,17)" stroke="rgb(153,0,17)" stroke-width="1.51"/><path d="M1189,623L1248,396L1050,479Z" fill="rgb(255,129,53)" stroke="rgb(255,129,53)" stroke-width="1.51"/><path d="M1179,370L1248,396L1189,248Z" fill="rgb(255,146,78)" stroke="rgb(255,146,78)" stroke-width="1.51"/><path d="M1401,238L1301,162L1247,229Z" fill="rgb(255,177,124)" stroke="rgb(255,177,124)" stroke-width="1.51"/><path d="M1247,229L1301,162L1134,72Z" fill="rgb(247,163,117)" stroke="rgb(247,163,117)" stroke-width="1.51"/><path d="M-18,-132L-97,-81L104,-66Z" fill="rgb(153,0,17)" stroke="rgb(153,0,17)" stroke-width="1.51"/><path d="M1301,162L1288,10L1134,72Z" fill="rgb(228,124,79)" stroke="rgb(228,124,79)" stroke-width="1.51"/><path d="M-211,438L-56,587L1,412Z" fill="rgb(203,61,15)" stroke="rgb(203,61,15)" stroke-width="1.51"/><path d="M1,412L-56,587L153,552Z" fill="rgb(206,67,20)" stroke="rgb(206,67,20)" stroke-width="1.51"/><path d="M153,552L-56,587L206,591Z" fill="rgb(212,79,31)" stroke="rgb(212,79,31)" stroke-width="1.51"/><path d="M206,591L-56,587L847,610Z" fill="rgb(233,116,64)" stroke="rgb(233,116,64)" stroke-width="1.51"/><path d="M-211,438L1,412L-89,220Z" fill="rgb(204,78,38)" stroke="rgb(204,78,38)" stroke-width="1.51"/><path d="M-56,587L1189,623L847,610Z" fill="rgb(255,166,112)" stroke="rgb(255,166,112)" stroke-width="1.51"/><path d="M847,610L1189,623L1031,609Z" fill="rgb(255,143,73)" stroke="rgb(255,143,73)" stroke-width="1.51"/><path d="M1031,609L1189,623L1050,479Z" fill="rgb(255,136,64)" stroke="rgb(255,136,64)" stroke-width="1.51"/><path d="M-101,156L-230,179L-89,220Z" fill="rgb(207,123,101)" stroke="rgb(207,123,101)" stroke-width="1.51"/><path d="M-97,-81L-181,14L-101,156Z" fill="rgb(163,35,30)" stroke="rgb(163,35,30)" stroke-width="1.51"/><path d="M1137,-149L1261,-202L959,-176Z" fill="rgb(205,92,56)" stroke="rgb(205,92,56)" stroke-width="1.51"/><path d="M959,-176L1261,-202L807,-177Z" fill="rgb(206,103,70)" stroke="rgb(206,103,70)" stroke-width="1.51"/><path d="M807,-177L-160,-231L344,-173Z" fill="rgb(182,75,58)" stroke="rgb(182,75,58)" stroke-width="1.51"/><path d="M1288,10L1261,-202L1137,-149Z" fill="rgb(204,81,41)" stroke="rgb(204,81,41)" stroke-width="1.51"/><path d="M-181,14L-230,179L-101,156Z" fill="rgb(189,87,69)" stroke="rgb(189,87,69)" stroke-width="1.51"/><path d="M-230,179L-242,220L-89,220Z" fill="rgb(211,129,106)" stroke="rgb(211,129,106)" stroke-width="1.51"/><path d="M-242,220L-211,438L-89,220Z" fill="rgb(206,101,68)" stroke="rgb(206,101,68)" stroke-width="1.51"/><path d="M1288,10L1435,-151L1261,-202Z" fill="rgb(203,70,27)" stroke="rgb(203,70,27)" stroke-width="1.51"/><path d="M1301,162L1457,121L1288,10Z" fill="rgb(233,123,73)" stroke="rgb(233,123,73)" stroke-width="1.51"/><path d="M1248,396L1401,238L1247,229Z" fill="rgb(255,154,89)" stroke="rgb(255,154,89)" stroke-width="1.51"/><path d="M1450,382L1401,238L1248,396Z" fill="rgb(255,130,54)" stroke="rgb(255,130,54)" stroke-width="1.51"/><path d="M-211,438L-182,577L-56,587Z" fill="rgb(203,61,15)" stroke="rgb(203,61,15)" stroke-width="1.51"/><path d="M1189,623L1355,539L1248,396Z" fill="rgb(255,119,36)" stroke="rgb(255,119,36)" stroke-width="1.51"/><path d="M-230,179L-160,-231L-242,220Z" fill="rgb(171,53,41)" stroke="rgb(171,53,41)" stroke-width="1.51"/><path d="M-181,14L-160,-231L-230,179Z" fill="rgb(153,0,17)" stroke="rgb(153,0,17)" stroke-width="1.51"/><path d="M-97,-81L-160,-231L-181,14Z" fill="rgb(153,0,17)" stroke="rgb(153,0,17)" stroke-width="1.51"/><path d="M-18,-132L-160,-231L-97,-81Z" fill="rgb(153,0,17)" stroke="rgb(153,0,17)" stroke-width="1.51"/><path d="M344,-173L-160,-231L131,-122Z" fill="rgb(163,35,30)" stroke="rgb(163,35,30)" stroke-width="1.51"/><path d="M1261,-202L-160,-231L807,-177Z" fill="rgb(206,122,100)" stroke="rgb(206,122,100)" stroke-width="1.51"/><path d="M1401,238L1457,121L1301,162Z" fill="rgb(255,160,106)" stroke="rgb(255,160,106)" stroke-width="1.51"/><path d="M1563,219L1457,121L1401,238Z" fill="rgb(255,168,114)" stroke="rgb(255,168,114)" stroke-width="1.51"/><path d="M1355,539L1450,382L1248,396Z" fill="rgb(255,110,17)" stroke="rgb(255,110,17)" stroke-width="1.51"/><path d="M1611,170L1462,27L1457,121Z" fill="rgb(236,122,70)" stroke="rgb(236,122,70)" stroke-width="1.51"/><path d="M1457,121L1462,27L1288,10Z" fill="rgb(220,93,44)" stroke="rgb(220,93,44)" stroke-width="1.51"/><path d="M1462,27L1435,-151L1288,10Z" fill="rgb(203,62,15)" stroke="rgb(203,62,15)" stroke-width="1.51"/><path d="M1355,539L1477,535L1450,382Z" fill="rgb(255,105,0)" stroke="rgb(255,105,0)" stroke-width="1.51"/><path d="M1450,382L1563,219L1401,238Z" fill="rgb(255,147,79)" stroke="rgb(255,147,79)" stroke-width="1.51"/><path d="M1189,623L1477,535L1355,539Z" fill="rgb(255,111,19)" stroke="rgb(255,111,19)" stroke-width="1.51"/><path d="M1462,27L1614,-40L1435,-151Z" fill="rgb(203,61,15)" stroke="rgb(203,61,15)" stroke-width="1.51"/><path d="M1615,389L1563,219L1450,382Z" fill="rgb(255,130,54)" stroke="rgb(255,130,54)" stroke-width="1.51"/><path d="M1563,219L1611,170L1457,121Z" fill="rgb(255,156,102)" stroke="rgb(255,156,102)" stroke-width="1.51"/><path d="M1615,389L1611,170L1563,219Z" fill="rgb(255,153,89)" stroke="rgb(255,153,89)" stroke-width="1.51"/><path d="M1477,535L1615,389L1450,382Z" fill="rgb(255,105,0)" stroke="rgb(255,105,0)" stroke-width="1.51"/><path d="M1620,-160L1614,-40L1631,559Z" fill="rgb(241,130,77)" stroke="rgb(241,130,77)" stroke-width="1.51"/><path d="M1611,170L1614,-40L1462,27Z" fill="rgb(220,93,43)" stroke="rgb(220,93,43)" stroke-width="1.51"/><path d="M1435,-151L1620,-160L1261,-202Z" fill="rgb(203,61,15)" stroke="rgb(203,61,15)" stroke-width="1.51"/><path d="M1614,-40L1620,-160L1435,-151Z" fill="rgb(203,61,15)" stroke="rgb(203,61,15)" stroke-width="1.51"/><path d="M1631,559L1614,-40L1611,170Z" fill="rgb(255,163,104)" stroke="rgb(255,163,104)" stroke-width="1.51"/><path d="M1477,535L1631,559L1615,389Z" fill="rgb(255,105,0)" stroke="rgb(255,105,0)" stroke-width="1.51"/><path d="M1615,389L1631,559L1611,170Z" fill="rgb(255,115,28)" stroke="rgb(255,115,28)" stroke-width="1.51"/><path d="M1189,623L1631,559L1477,535Z" fill="rgb(255,105,0)" stroke="rgb(255,105,0)" stroke-width="1.51"/></svg>