<svg height="100%" width="100%" id="svg" viewBox="0 0 1440 500" xmlns="http://www.w3.org/2000/svg" class="transition duration-300 ease-in-out delay-150"><defs><linearGradient id="gradient"><stop offset="5%" stop-color="#ff690066"></stop><stop offset="95%" stop-color="#99001166"></stop></linearGradient></defs><path d="M 0,500 C 0,500 0,125 0,125 C 47.69327907263536,118.30398322851153 95.38655814527073,111.60796645702307 153,111 C 210.61344185472927,110.39203354297693 278.1470464915525,115.87211740041928 343,123 C 407.8529535084475,130.12788259958072 470.0252558885189,138.9035639412998 508,139 C 545.9747441114811,139.0964360587002 559.7519299543717,130.51362683438154 611,119 C 662.2480700456283,107.48637316561846 750.9670242939943,93.04192872117402 812,105 C 873.0329757060057,116.95807127882598 906.3799728696508,155.31865828092242 954,148 C 1001.6200271303492,140.68134171907758 1063.5130842274018,87.68343815513626 1121,89 C 1178.4869157725982,90.31656184486374 1231.5676902207422,145.94758909853246 1284,161 C 1336.4323097792578,176.05241090146754 1388.2161548896288,150.52620545073376 1440,125 C 1440,125 1440,500 1440,500 Z" stroke="none" stroke-width="0" fill="url(#gradient)" class="transition-all duration-300 ease-in-out delay-150"></path><defs><linearGradient id="gradient"><stop offset="5%" stop-color="#ff690088"></stop><stop offset="95%" stop-color="#99001188"></stop></linearGradient></defs><path d="M 0,500 C 0,500 0,250 0,250 C 56.768627450980404,271.5686274509804 113.53725490196081,293.1372549019608 158,295 C 202.4627450980392,296.8627450980392 234.6196078431372,279.01960784313724 296,272 C 357.3803921568628,264.98039215686276 447.9843137254902,268.7843137254902 504,272 C 560.0156862745098,275.2156862745098 581.443137254902,277.84313725490193 623,259 C 664.556862745098,240.15686274509807 726.243137254902,199.84313725490196 786,210 C 845.756862745098,220.15686274509804 903.58431372549,280.7843137254902 954,294 C 1004.41568627451,307.2156862745098 1047.4196078431373,273.01960784313724 1097,260 C 1146.5803921568627,246.98039215686276 1202.7372549019608,255.13725490196077 1261,257 C 1319.2627450980392,258.8627450980392 1379.6313725490195,254.4313725490196 1440,250 C 1440,250 1440,500 1440,500 Z" stroke="none" stroke-width="0" fill="url(#gradient)" class="transition-all duration-300 ease-in-out delay-150"></path><defs><linearGradient id="gradient"><stop offset="5%" stop-color="#ff6900ff"></stop><stop offset="95%" stop-color="#990011ff"></stop></linearGradient></defs><path d="M 0,500 C 0,500 0,375 0,375 C 43.67206807251202,391.51212233321 87.34413614502404,408.02424466642003 135,418 C 182.65586385497596,427.97575533357997 234.29552349241584,431.41514366752995 290,416 C 345.70447650758416,400.58485633247005 405.47376988531266,366.31518066346035 458,351 C 510.52623011468734,335.68481933653965 555.8093969663337,339.3241336786287 615,346 C 674.1906030336663,352.6758663213713 747.2886422493525,362.38828462202497 809,377 C 870.7113577506475,391.61171537797503 921.036034036256,411.1227278332716 968,399 C 1014.963965963744,386.8772721667284 1058.5672216056234,343.1208040448884 1104,342 C 1149.4327783943766,340.8791959551116 1196.6950795412506,382.3940559871747 1253,395 C 1309.3049204587494,407.6059440128253 1374.6524602293748,391.3029720064127 1440,375 C 1440,375 1440,500 1440,500 Z" stroke="none" stroke-width="0" fill="url(#gradient)" class="transition-all duration-300 ease-in-out delay-150"></path></svg>