<svg height="100%" width="100%" id="svg" viewBox="0 0 1440 500" xmlns="http://www.w3.org/2000/svg" class="transition duration-300 ease-in-out delay-150"><defs><linearGradient id="gradient"><stop offset="5%" stop-color="#99001166"></stop><stop offset="95%" stop-color="#ff690066"></stop></linearGradient></defs><path d="M 0,500 C 0,500 0,125 0,125 C 71.498454139471,125.02198557196839 142.996908278942,125.04397114393677 220,136 C 297.003091721058,146.95602885606323 379.51082102370316,168.84610099622122 442,165 C 504.48917897629684,161.15389900377878 546.9598076262453,131.5716248711783 603,118 C 659.0401923737547,104.42837512882171 728.6499484713157,106.8673995190656 808,124 C 887.3500515286843,141.1326004809344 976.4403984884918,172.95877705255927 1047,166 C 1117.5596015115082,159.04122294744073 1169.5884575747166,113.29749227069735 1232,100 C 1294.4115424252834,86.70250772930265 1367.2057712126416,105.85125386465133 1440,125 C 1440,125 1440,500 1440,500 Z" stroke="none" stroke-width="0" fill="url(#gradient)" class="transition-all duration-300 ease-in-out delay-150"></path><defs><linearGradient id="gradient"><stop offset="5%" stop-color="#99001188"></stop><stop offset="95%" stop-color="#ff690088"></stop></linearGradient></defs><path d="M 0,500 C 0,500 0,250 0,250 C 69.41944349020955,239.42631398144965 138.8388869804191,228.85262796289933 203,236 C 267.1611130195809,243.14737203710067 326.0638955685331,268.0158021298523 394,272 C 461.9361044314669,275.9841978701477 538.9055307454483,259.08416351769154 602,256 C 665.0944692545517,252.9158364823085 714.3139814496737,263.6475437993817 791,271 C 867.6860185503263,278.3524562006183 971.838543455857,282.32566128478186 1041,278 C 1110.161456544143,273.67433871521814 1144.331844726898,261.0498110614909 1205,255 C 1265.668155273102,248.95018893850911 1352.834077636551,249.47509446925454 1440,250 C 1440,250 1440,500 1440,500 Z" stroke="none" stroke-width="0" fill="url(#gradient)" class="transition-all duration-300 ease-in-out delay-150"></path><defs><linearGradient id="gradient"><stop offset="5%" stop-color="#990011ff"></stop><stop offset="95%" stop-color="#ff6900ff"></stop></linearGradient></defs><path d="M 0,500 C 0,500 0,375 0,375 C 83.79045001717623,358.75953280659564 167.58090003435245,342.51906561319134 225,329 C 282.41909996564755,315.48093438680866 313.4668498797664,304.6832703538303 383,328 C 452.5331501202336,351.3167296461697 560.5517004465821,408.7478529714874 632,419 C 703.4482995534179,429.2521470285126 738.3263483339057,392.3253177602199 809,377 C 879.6736516660943,361.6746822397801 986.1429062177949,367.95087598763314 1057,364 C 1127.857093782205,360.04912401236686 1163.1020267949157,345.87117828924767 1221,346 C 1278.8979732050843,346.12882171075233 1359.4489866025422,360.5644108553762 1440,375 C 1440,375 1440,500 1440,500 Z" stroke="none" stroke-width="0" fill="url(#gradient)" class="transition-all duration-300 ease-in-out delay-150"></path></svg>